<?xml version="1.0" encoding="UTF-8" standalone="no"?>
<!-- Generator: Adobe Illustrator 9.0, SVG Export Plug-In  -->
<svg
   xmlns:svg="http://www.w3.org/2000/svg"
   xmlns="http://www.w3.org/2000/svg"
   xmlns:xlink="http://www.w3.org/1999/xlink"
   xmlns:sodipodi="http://sodipodi.sourceforge.net/DTD/sodipodi-0.dtd"
   xmlns:inkscape="http://www.inkscape.org/namespaces/inkscape"
   width="144pt"
   height="144pt"
   viewBox="0 0 144 144"
   xml:space="preserve"
   id="svg40225"
   sodipodi:version="0.32"
   inkscape:version="0.46"
   sodipodi:docname="konqueror.svg"
   inkscape:output_extension="org.inkscape.output.svg.inkscape"><defs
     id="defs40642"><inkscape:perspective
   sodipodi:type="inkscape:persp3d"
   inkscape:vp_x="0 : 90 : 1"
   inkscape:vp_y="0 : 1000 : 0"
   inkscape:vp_z="180 : 90 : 1"
   inkscape:persp3d-origin="90 : 60 : 1"
   id="perspective40646" />
		
		
	<radialGradient
   inkscape:collect="always"
   xlink:href="#aigrd1"
   id="radialGradient40874"
   gradientUnits="userSpaceOnUse"
   gradientTransform="matrix(1.0203,0,0,0.9713,-32.3161,104.4569)"
   cx="71.754898"
   cy="-65.268997"
   fx="71.754898"
   fy="-65.268997"
   r="81.755997" /><radialGradient
   inkscape:collect="always"
   xlink:href="#aigrd2"
   id="radialGradient40876"
   gradientUnits="userSpaceOnUse"
   gradientTransform="matrix(1.0203,0,0,0.9713,-32.3161,104.4569)"
   cx="103.0068"
   cy="-11.7397"
   fx="103.0068"
   fy="-11.7397"
   r="57.695099" /><radialGradient
   inkscape:collect="always"
   xlink:href="#aigrd3"
   id="radialGradient40878"
   gradientUnits="userSpaceOnUse"
   cx="66.016602"
   cy="39.6133"
   fx="66.016602"
   fy="39.6133"
   r="47.685398" /><radialGradient
   inkscape:collect="always"
   xlink:href="#aigrd4"
   id="radialGradient40880"
   gradientUnits="userSpaceOnUse"
   gradientTransform="matrix(1.0203,0,0,0.9713,-32.3161,104.4569)"
   cx="105.8242"
   cy="-54.6064"
   fx="105.8242"
   fy="-54.6064"
   r="73.332603" /><radialGradient
   inkscape:collect="always"
   xlink:href="#aigrd5"
   id="radialGradient40882"
   gradientUnits="userSpaceOnUse"
   gradientTransform="matrix(1.0203,0,0,0.9713,-32.3161,104.4569)"
   cx="101.376"
   cy="-73.411102"
   fx="101.376"
   fy="-73.411102"
   r="121.76" /><radialGradient
   inkscape:collect="always"
   xlink:href="#aigrd6"
   id="radialGradient40884"
   gradientUnits="userSpaceOnUse"
   gradientTransform="matrix(1.0203,0,0,0.9713,-32.3161,104.4569)"
   cx="101.374"
   cy="-73.410599"
   fx="101.374"
   fy="-73.410599"
   r="121.7756" /><radialGradient
   inkscape:collect="always"
   xlink:href="#aigrd7"
   id="radialGradient40886"
   gradientUnits="userSpaceOnUse"
   cx="71.118202"
   cy="33.152302"
   fx="71.118202"
   fy="33.152302"
   r="120.4767" /><radialGradient
   inkscape:collect="always"
   xlink:href="#aigrd8"
   id="radialGradient40888"
   gradientUnits="userSpaceOnUse"
   gradientTransform="matrix(1.0203,0,0,0.9713,-32.3161,104.4569)"
   cx="101.374"
   cy="-73.412598"
   fx="101.374"
   fy="-73.412598"
   r="121.7766" /><radialGradient
   inkscape:collect="always"
   xlink:href="#aigrd9"
   id="radialGradient40890"
   gradientUnits="userSpaceOnUse"
   gradientTransform="matrix(1.0203,0,0,0.9713,-32.3161,104.4569)"
   cx="101.375"
   cy="-73.413597"
   fx="101.375"
   fy="-73.413597"
   r="121.7797" /><radialGradient
   inkscape:collect="always"
   xlink:href="#aigrd10"
   id="radialGradient40892"
   gradientUnits="userSpaceOnUse"
   gradientTransform="matrix(1.0203,0,0,0.9713,-32.3161,104.4569)"
   cx="101.3594"
   cy="-73.420898"
   fx="101.3594"
   fy="-73.420898"
   r="121.8263" /><radialGradient
   inkscape:collect="always"
   xlink:href="#aigrd11"
   id="radialGradient40894"
   gradientUnits="userSpaceOnUse"
   gradientTransform="matrix(1.0203,0,0,0.9713,-32.3161,104.4569)"
   cx="103.7432"
   cy="-67.258301"
   fx="103.7432"
   fy="-67.258301"
   r="35.692101" /><radialGradient
   inkscape:collect="always"
   xlink:href="#aigrd12"
   id="radialGradient40896"
   gradientUnits="userSpaceOnUse"
   gradientTransform="matrix(1.0203,0,0,0.9713,-32.3161,104.4569)"
   cx="103.6875"
   cy="-67.266602"
   fx="103.6875"
   fy="-67.266602"
   r="35.698399" /><radialGradient
   inkscape:collect="always"
   xlink:href="#aigrd13"
   id="radialGradient40898"
   gradientUnits="userSpaceOnUse"
   cx="67.879898"
   cy="36.629902"
   fx="67.879898"
   fy="36.629902"
   r="43.821899" /><radialGradient
   inkscape:collect="always"
   xlink:href="#aigrd14"
   id="radialGradient40900"
   gradientUnits="userSpaceOnUse"
   gradientTransform="matrix(1.0203,0,0,0.9713,-32.3161,104.4569)"
   cx="103.6865"
   cy="-67.257301"
   fx="103.6865"
   fy="-67.257301"
   r="35.724602" /><radialGradient
   inkscape:collect="always"
   xlink:href="#aigrd15"
   id="radialGradient40902"
   gradientUnits="userSpaceOnUse"
   gradientTransform="matrix(1.0203,0,0,0.9713,-32.3161,104.4569)"
   cx="98.201202"
   cy="-69.829102"
   fx="98.201202"
   fy="-69.829102"
   r="43.930199" /><radialGradient
   inkscape:collect="always"
   xlink:href="#aigrd16"
   id="radialGradient40904"
   gradientUnits="userSpaceOnUse"
   gradientTransform="matrix(1.0203,0,0,0.9713,-32.3161,104.4569)"
   cx="103.6855"
   cy="-67.253403"
   fx="103.6855"
   fy="-67.253403"
   r="35.734699" /><linearGradient
   inkscape:collect="always"
   xlink:href="#aigrd17"
   id="linearGradient40906"
   gradientUnits="userSpaceOnUse"
   x1="128.4834"
   y1="114.6621"
   x2="121.406"
   y2="121.7395" /><linearGradient
   inkscape:collect="always"
   xlink:href="#aigrd18"
   id="linearGradient40908"
   gradientUnits="userSpaceOnUse"
   x1="104.7617"
   y1="98.666"
   x2="138.25661"
   y2="124.5975" /><linearGradient
   inkscape:collect="always"
   xlink:href="#aigrd19"
   id="linearGradient40910"
   gradientUnits="userSpaceOnUse"
   x1="23.630899"
   y1="9.8095999"
   x2="16.554501"
   y2="16.8859" /><linearGradient
   inkscape:collect="always"
   xlink:href="#aigrd20"
   id="linearGradient40912"
   gradientUnits="userSpaceOnUse"
   x1="-0.093800001"
   y1="-6.1884999"
   x2="33.404099"
   y2="19.7453" /><linearGradient
   inkscape:collect="always"
   xlink:href="#aigrd21"
   id="linearGradient40914"
   gradientUnits="userSpaceOnUse"
   x1="-28.083"
   y1="1.5566"
   x2="122.4775"
   y2="179.00301" /><linearGradient
   inkscape:collect="always"
   xlink:href="#aigrd22"
   id="linearGradient40916"
   gradientUnits="userSpaceOnUse"
   x1="40.394501"
   y1="96.763702"
   x2="89.714401"
   y2="134.94679" /><linearGradient
   inkscape:collect="always"
   xlink:href="#aigrd23"
   id="linearGradient40918"
   gradientUnits="userSpaceOnUse"
   x1="16.2939"
   y1="53.110401"
   x2="151.1777"
   y2="213.9856" /><linearGradient
   inkscape:collect="always"
   xlink:href="#aigrd24"
   id="linearGradient40920"
   gradientUnits="userSpaceOnUse"
   x1="-32.7295"
   y1="5.5019999"
   x2="117.8273"
   y2="182.94389" /><linearGradient
   inkscape:collect="always"
   xlink:href="#aigrd25"
   id="linearGradient40922"
   gradientUnits="userSpaceOnUse"
   x1="-17.4727"
   y1="36.036098"
   x2="33.188202"
   y2="75.2575" /><linearGradient
   inkscape:collect="always"
   xlink:href="#aigrd26"
   id="linearGradient40924"
   gradientUnits="userSpaceOnUse"
   x1="11.6523"
   y1="57.0117"
   x2="146.5186"
   y2="217.8661" /><linearGradient
   inkscape:collect="always"
   xlink:href="#aigrd27"
   id="linearGradient40926"
   gradientUnits="userSpaceOnUse"
   x1="-45.7183"
   y1="16.5156"
   x2="104.8478"
   y2="193.9686" /><linearGradient
   inkscape:collect="always"
   xlink:href="#aigrd28"
   id="linearGradient40928"
   gradientUnits="userSpaceOnUse"
   x1="4.2323999"
   y1="86.015602"
   x2="46.405998"
   y2="118.6661" /><linearGradient
   inkscape:collect="always"
   xlink:href="#aigrd29"
   id="linearGradient40930"
   gradientUnits="userSpaceOnUse"
   x1="-0.7148"
   y1="67.377899"
   x2="134.1636"
   y2="228.2469" /><linearGradient
   inkscape:collect="always"
   xlink:href="#aigrd30"
   id="linearGradient40932"
   gradientUnits="userSpaceOnUse"
   x1="4.0088"
   y1="-25.6621"
   x2="154.5634"
   y2="151.7773" /><linearGradient
   inkscape:collect="always"
   xlink:href="#aigrd31"
   id="linearGradient40934"
   gradientUnits="userSpaceOnUse"
   x1="89.798798"
   y1="83.609398"
   x2="132.9068"
   y2="116.9833" /><linearGradient
   inkscape:collect="always"
   xlink:href="#aigrd32"
   id="linearGradient40936"
   gradientUnits="userSpaceOnUse"
   x1="48.421902"
   y1="26.188499"
   x2="183.29131"
   y2="187.04671" /><linearGradient
   inkscape:collect="always"
   xlink:href="#aigrd33"
   id="linearGradient40938"
   gradientUnits="userSpaceOnUse"
   x1="-2.0176001"
   y1="-20.553699"
   x2="148.53819"
   y2="156.8871" /><linearGradient
   inkscape:collect="always"
   xlink:href="#aigrd34"
   id="linearGradient40940"
   gradientUnits="userSpaceOnUse"
   x1="2.0204999"
   y1="-0.65670002"
   x2="45.126999"
   y2="32.716" /><linearGradient
   inkscape:collect="always"
   xlink:href="#aigrd35"
   id="linearGradient40942"
   gradientUnits="userSpaceOnUse"
   x1="42.288101"
   y1="31.3262"
   x2="177.1685"
   y2="192.1976" /><linearGradient
   inkscape:collect="always"
   xlink:href="#aigrd36"
   id="linearGradient40944"
   gradientUnits="userSpaceOnUse"
   x1="-9.1904001"
   y1="-14.3975"
   x2="141.2382"
   y2="162.8934" /><linearGradient
   inkscape:collect="always"
   xlink:href="#aigrd37"
   id="linearGradient40946"
   gradientUnits="userSpaceOnUse"
   x1="35.362301"
   y1="37.130901"
   x2="170.0874"
   y2="197.817" /><linearGradient
   inkscape:collect="always"
   xlink:href="#aigrd38"
   id="linearGradient40948"
   gradientUnits="userSpaceOnUse"
   x1="-39.401402"
   y1="-8.9390001"
   x2="120.3301"
   y2="114.7241" /><linearGradient
   inkscape:collect="always"
   xlink:href="#aigrd39"
   id="linearGradient40950"
   gradientUnits="userSpaceOnUse"
   x1="-25.284201"
   y1="-0.69919997"
   x2="115.9417"
   y2="108.6369" />
			
			
		<radialGradient
   inkscape:collect="always"
   xlink:href="#aigrd1"
   id="radialGradient41176"
   gradientUnits="userSpaceOnUse"
   gradientTransform="matrix(1.0203,0,0,0.9713,-32.3161,104.4569)"
   cx="71.754898"
   cy="-65.268997"
   fx="71.754898"
   fy="-65.268997"
   r="81.755997" /><radialGradient
   inkscape:collect="always"
   xlink:href="#aigrd2"
   id="radialGradient41178"
   gradientUnits="userSpaceOnUse"
   gradientTransform="matrix(1.0203,0,0,0.9713,-32.3161,104.4569)"
   cx="103.0068"
   cy="-11.7397"
   fx="103.0068"
   fy="-11.7397"
   r="57.695099" /><radialGradient
   inkscape:collect="always"
   xlink:href="#aigrd3"
   id="radialGradient41180"
   gradientUnits="userSpaceOnUse"
   cx="66.016602"
   cy="39.6133"
   fx="66.016602"
   fy="39.6133"
   r="47.685398" /><radialGradient
   inkscape:collect="always"
   xlink:href="#aigrd4"
   id="radialGradient41182"
   gradientUnits="userSpaceOnUse"
   gradientTransform="matrix(1.0203,0,0,0.9713,-32.3161,104.4569)"
   cx="105.8242"
   cy="-54.6064"
   fx="105.8242"
   fy="-54.6064"
   r="73.332603" /><radialGradient
   inkscape:collect="always"
   xlink:href="#aigrd5"
   id="radialGradient41184"
   gradientUnits="userSpaceOnUse"
   gradientTransform="matrix(1.0203,0,0,0.9713,-32.3161,104.4569)"
   cx="101.376"
   cy="-73.411102"
   fx="101.376"
   fy="-73.411102"
   r="121.76" /><radialGradient
   inkscape:collect="always"
   xlink:href="#aigrd6"
   id="radialGradient41186"
   gradientUnits="userSpaceOnUse"
   gradientTransform="matrix(1.0203,0,0,0.9713,-32.3161,104.4569)"
   cx="101.374"
   cy="-73.410599"
   fx="101.374"
   fy="-73.410599"
   r="121.7756" /><radialGradient
   inkscape:collect="always"
   xlink:href="#aigrd7"
   id="radialGradient41188"
   gradientUnits="userSpaceOnUse"
   cx="71.118202"
   cy="33.152302"
   fx="71.118202"
   fy="33.152302"
   r="120.4767" /><radialGradient
   inkscape:collect="always"
   xlink:href="#aigrd8"
   id="radialGradient41190"
   gradientUnits="userSpaceOnUse"
   gradientTransform="matrix(1.0203,0,0,0.9713,-32.3161,104.4569)"
   cx="101.374"
   cy="-73.412598"
   fx="101.374"
   fy="-73.412598"
   r="121.7766" /><radialGradient
   inkscape:collect="always"
   xlink:href="#aigrd9"
   id="radialGradient41192"
   gradientUnits="userSpaceOnUse"
   gradientTransform="matrix(1.0203,0,0,0.9713,-32.3161,104.4569)"
   cx="101.375"
   cy="-73.413597"
   fx="101.375"
   fy="-73.413597"
   r="121.7797" /><radialGradient
   inkscape:collect="always"
   xlink:href="#aigrd10"
   id="radialGradient41194"
   gradientUnits="userSpaceOnUse"
   gradientTransform="matrix(1.0203,0,0,0.9713,-32.3161,104.4569)"
   cx="101.3594"
   cy="-73.420898"
   fx="101.3594"
   fy="-73.420898"
   r="121.8263" /><radialGradient
   inkscape:collect="always"
   xlink:href="#aigrd11"
   id="radialGradient41196"
   gradientUnits="userSpaceOnUse"
   gradientTransform="matrix(1.0203,0,0,0.9713,-32.3161,104.4569)"
   cx="103.7432"
   cy="-67.258301"
   fx="103.7432"
   fy="-67.258301"
   r="35.692101" /><radialGradient
   inkscape:collect="always"
   xlink:href="#aigrd12"
   id="radialGradient41198"
   gradientUnits="userSpaceOnUse"
   gradientTransform="matrix(1.0203,0,0,0.9713,-32.3161,104.4569)"
   cx="103.6875"
   cy="-67.266602"
   fx="103.6875"
   fy="-67.266602"
   r="35.698399" /><radialGradient
   inkscape:collect="always"
   xlink:href="#aigrd13"
   id="radialGradient41200"
   gradientUnits="userSpaceOnUse"
   cx="67.879898"
   cy="36.629902"
   fx="67.879898"
   fy="36.629902"
   r="43.821899" /><radialGradient
   inkscape:collect="always"
   xlink:href="#aigrd14"
   id="radialGradient41202"
   gradientUnits="userSpaceOnUse"
   gradientTransform="matrix(1.0203,0,0,0.9713,-32.3161,104.4569)"
   cx="103.6865"
   cy="-67.257301"
   fx="103.6865"
   fy="-67.257301"
   r="35.724602" /><radialGradient
   inkscape:collect="always"
   xlink:href="#aigrd15"
   id="radialGradient41204"
   gradientUnits="userSpaceOnUse"
   gradientTransform="matrix(1.0203,0,0,0.9713,-32.3161,104.4569)"
   cx="98.201202"
   cy="-69.829102"
   fx="98.201202"
   fy="-69.829102"
   r="43.930199" /><radialGradient
   inkscape:collect="always"
   xlink:href="#aigrd16"
   id="radialGradient41206"
   gradientUnits="userSpaceOnUse"
   gradientTransform="matrix(1.0203,0,0,0.9713,-32.3161,104.4569)"
   cx="103.6855"
   cy="-67.253403"
   fx="103.6855"
   fy="-67.253403"
   r="35.734699" /><linearGradient
   inkscape:collect="always"
   xlink:href="#aigrd17"
   id="linearGradient41208"
   gradientUnits="userSpaceOnUse"
   x1="128.4834"
   y1="114.6621"
   x2="121.406"
   y2="121.7395" /><linearGradient
   inkscape:collect="always"
   xlink:href="#aigrd18"
   id="linearGradient41210"
   gradientUnits="userSpaceOnUse"
   x1="104.7617"
   y1="98.666"
   x2="138.25661"
   y2="124.5975" /><linearGradient
   inkscape:collect="always"
   xlink:href="#aigrd19"
   id="linearGradient41212"
   gradientUnits="userSpaceOnUse"
   x1="23.630899"
   y1="9.8095999"
   x2="16.554501"
   y2="16.8859" /><linearGradient
   inkscape:collect="always"
   xlink:href="#aigrd20"
   id="linearGradient41214"
   gradientUnits="userSpaceOnUse"
   x1="-0.093800001"
   y1="-6.1884999"
   x2="33.404099"
   y2="19.7453" /><linearGradient
   inkscape:collect="always"
   xlink:href="#aigrd21"
   id="linearGradient41216"
   gradientUnits="userSpaceOnUse"
   x1="-28.083"
   y1="1.5566"
   x2="122.4775"
   y2="179.00301" /><linearGradient
   inkscape:collect="always"
   xlink:href="#aigrd22"
   id="linearGradient41218"
   gradientUnits="userSpaceOnUse"
   x1="40.394501"
   y1="96.763702"
   x2="89.714401"
   y2="134.94679" /><linearGradient
   inkscape:collect="always"
   xlink:href="#aigrd23"
   id="linearGradient41220"
   gradientUnits="userSpaceOnUse"
   x1="16.2939"
   y1="53.110401"
   x2="151.1777"
   y2="213.9856" /><linearGradient
   inkscape:collect="always"
   xlink:href="#aigrd24"
   id="linearGradient41222"
   gradientUnits="userSpaceOnUse"
   x1="-32.7295"
   y1="5.5019999"
   x2="117.8273"
   y2="182.94389" /><linearGradient
   inkscape:collect="always"
   xlink:href="#aigrd25"
   id="linearGradient41224"
   gradientUnits="userSpaceOnUse"
   x1="-17.4727"
   y1="36.036098"
   x2="33.188202"
   y2="75.2575" /><linearGradient
   inkscape:collect="always"
   xlink:href="#aigrd26"
   id="linearGradient41226"
   gradientUnits="userSpaceOnUse"
   x1="11.6523"
   y1="57.0117"
   x2="146.5186"
   y2="217.8661" /><linearGradient
   inkscape:collect="always"
   xlink:href="#aigrd27"
   id="linearGradient41228"
   gradientUnits="userSpaceOnUse"
   x1="-45.7183"
   y1="16.5156"
   x2="104.8478"
   y2="193.9686" /><linearGradient
   inkscape:collect="always"
   xlink:href="#aigrd28"
   id="linearGradient41230"
   gradientUnits="userSpaceOnUse"
   x1="4.2323999"
   y1="86.015602"
   x2="46.405998"
   y2="118.6661" /><linearGradient
   inkscape:collect="always"
   xlink:href="#aigrd29"
   id="linearGradient41232"
   gradientUnits="userSpaceOnUse"
   x1="-0.7148"
   y1="67.377899"
   x2="134.1636"
   y2="228.2469" /><linearGradient
   inkscape:collect="always"
   xlink:href="#aigrd30"
   id="linearGradient41234"
   gradientUnits="userSpaceOnUse"
   x1="4.0088"
   y1="-25.6621"
   x2="154.5634"
   y2="151.7773" /><linearGradient
   inkscape:collect="always"
   xlink:href="#aigrd31"
   id="linearGradient41236"
   gradientUnits="userSpaceOnUse"
   x1="89.798798"
   y1="83.609398"
   x2="132.9068"
   y2="116.9833" /><linearGradient
   inkscape:collect="always"
   xlink:href="#aigrd32"
   id="linearGradient41238"
   gradientUnits="userSpaceOnUse"
   x1="48.421902"
   y1="26.188499"
   x2="183.29131"
   y2="187.04671" /><linearGradient
   inkscape:collect="always"
   xlink:href="#aigrd33"
   id="linearGradient41240"
   gradientUnits="userSpaceOnUse"
   x1="-2.0176001"
   y1="-20.553699"
   x2="148.53819"
   y2="156.8871" /><linearGradient
   inkscape:collect="always"
   xlink:href="#aigrd34"
   id="linearGradient41242"
   gradientUnits="userSpaceOnUse"
   x1="2.0204999"
   y1="-0.65670002"
   x2="45.126999"
   y2="32.716" /><linearGradient
   inkscape:collect="always"
   xlink:href="#aigrd35"
   id="linearGradient41244"
   gradientUnits="userSpaceOnUse"
   x1="42.288101"
   y1="31.3262"
   x2="177.1685"
   y2="192.1976" /><linearGradient
   inkscape:collect="always"
   xlink:href="#aigrd36"
   id="linearGradient41246"
   gradientUnits="userSpaceOnUse"
   x1="-9.1904001"
   y1="-14.3975"
   x2="141.2382"
   y2="162.8934" /><linearGradient
   inkscape:collect="always"
   xlink:href="#aigrd37"
   id="linearGradient41248"
   gradientUnits="userSpaceOnUse"
   x1="35.362301"
   y1="37.130901"
   x2="170.0874"
   y2="197.817" /><linearGradient
   inkscape:collect="always"
   xlink:href="#aigrd38"
   id="linearGradient41250"
   gradientUnits="userSpaceOnUse"
   x1="-39.401402"
   y1="-8.9390001"
   x2="120.3301"
   y2="114.7241" /><linearGradient
   inkscape:collect="always"
   xlink:href="#aigrd39"
   id="linearGradient41252"
   gradientUnits="userSpaceOnUse"
   x1="-25.284201"
   y1="-0.69919997"
   x2="115.9417"
   y2="108.6369" />
				
				
			<radialGradient
   inkscape:collect="always"
   xlink:href="#aigrd1"
   id="radialGradient41476"
   gradientUnits="userSpaceOnUse"
   gradientTransform="matrix(1.0203,0,0,0.9713,-32.3161,104.4569)"
   cx="71.754898"
   cy="-65.268997"
   fx="71.754898"
   fy="-65.268997"
   r="81.755997" /><radialGradient
   inkscape:collect="always"
   xlink:href="#aigrd2"
   id="radialGradient41478"
   gradientUnits="userSpaceOnUse"
   gradientTransform="matrix(1.0203,0,0,0.9713,-32.3161,104.4569)"
   cx="103.0068"
   cy="-11.7397"
   fx="103.0068"
   fy="-11.7397"
   r="57.695099" /><radialGradient
   inkscape:collect="always"
   xlink:href="#aigrd3"
   id="radialGradient41480"
   gradientUnits="userSpaceOnUse"
   cx="66.016602"
   cy="39.6133"
   fx="66.016602"
   fy="39.6133"
   r="47.685398" /><radialGradient
   inkscape:collect="always"
   xlink:href="#aigrd4"
   id="radialGradient41482"
   gradientUnits="userSpaceOnUse"
   gradientTransform="matrix(1.0203,0,0,0.9713,-32.3161,104.4569)"
   cx="105.8242"
   cy="-54.6064"
   fx="105.8242"
   fy="-54.6064"
   r="73.332603" /><radialGradient
   inkscape:collect="always"
   xlink:href="#aigrd5"
   id="radialGradient41484"
   gradientUnits="userSpaceOnUse"
   gradientTransform="matrix(1.0203,0,0,0.9713,-32.3161,104.4569)"
   cx="101.376"
   cy="-73.411102"
   fx="101.376"
   fy="-73.411102"
   r="121.76" /><radialGradient
   inkscape:collect="always"
   xlink:href="#aigrd6"
   id="radialGradient41486"
   gradientUnits="userSpaceOnUse"
   gradientTransform="matrix(1.0203,0,0,0.9713,-32.3161,104.4569)"
   cx="101.374"
   cy="-73.410599"
   fx="101.374"
   fy="-73.410599"
   r="121.7756" /><radialGradient
   inkscape:collect="always"
   xlink:href="#aigrd7"
   id="radialGradient41488"
   gradientUnits="userSpaceOnUse"
   cx="71.118202"
   cy="33.152302"
   fx="71.118202"
   fy="33.152302"
   r="120.4767" /><radialGradient
   inkscape:collect="always"
   xlink:href="#aigrd8"
   id="radialGradient41490"
   gradientUnits="userSpaceOnUse"
   gradientTransform="matrix(1.0203,0,0,0.9713,-32.3161,104.4569)"
   cx="101.374"
   cy="-73.412598"
   fx="101.374"
   fy="-73.412598"
   r="121.7766" /><radialGradient
   inkscape:collect="always"
   xlink:href="#aigrd9"
   id="radialGradient41492"
   gradientUnits="userSpaceOnUse"
   gradientTransform="matrix(1.0203,0,0,0.9713,-32.3161,104.4569)"
   cx="101.375"
   cy="-73.413597"
   fx="101.375"
   fy="-73.413597"
   r="121.7797" /><radialGradient
   inkscape:collect="always"
   xlink:href="#aigrd10"
   id="radialGradient41494"
   gradientUnits="userSpaceOnUse"
   gradientTransform="matrix(1.0203,0,0,0.9713,-32.3161,104.4569)"
   cx="101.3594"
   cy="-73.420898"
   fx="101.3594"
   fy="-73.420898"
   r="121.8263" /><radialGradient
   inkscape:collect="always"
   xlink:href="#aigrd11"
   id="radialGradient41496"
   gradientUnits="userSpaceOnUse"
   gradientTransform="matrix(1.0203,0,0,0.9713,-32.3161,104.4569)"
   cx="103.7432"
   cy="-67.258301"
   fx="103.7432"
   fy="-67.258301"
   r="35.692101" /><radialGradient
   inkscape:collect="always"
   xlink:href="#aigrd12"
   id="radialGradient41498"
   gradientUnits="userSpaceOnUse"
   gradientTransform="matrix(1.0203,0,0,0.9713,-32.3161,104.4569)"
   cx="103.6875"
   cy="-67.266602"
   fx="103.6875"
   fy="-67.266602"
   r="35.698399" /><radialGradient
   inkscape:collect="always"
   xlink:href="#aigrd13"
   id="radialGradient41500"
   gradientUnits="userSpaceOnUse"
   cx="67.879898"
   cy="36.629902"
   fx="67.879898"
   fy="36.629902"
   r="43.821899" /><radialGradient
   inkscape:collect="always"
   xlink:href="#aigrd14"
   id="radialGradient41502"
   gradientUnits="userSpaceOnUse"
   gradientTransform="matrix(1.0203,0,0,0.9713,-32.3161,104.4569)"
   cx="103.6865"
   cy="-67.257301"
   fx="103.6865"
   fy="-67.257301"
   r="35.724602" /><radialGradient
   inkscape:collect="always"
   xlink:href="#aigrd15"
   id="radialGradient41504"
   gradientUnits="userSpaceOnUse"
   gradientTransform="matrix(1.0203,0,0,0.9713,-32.3161,104.4569)"
   cx="98.201202"
   cy="-69.829102"
   fx="98.201202"
   fy="-69.829102"
   r="43.930199" /><radialGradient
   inkscape:collect="always"
   xlink:href="#aigrd16"
   id="radialGradient41506"
   gradientUnits="userSpaceOnUse"
   gradientTransform="matrix(1.0203,0,0,0.9713,-32.3161,104.4569)"
   cx="103.6855"
   cy="-67.253403"
   fx="103.6855"
   fy="-67.253403"
   r="35.734699" /></defs><sodipodi:namedview
     inkscape:window-height="667"
     inkscape:window-width="1066"
     inkscape:pageshadow="2"
     inkscape:pageopacity="0.0"
     guidetolerance="10.0"
     gridtolerance="10.0"
     objecttolerance="10.0"
     borderopacity="1.0"
     bordercolor="#666666"
     pagecolor="#ffffff"
     id="base"
     showgrid="false"
     inkscape:zoom="2.5666667"
     inkscape:cx="96.342818"
     inkscape:cy="90"
     inkscape:window-x="88"
     inkscape:window-y="116"
     inkscape:current-layer="svg40225" /><g
     style="fill-rule:nonzero;stroke-width:0;stroke-miterlimit:4"
     id="g40236"
     transform="translate(1.8701299,-2.1818182)">
					<radialGradient
   gradientUnits="userSpaceOnUse"
   gradientTransform="matrix(1.0203,0,0,0.9713,-32.3161,104.4569)"
   fy="-65.268997"
   fx="71.754898"
   r="81.755997"
   cy="-65.268997"
   cx="71.754898"
   id="aigrd1">
						<stop
   id="stop40239"
   style="stop-color:#FFFFFF"
   offset="0" />
						<stop
   id="stop40241"
   style="stop-color:#D4FFFF"
   offset="0.1685" />
						<stop
   id="stop40243"
   style="stop-color:#51A8FF"
   offset="0.7921" />
					</radialGradient>
					<path
   id="path40245"
   d="M 74.877,109.07 C 99.502,109.07 119.475,88.918 119.475,64.194 C 119.475,39.632 99.502,19.478 74.877,19.478 C 50.424,19.478 30.28,39.632 30.28,64.194 C 30.28,88.918 50.424,109.07 74.877,109.07 L 74.877,109.07 z"
   style="fill:url(#radialGradient41476);fill-rule:evenodd" />
					<radialGradient
   gradientUnits="userSpaceOnUse"
   gradientTransform="matrix(1.0203,0,0,0.9713,-32.3161,104.4569)"
   fy="-11.7397"
   fx="103.0068"
   r="57.695099"
   cy="-11.7397"
   cx="103.0068"
   id="aigrd2">
						<stop
   id="stop40248"
   style="stop-color:#FFFFFF"
   offset="0" />
						<stop
   id="stop40250"
   style="stop-color:#CCF0FF"
   offset="0.3034" />
						<stop
   id="stop40252"
   style="stop-color:#1D6CE9"
   offset="1" />
					</radialGradient>
					<path
   id="path40254"
   d="M 74.877,106.873 C 98.293,106.873 117.288,87.711 117.288,64.201 C 117.288,40.841 98.293,21.674 74.877,21.674 C 51.626,21.674 32.467,40.841 32.467,64.201 C 32.467,87.711 51.626,106.873 74.877,106.873 L 74.877,106.873 z"
   style="fill:url(#radialGradient41478);fill-rule:evenodd" />
					<path
   id="path40256"
   d="M 52.627,64.953 C 52.238,64.583 52.496,62.969 52.496,62.969 C 52.496,62.969 46.681,59.873 40.348,58.013 C 39.565,57.782 39.96,56.154 40.734,55.534 L 40.475,53.796 C 40.348,52.931 41.77,48.716 43.191,48.345 C 44.612,47.973 43.061,50.824 43.061,50.824 L 41.639,51.692 C 41.639,51.692 43.321,53.674 43.708,53.674 C 44.094,53.674 44.742,52.68 44.742,52.68 L 42.933,51.446 L 44.611,50.698 L 44.716,50.046 L 45,49.954 L 47.78,45.688 C 49.703,44.889 52.065,43.903 52.366,43.756 C 52.884,43.511 56.502,41.403 57.149,40.908 C 57.795,40.411 59.217,40.535 59.732,40.535 C 60.251,40.535 61.025,40.288 61.155,38.922 C 61.285,37.561 61.801,37.311 62.19,37.684 C 62.577,38.055 61.801,38.674 62.706,38.922 C 63.612,39.172 64.385,39.793 65.032,39.172 C 65.506,38.717 64.874,38.199 64.448,37.809 L 71.624,37.809 L 72.399,35.575 L 70.72,35.329 L 64.514,34.71 L 64.514,33.966 L 64.02,34.05 C 64.692,30.31 68.682,30.927 65.679,28.761 C 65.494,28.63 62.867,32.956 62.2,32.872 C 60.988,32.712 59.421,32.698 59.086,33.098 C 58.648,33.624 60.079,31.285 61.314,30.576 C 59.345,31.163 53.125,33.318 46.55,40.413 C 40.264,47.194 37.759,56.33 37.759,56.65 C 37.759,57.269 39.054,57.518 39.183,58.263 C 39.312,59.003 36.728,61.484 36.728,62.722 C 36.728,63.294 36.119,70.933 38.277,77.226 C 40.8,84.572 46.183,90.705 46.809,91.109 L 48.101,90.49 C 48.101,90.49 45.129,85.158 45,84.662 C 44.87,84.166 48.36,76.978 50.04,77.226 C 51.72,77.474 51.332,77.97 52.366,77.349 C 53.399,76.732 54.046,71.645 55.208,71.154 C 56.374,70.657 57.666,70.039 57.538,68.798 C 57.407,67.557 53.013,65.328 52.626,64.955 L 52.627,64.953 z M 61.932,30.371 C 61.741,30.371 61.53,30.449 61.315,30.574 C 61.821,30.423 62.06,30.371 61.932,30.371 z M 74.471,32.849 L 74.596,30.99 L 72.66,31.115 L 72.919,32.849 L 74.471,32.849 z M 80.673,28.512 L 77.184,27.27 L 77.831,29.256 L 80.673,28.512 z M 67.619,33.097 C 68.008,33.097 75.763,27.892 74.985,27.768 C 74.212,27.645 74.081,27.768 72.013,27.519 C 69.945,27.27 67.745,30.496 67.23,30.99 C 66.714,31.488 66.886,33.097 67.619,33.097 z M 88.695,79.313 C 88.695,79.313 87.818,79.549 88.818,79.909 C 89.819,80.268 93.822,74.057 93.822,74.057 L 90.444,76.205 L 88.695,79.312 L 88.695,79.313 z M 112.838,60.317 L 112.185,59.036 C 111.412,54.617 109.638,48.959 105.834,43.113 C 100.111,34.328 84.189,29.258 84.189,29.258 L 83.314,30.33 L 82.813,29.498 L 81.563,29.018 L 81.563,30.094 L 82.689,31.05 L 81.939,31.408 L 79.059,31.645 L 72.555,35.23 L 73.179,38.098 L 72.427,38.338 L 72.054,38.932 L 74.181,42.158 L 74.304,43.234 L 72.555,43.592 L 72.555,45.741 L 71.555,45.979 L 71.681,47.651 L 63.171,53.628 L 63.421,56.97 C 64.047,57.808 68.928,62.826 68.928,62.826 C 68.928,62.826 74.555,63.06 75.808,62.347 C 77.059,61.629 76.182,63.06 76.558,63.42 C 76.934,63.78 77.059,66.286 77.433,66.528 C 77.807,66.767 77.433,68.197 77.933,68.677 C 78.434,69.154 78.434,74.89 78.434,74.89 C 78.434,74.89 81.438,80.027 81.438,81.341 C 81.438,82.655 81.311,82.536 83.69,82.415 C 86.067,82.296 86.565,81.341 87.066,80.983 C 87.569,80.624 87.569,79.788 88.07,79.071 C 88.57,78.354 89.443,75.606 90.569,74.651 C 91.697,73.694 94.697,72.975 94.948,71.305 C 95.198,69.631 96.324,68.315 96.324,68.315 L 101.734,62.522 L 101.58,63.301 L 101.453,66.284 L 103.08,65.689 L 102.957,62.462 L 102.371,61.833 L 102.454,61.745 C 102.454,61.745 102.08,61.029 101.58,61.029 C 101.081,61.029 98.077,61.745 97.576,61.626 C 97.076,61.507 94.948,55.772 94.572,55.534 C 94.198,55.296 91.822,51.352 91.822,51.352 C 91.822,51.352 97.325,58.043 98.202,60.669 C 98.71,62.199 100.618,60.775 102.174,59.18 L 102.581,60.194 L 103.582,59.954 L 103.458,58.759 L 104.584,58.759 L 104.584,60.552 L 104.208,61.507 L 104.079,63.057 L 105.082,64.017 L 105.583,63.181 L 107.208,61.626 L 109.086,60.67 L 109.586,61.626 L 109.838,62.941 L 109.335,64.373 L 108.334,65.21 L 107.833,67.362 L 107.833,68.434 L 106.707,67.717 L 106.584,65.45 L 104.958,65.569 L 104.208,67.597 L 105.332,69.271 L 107.96,69.628 L 110.087,67.597 L 110.336,63.658 L 111.282,62.394 C 111.899,63.997 112.339,65.677 112.339,67.242 C 112.339,68.957 113.112,66.053 112.456,60.822 L 112.838,60.311 L 112.838,60.317 z M 81.312,48.133 L 74.558,47.893 L 77.434,45.504 L 78.936,45.504 L 81.312,47.174 L 81.312,48.133 z M 89.57,47.297 L 89.57,48.371 L 86.692,48.371 L 86.944,49.088 L 85.188,49.329 L 85.068,49.924 L 83.815,49.687 L 81.563,49.208 L 81.939,48.614 L 82.313,47.893 L 83.563,46.58 L 84.064,47.534 L 85.942,47.416 L 86.944,46.34 L 90.818,47.055 L 89.57,47.297 L 89.57,47.297 z M 89.819,45.742 L 88.317,45.98 L 88.07,44.906 L 89.941,44.668 L 90.195,43.593 L 91.572,45.028 L 89.819,45.743 L 89.819,45.742 z M 103.204,70.473 L 104.208,69.157 L 103.204,68.801 L 102.454,69.757 L 101.58,71.07 L 102.33,71.428 L 103.204,70.474 L 103.204,70.473 z M 97.076,82.895 L 96.199,83.614 L 96.324,85.407 L 97.452,85.407 L 97.452,83.852 L 98.451,82.539 L 98.451,79.791 L 97.826,79.666 L 97.076,82.895 L 97.076,82.895 z M 107.586,74.773 L 107.332,72.863 L 105.71,72.863 L 105.583,74.293 L 104.079,74.057 L 103.707,72.502 L 102.957,72.027 L 102.08,73.101 L 101.206,72.863 L 100.954,73.697 L 101.956,73.937 L 101.956,81.703 L 105.498,82.566 C 105.415,82.711 105.353,82.83 105.332,82.894 C 105.082,83.732 106.333,84.091 107.208,83.732 C 107.532,83.599 108.562,82.548 109.208,80.986 C 110.11,78.816 110.898,75.949 111.057,74.935 L 111.462,74.056 L 108.959,75.011 L 107.586,74.773 L 107.586,74.773 z"
   style="opacity:0.1;fill:#0000cf" />
					<radialGradient
   gradientUnits="userSpaceOnUse"
   fy="39.6133"
   fx="66.016602"
   r="47.685398"
   cy="39.6133"
   cx="66.016602"
   id="aigrd3">
						<stop
   id="stop40259"
   style="stop-color:#68C0FF"
   offset="0.2978" />
						<stop
   id="stop40261"
   style="stop-color:#65BCFE"
   offset="0.4282" />
						<stop
   id="stop40263"
   style="stop-color:#5DB1FA"
   offset="0.5458" />
						<stop
   id="stop40265"
   style="stop-color:#509FF3"
   offset="0.6585" />
						<stop
   id="stop40267"
   style="stop-color:#3D85EA"
   offset="0.7681" />
						<stop
   id="stop40269"
   style="stop-color:#2464DE"
   offset="0.8756" />
						<stop
   id="stop40271"
   style="stop-color:#063CCF"
   offset="0.98" />
						<stop
   id="stop40273"
   style="stop-color:#0033CC"
   offset="1" />
					</radialGradient>
					<path
   id="path40275"
   d="M 60.789,26.361 C 60.578,26.361 60.35,26.447 60.115,26.582 C 60.667,26.419 60.927,26.361 60.789,26.361 z M 74.443,29.037 L 74.582,27.03 L 72.473,27.164 L 72.754,29.037 L 74.443,29.037 z M 50.653,63.717 C 50.23,63.317 50.513,61.572 50.513,61.572 C 50.513,61.572 44.177,58.228 37.279,56.218 C 36.428,55.968 36.859,54.21 37.699,53.542 L 37.42,51.663 C 37.279,50.727 38.828,46.177 40.377,45.776 C 41.926,45.372 40.235,48.452 40.235,48.452 L 38.686,49.39 C 38.686,49.39 40.517,51.532 40.94,51.532 C 41.363,51.532 42.066,50.459 42.066,50.459 L 40.094,49.124 L 41.925,48.318 L 42.04,47.611 L 42.347,47.515 L 45.376,42.906 C 47.469,42.045 50.044,40.977 50.371,40.82 C 50.933,40.554 54.876,38.28 55.579,37.744 C 56.284,37.207 57.83,37.342 58.392,37.342 C 58.958,37.342 59.802,37.073 59.943,35.599 C 60.085,34.127 60.648,33.858 61.07,34.26 C 61.491,34.662 60.646,35.331 61.633,35.599 C 62.619,35.87 63.461,36.537 64.166,35.87 C 64.682,35.378 63.992,34.82 63.528,34.397 L 71.343,34.397 L 72.191,31.983 L 70.361,31.716 L 63.601,31.048 L 63.601,30.244 L 63.062,30.335 C 63.794,26.296 68.142,26.962 64.871,24.623 C 64.671,24.479 61.809,29.154 61.08,29.064 C 59.762,28.888 58.055,28.875 57.691,29.306 C 57.212,29.874 58.771,27.347 60.115,26.581 C 57.97,27.216 51.198,29.544 44.037,37.206 C 37.191,44.531 34.464,54.399 34.464,54.745 C 34.464,55.413 35.871,55.682 36.013,56.487 C 36.154,57.286 33.339,59.966 33.339,61.303 C 33.339,61.922 32.675,70.173 35.027,76.971 C 37.774,84.905 43.636,91.53 44.32,91.965 L 45.725,91.297 C 45.725,91.297 42.488,85.539 42.348,85.002 C 42.207,84.467 46.008,76.701 47.838,76.971 C 49.666,77.235 49.244,77.774 50.372,77.104 C 51.498,76.436 52.201,70.944 53.467,70.412 C 54.735,69.874 56.143,69.204 56.004,67.866 C 55.861,66.524 51.076,64.118 50.653,63.716 L 50.653,63.717 z M 81.199,24.354 L 77.399,23.012 L 78.104,25.157 L 81.199,24.354 z M 66.982,29.307 C 67.405,29.307 75.852,23.685 75.004,23.549 C 74.161,23.416 74.021,23.549 71.767,23.281 C 69.515,23.011 67.121,26.494 66.558,27.03 C 65.997,27.567 66.187,29.306 66.982,29.306 L 66.982,29.307 z M 105.739,69.676 L 106.832,68.256 L 105.739,67.871 L 104.922,68.904 L 103.971,70.32 L 104.785,70.71 L 105.739,69.676 L 105.739,69.676 z M 110.509,74.326 L 110.234,72.26 L 108.466,72.26 L 108.33,73.805 L 106.691,73.551 L 106.285,71.87 L 105.469,71.356 L 104.515,72.517 L 103.563,72.259 L 103.288,73.159 L 104.379,73.421 L 104.379,81.808 L 108.235,82.74 C 108.146,82.896 108.079,83.025 108.057,83.095 C 107.782,83.999 109.146,84.39 110.097,83.999 C 110.451,83.854 111.576,82.718 112.28,81.036 C 113.259,78.69 114.119,75.593 114.291,74.497 L 114.732,73.55 L 112.007,74.583 L 110.509,74.325 L 110.509,74.326 z M 116.231,58.709 L 115.521,57.324 C 114.675,52.553 112.747,46.44 108.604,40.127 C 102.371,30.636 85.03,25.16 85.03,25.16 L 84.076,26.318 L 83.53,25.419 L 82.169,24.898 L 82.169,26.06 L 83.396,27.095 L 82.579,27.482 L 79.445,27.738 L 72.358,31.61 L 73.039,34.707 L 72.222,34.968 L 71.814,35.612 L 74.132,39.093 L 74.266,40.258 L 72.359,40.643 L 72.359,42.965 L 71.271,43.223 L 71.408,45.03 L 62.14,51.485 L 62.412,55.095 C 63.094,55.998 68.409,61.42 68.409,61.42 C 68.409,61.42 74.539,61.674 75.9,60.902 C 77.263,60.129 76.31,61.673 76.719,62.063 C 77.127,62.453 77.263,65.158 77.671,65.419 C 78.08,65.676 77.671,67.224 78.217,67.741 C 78.761,68.255 78.761,74.454 78.761,74.454 C 78.761,74.454 82.032,80 82.032,81.42 C 82.032,82.84 81.895,82.711 84.486,82.584 C 87.074,82.453 87.619,81.42 88.161,81.037 C 88.709,80.646 88.709,79.744 89.253,78.969 C 89.8,78.194 90.749,75.227 91.979,74.196 C 93.206,73.161 96.475,72.387 96.748,70.583 C 97.019,68.775 98.246,67.354 98.246,67.354 L 104.138,61.094 L 103.972,61.936 L 103.833,65.159 L 105.604,64.517 L 105.47,61.031 L 104.832,60.354 L 104.923,60.256 C 104.923,60.256 104.516,59.485 103.972,59.485 C 103.425,59.485 100.155,60.256 99.612,60.13 C 99.066,60 96.749,53.806 96.34,53.55 C 95.932,53.29 93.344,49.032 93.344,49.032 C 93.344,49.032 99.338,56.26 100.291,59.095 C 100.844,60.747 102.924,59.209 104.617,57.485 L 105.062,58.581 L 106.153,58.321 L 106.014,57.032 L 107.241,57.032 L 107.241,58.968 L 106.834,60 L 106.693,61.675 L 107.783,62.71 L 108.332,61.809 L 110.099,60.13 L 112.143,59.096 L 112.69,60.13 L 112.962,61.551 L 112.416,63.097 L 111.324,64 L 110.779,66.324 L 110.779,67.482 L 109.554,66.708 L 109.417,64.258 L 107.648,64.389 L 106.831,66.579 L 108.056,68.389 L 110.915,68.775 L 113.232,66.58 L 113.505,62.325 L 114.533,60.958 C 115.206,62.69 115.683,64.507 115.683,66.196 C 115.683,68.048 116.528,64.913 115.811,59.261 L 116.229,58.709 L 116.231,58.709 z M 81.896,45.548 L 74.541,45.287 L 77.672,42.707 L 79.309,42.707 L 81.897,44.512 L 81.897,45.548 L 81.896,45.548 z M 90.888,44.643 L 90.888,45.805 L 87.755,45.805 L 88.028,46.58 L 86.121,46.841 L 85.984,47.485 L 84.621,47.227 L 82.169,46.709 L 82.578,46.064 L 82.988,45.287 L 84.347,43.869 L 84.893,44.902 L 86.937,44.773 L 88.028,43.61 L 92.249,44.384 L 90.888,44.642 L 90.888,44.643 z M 91.161,42.965 L 89.526,43.223 L 89.253,42.061 L 91.296,41.805 L 91.57,40.643 L 93.07,42.194 L 91.161,42.965 L 91.161,42.965 z M 99.064,83.096 L 98.108,83.873 L 98.245,85.807 L 99.473,85.807 L 99.473,84.133 L 100.563,82.711 L 100.563,79.744 L 99.88,79.611 L 99.065,83.095 L 99.064,83.096 z M 89.936,79.229 C 89.936,79.229 88.983,79.483 90.071,79.872 C 91.162,80.261 95.523,73.552 95.523,73.552 L 91.842,75.872 L 89.936,79.229 z M 82.52,103.959 L 81.707,103.18 L 80.07,102.918 L 79.799,103.701 L 77.62,103.441 L 77.483,102.402 L 75.849,102.402 L 74.078,103.441 L 70.946,103.441 L 70.675,102.66 L 65.636,102.139 L 64.82,102.918 L 62.778,102.402 L 62.506,100.58 L 61.553,100.447 L 60.464,102.402 L 56.787,102.269 C 57.443,102.583 62.936,105.873 71.355,106.564 C 82.521,107.468 87.834,104.742 87.834,104.742 L 87.425,104.351 L 82.522,103.958 L 82.52,103.959 z"
   style="fill:url(#radialGradient41480)" />
					<path
   id="path40277"
   d="M 39.319,49.174 C 39.314,48.981 39.298,48.789 39.298,48.594 C 39.298,47.983 39.34,47.376 39.4,46.776 C 38.309,48.276 37.455,51.057 37.562,51.766 L 37.841,53.661 C 36.998,54.335 36.57,56.109 37.421,56.36 C 38.878,56.788 40.304,57.276 41.655,57.78 C 40.374,55.368 39.577,52.781 39.362,50.084 C 39.053,49.741 38.827,49.476 38.827,49.476 L 39.318,49.175 L 39.319,49.174 z"
   style="fill:none" />
					<path
   id="path40279"
   d="M 39.363,50.083 C 39.34,49.781 39.33,49.479 39.319,49.174" />
					<path
   id="path40281"
   d="" />
					<path
   id="path40283"
   d="M 71.908,23.148 C 71.648,23.117 71.385,23.14 71.123,23.201 C 71.4,23.183 71.68,23.168 71.956,23.154 C 71.939,23.152 71.927,23.15 71.908,23.148 z" />
					<radialGradient
   gradientUnits="userSpaceOnUse"
   gradientTransform="matrix(1.0203,0,0,0.9713,-32.3161,104.4569)"
   fy="-54.6064"
   fx="105.8242"
   r="73.332603"
   cy="-54.6064"
   cx="105.8242"
   id="aigrd4">
						<stop
   id="stop40286"
   style="stop-color:#FFFFFF"
   offset="0" />
						<stop
   id="stop40288"
   style="stop-color:#CCF0FF"
   offset="0.3034" />
						<stop
   id="stop40290"
   style="stop-color:#1DB0FF"
   offset="1" />
					</radialGradient>
					<path
   id="path40292"
   d="M 39.319,49.174 L 40.377,48.528 C 40.377,48.528 42.066,45.424 40.52,45.831 C 40.137,45.931 39.757,46.285 39.401,46.776 C 39.341,47.377 39.299,47.983 39.299,48.594 C 39.299,48.789 39.315,48.981 39.32,49.174 L 39.319,49.174 z"
   style="fill:url(#radialGradient41482);fill-rule:evenodd" />
					<radialGradient
   gradientUnits="userSpaceOnUse"
   gradientTransform="matrix(1.0203,0,0,0.9713,-32.3161,104.4569)"
   fy="-73.411102"
   fx="101.376"
   r="121.76"
   cy="-73.411102"
   cx="101.376"
   id="aigrd5">
						<stop
   id="stop40295"
   style="stop-color:#FFFFFF"
   offset="0" />
						<stop
   id="stop40297"
   style="stop-color:#CCF0FF"
   offset="0.3034" />
						<stop
   id="stop40299"
   style="stop-color:#1D6CE9"
   offset="1" />
					</radialGradient>
					<path
   id="path40301"
   d="M 77.813,42.736 L 74.68,45.337 L 82.037,45.6 L 82.037,44.555 L 79.447,42.737 L 77.812,42.737 L 77.813,42.736 z"
   style="fill:url(#radialGradient41484);fill-rule:evenodd" />
					<radialGradient
   gradientUnits="userSpaceOnUse"
   gradientTransform="matrix(1.0203,0,0,0.9713,-32.3161,104.4569)"
   fy="-73.410599"
   fx="101.374"
   r="121.7756"
   cy="-73.410599"
   cx="101.374"
   id="aigrd6">
						<stop
   id="stop40304"
   style="stop-color:#FFFFFF"
   offset="0" />
						<stop
   id="stop40306"
   style="stop-color:#CCF0FF"
   offset="0.3034" />
						<stop
   id="stop40308"
   style="stop-color:#1D6CE9"
   offset="1" />
					</radialGradient>
					<path
   id="path40310"
   d="M 91.436,41.826 L 89.396,42.084 L 89.667,43.255 L 91.302,42.995 L 93.209,42.217 L 91.709,40.655 L 91.436,41.826 L 91.436,41.826 z"
   style="fill:url(#radialGradient41486);fill-rule:evenodd" />
					<radialGradient
   gradientUnits="userSpaceOnUse"
   fy="33.152302"
   fx="71.118202"
   r="120.4767"
   cy="33.152302"
   cx="71.118202"
   id="aigrd7">
						<stop
   id="stop40313"
   style="stop-color:#FFFFFF"
   offset="0" />
						<stop
   id="stop40315"
   style="stop-color:#CCF0FF"
   offset="0.3034" />
						<stop
   id="stop40317"
   style="stop-color:#1D6CE9"
   offset="1" />
					</radialGradient>
					<path
   id="path40319"
   d="M 77.813,65.637 C 77.403,65.373 77.267,62.643 76.859,62.25 C 76.452,61.859 77.403,60.299 76.042,61.081 C 74.679,61.859 68.55,61.603 68.55,61.603 C 68.55,61.603 63.235,56.136 62.553,55.226 L 62.281,51.584 L 71.548,45.077 L 71.412,43.254 L 72.5,42.994 L 72.5,40.654 L 74.406,40.264 L 74.272,39.09 L 71.955,35.578 L 72.364,34.93 L 73.18,34.668 L 72.499,31.546 L 79.584,27.643 L 82.719,27.383 L 83.536,26.992 L 82.307,25.949 L 82.307,24.779 L 83.674,25.3 L 84.218,26.208 L 85.172,25.041 C 85.172,25.041 95.985,28.486 103.604,34.647 C 98.106,28.549 89.126,24.252 78.723,23.295 L 81.341,24.227 L 78.244,25.037 L 77.646,23.204 C 76.549,23.128 75.439,23.087 74.315,23.087 C 73.522,23.087 72.738,23.112 71.955,23.151 C 74.161,23.414 74.309,23.282 75.146,23.416 C 75.994,23.553 67.546,29.22 67.122,29.22 C 66.326,29.22 66.139,27.468 66.7,26.927 C 67.196,26.448 69.126,23.654 71.122,23.198 C 56.562,24.176 44.461,31.759 40.599,41.761 C 41.64,40.199 42.828,38.641 44.177,37.185 C 51.34,29.457 58.114,27.112 60.255,26.471 C 60.489,26.338 60.72,26.25 60.929,26.25 C 61.068,26.25 60.808,26.308 60.255,26.471 C 58.913,27.244 57.353,29.793 57.832,29.219 C 58.194,28.785 59.903,28.799 61.222,28.975 C 61.951,29.067 64.812,24.354 65.011,24.498 C 68.281,26.855 63.937,26.184 63.204,30.258 L 63.741,30.164 L 63.741,30.975 L 70.503,31.649 L 72.331,31.919 L 71.486,34.353 L 63.67,34.353 C 64.133,34.78 64.823,35.341 64.308,35.837 C 63.604,36.511 62.76,35.837 61.776,35.566 C 60.789,35.296 61.634,34.621 61.214,34.216 C 60.791,33.81 60.227,34.081 60.086,35.566 C 59.943,37.054 59.101,37.323 58.537,37.323 C 57.972,37.323 56.426,37.186 55.721,37.728 C 55.018,38.267 51.076,40.562 50.514,40.83 C 50.187,40.99 47.613,42.066 45.518,42.933 L 42.489,47.581 L 42.182,47.679 L 42.067,48.391 L 40.237,49.204 L 42.208,50.552 C 42.208,50.552 41.505,51.631 41.083,51.631 C 40.808,51.631 39.94,50.722 39.364,50.082 C 39.579,52.779 40.376,55.366 41.657,57.778 C 46.708,59.658 50.655,61.757 50.655,61.757 C 50.655,61.757 50.373,63.514 50.796,63.918 C 51.218,64.323 56.005,66.749 56.146,68.104 C 56.232,68.923 55.742,69.49 55.065,69.934 C 60.605,72.621 67.229,74.193 74.318,74.193 C 75.872,74.193 77.397,74.109 78.899,73.966 C 78.878,72.28 78.785,68.381 78.359,67.976 C 77.815,67.455 78.224,65.896 77.815,65.636 L 77.813,65.637 z M 74.725,26.93 L 74.586,28.951 L 72.895,28.951 L 72.616,27.063 L 74.725,26.929 L 74.725,26.93 z"
   style="fill:url(#radialGradient41488);fill-rule:evenodd" />
					<radialGradient
   gradientUnits="userSpaceOnUse"
   gradientTransform="matrix(1.0203,0,0,0.9713,-32.3161,104.4569)"
   fy="-73.412598"
   fx="101.374"
   r="121.7766"
   cy="-73.412598"
   cx="101.374"
   id="aigrd8">
						<stop
   id="stop40322"
   style="stop-color:#FFFFFF"
   offset="0" />
						<stop
   id="stop40324"
   style="stop-color:#CCF0FF"
   offset="0.3034" />
						<stop
   id="stop40326"
   style="stop-color:#1D6CE9"
   offset="1" />
					</radialGradient>
					<path
   id="path40328"
   d="M 87.08,44.818 L 85.036,44.947 L 84.49,43.906 L 83.129,45.337 L 82.719,46.121 L 82.308,46.769 L 84.763,47.291 L 86.127,47.55 L 86.259,46.902 L 88.169,46.64 L 87.898,45.857 L 91.031,45.857 L 91.031,44.687 L 92.392,44.423 L 88.169,43.646 L 87.08,44.818 L 87.08,44.818 z"
   style="fill:url(#radialGradient41490);fill-rule:evenodd" />
					<radialGradient
   gradientUnits="userSpaceOnUse"
   gradientTransform="matrix(1.0203,0,0,0.9713,-32.3161,104.4569)"
   fy="-73.413597"
   fx="101.375"
   r="121.7797"
   cy="-73.413597"
   cx="101.375"
   id="aigrd9">
						<stop
   id="stop40331"
   style="stop-color:#FFFFFF"
   offset="0" />
						<stop
   id="stop40333"
   style="stop-color:#CCF0FF"
   offset="0.3034" />
						<stop
   id="stop40335"
   style="stop-color:#1D6CE9"
   offset="1" />
					</radialGradient>
					<path
   id="path40337"
   d="M 106.289,58.479 L 105.201,58.741 L 104.756,57.637 C 103.064,59.375 100.985,60.924 100.432,59.26 C 99.477,56.399 93.485,49.112 93.485,49.112 C 93.485,49.112 96.071,53.406 96.481,53.665 C 96.888,53.925 99.206,60.171 99.75,60.3 C 100.297,60.431 103.567,59.653 104.113,59.653 C 104.658,59.653 105.065,60.431 105.065,60.431 L 104.974,60.529 L 105.152,60.72 C 105.989,59.587 106.708,58.404 107.307,57.177 L 106.158,57.177 L 106.29,58.48 L 106.289,58.479 z"
   style="fill:url(#radialGradient41492);fill-rule:evenodd" />
					<radialGradient
   gradientUnits="userSpaceOnUse"
   gradientTransform="matrix(1.0203,0,0,0.9713,-32.3161,104.4569)"
   fy="-73.420898"
   fx="101.3594"
   r="121.8263"
   cy="-73.420898"
   cx="101.3594"
   id="aigrd10">
						<stop
   id="stop40340"
   style="stop-color:#FFFFFF"
   offset="0" />
						<stop
   id="stop40342"
   style="stop-color:#CCF0FF"
   offset="0.3034" />
						<stop
   id="stop40344"
   style="stop-color:#1D6CE9"
   offset="1" />
					</radialGradient>
					<path
   id="path40346"
   d="M 99.616,66.268 C 101.318,64.967 102.836,63.538 104.135,62.001 L 104.28,61.273 L 99.617,66.267 L 99.616,66.268 z"
   style="fill:url(#radialGradient41494);fill-rule:evenodd" />
					<radialGradient
   gradientUnits="userSpaceOnUse"
   gradientTransform="matrix(1.0203,0,0,0.9713,-32.3161,104.4569)"
   fy="-67.258301"
   fx="103.7432"
   r="35.692101"
   cy="-67.258301"
   cx="103.7432"
   id="aigrd11">
						<stop
   id="stop40349"
   style="stop-color:#FFFFFF"
   offset="0" />
						<stop
   id="stop40351"
   style="stop-color:#D4FFFF"
   offset="0.1685" />
						<stop
   id="stop40353"
   style="stop-color:#51A8FF"
   offset="0.7921" />
					</radialGradient>
					<path
   id="path40355"
   d="M 66.701,26.93 C 66.139,27.471 66.327,29.223 67.123,29.223 C 67.548,29.223 75.995,23.556 75.147,23.419 C 74.31,23.285 74.162,23.417 71.956,23.154 C 71.68,23.168 71.4,23.183 71.123,23.201 C 69.127,23.656 67.197,26.451 66.701,26.93 z"
   style="fill:url(#radialGradient41496);fill-rule:evenodd" />
					<radialGradient
   gradientUnits="userSpaceOnUse"
   gradientTransform="matrix(1.0203,0,0,0.9713,-32.3161,104.4569)"
   fy="-67.266602"
   fx="103.6875"
   r="35.698399"
   cy="-67.266602"
   cx="103.6875"
   id="aigrd12">
						<stop
   id="stop40358"
   style="stop-color:#FFFFFF"
   offset="0" />
						<stop
   id="stop40360"
   style="stop-color:#D4FFFF"
   offset="0.1685" />
						<stop
   id="stop40362"
   style="stop-color:#51A8FF"
   offset="0.7921" />
					</radialGradient>
					<path
   id="path40364"
   d="M 74.586,28.951 L 74.725,26.93 L 72.616,27.064 L 72.895,28.952 L 74.586,28.952 L 74.586,28.951 z"
   style="fill:url(#radialGradient41498);fill-rule:evenodd" />
					<radialGradient
   gradientUnits="userSpaceOnUse"
   fy="36.629902"
   fx="67.879898"
   r="43.821899"
   cy="36.629902"
   cx="67.879898"
   id="aigrd13">
						<stop
   id="stop40367"
   style="stop-color:#FFFFFF"
   offset="0" />
						<stop
   id="stop40369"
   style="stop-color:#D4FFFF"
   offset="0.1685" />
						<stop
   id="stop40371"
   style="stop-color:#51A8FF"
   offset="0.7921" />
					</radialGradient>
					<path
   id="path40373"
   d="M 103.604,34.65 C 95.985,28.489 85.172,25.044 85.172,25.044 L 84.218,26.211 L 83.674,25.303 L 82.307,24.782 L 82.307,25.952 L 83.536,26.995 L 82.719,27.386 L 79.584,27.646 L 72.499,31.549 L 73.18,34.671 L 72.364,34.933 L 71.955,35.581 L 74.272,39.093 L 74.406,40.267 L 72.5,40.657 L 72.5,42.997 L 71.412,43.257 L 71.548,45.08 L 62.281,51.587 L 62.553,55.229 C 63.235,56.139 68.55,61.606 68.55,61.606 C 68.55,61.606 74.679,61.862 76.042,61.084 C 77.403,60.302 76.452,61.862 76.859,62.253 C 77.267,62.646 77.403,65.376 77.813,65.64 C 78.222,65.9 77.813,67.458 78.357,67.98 C 78.783,68.385 78.876,72.285 78.897,73.97 C 87.004,73.193 94.238,70.386 99.616,66.271 L 104.279,61.277 L 104.134,62.005 C 104.489,61.585 104.83,61.157 105.151,60.723 L 104.973,60.532 L 105.064,60.434 C 105.064,60.434 104.657,59.656 104.112,59.656 C 103.566,59.656 100.296,60.434 99.749,60.303 C 99.205,60.174 96.888,53.928 96.48,53.668 C 96.07,53.409 93.484,49.115 93.484,49.115 C 93.484,49.115 99.476,56.402 100.431,59.263 C 100.984,60.927 103.063,59.378 104.755,57.64 L 105.2,58.744 L 106.288,58.482 L 106.156,57.179 L 107.305,57.179 C 108.615,54.495 109.335,51.607 109.335,48.597 C 109.335,43.462 107.222,38.672 103.603,34.654 L 103.604,34.65 z M 82.038,45.6 L 74.681,45.337 L 77.814,42.736 L 79.449,42.736 L 82.039,44.554 L 82.039,45.6 L 82.038,45.6 z M 91.03,44.688 L 91.03,45.858 L 87.897,45.858 L 88.168,46.641 L 86.258,46.903 L 86.126,47.551 L 84.762,47.292 L 82.307,46.77 L 82.718,46.122 L 83.128,45.338 L 84.489,43.907 L 85.035,44.948 L 87.079,44.819 L 88.168,43.647 L 92.391,44.424 L 91.03,44.688 L 91.03,44.688 z M 91.302,42.995 L 89.667,43.255 L 89.396,42.084 L 91.436,41.826 L 91.709,40.655 L 93.209,42.217 L 91.302,42.995 L 91.302,42.995 z"
   style="fill:url(#radialGradient41500);fill-rule:evenodd" />
					<radialGradient
   gradientUnits="userSpaceOnUse"
   gradientTransform="matrix(1.0203,0,0,0.9713,-32.3161,104.4569)"
   fy="-67.257301"
   fx="103.6865"
   r="35.724602"
   cy="-67.257301"
   cx="103.6865"
   id="aigrd14">
						<stop
   id="stop40376"
   style="stop-color:#FFFFFF"
   offset="0" />
						<stop
   id="stop40378"
   style="stop-color:#D4FFFF"
   offset="0.7022" />
						<stop
   id="stop40380"
   style="stop-color:#CEFCFF"
   offset="0.7446" />
						<stop
   id="stop40382"
   style="stop-color:#BDF3FF"
   offset="0.8012" />
						<stop
   id="stop40384"
   style="stop-color:#A1E5FF"
   offset="0.8659" />
						<stop
   id="stop40386"
   style="stop-color:#7BD2FF"
   offset="0.9361" />
						<stop
   id="stop40388"
   style="stop-color:#51BDFF"
   offset="1" />
					</radialGradient>
					<path
   id="path40390"
   d="M 56.145,68.104 C 56.004,66.75 51.217,64.324 50.795,63.918 C 50.372,63.514 50.654,61.757 50.654,61.757 C 50.654,61.757 46.707,59.658 41.656,57.778 C 44.306,62.769 49.039,67.012 55.063,69.933 C 55.74,69.489 56.23,68.922 56.144,68.103 L 56.145,68.104 z"
   style="fill:url(#radialGradient41502);fill-rule:evenodd" />
					<radialGradient
   gradientUnits="userSpaceOnUse"
   gradientTransform="matrix(1.0203,0,0,0.9713,-32.3161,104.4569)"
   fy="-69.829102"
   fx="98.201202"
   r="43.930199"
   cy="-69.829102"
   cx="98.201202"
   id="aigrd15">
						<stop
   id="stop40393"
   style="stop-color:#FFFFFF"
   offset="0" />
						<stop
   id="stop40395"
   style="stop-color:#D4FFFF"
   offset="0.1685" />
						<stop
   id="stop40397"
   style="stop-color:#51A8FF"
   offset="0.7921" />
					</radialGradient>
					<path
   id="path40399"
   d="M 40.52,45.83 C 42.067,45.423 40.377,48.527 40.377,48.527 L 39.319,49.173 C 39.33,49.478 39.34,49.78 39.363,50.082 C 39.939,50.722 40.806,51.631 41.082,51.631 C 41.504,51.631 42.207,50.552 42.207,50.552 L 40.236,49.204 L 42.066,48.391 L 42.181,47.679 L 42.488,47.581 L 45.517,42.933 C 47.612,42.067 50.186,40.991 50.513,40.83 C 51.076,40.562 55.017,38.267 55.72,37.728 C 56.425,37.186 57.971,37.323 58.536,37.323 C 59.099,37.323 59.942,37.054 60.085,35.566 C 60.226,34.082 60.79,33.81 61.213,34.216 C 61.633,34.62 60.787,35.296 61.775,35.566 C 62.759,35.837 63.603,36.511 64.307,35.837 C 64.823,35.341 64.132,34.779 63.669,34.353 L 71.486,34.353 L 72.331,31.919 L 70.503,31.649 L 63.741,30.975 L 63.741,30.164 L 63.204,30.258 C 63.936,26.184 68.28,26.856 65.011,24.498 C 64.812,24.353 61.95,29.066 61.222,28.975 C 59.904,28.799 58.195,28.786 57.832,29.219 C 57.353,29.793 58.913,27.244 60.255,26.471 C 58.113,27.112 51.34,29.457 44.177,37.185 C 42.827,38.641 41.64,40.2 40.599,41.761 C 39.976,43.375 39.569,45.05 39.4,46.772 C 39.756,46.281 40.136,45.926 40.519,45.827 L 40.52,45.83 z"
   style="fill:url(#radialGradient41504);fill-rule:evenodd" />
					<radialGradient
   gradientUnits="userSpaceOnUse"
   gradientTransform="matrix(1.0203,0,0,0.9713,-32.3161,104.4569)"
   fy="-67.253403"
   fx="103.6855"
   r="35.734699"
   cy="-67.253403"
   cx="103.6855"
   id="aigrd16">
						<stop
   id="stop40402"
   style="stop-color:#FFFFFF"
   offset="0" />
						<stop
   id="stop40404"
   style="stop-color:#D4FFFF"
   offset="0.1685" />
						<stop
   id="stop40406"
   style="stop-color:#51A8FF"
   offset="0.7921" />
					</radialGradient>
					<path
   id="path40408"
   d="M 81.342,24.23 L 78.724,23.298 C 78.368,23.265 78.011,23.232 77.648,23.206 L 78.246,25.039 L 81.343,24.229 L 81.342,24.23 z"
   style="fill:url(#radialGradient41506);fill-rule:evenodd" />
					<path
   id="path40410"
   d="M 60.93,26.254 C 60.721,26.254 60.491,26.342 60.256,26.475 C 60.809,26.312 61.069,26.254 60.93,26.254 z" />
				</g></svg>