<?xml version="1.0" encoding="iso-8859-1"?>
<!-- Generator: Adobe Illustrator 10.0.3, SVG Export Plug-In . SVG Version: 3.0.0 Build 77)  -->
<!DOCTYPE svg PUBLIC "-//W3C//DTD SVG 1.0//EN"    "http://www.w3.org/TR/2001/REC-SVG-20010904/DTD/svg10.dtd" [
	<!ENTITY ns_flows "http://ns.adobe.com/Flows/1.0/">
	<!ENTITY ns_svg "http://www.w3.org/2000/svg">
	<!ENTITY ns_xlink "http://www.w3.org/1999/xlink">
]>
<svg  xmlns="&ns_svg;" xmlns:xlink="&ns_xlink;" xmlns:a="http://ns.adobe.com/AdobeSVGViewerExtensions/3.0/"
	 width="128" height="128" viewBox="0 0 128 128" overflow="visible" enable-background="new 0 0 128 128" xml:space="preserve">
	<g id="Layer_1">
		<g>
			<g>
				<path fill="#FFFFFF" d="M121.164,1.052H6.836v125.896h80.701l33.627-33.627V1.052z"/>
				<linearGradient id="XMLID_1_" gradientUnits="userSpaceOnUse" x1="63.9204" y1="154.5645" x2="63.9204" y2="-100.9347">
					<stop  offset="0" style="stop-color:#FFFFFF"/>
					<stop  offset="0.258" style="stop-color:#F1F1F1"/>
					<stop  offset="0.7396" style="stop-color:#CECECE"/>
					<stop  offset="0.8595" style="stop-color:#C4C4C4"/>
					
					
					
				</linearGradient>
				<path fill="url(#XMLID_1_)" d="M117.734,4.019H10.266l-0.16,122.654h76.457l31.172-31.252V4.019z"/>
				<linearGradient id="XMLID_2_" gradientUnits="userSpaceOnUse" x1="-26.333" y1="-26.333" x2="56.1662" y2="56.1662">
					<stop  offset="0" style="stop-color:#B3B3B3"/>
					<stop  offset="1" style="stop-color:#828282"/>
					
					
					
				</linearGradient>
				<path fill="url(#XMLID_2_)" d="M121.164,0.552H6.336v126.896h81.408l33.92-33.92V0.552H121.164z M120.664,1.552
					c0,0.987,0,91.152,0,91.562c-0.289,0.289-33.045,33.045-33.334,33.334c-0.41,0-79.01,0-79.994,0c0-0.988,0-123.909,0-124.896
					C8.322,1.552,119.678,1.552,120.664,1.552z"/>
				<linearGradient id="XMLID_3_" gradientUnits="userSpaceOnUse" x1="43.0229" y1="25.4214" x2="204.0073" y2="111.0652">
					<stop  offset="0" style="stop-color:#FFFFFF"/>
					<stop  offset="0.5033" style="stop-color:#E7E7E7"/>
					<stop  offset="1" style="stop-color:#D4D4D4"/>
					
					
					
				</linearGradient>
				<path fill="url(#XMLID_3_)" d="M118.006,15.223V3.94H10.199l-0.096,65.34c9.975,4.547,21.151,7.096,32.954,7.096
					C80.402,76.376,111.455,48.876,118.006,15.223z"/>
			</g>
			<path fill="none" d="M72.158,83.212V70.529c-8.568,3.576-17.923,5.638-27.732,5.815v6.867H72.158z"/>
			<linearGradient id="XMLID_4_" gradientUnits="userSpaceOnUse" x1="28.1636" y1="53.3511" x2="189.1511" y2="138.9965">
				<stop  offset="0" style="stop-color:#FFFFFF"/>
				<stop  offset="0.5033" style="stop-color:#E7E7E7"/>
				<stop  offset="1" style="stop-color:#D4D4D4"/>
				
				
				
			</linearGradient>
			<path fill="url(#XMLID_4_)" d="M72.158,62.415H44.426v13.93c9.809-0.178,19.164-2.239,27.732-5.815V62.415z"/>
			<path fill="none" d="M87.708,76.7c0,1.687,0.434,2.943,1.303,3.771c0.867,0.828,2.185,1.241,3.949,1.241
				c2.52,0,4.32-0.41,5.398-1.233s1.618-2.393,1.618-4.709v-0.762v-8.078c-4.343,0.87-7.473,2.07-9.392,3.602
				C88.667,72.062,87.708,74.117,87.708,76.7z"/>
			<linearGradient id="XMLID_5_" gradientUnits="userSpaceOnUse" x1="-4.0225" y1="10.6514" x2="127.2984" y2="10.6514">
				<stop  offset="0" style="stop-color:#B3CAFF"/>
				<stop  offset="1" style="stop-color:#0053BD"/>
				
				
				
			</linearGradient>
			<path fill="url(#XMLID_5_)" d="M117.397,17.023H10.013V4.279h107.385V17.023z"/>
			<g>
				
					<radialGradient id="XMLID_6_" cx="59.7188" cy="128.7393" r="47.1629" fx="59.7188" fy="128.7393" gradientUnits="userSpaceOnUse">
					<stop  offset="0" style="stop-color:#B8BBDA"/>
					<stop  offset="1" style="stop-color:#0D2D7D"/>
					
					
					
				</radialGradient>
				<path fill="url(#XMLID_6_)" d="M63.928,110.319c23.064,0,41.766-18.792,41.766-41.841c0-22.905-18.701-41.696-41.766-41.696
					c-22.897,0-41.763,18.792-41.763,41.696C22.165,91.527,41.031,110.319,63.928,110.319z"/>
				
					<radialGradient id="XMLID_7_" cx="62.9478" cy="120.0986" r="36.6081" fx="62.9478" fy="120.0986" gradientTransform="matrix(1 0 0 0.9479 0 4.2796)" gradientUnits="userSpaceOnUse">
					<stop  offset="0" style="stop-color:#B8BBDA"/>
					<stop  offset="1" style="stop-color:#0D2D7D"/>
					
					
					
				</radialGradient>
				<path fill="url(#XMLID_7_)" d="M63.928,108.552c22.088,0,40.006-17.993,40.006-40.07c0-21.937-17.918-39.938-40.006-39.938
					C42,28.543,23.93,46.545,23.93,68.481C23.93,90.559,42,108.552,63.928,108.552z"/>
				<path opacity="0.36" fill-rule="evenodd" clip-rule="evenodd" d="M44.636,68.648c-0.333-0.319-0.11-1.714-0.11-1.714
					s-5.043-2.671-10.53-4.275c-0.678-0.199-0.336-1.604,0.335-2.137l-0.224-1.5c-0.112-0.749,1.121-4.387,2.35-4.704
					c1.235-0.323-0.11,2.139-0.11,2.139l-1.232,0.75c0,0,1.456,1.71,1.793,1.71c0.336,0,0.897-0.858,0.897-0.858l-1.568-1.068
					l1.456-0.645l0.091-0.559l0.245-0.082l2.41-3.678c1.666-0.691,3.716-1.543,3.975-1.669c0.448-0.211,3.583-2.03,4.145-2.456
					c0.561-0.429,1.793-0.319,2.241-0.319c0.448,0,1.119-0.213,1.232-1.394c0.11-1.174,0.562-1.391,0.895-1.071
					c0.337,0.322-0.337,0.856,0.448,1.071c0.785,0.213,1.456,0.753,2.017,0.213c0.408-0.391-0.138-0.835-0.507-1.174h6.219
					l0.674-1.926l-1.459-0.213l-5.377-0.539v-0.641l-0.429,0.077c0.585-3.229,4.042-2.692,1.441-4.564
					c-0.163-0.113-2.436,3.621-3.019,3.546c-1.047-0.141-2.407-0.151-2.695,0.193c-0.383,0.455,0.86-1.562,1.929-2.176
					c-1.705,0.507-7.096,2.365-12.793,8.487c-5.448,5.853-7.62,13.735-7.62,14.009c0,0.535,1.12,0.753,1.234,1.39
					c0.108,0.641-2.127,2.781-2.127,3.851c0,0.493-0.529,7.087,1.343,12.512c2.184,6.34,6.851,11.634,7.394,11.981l1.119-0.537
					c0,0-2.575-4.599-2.687-5.027c-0.113-0.425,2.911-6.629,4.366-6.417c1.456,0.214,1.123,0.646,2.018,0.106
					c0.898-0.532,1.456-4.918,2.465-5.346s2.127-0.96,2.017-2.029C48.784,70.892,44.973,68.972,44.636,68.648z M52.701,38.812
					c-0.167,0-0.351,0.063-0.536,0.173C52.605,38.852,52.812,38.812,52.701,38.812z M63.565,40.948l0.111-1.605L62,39.451
					l0.224,1.497H63.565z M68.943,37.201l-3.023-1.065l0.561,1.714L68.943,37.201z M57.63,41.161c0.338,0,7.057-4.489,6.383-4.598
					c-0.671-0.106-0.785,0-2.575-0.215c-1.79-0.213-3.697,2.566-4.145,2.995C56.846,39.772,56.999,41.161,57.63,41.161z
					 M75.895,81.038c0,0-0.76,0.205,0.105,0.516c0.865,0.309,4.338-5.049,4.338-5.049l-2.928,1.854L75.895,81.038z M96.818,64.647
					l-0.568-1.104c-0.672-3.81-2.205-8.699-5.5-13.739c-4.963-7.583-18.76-11.953-18.76-11.953l-0.76,0.925l-0.43-0.721
					l-1.088-0.414v0.925l0.977,0.828l-0.652,0.309l-2.494,0.208l-5.636,3.09l0.54,2.474L61.8,45.685l-0.326,0.512l1.843,2.783
					l0.106,0.931l-1.517,0.309v1.853l-0.866,0.204l0.107,1.444l-7.374,5.16l0.217,2.881c0.543,0.72,4.773,5.052,4.773,5.052
					s4.876,0.204,5.96-0.413c1.087-0.616,0.327,0.617,0.653,0.925c0.326,0.314,0.434,2.478,0.758,2.685
					c0.326,0.203,0,1.443,0.432,1.853c0.438,0.411,0.438,5.361,0.438,5.361s2.604,4.433,2.604,5.568
					c0,1.135-0.111,1.027,1.949,0.928c2.061-0.104,2.49-0.928,2.926-1.237c0.434-0.311,0.434-1.03,0.871-1.652
					c0.434-0.617,1.189-2.988,2.166-3.812c0.975-0.822,3.578-1.441,3.793-2.888c0.217-1.443,1.195-2.58,1.195-2.58l4.688-4.996
					l-0.137,0.674l-0.105,2.575l1.406-0.516l-0.105-2.783L87.75,65.96l0.068-0.075c0,0-0.326-0.614-0.76-0.614
					c-0.432,0-3.035,0.614-3.465,0.514c-0.438-0.106-2.281-5.054-2.607-5.259c-0.322-0.208-2.383-3.608-2.383-3.608
					s4.77,5.771,5.529,8.043c0.441,1.318,2.096,0.092,3.441-1.287l0.355,0.873l0.867-0.207l-0.111-1.03h0.977v1.546l-0.322,0.823
					l-0.113,1.34l0.867,0.826l0.438-0.721l1.406-1.339l1.625-0.824L94,65.784l0.217,1.135l-0.438,1.231l-0.867,0.728l-0.432,1.854
					v0.927l-0.975-0.62l-0.109-1.959l-1.408,0.109l-0.648,1.745l0.975,1.446l2.273,0.307l1.846-1.753l0.215-3.398l0.82-1.093
					c0.533,1.386,0.914,2.84,0.914,4.188c0,1.478,0.674-1.028,0.104-5.539L96.818,64.647z M69.496,54.138l-5.856-0.211l2.495-2.058
					h1.303l2.059,1.44V54.138z M76.648,53.41v0.932h-2.492l0.221,0.616l-1.52,0.205l-0.109,0.519l-1.08-0.207l-1.955-0.413
					l0.324-0.513l0.326-0.623l1.084-1.133l0.434,0.824l1.627-0.102l0.869-0.928l3.355,0.616L76.648,53.41z M76.865,52.072
					l-1.299,0.204l-0.213-0.922l1.623-0.208l0.217-0.927l1.193,1.236L76.865,52.072z M88.469,73.413l0.871-1.14l-0.871-0.307
					l-0.65,0.826l-0.76,1.133l0.65,0.311L88.469,73.413z M83.156,84.129l-0.76,0.617l0.111,1.548h0.971v-1.339l0.871-1.136v-2.367
					l-0.543-0.107L83.156,84.129z M92.264,77.122l-0.217-1.651h-1.406l-0.109,1.238l-1.305-0.204l-0.324-1.345l-0.648-0.41
					l-0.762,0.929l-0.756-0.208l-0.217,0.725l0.865,0.206v6.696l3.07,0.749c-0.068,0.12-0.125,0.223-0.141,0.282
					c-0.221,0.724,0.869,1.032,1.623,0.724c0.283-0.116,1.174-1.025,1.734-2.37c0.781-1.874,1.463-4.348,1.604-5.22l0.346-0.758
					l-2.166,0.822L92.264,77.122z"/>
				
					<radialGradient id="XMLID_8_" cx="63.7197" cy="69.2988" r="39.8027" fx="63.7197" fy="69.2988" gradientUnits="userSpaceOnUse">
					<stop  offset="0" style="stop-color:#FFFFFF"/>
					<stop  offset="1" style="stop-color:#7783BD"/>
					
					
					
				</radialGradient>
				<path fill="url(#XMLID_8_)" d="M50.364,32.205c-0.202,0-0.422,0.086-0.646,0.211C50.25,32.26,50.5,32.205,50.364,32.205z
					 M63.512,34.773l0.131-1.926l-2.028,0.126l0.271,1.8H63.512z M40.607,68.013c-0.408-0.383-0.134-2.053-0.134-2.053
					s-6.098-3.206-12.743-5.13c-0.82-0.242-0.405-1.926,0.406-2.567l-0.27-1.799c-0.136-0.897,1.355-5.262,2.847-5.646
					c1.492-0.386-0.135,2.565-0.135,2.565l-1.494,0.901c0,0,1.762,2.05,2.172,2.05c0.407,0,1.083-1.028,1.083-1.028l-1.898-1.279
					l1.764-0.774l0.11-0.675l0.295-0.091l2.915-4.42c2.018-0.83,4.497-1.85,4.809-1.999c0.544-0.256,4.34-2.435,5.016-2.948
					c0.681-0.518,2.166-0.389,2.708-0.389c0.544,0,1.358-0.255,1.493-1.67c0.138-1.412,0.678-1.668,1.087-1.279
					c0.405,0.38-0.409,1.023,0.543,1.279c0.948,0.261,1.757,0.901,2.437,0.261c0.497-0.473-0.167-1.007-0.615-1.412h7.526
					l0.817-2.315l-1.761-0.254l-6.51-0.639v-0.771l-0.519,0.087c0.707-3.873,4.891-3.232,1.74-5.475
					c-0.191-0.14-2.948,4.344-3.647,4.254c-1.271-0.167-2.916-0.178-3.264,0.231c-0.461,0.543,1.037-1.875,2.333-2.61
					c-2.063,0.609-8.584,2.841-15.482,10.185c-6.591,7.023-9.219,16.484-9.219,16.813c0,0.641,1.36,0.902,1.495,1.672
					c0.133,0.767-2.574,3.333-2.574,4.617c0,0.592-0.639,8.504,1.622,15.021c2.646,7.602,8.293,13.954,8.951,14.371l1.351-0.641
					c0,0-3.116-5.52-3.251-6.034c-0.135-0.511,3.526-7.958,5.285-7.696c1.761,0.25,1.356,0.768,2.439,0.123
					c1.09-0.638,1.762-5.906,2.979-6.414c1.222-0.517,2.582-1.159,2.444-2.438C45.62,70.712,41.016,68.401,40.607,68.013z
					 M70.02,30.279l-3.492-0.696l0.51,1.469L70.02,30.279z M56.327,35.027c0.413,0,8.542-5.388,7.725-5.515
					c-0.81-0.127-1.013,0.406-3.186,0.153c-2.166-0.26-4.404,2.669-4.943,3.182C55.379,33.361,55.564,35.027,56.327,35.027z
					 M93.645,73.727l1.051-1.359l-1.051-0.37l-0.787,0.989l-0.918,1.358l0.789,0.375L93.645,73.727z M98.236,78.184l-0.264-1.978
					H96.27l-0.133,1.479l-1.576-0.241l-0.391-1.613l-0.785-0.489l-0.918,1.11l-0.922-0.246l-0.262,0.859l1.049,0.254v8.037
					l3.717,0.896c-0.09,0.151-0.15,0.271-0.174,0.346c-0.262,0.859,1.047,1.233,1.967,0.859c0.34-0.137,1.422-1.225,2.1-2.843
					c0.945-2.244,1.771-5.212,1.934-6.265l0.426-0.905l-2.623,0.987L98.236,78.184z M103.24,62.974l-0.178-1.086
					c-0.812-4.575-2.684-10.422-6.658-16.487c-6.922-10.55-22.066-14.894-22.066-14.894l-1.551,1.659l-0.523-0.865l-1.314-0.499
					v1.115l1.18,0.993l-0.785,0.37l-3.018,0.245l-6.82,3.713l0.653,2.969l-0.785,0.25l-0.394,0.614l2.23,3.339l0.128,1.113
					l-1.833,0.375v2.226l-1.048,0.244l0.132,1.733l-8.926,6.188l0.263,3.459c0.657,0.864,5.774,6.064,5.774,6.064
					s5.903,0.245,7.214-0.497c1.312-0.742,0.395,0.742,0.788,1.115c0.395,0.371,0.523,2.967,0.916,3.216
					c0.396,0.245,0,1.728,0.523,2.226c0.525,0.493,0.525,6.433,0.525,6.433s3.15,5.318,3.15,6.679c0,1.363-0.129,1.237,2.361,1.115
					c2.494-0.127,3.016-1.115,3.541-1.486c0.529-0.371,0.529-1.235,1.051-1.979c0.525-0.744,1.443-3.588,2.625-4.574
					c1.18-0.995,4.326-1.737,4.59-3.465c0.262-1.735,1.445-3.095,1.445-3.095l5.668-6.002l-0.16,0.809l-0.127,3.092l1.699-0.615
					l-0.127-3.343l-0.615-0.649l0.088-0.097c0,0-0.391-0.737-0.918-0.737c-0.521,0-3.672,0.737-4.195,0.617
					c-0.529-0.125-2.758-6.061-3.152-6.306c-0.391-0.25-2.885-4.333-2.885-4.333s5.771,6.928,6.688,9.648
					c0.537,1.583,2.537,0.108,4.166-1.544l0.426,1.053l1.053-0.254l-0.133-1.231h1.182v1.853l-0.393,0.989l-0.135,1.609l1.053,0.989
					l0.523-0.861l1.705-1.612l1.967-0.99l0.527,0.99l0.262,1.365l-0.525,1.479l-1.051,0.868l-0.525,2.227v1.108l-1.18-0.74
					l-0.131-2.348l-1.701,0.126l-0.789,2.099l1.18,1.734l2.752,0.366l2.234-2.101l0.258-4.078l0.996-1.312
					c0.646,1.661,1.104,3.401,1.104,5.02c0,1.776,0.814-1.228,0.125-6.644L103.24,62.974z M70.689,50.597l-7.085-0.249l3.015-2.472
					h1.574l2.496,1.73V50.597z M79.346,49.732v1.112H76.33l0.264,0.746l-1.836,0.249l-0.137,0.617l-1.311-0.248l-2.361-0.496
					l0.395-0.619l0.395-0.745l1.311-1.358l0.525,0.988l1.967-0.121l1.053-1.114l4.064,0.741L79.346,49.732z M79.607,48.125
					l-1.572,0.244l-0.264-1.112l1.965-0.247l0.262-1.111l1.447,1.482L79.607,48.125z M87.215,86.598l-0.916,0.737l0.133,1.855h1.178
					v-1.604l1.053-1.363v-2.844l-0.656-0.127L87.215,86.598z M78.43,82.881c0,0-0.918,0.244,0.127,0.622
					c1.051,0.369,5.25-6.059,5.25-6.059l-3.541,2.221L78.43,82.881z M71.291,106.593l-0.789-0.748l-1.574-0.251l-0.258,0.747
					l-2.104-0.247l-0.127-0.993h-1.574l-1.705,0.993h-3.016l-0.26-0.744l-4.854-0.503l-0.785,0.747l-1.967-0.493l-0.259-1.748
					l-0.92-0.127l-1.048,1.875l-3.541-0.129c0.632,0.301,5.917,3.455,14.025,4.113c10.755,0.871,15.865-1.745,15.865-1.745
					l-0.393-0.374L71.291,106.593z"/>
				<path fill="none" d="M29.694,54.076c-0.003-0.187-0.018-0.371-0.018-0.558c0-0.587,0.039-1.17,0.096-1.744
					c-1.048,1.44-1.872,4.105-1.769,4.785l0.27,1.814c-0.81,0.648-1.226,2.346-0.405,2.589c1.401,0.409,2.775,0.879,4.076,1.359
					c-1.234-2.311-2.001-4.792-2.208-7.377c-0.298-0.326-0.514-0.583-0.514-0.583L29.694,54.076z"/>
				<path d="M83.941,77.71"/>
				<path opacity="0.1" fill="#FFFFFF"  a:adobe-blending-mode="screen" d="M63.928,98.533c-18.173,0-33.291-10.848-34.674-27.818
					c-0.071,0.835-0.118,1.677-0.118,2.521c0,18.152,15.72,32.948,34.792,32.948c19.211,0,34.795-14.796,34.795-32.948
					c0-0.845-0.043-1.687-0.111-2.521C97.234,87.686,82.236,98.533,63.928,98.533z"/>
				<linearGradient id="XMLID_9_" gradientUnits="userSpaceOnUse" x1="64.4146" y1="30.7573" x2="64.4146" y2="73.4054">
					<stop  offset="0" style="stop-color:#FFFFFF"/>
					<stop offset="1" style="stop-color:#FFFFFF;stop-opacity:0"/>
					
					
					
				</linearGradient>
				<path fill="url(#XMLID_9_)"  a:adobe-blending-mode="screen" d="M96.123,51.345c0,12.15-14.195,22.002-31.708,22.002
					c-17.51,0-31.708-9.853-31.708-22.002s14.198-22,31.708-22C81.928,29.345,96.123,39.195,96.123,51.345z"/>
			</g>
			<g>
				
					<radialGradient id="XMLID_10_" cx="108.4668" cy="118.249" r="34.7364" fx="108.4668" fy="118.249" gradientUnits="userSpaceOnUse">
					<stop offset="0" style="stop-color:#FFFFFF;stop-opacity:0"/>
					<stop offset="1" style="stop-color:#FFFFFF;stop-opacity:0"/>
					
					
					
				</radialGradient>
				<path opacity="0.1" fill="url(#XMLID_10_)" d="M85.191,90.976v35.754h1.793l33.639-33.639v-2.115H85.191z"/>
				<path fill="#FFFFFF" d="M87.537,126.948l33.627-33.627H87.537V126.948z"/>
				<linearGradient id="XMLID_11_" gradientUnits="userSpaceOnUse" x1="104.0166" y1="98.1807" x2="95.0883" y2="135.7938">
					<stop  offset="0" style="stop-color:#FFFFFF"/>
					<stop  offset="1" style="stop-color:#CCCCCC"/>
					
					
					
				</linearGradient>
				<path fill="url(#XMLID_11_)" d="M89.865,125.056l29.594-29.592H89.865V125.056z"/>
				<linearGradient id="XMLID_12_" gradientUnits="userSpaceOnUse" x1="82.3086" y1="88.0928" x2="96.1043" y2="101.8885">
					<stop  offset="0" style="stop-color:#B3B3B3"/>
					<stop  offset="1" style="stop-color:#828282"/>
					
					
					
				</linearGradient>
				<path fill="url(#XMLID_12_)" d="M87.537,92.821c-0.277,0-0.5,0.223-0.5,0.5v33.627c0,0.203,0.121,0.385,0.309,0.463
					c0.186,0.076,0.402,0.033,0.545-0.109l33.627-33.627c0.143-0.145,0.186-0.359,0.109-0.545c-0.078-0.188-0.26-0.309-0.463-0.309
					H87.537z M119.957,93.821c-1.58,1.578-30.342,30.34-31.92,31.92c0-2.209,0-30.986,0-31.92
					C88.971,93.821,117.748,93.821,119.957,93.821z"/>
			</g>
			<g>
				<path fill="#FFFFFF" d="M15.406,14.782l-2.012-8.594h1.782l1.272,5.903l1.562-5.903h2.086l1.492,6.002l1.309-6.002h1.746
					l-2.065,8.594h-1.874l-1.694-6.425l-1.701,6.425H15.406z"/>
				<path fill="#FFFFFF" d="M26.732,14.782L24.72,6.188h1.782l1.272,5.903l1.562-5.903h2.086l1.492,6.002l1.309-6.002h1.746
					l-2.065,8.594h-1.874l-1.694-6.425l-1.701,6.425H26.732z"/>
				<path fill="#FFFFFF" d="M38.059,14.782l-2.012-8.594h1.782l1.272,5.903l1.562-5.903h2.086l1.492,6.002l1.309-6.002h1.746
					l-2.065,8.594h-1.874l-1.694-6.425l-1.701,6.425H38.059z"/>
			</g>
		</g>
		<path fill="none" d="M128,128H0V0h128V128z"/>
	</g>
</svg>
