<?xml version="1.0" encoding="UTF-8" standalone="no"?>
<svg
   xmlns:dc="http://purl.org/dc/elements/1.1/"
   xmlns:cc="http://web.resource.org/cc/"
   xmlns:rdf="http://www.w3.org/1999/02/22-rdf-syntax-ns#"
   xmlns:svg="http://www.w3.org/2000/svg"
   xmlns="http://www.w3.org/2000/svg"
   xmlns:sodipodi="http://sodipodi.sourceforge.net/DTD/sodipodi-0.dtd"
   xmlns:inkscape="http://www.inkscape.org/namespaces/inkscape"
   width="48"
   height="48"
   viewBox="0 0 9300 9300"
   id="svg2"
   sodipodi:version="0.32"
   inkscape:version="0.45.1"
   sodipodi:docname="gtk-gnutella.svg"
   sodipodi:docbase="/home/sa/Desktop"
   inkscape:output_extension="org.inkscape.output.svg.inkscape"
   version="1.0">
  <metadata
     id="metadata29">
    <rdf:RDF>
      <cc:Work
         rdf:about="">
        <dc:format>image/svg+xml</dc:format>
        <dc:type
           rdf:resource="http://purl.org/dc/dcmitype/StillImage" />
      </cc:Work>
    </rdf:RDF>
  </metadata>
  <defs
     id="defs27" />
  <sodipodi:namedview
     inkscape:window-height="629"
     inkscape:window-width="899"
     inkscape:pageshadow="2"
     inkscape:pageopacity="0.0"
     guidetolerance="10.0"
     gridtolerance="10.0"
     objecttolerance="10.0"
     borderopacity="1.0"
     bordercolor="#666666"
     pagecolor="#ffffff"
     id="base"
     width="48px"
     height="48px"
     inkscape:zoom="7.6113593"
     inkscape:cx="24.444667"
     inkscape:cy="22.916875"
     inkscape:window-x="0"
     inkscape:window-y="26"
     inkscape:current-layer="svg2" />
  <g
     style="fill:#7979b2;stroke:none"
     id="g4"
     transform="matrix(0.9216216,0,0,0.9216216,421.72183,438.13587)">
    <path
       d="M 2628,8057 L 1993,7810 L 4299,7155 L 2887,6758 L 353,7175 L 0,7016 L 4727,6275 L 9225,6963 L 8854,7193 L 6549,6755 L 5347,7154 L 7884,7775 L 7443,8039 L 4865,7314 L 2628,8057 z M 6044,6659 L 4780,6487 L 3439,6664 L 4786,7016 L 6044,6659 z "
       id="path6" />
  </g>
  <g
     style="fill:#000080;stroke:none"
     id="g8"
     transform="matrix(0.9216216,0,0,0.9216216,421.72183,438.13587)">
    <path
       d="M 4752,1750 L 9250,750 L 9250,6997 L 4752,6368 L 4752,1750 z M 5083,3778 L 6417,3687 L 6417,1956 L 5083,2200 L 5083,3778 z M 6917,3656 L 8584,3561 L 8584,1562 L 6917,1864 L 6917,3656 z M 5083,5880 L 6417,5996 L 6417,4264 L 5083,4303 L 5083,5880 z M 6917,6044 L 8584,6223 L 8584,4225 L 6917,4252 L 6917,6044 z "
       id="path10" />
  </g>
  <g
     style="fill:#7979b2;stroke:none"
     id="g12"
     transform="matrix(0.9216216,0,0,0.9216216,421.72183,438.13587)">
    <path
       d="M 4750,1773 L 2,999 L 2,6996 L 4749,6378 L 4750,1773 z M 4398,3811 L 2991,3771 L 2991,2073 L 4398,2244 L 4398,3811 z M 2463,3755 L 704,3693 L 704,1766 L 2463,2005 L 2463,3755 z M 4397,5901 L 2990,6038 L 2990,4338 L 4397,4333 L 4397,5901 z M 2462,6089 L 703,6261 L 703,4333 L 2462,4338 L 2462,6089 z "
       id="path14" />
  </g>
  <g
     style="fill:#000080;stroke:none"
     id="g16"
     transform="matrix(0.9216216,0,0,0.9216216,421.72183,438.13587)">
    <path
       d="M 52,1019 L 528,895 L 2952,1327 L 4312,1043 L 2028,631 L 2627,525 L 4836,934 L 7390,401 L 7884,507 L 5348,1029 L 6463,1235 L 8783,684 L 9224,772 L 4744,1795 L 4733,1793 L 52,1019 z M 5994,1347 L 4827,1136 L 3459,1418 L 4737,1645 L 5994,1347 z "
       id="path18" />
    <path
       d="M 2,985 L 5499,0 L 5499,9246 L 2,7059 L 2,985 z M 406,3724 L 2036,3868 L 2036,1477 L 406,1628 L 406,3724 z M 2647,3917 L 4684,4060 L 4684,1149 L 2647,1411 L 2647,3917 z M 406,6517 L 2036,7057 L 2036,4665 L 406,4422 L 406,6517 z M 2647,7260 L 4684,7942 L 4684,5031 L 2647,4753 L 2647,7260 z "
       id="path20" />
  </g>
  <g
     style="fill:#7979b2;stroke:none"
     id="g22"
     transform="matrix(0.9216216,0,0,0.9216216,421.72183,438.13587)">
    <path
       d="M 9250,756 L 5502,0 L 5502,9248 L 9250,6999 L 9250,756 z M 8973,3582 L 7861,3777 L 7861,1343 L 8973,1433 L 8973,3582 z M 7445,3843 L 6056,4040 L 6056,1117 L 7445,1300 L 7445,3843 z M 8973,6449 L 7861,7021 L 7861,4588 L 8973,4299 L 8973,6449 z M 7445,7233 L 6056,7939 L 6056,5016 L 7445,4690 L 7445,7233 z "
       id="path24" />
  </g>
</svg>
