/* XPM */
static char * keys_xpm[] = {
"48 48 495 2",
"  	c None",
". 	c #969793",
"+ 	c #999A97",
"@ 	c #989A95",
"# 	c #959792",
"$ 	c #969993",
"% 	c #8F918C",
"& 	c #9FA19C",
"* 	c #C3C5C1",
"= 	c #D5D6D4",
"- 	c #E5E6E4",
"; 	c #F0F1EF",
"> 	c #F4F5F4",
", 	c #EBECE9",
"' 	c #DCDEDB",
") 	c #CACCC8",
"! 	c #B1B3AE",
"~ 	c #90948E",
"{ 	c #949691",
"] 	c #A6A8A4",
"^ 	c #D4D5D3",
"/ 	c #F1F1F0",
"( 	c #FCFCFC",
"_ 	c #FEFEFE",
": 	c #FDFEFD",
"< 	c #FDFDFD",
"[ 	c #FAFAF9",
"} 	c #E1E4DF",
"| 	c #B6B9B3",
"1 	c #8F918B",
"2 	c #8C8E89",
"3 	c #D5D7D4",
"4 	c #F7F8F7",
"5 	c #F8F9F7",
"6 	c #F9F9F8",
"7 	c #F5F5F4",
"8 	c #F1F2F1",
"9 	c #EEF0ED",
"0 	c #EFF0EE",
"a 	c #F1F2F0",
"b 	c #F2F4F2",
"c 	c #F3F4F2",
"d 	c #E7EAE7",
"e 	c #DDE0DA",
"f 	c #D0D5CD",
"g 	c #ADB0AA",
"h 	c #8A8D87",
"i 	c #949793",
"j 	c #DCDEDA",
"k 	c #F8F8F7",
"l 	c #FFFFFF",
"m 	c #F1F3F1",
"n 	c #ECEDEB",
"o 	c #E8EAE7",
"p 	c #E5E8E4",
"q 	c #E3E5E1",
"r 	c #E1E3DF",
"s 	c #E3E5E0",
"t 	c #E5E8E3",
"u 	c #E6E9E4",
"v 	c #E4E6E1",
"w 	c #DBDED7",
"x 	c #CFD4CB",
"y 	c #BABFB6",
"z 	c #8B8D88",
"A 	c #8F928D",
"B 	c #D7DAD5",
"C 	c #ECEEEB",
"D 	c #F8F9F8",
"E 	c #EFF1EE",
"F 	c #E6E8E5",
"G 	c #E3E6E1",
"H 	c #E0E3DE",
"I 	c #DDE0DB",
"J 	c #DBDFD9",
"K 	c #D8DCD5",
"L 	c #D8DCD4",
"M 	c #D9DCD6",
"N 	c #DDE1DA",
"O 	c #E1E4DE",
"P 	c #D5D9D2",
"Q 	c #CACFC5",
"R 	c #BABFB5",
"S 	c #8A8C87",
"T 	c #8F908C",
"U 	c #BBBFB9",
"V 	c #F3F4F3",
"W 	c #F6F7F6",
"X 	c #F7F8F6",
"Y 	c #E7E9E6",
"Z 	c #C4C7C3",
"` 	c #A4A6A2",
" .	c #8E908B",
"..	c #A0A29D",
"+.	c #BBC0B8",
"@.	c #D1D5CD",
"#.	c #D3D8D0",
"$.	c #DADED8",
"%.	c #E0E4DE",
"&.	c #DCE0D9",
"*.	c #D0D5CC",
"=.	c #C8CDC3",
"-.	c #A7AAA2",
";.	c #8B8F88",
">.	c #90928C",
",.	c #E1E5E0",
"'.	c #EEF0EE",
").	c #DFE0DD",
"!.	c #92958F",
"~.	c #8F908B",
"{.	c #92948F",
"].	c #C6CBC2",
"^.	c #DFE2DC",
"/.	c #D5DAD2",
"(.	c #C4CAC0",
"_.	c #8D8F89",
":.	c #AFB2AD",
"<.	c #E6E8E4",
"[.	c #EAEDE9",
"}.	c #E0E2DF",
"|.	c #D8DAD6",
"1.	c #90928D",
"2.	c #8A8C88",
"3.	c #90938E",
"4.	c #C5C9C1",
"5.	c #D9DDD6",
"6.	c #C7CCC2",
"7.	c #C4CABF",
"8.	c #A1A49E",
"9.	c #CDCFCB",
"0.	c #E9EBE7",
"a.	c #EAECE9",
"b.	c #90918D",
"c.	c #959893",
"d.	c #D1D6CD",
"e.	c #DEE2DC",
"f.	c #C4C9C1",
"g.	c #C0C6BB",
"h.	c #B6BAB1",
"i.	c #8C8F8A",
"j.	c #8D8F8A",
"k.	c #D9DBD8",
"l.	c #EBEDEA",
"m.	c #EFF1EF",
"n.	c #E8E9E8",
"o.	c #B8BAB6",
"p.	c #8D918B",
"q.	c #C2C6BE",
"r.	c #DEE2DB",
"s.	c #C7CCC3",
"t.	c #BEC3B9",
"u.	c #BEC3B8",
"v.	c #8A8D88",
"w.	c #E4E7E3",
"x.	c #EDEEEC",
"y.	c #F2F3F1",
"z.	c #E4E6E3",
"A.	c #929290",
"B.	c #A9ACA5",
"C.	c #C8CDC5",
"D.	c #BBC1B7",
"E.	c #C4C9BF",
"F.	c #898B85",
"G.	c #EFF0ED",
"H.	c #EEEFED",
"I.	c #E0E3DF",
"J.	c #848581",
"K.	c #9D9E99",
"L.	c #DCDFD9",
"M.	c #C9CEC6",
"N.	c #B8BDB3",
"O.	c #C5CBC0",
"P.	c #898B86",
"Q.	c #E8EBE8",
"R.	c #D8DAD7",
"S.	c #868983",
"T.	c #9A9C98",
"U.	c #B5BAB1",
"V.	c #D3D6D1",
"W.	c #868883",
"X.	c #9C9D98",
"Y.	c #D8DCD6",
"Z.	c #B2B7AF",
"`.	c #C6A200",
" +	c #C6A101",
".+	c #C29F04",
"++	c #8A8C85",
"@+	c #D1D4CE",
"#+	c #89897C",
"$+	c #BB9800",
"%+	c #BC9900",
"&+	c #BD9A00",
"*+	c #BE9B00",
"=+	c #BF9C00",
"-+	c #C09D00",
";+	c #C19D00",
">+	c #BC9A04",
",+	c #9D9D91",
"'+	c #B2B7AE",
")+	c #898B84",
"!+	c #C4A000",
"~+	c #C5A100",
"{+	c #C7A100",
"]+	c #E4CE51",
"^+	c #FEF6AC",
"/+	c #FBF4B0",
"(+	c #8B8D87",
"_+	c #E9EBE8",
":+	c #EDEEEB",
"<+	c #E7E9E5",
"[+	c #CED2CD",
"}+	c #8B8C84",
"|+	c #E2DC9E",
"1+	c #E4DE9F",
"2+	c #E8E2A2",
"3+	c #ECE6A6",
"4+	c #F0E9A8",
"5+	c #F3ECAB",
"6+	c #F4EDAB",
"7+	c #F1EAA9",
"8+	c #EDE6A7",
"9+	c #E8E2A4",
"0+	c #E5DFA2",
"a+	c #E3DEA1",
"b+	c #9FA099",
"c+	c #C9CDC5",
"d+	c #8A8C86",
"e+	c #FBF4B3",
"f+	c #FBF3AB",
"g+	c #E0C94C",
"h+	c #C6A300",
"i+	c #FEF6AF",
"j+	c #FFF8B4",
"k+	c #FCF5B3",
"l+	c #8C8E88",
"m+	c #EAEBE8",
"n+	c #EBEDE9",
"o+	c #C7CBC6",
"p+	c #8A8B84",
"q+	c #D2CC95",
"r+	c #D9D39B",
"s+	c #DED89E",
"t+	c #E4DEA3",
"u+	c #E9E3A6",
"v+	c #EEE7AA",
"w+	c #F0E9AC",
"x+	c #EFE8AC",
"y+	c #EAE4A8",
"z+	c #E5DFA4",
"A+	c #DFD9A0",
"B+	c #DAD49C",
"C+	c #D6D19B",
"D+	c #9C9D96",
"E+	c #B1B7AD",
"F+	c #8A8D86",
"G+	c #F1EBB0",
"H+	c #FFF8B9",
"I+	c #FCF4B0",
"J+	c #C5A300",
"K+	c #FFF8B7",
"L+	c #FFF8B8",
"M+	c #FDF6B7",
"N+	c #9FA091",
"O+	c #B1B3AD",
"P+	c #D0D2CD",
"Q+	c #D9DDD8",
"R+	c #C4C7C2",
"S+	c #9DA099",
"T+	c #9F9E89",
"U+	c #CDC895",
"V+	c #E1DBA3",
"W+	c #E4DEA5",
"X+	c #E9E3AA",
"Y+	c #EEE7AE",
"Z+	c #F1EAB0",
"`+	c #F3ECB1",
" @	c #F2EBB1",
".@	c #EAE4AC",
"+@	c #E5DFA8",
"@@	c #E1DBA5",
"#@	c #DED8A4",
"$@	c #A3A394",
"%@	c #B5B8B2",
"&@	c #CACEC6",
"*@	c #C5CAC2",
"=@	c #B3B7AF",
"-@	c #A1A49B",
";@	c #9A9A8D",
">@	c #E8E3AB",
",@	c #FEF8BC",
"'@	c #FFF9BD",
")@	c #FFF9C0",
"!@	c #FFF8BD",
"~@	c #FFF8BC",
"{@	c #E5E0AB",
"]@	c #B0AE96",
"^@	c #9FA193",
"/@	c #989A91",
"(@	c #9F9F90",
"_@	c #ABA98D",
":@	c #D0CB9B",
"<@	c #E9E4AE",
"[@	c #F1EBB4",
"}@	c #F3EDB5",
"|@	c #F5EFB7",
"1@	c #F7F1B8",
"2@	c #F9F3BA",
"3@	c #FAF4BB",
"4@	c #F9F3BB",
"5@	c #F7F1B9",
"6@	c #F5EFB8",
"7@	c #F3EDB6",
"8@	c #F1EBB5",
"9@	c #F0EAB5",
"0@	c #DED9AB",
"a@	c #ADAC99",
"b@	c #9E9F96",
"c@	c #94948B",
"d@	c #A1A190",
"e@	c #D4CFA1",
"f@	c #F1EBB6",
"g@	c #FFF9C2",
"h@	c #FFF9C5",
"i@	c #C4A100",
"j@	c #FFFBD5",
"k@	c #FFF9BF",
"l@	c #F6F0B8",
"m@	c #E9E4AF",
"n@	c #DFDAA7",
"o@	c #E5E0AC",
"p@	c #F9F3BC",
"q@	c #FBF5BD",
"r@	c #FCF6BE",
"s@	c #FDF7BF",
"t@	c #FEF8C0",
"u@	c #FDF7C0",
"v@	c #FCF6C0",
"w@	c #FBF5BF",
"x@	c #F7F1BD",
"y@	c #EDE7B6",
"z@	c #E2DDAD",
"A@	c #E5E0AF",
"B@	c #EFE9B7",
"C@	c #F9F3BE",
"D@	c #FFF9C3",
"E@	c #FFF9C7",
"F@	c #FEF9D4",
"G@	c #C5A000",
"H@	c #FCF7C8",
"I@	c #FFFCE6",
"J@	c #FFFDE9",
"K@	c #FFFDEA",
"L@	c #FFFDEB",
"M@	c #FEFBE6",
"N@	c #F3EAA6",
"O@	c #F8EFA2",
"P@	c #F4E23C",
"Q@	c #FAEB60",
"R@	c #FEF171",
"S@	c #FBEE6E",
"T@	c #F8EB6A",
"U@	c #F6E966",
"V@	c #F4E663",
"W@	c #F1E360",
"X@	c #EEE05C",
"Y@	c #EBDD58",
"Z@	c #E9DB54",
"`@	c #E7D951",
" #	c #E4D64D",
".#	c #E1D349",
"+#	c #DFD045",
"@#	c #DCCD42",
"##	c #DACB3E",
"$#	c #D8C83A",
"%#	c #D5C536",
"&#	c #D2C234",
"*#	c #CFC030",
"=#	c #CDBD2C",
"-#	c #CBBB28",
";#	c #C8B825",
">#	c #C5B521",
",#	c #C3B21D",
"'#	c #C0AF19",
")#	c #BDAD16",
"!#	c #BBAA12",
"~#	c #BDAC10",
"{#	c #C8B407",
"]#	c #E1D14C",
"^#	c #C5A200",
"/#	c #F4E136",
"(#	c #FAEA55",
"_#	c #FEF068",
":#	c #FBED64",
"<#	c #F8EA60",
"[#	c #F5E75C",
"}#	c #F3E459",
"|#	c #F0E155",
"1#	c #EDDE51",
"2#	c #EADB4D",
"3#	c #E8D949",
"4#	c #E5D645",
"5#	c #E2D341",
"6#	c #DFD03D",
"7#	c #DDCD39",
"8#	c #DACA35",
"9#	c #D7C731",
"0#	c #D5C42D",
"a#	c #D2C129",
"b#	c #CFBE26",
"c#	c #CCBC22",
"d#	c #CAB91E",
"e#	c #C7B61A",
"f#	c #C4B316",
"g#	c #C1B012",
"h#	c #BFAD0E",
"i#	c #BCAA0A",
"j#	c #B9A706",
"k#	c #B6A402",
"l#	c #B9A600",
"m#	c #C6B200",
"n#	c #E0D14C",
"o#	c #E0D04C",
"p#	c #F8EFA1",
"q#	c #F8EF9F",
"r#	c #DFD04C",
"s#	c #F8EE9D",
"t#	c #F8EE9C",
"u#	c #E0CF4C",
"v#	c #F8EE9A",
"w#	c #DFCF4C",
"x#	c #C6A100",
"y#	c #F8EE99",
"z#	c #F7EE97",
"A#	c #F7ED96",
"B#	c #F7ED95",
"C#	c #C09F00",
"D#	c #F7EC91",
"E#	c #F4E23B",
"F#	c #C6B201",
"G#	c #DFCD4B",
"H#	c #BC9A00",
"I#	c #BB9B00",
"J#	c #EEDE6C",
"K#	c #F6E75B",
"L#	c #CAB712",
"M#	c #DAC53E",
"N#	c #A98B00",
"O#	c #826B00",
"P#	c #D5BB36",
"Q#	c #F8ED8C",
"R#	c #FBED71",
"S#	c #FEF069",
"T#	c #B9A707",
"U#	c #C3B325",
"V#	c #D5C543",
"W#	c #C9AB1C",
"X#	c #745F00",
"Y#	c #B69602",
"Z#	c #D9C03C",
"`#	c #F6EA8B",
" $	c #FDF6AF",
".$	c #FDF5AD",
"+$	c #FBF4A9",
"@$	c #F9F2A5",
"#$	c #F8F0A1",
"$$	c #F6EE9D",
"%$	c #F4EC99",
"&$	c #F2E994",
"*$	c #F1E890",
"=$	c #EFE58B",
"-$	c #EDE386",
";$	c #EAE081",
">$	c #E8DE7C",
",$	c #E6DB77",
"'$	c #E4D972",
")$	c #E2D66C",
"!$	c #DFD369",
"~$	c #DDD167",
"{$	c #DBD064",
"]$	c #DACE61",
"^$	c #D8CC5E",
"/$	c #D6CA5B",
"($	c #D3C859",
"_$	c #D2C556",
":$	c #D0C353",
"<$	c #CEC14F",
"[$	c #C9B93F",
"}$	c #C8B329",
"|$	c #C5A613",
"1$	c #AC8C00",
"2$	c #A08402",
"3$	c #C1A004",
"4$	c #C4A002",
"5$	c #C39F00",
"6$	c #B49500",
"                                                                                                ",
"                                                                                                ",
"                                            . + @ # # $ %                                       ",
"                                      # & * = - ; > , ' ) ! ~ %                                 ",
"                                  { ] ^ / ( _ _ _ _ _ : < [ } | 1 2                             ",
"                                . 3 4 5 4 6 4 7 8 9 0 a b c d e f g h                           ",
"                              i j k l l k m n o p q } r s t u v w x y z                         ",
"                            A B C D l l 4 E F G H I J K L M N s O P Q R S                       ",
"                          T U o 9 V W X V Y Z ` .  .# ..+.@.#.$.%.&.*.=.-.;.                    ",
"                          >.,.C E C '.0 ).!.~.          2 {.].@.w ^./.Q (.;.                    ",
"                        _.:.<.'.E [.}.|.1.                2.3.4.P ^.5.6.7.8.                    ",
"                        % 9.0.; 0 a.= b.                      c.d.e.&.f.g.h.i.                  ",
"                        j.k.l.a m.n.o.i.                      p.q.N r.s.t.u.v.                  ",
"                        z w.x.y.; z.A.                          B.&.^.C.D.E.F.                  ",
"                        S Y G.c H.I.J.                          K.L.^.M.N.O.P.                  ",
"                        S Q.; y.C R.S.                          T.w ^.M.U.O.P.                  ",
"                        S a.m.a , V.W.                          X.Y.^.M.Z.O.P.                  ",
"                  `. +.+++l.'.m.0.@+#+$+%+&+*+=+-+;+;+=+=+&+%+>+,+Y.^.M.'+O.)+.+!+~+            ",
"                {+]+^+/+(+_+:+9 <+[+}+|+1+2+3+4+5+6+5+7+8+9+0+a+b+K e.c+'+O.d+e+f+g+{+          ",
"                h+i+j+k+l+p m+n+v o+p+q+r+s+t+u+v+w+x+y+z+A+B+C+D+P L.s.E+O.F+G+H+I+J+          ",
"                !+K+L+M+N+O+P+Q+R+S+T+U+V+W+X+Y+Z+`+ @Y+.@+@@@#@$@%@&@*@=@-@;@>@,@'@!+          ",
"                !+)@!@~@{@]@^@/@(@_@:@<@[@}@|@1@2@3@4@5@6@7@8@9@0@a@b@>.c@d@e@f@g@h@i@          ",
"                !+j@g@k@k@l@m@n@o@9@p@q@q@r@s@s@t@t@t@s@u@v@v@w@v@x@y@z@A@B@C@D@E@F@G@          ",
"                !+H@I@J@J@K@K@K@K@K@K@K@K@K@K@K@K@K@K@K@K@K@K@L@L@L@L@L@L@L@L@L@M@N@i@          ",
"                !+O@P@Q@R@S@T@U@V@W@X@Y@Z@`@ #.#+#@###$#%#&#*#=#-#;#>#,#'#)#!#~#{#]#^#          ",
"                !+O@/#(#_#:#<#[#}#|#1#2#3#4#5#6#7#8#9#0#a#b#c#d#e#f#g#h#i#j#k#l#m#n#i@          ",
"                !+O@/#(#_#:#<#[#}#|#1#2#3#4#5#6#7#8#9#0#a#b#c#d#e#f#g#h#i#j#k#l#m#]#i@          ",
"                !+O@/#(#_#:#<#[#}#|#1#2#3#4#5#6#7#8#9#0#a#b#c#d#e#f#g#h#i#j#k#l#m#n#~+          ",
"                !+O@/#(#_#:#<#[#}#|#1#2#3#4#5#6#7#8#9#0#a#b#c#d#e#f#g#h#i#j#k#l#m#o#i@          ",
"                !+O@/#(#_#:#<#[#}#|#1#2#3#4#5#6#7#8#9#0#a#b#c#d#e#f#g#h#i#j#k#l#m#n#i@          ",
"                !+O@/#(#_#:#<#[#}#|#1#2#3#4#5#6#7#8#9#0#a#b#c#d#e#f#g#h#i#j#k#l#m#o#^#          ",
"                !+p#/#(#_#:#<#[#}#|#1#2#3#4#5#6#7#8#9#0#a#b#c#d#e#f#g#h#i#j#k#l#m#o#~+          ",
"                !+q#/#(#_#:#<#[#}#|#1#2#3#4#5#6#7#8#9#0#a#b#c#d#e#f#g#h#i#j#k#l#m#o#i@          ",
"                !+q#/#(#_#:#<#[#}#|#1#2#3#4#5#6#7#8#9#0#a#b#c#d#e#f#g#h#i#j#k#l#m#r#^#          ",
"                !+s#/#(#_#:#<#[#}#|#1#2#3#4#5#6#7#8#9#0#a#b#c#d#e#f#g#h#i#j#k#l#m#o#~+          ",
"                !+t#/#(#_#:#<#[#}#|#1#2#3#4#5#6#7#8#9#0#a#b#c#d#e#f#g#h#i#j#k#l#m#u#^#          ",
"                !+v#/#(#_#:#<#[#}#|#1#2#3#4#5#6#7#8#9#0#a#b#c#d#e#f#g#h#i#j#k#l#m#w#x#          ",
"                !+y#/#(#_#:#<#[#}#|#1#2#3#4#5#6#7#8#9#0#a#b#c#d#e#f#g#h#i#j#k#l#m#w#^#          ",
"                !+z#/#(#_#:#<#[#}#|#1#2#3#4#5#6#7#8#9#0#a#b#c#d#e#f#g#h#i#j#k#l#m#u#i@          ",
"                !+A#/#(#_#:#<#[#}#|#1#2#3#4#5#6#7#8#9#0#a#b#c#d#e#f#g#h#i#j#k#l#m#w#i@          ",
"                !+B#/#(#_#:#<#[#}#|#1#2#3#4#5#6#7#8#9#0#a#b#c#d#e#f#g#h#i#j#k#l#m#w#C#          ",
"                !+D#E#(#_#:#<#[#}#|#1#2#3#4#5#6#7#8#9#0#a#b#c#d#e#f#g#h#i#j#k#l#F#G#H#          ",
"                I#J#K#(#_#:#<#[#}#|#1#2#3#4#5#6#7#8#9#0#a#b#c#d#e#f#g#h#i#j#k#l#L#M#N#          ",
"                O#P#Q#R#S#:#<#[#}#|#1#2#3#4#5#6#7#8#9#0#a#b#c#d#e#f#g#h#i#T#!#U#V#W#X#          ",
"                  Y#Z#`# $.$+$@$#$$$%$&$*$=$-$;$>$,$'$)$!$~${$]$^$/$($_$:$<$[$}$|$1$            ",
"                    2$3$4$!+!+!+!+!+!+!+!+!+!+!+!+!+!+!+!+!+!+!+!+!+!+!+!+5$=+6$                ",
"                                                                                                ",
"                                                                                                "};
