/* XPM */
static char * nt_xpm[] = {
"16 16 118 2",
"  	c None",
". 	c #402B52",
"+ 	c #422D58",
"@ 	c #402E58",
"# 	c #42305E",
"$ 	c #3E305B",
"% 	c #6E5612",
"& 	c #9D8923",
"* 	c #B9A33B",
"= 	c #B69735",
"- 	c #A27A24",
"; 	c #734702",
"> 	c #553836",
", 	c #816EAD",
"' 	c #3E3560",
") 	c #442A53",
"! 	c #5C4227",
"~ 	c #BE9E3D",
"{ 	c #F8CD67",
"] 	c #F8BE5F",
"^ 	c #F8AF57",
"/ 	c #E79141",
"( 	c #6E3609",
"_ 	c #9583AF",
": 	c #3C3963",
"< 	c #61411B",
"[ 	c #764C09",
"} 	c #F8B05A",
"| 	c #C37935",
"1 	c #C36E30",
"2 	c #F57E3F",
"3 	c #A3431A",
"4 	c #754B40",
"5 	c #3B3B62",
"6 	c #6D3A06",
"7 	c #F7924C",
"8 	c #90481F",
"9 	c #612200",
"0 	c #DA5329",
"a 	c #B53215",
"b 	c #71340D",
"c 	c #6E4D0E",
"d 	c #714907",
"e 	c #6F430A",
"f 	c #76340A",
"g 	c #F7723F",
"h 	c #C14924",
"i 	c #C43A1C",
"j 	c #F33921",
"k 	c #7C1508",
"l 	c #BD814A",
"m 	c #CA9246",
"n 	c #EFA960",
"o 	c #A8652D",
"p 	c #5C3725",
"q 	c #9D3917",
"r 	c #EF4E2D",
"s 	c #D6351F",
"t 	c #A51C14",
"u 	c #6A0905",
"v 	c #812F1C",
"w 	c #F5A554",
"x 	c #F8A35F",
"y 	c #F68640",
"z 	c #D46D3A",
"A 	c #642911",
"B 	c #2E4674",
"C 	c #2D4776",
"D 	c #590E00",
"E 	c #5A0A03",
"F 	c #621219",
"G 	c #653243",
"H 	c #693107",
"I 	c #E19150",
"J 	c #F79556",
"K 	c #F67C3F",
"L 	c #F77444",
"M 	c #8C3112",
"N 	c #502423",
"O 	c #353C6B",
"P 	c #6D77B4",
"Q 	c #6B7BC5",
"R 	c #6B3D18",
"S 	c #D3824B",
"T 	c #F78B55",
"U 	c #F77B4C",
"V 	c #F66034",
"W 	c #F64C29",
"X 	c #992612",
"Y 	c #353E6D",
"Z 	c #344278",
"` 	c #3E5091",
" .	c #324373",
"..	c #5B321F",
"+.	c #8F411E",
"@.	c #E16641",
"#.	c #973318",
"$.	c #E9432C",
"%.	c #F63020",
"&.	c #B6130E",
"*.	c #5F0000",
"=.	c #32406D",
"-.	c #314271",
";.	c #2E406D",
">.	c #541705",
",.	c #5C1203",
"'.	c #581A1D",
").	c #5A0A08",
"!.	c #570101",
"~.	c #5C0000",
"{.	c #5A0000",
"].	c #31416E",
"^.	c #1E2D4A",
"/.	c #264E84",
"(.	c #264D7F",
"_.	c #264E82",
":.	c #274F82",
"<.	c #284E7F",
"                    .           ",
"                  + @           ",
"                  # $           ",
"    % & * = - ; > , '           ",
"  ) ! ~ { ] ^ / ( _ :           ",
"    < [ } | 1 2 3 4 5           ",
"      6 7 8 9 0 a b c d e       ",
"      f g h i j k l m n o p     ",
"      q r s t u v w x y z A B C ",
"      D E F G H I J K L M N     ",
"      O P Q R S T U V W X       ",
"    Y Z `  ...+.@.#.$.%.&.*.    ",
"    =.-.;.    >.,.'.).!.~.{.    ",
"  ].            ^./.(.          ",
"                  _.:.          ",
"                    <.          "};
