<?xml version="1.0" encoding="UTF-8" standalone="no"?>
<!-- Created with Inkscape (http://www.inkscape.org/) -->
<svg
   xmlns:svg="http://www.w3.org/2000/svg"
   xmlns="http://www.w3.org/2000/svg"
   xmlns:xlink="http://www.w3.org/1999/xlink"
   version="1.0"
   width="48"
   height="48"
   id="svg1800">



<defs>
<filter id="Gaussian_Blur">
<feGaussianBlur in="SourceGraphic" stdDeviation="1.5" />
</filter>
</defs>

<defs
     id="defs3">
    <linearGradient
       id="linearGradient3101">
      <stop
         style="stop-color:#000000;stop-opacity:1"
         offset="0"
         id="stop3103" />
      <stop
         style="stop-color:#000000;stop-opacity:0"
         offset="1"
         id="stop3105" />
    </linearGradient>
    <radialGradient
       cx="17.3125"
       cy="25.53125"
       r="9.6875"
       fx="17.3125"
       fy="25.53125"
       id="radialGradient3107"
       xlink:href="#linearGradient3101"
       gradientUnits="userSpaceOnUse"
       gradientTransform="matrix(1,0,0,0.351613,0,16.55413)" />
  </defs>
  <g
     transform="matrix(0.9790748,0,0,0.9790748,0.19084,2.9555417e-3)"
     id="layer1">
    <path
       d="M 27,25.53125 C 27,27.41247 22.662759,28.9375 17.3125,28.9375 C 11.962241,28.9375 7.625,27.41247 7.625,25.53125 C 7.625,23.65003 11.962241,22.125 17.3125,22.125 C 22.662759,22.125 27,23.65003 27,25.53125 z "
       transform="matrix(2.182912,0,0,2.182912,-13.50372,-14.35012)"
       style="opacity:0.40909089;color:#000000;fill:url(#radialGradient3107);fill-opacity:1;fill-rule:nonzero;stroke:none;stroke-width:1.10533953;stroke-linecap:butt;stroke-linejoin:miter;marker:none;marker-start:none;marker-mid:none;marker-end:none;stroke-miterlimit:4;stroke-dasharray:none;stroke-dashoffset:0;stroke-opacity:1;visibility:visible;display:inline;overflow:visible"
       id="path3099" />
    <path
       d="M 46.138718,23.42804 C 46.138718,35.143769 36.285088,44.641244 24.130018,44.641244 C 11.974949,44.641244 2.1213187,35.143769 2.1213188,23.42804 C 2.1213187,11.712311 11.974949,2.2148362 24.130018,2.2148362 C 36.285088,2.2148362 46.138718,11.712311 46.138718,23.42804 L 46.138718,23.42804 z "
       transform="matrix(0.94463,0,0,0.980053,1.504174,-1.556912)"
       style="opacity:1;fill:#f57900;fill-opacity:1;fill-rule:nonzero;stroke:#914900;stroke-width:0.98214942;stroke-linecap:round;stroke-linejoin:round;stroke-miterlimit:4;stroke-dasharray:none;stroke-dashoffset:0;stroke-opacity:1"
       id="path1650" />
    <path
       d="M 46.138718,23.42804 C 46.138718,35.143769 36.285088,44.641244 24.130018,44.641244 C 11.974949,44.641244 2.1213187,35.143769 2.1213188,23.42804 C 2.1213187,11.712311 11.974949,2.2148362 24.130018,2.2148362 C 36.285088,2.2148362 46.138718,11.712311 46.138718,23.42804 L 46.138718,23.42804 z "
       transform="matrix(0.914086,0,0,0.948364,2.380576,-0.905815)"
       style="opacity:1;fill:none;fill-opacity:1;fill-rule:nonzero;stroke:#fcaf3e;stroke-width:0.98214942;stroke-linecap:round;stroke-linejoin:round;stroke-miterlimit:4;stroke-dasharray:none;stroke-dashoffset:0;stroke-opacity:1"
       id="path3392" />
    <path
       d="M 43.676426,20.47678 C 43.676426,31.307396 37.624257,16.170581 25.001688,20.863168 C 12.279172,25.592912 4.4350535,31.307396 4.4350535,20.47678 C 4.4350535,9.6461627 13.22512,0.85609769 24.05574,0.85609769 C 34.886359,0.85609769 43.676426,9.6461627 43.676426,20.47678 z "
       style="fill:#fffeff;fill-opacity:0.21390375;fill-rule:nonzero;stroke:none;stroke-width:1;stroke-linecap:round;stroke-linejoin:round;stroke-miterlimit:4;stroke-dashoffset:0;stroke-opacity:1"
       id="path3068" />
    <path
       d="M 39.343995,28.784558 C 39.094901,28.442469 38.756397,28.130314 38.325427,27.910403 C 37.894991,27.689422 37.378061,27.564739 36.79354,27.565361 C 35.855828,27.567606 35.040371,27.868606 34.328101,28.131264 C 33.615902,28.400884 32.999692,28.621969 32.525633,28.61601 C 31.916617,28.615948 28.930175,28.616024 25.791478,28.616099 L 25.791108,13.524507 C 26.466943,13.288494 26.97383,12.693166 27.082355,11.966723 L 34.013273,10.109345 L 31.467445,16.554979 L 30.465584,16.555004 C 30.465642,18.964734 32.419196,20.918192 34.828926,20.918133 C 37.238656,20.918075 39.192114,18.964522 39.192055,16.554791 L 38.18989,16.554815 L 35.385534,9.4558244 L 35.122565,8.4748667 L 26.840586,10.694195 C 26.514553,10.132032 25.917472,9.7470134 25.227851,9.7182474 L 24.796155,8.1069234 L 23.548356,8.4412378 L 23.990996,10.092902 C 23.503855,10.448861 23.187192,11.023903 23.186286,11.673486 L 14.789486,13.923516 L 14.84001,14.112128 L 11.934964,21.467543 L 10.932875,21.467568 C 10.932934,23.877298 12.886485,25.830756 15.296217,25.830696 C 17.705949,25.830637 19.659406,23.877084 19.659348,21.467355 L 18.657335,21.467378 L 16.069927,14.917766 L 23.614066,12.896176 C 23.841957,13.18162 24.147696,13.401688 24.499436,13.524537 L 24.499803,28.61613 C 21.361184,28.616207 18.374737,28.616278 17.765725,28.61637 C 17.291589,28.622355 16.675369,28.401298 15.963159,28.131711 C 15.25095,27.869095 14.43563,27.568206 13.497688,27.565929 C 12.913243,27.565332 12.396245,27.690042 11.965818,27.910893 C 11.316929,28.242131 10.887124,28.775683 10.633763,29.315886 C 10.378719,29.859691 10.282129,30.414666 10.280839,30.891254 C 10.285985,31.603839 10.588595,32.287863 11.072162,32.831879 C 11.555194,33.370766 12.260443,33.782042 13.091906,33.783628 C 13.886704,33.787359 14.55427,33.43254 14.978793,32.947296 C 15.406531,32.460821 15.629118,31.861446 15.632164,31.270266 C 15.634908,30.690492 15.407548,30.162237 15.033984,29.802395 C 14.662183,29.440414 14.157572,29.24354 13.633066,29.244013 C 13.359177,29.243176 13.103658,29.315827 12.89752,29.428127 C 12.585976,29.597995 12.383971,29.837211 12.251012,30.056447 C 12.184493,30.167446 12.134662,30.275228 12.097692,30.381399 C 12.062103,30.491477 12.033628,30.585021 12.030569,30.741255 C 12.030879,30.785882 12.03333,30.837936 12.048561,30.907669 C 12.065022,30.976408 12.092428,31.068649 12.173724,31.176579 C 12.391052,31.459417 12.796526,31.512611 13.079444,31.295282 C 13.248001,31.165836 13.334956,30.969412 13.331733,30.771996 C 13.352017,30.730123 13.389219,30.665591 13.430706,30.62701 C 13.500439,30.56225 13.539172,30.539127 13.63302,30.535837 C 13.839239,30.536367 14.011247,30.610154 14.13342,30.728572 C 14.253757,30.849057 14.337733,31.010953 14.340494,31.270297 C 14.343562,31.517929 14.227906,31.852367 14.012813,32.089676 C 13.794655,32.328585 13.514878,32.488042 13.091877,32.491803 C 12.705535,32.493422 12.328226,32.295706 12.033126,31.968547 C 11.738637,31.646517 11.56754,31.207212 11.57266,30.891299 C 11.569439,30.496007 11.69833,29.939725 11.99081,29.546877 C 12.136935,29.347542 12.317356,29.182731 12.554195,29.061088 C 12.791645,28.940289 13.091479,28.85853 13.49772,28.857979 C 14.145011,28.855671 14.812743,29.080017 15.51309,29.342483 C 16.213201,29.597985 16.938653,29.902166 17.765756,29.908195 C 19.067075,29.908162 31.224271,29.907867 32.525665,29.907835 C 33.352768,29.901768 34.077973,29.597549 34.778304,29.342012 C 35.47848,29.079512 36.146283,28.855137 36.793569,28.857415 C 37.199884,28.858018 37.49973,28.939684 37.737107,29.060475 C 38.089921,29.241654 38.326767,29.525412 38.489591,29.866735 C 38.650658,30.204692 38.720022,30.596157 38.718727,30.890636 C 38.723709,31.206549 38.552789,31.645862 38.258315,31.967907 C 37.963233,32.29508 37.585933,32.492736 37.199593,32.491217 C 36.77636,32.487476 36.49665,32.328032 36.278557,32.08913 C 36.063454,31.851761 35.947703,31.517401 35.950914,31.26977 C 35.953513,31.010425 36.037557,30.848524 36.157884,30.728033 C 36.280055,30.609611 36.452057,30.535816 36.658276,30.535274 C 36.715306,30.536114 36.744928,30.546447 36.780217,30.564509 C 36.830817,30.590078 36.892666,30.652691 36.933088,30.721587 C 36.943803,30.739115 36.952839,30.75672 36.959727,30.771647 C 36.956593,30.967913 37.042638,31.163188 37.209822,31.29278 C 37.491601,31.511395 37.897305,31.460249 38.115993,31.178396 L 38.115764,31.178396 C 38.202185,31.064183 38.22775,30.970794 38.243747,30.902741 C 38.258365,30.833468 38.260353,30.78348 38.260658,30.74069 C 38.259661,30.634364 38.244351,30.562334 38.226054,30.488389 C 38.158688,30.242059 38.030537,29.981646 37.784125,29.723527 C 37.543758,29.471083 37.143789,29.240375 36.658397,29.243603 C 36.133812,29.243006 35.629291,29.43982 35.257276,29.801904 C 34.883885,30.161759 34.656553,30.690027 34.659242,31.2698 C 34.662473,31.861056 34.884936,32.460346 35.312852,32.946798 C 35.735179,33.429576 36.398092,33.783056 37.187454,33.783039 C 37.191588,33.783039 37.195645,33.783039 37.199779,33.78304 C 38.031166,33.78141 38.736468,33.370103 39.219474,32.831192 C 39.703015,32.287233 40.005595,31.603113 40.010704,30.890528 C 40.007397,30.257553 39.841421,29.474161 39.343995,28.784558 z M 32.444811,16.554879 L 34.828598,10.5197 L 37.212603,16.554763 L 32.444811,16.554879 z M 12.912253,21.467521 L 15.295888,15.432492 L 17.679816,21.467401 L 12.912253,21.467521 z M 25.14536,10.854379 C 25.598295,10.855209 25.965121,11.222013 25.966048,11.675102 C 25.965144,12.128113 25.598257,12.495016 25.145402,12.496024 C 24.692238,12.49504 24.325329,12.12823 24.324554,11.67514 C 24.325386,11.222054 24.692197,10.855147 25.14536,10.854379 z "
 style="opacity:0.30;filter:url(#Gaussian_Blur)"
       id="path3583" />
    <g
       transform="matrix(7.6429911e-2,0,0,7.6429911e-2,9.37996,6.6084696)"
       id="g3593">
      <g
         transform="matrix(0.965926,-0.258819,0.258819,0.965926,251.9719,-0.97947)"
         id="g3595">
        <path
           d="M -51.25,46 L 69,46 M -206,46 L -84.5,46 M -68.5,-2 L -68.5,28.5"
           style="fill:none;fill-opacity:0.75;fill-rule:evenodd;stroke:#ffffff;stroke-width:16.875;stroke-linecap:butt;stroke-linejoin:miter;stroke-miterlimit:4;stroke-opacity:1"
           id="path3597" />
      </g>
      <path
         d="M 198,77 L 198,289"
         style="fill:none;fill-opacity:0.75;fill-rule:evenodd;stroke:#ffffff;stroke-width:16.875;stroke-linecap:butt;stroke-linejoin:miter;stroke-miterlimit:4;stroke-dasharray:none;stroke-opacity:1"
         id="path3599" />
      <path
         d="M 213 59 A 16 16 0 1 1  181,59 A 16 16 0 1 1  213 59 z"
         transform="matrix(1.134831,0,0,1.134831,-25.56171,-7.705056)"
         style="opacity:1;fill:none;fill-opacity:1;stroke:#ffffff;stroke-width:14.8700552;stroke-linecap:butt;stroke-linejoin:round;stroke-miterlimit:4;stroke-dasharray:none;stroke-dashoffset:0;stroke-opacity:1"
         id="path3601" />
      <g
         transform="translate(2.828428,-2.828428)"
         id="g3603">
        <path
           d="M 27,195 L 66.5,95 L 106,195"
           style="fill:none;fill-opacity:0.75;fill-rule:evenodd;stroke:#ffffff;stroke-width:11.875;stroke-linecap:butt;stroke-linejoin:bevel;stroke-miterlimit:4;stroke-dasharray:none;stroke-opacity:1"
           id="path3605" />
        <path
           d="M 122,188 A 57,57 0 1 1 8,188"
           transform="translate(1.5,2)"
           style="opacity:1;fill:#ffffff;fill-opacity:1;stroke:none;stroke-width:11.875;stroke-linecap:butt;stroke-linejoin:bevel;stroke-miterlimit:4;stroke-dasharray:none;stroke-dashoffset:0;stroke-opacity:1"
           id="path3607" />
      </g>
      <g
         transform="translate(258.00003,-67.000008)"
         style="fill:#ff0000"
         id="use3609">
        <path
           d="M 27,195 L 66.5,95 L 106,195"
           style="fill:none;fill-opacity:0.75;fill-rule:evenodd;stroke:#ffffff;stroke-width:11.875;stroke-linecap:butt;stroke-linejoin:bevel;stroke-miterlimit:4;stroke-dasharray:none;stroke-opacity:1"
           id="path3621" />
        <path
           d="M 122,188 A 57,57 0 1 1 8,188"
           transform="translate(1.5,2)"
           style="opacity:1;fill:#ffffff;fill-opacity:1;stroke:none;stroke-width:11.875;stroke-linecap:butt;stroke-linejoin:bevel;stroke-miterlimit:4;stroke-dasharray:none;stroke-dashoffset:0;stroke-opacity:1"
           id="path3623" />
      </g>
      <path
         d="M 360.77118,308.86649 C 361.63774,307.75381 357.94276,297.19922 348.39682,297.19922 C 338.85087,297.19922 330.71914,304.27029 330.71914,315.23045 C 330.71914,326.1906 339.55799,339.62563 355.46788,339.62563 C 371.37779,339.62563 383.75216,323.71573 383.75216,310.2807 C 383.75216,296.84567 376.0514,275.27892 350.16458,275.27892 C 329.45856,275.27892 311.40902,289 294.40902,289 C 277.409,289 118.59099,289 101.59098,289 C 84.59099,289 66.541438,275.27892 45.835416,275.27892 C 19.948599,275.27892 12.247845,296.84567 12.247845,310.2807 C 12.247845,323.71573 24.622213,339.62563 40.532115,339.62563 C 56.442018,339.62563 65.280853,326.1906 65.280853,315.23045 C 65.280853,304.27029 57.149125,297.19922 47.603183,297.19922 C 38.057242,297.19922 34.362269,307.75381 35.228814,308.86649"
         style="fill:none;fill-opacity:0.75;fill-rule:evenodd;stroke:#ffffff;stroke-width:16.875;stroke-linecap:round;stroke-linejoin:miter;stroke-miterlimit:4;stroke-opacity:1"
         id="path3611" />
    </g>
  </g>
  <g
     style="display:inline"
     id="layer3" />
  <g
     id="layer2" />
</svg>
