<?xml version="1.0" encoding="UTF-8" standalone="no"?>
<!-- Generator: Adobe Illustrator 9.0, SVG Export Plug-In  -->
<svg
   xmlns:dc="http://purl.org/dc/elements/1.1/"
   xmlns:cc="http://creativecommons.org/ns#"
   xmlns:rdf="http://www.w3.org/1999/02/22-rdf-syntax-ns#"
   xmlns:svg="http://www.w3.org/2000/svg"
   xmlns="http://www.w3.org/2000/svg"
   xmlns:xlink="http://www.w3.org/1999/xlink"
   xmlns:sodipodi="http://sodipodi.sourceforge.net/DTD/sodipodi-0.dtd"
   xmlns:inkscape="http://www.inkscape.org/namespaces/inkscape"
   sodipodi:docbase="/home/jimmac/gfx/ximian/tango-icon-theme/scalable/mimetypes"
   sodipodi:docname="Application-certificate2.svg"
   inkscape:version="0.46"
   sodipodi:version="0.32"
   id="svg5105"
   xml:space="preserve"
   viewBox="0 0 48 48"
   height="107.07"
   width="82.989998"
   inkscape:output_extension="org.inkscape.output.svg.inkscape"
   version="1.0"><metadata
   id="metadata5189">
  <rdf:RDF>
    <cc:Work
   rdf:about="">
      <dc:format>image/svg+xml</dc:format>


      <dc:type
   rdf:resource="http://purl.org/dc/dcmitype/StillImage" />


    <dc:title>Certificate</dc:title><dc:creator><cc:Agent><dc:title>Jakub Steiner</dc:title></cc:Agent></dc:creator><dc:subject><rdf:Bag><rdf:li>certificate</rdf:li></rdf:Bag></dc:subject><cc:license
   rdf:resource="http://creativecommons.org/licenses/by-sa/2.0/" /></cc:Work>


  <cc:License
   rdf:about="http://creativecommons.org/licenses/by-sa/2.0/"><cc:permits
     rdf:resource="http://web.resource.org/cc/Reproduction" /><cc:permits
     rdf:resource="http://web.resource.org/cc/Distribution" /><cc:requires
     rdf:resource="http://web.resource.org/cc/Notice" /><cc:requires
     rdf:resource="http://web.resource.org/cc/Attribution" /><cc:permits
     rdf:resource="http://web.resource.org/cc/DerivativeWorks" /><cc:requires
     rdf:resource="http://web.resource.org/cc/ShareAlike" /></cc:License></rdf:RDF>


</metadata>


<defs
   id="defs5187"><linearGradient
   id="linearGradient3235"><stop
     style="stop-color:#ffffff;stop-opacity:0.61676645;"
     offset="0"
     id="stop3237" /><stop
     style="stop-color:#ffffff;stop-opacity:0.35329342;"
     offset="1"
     id="stop3239" /></linearGradient><linearGradient
   inkscape:collect="always"
   id="linearGradient3302"><stop
     style="stop-color:#552200;stop-opacity:1;"
     offset="0"
     id="stop3304" /><stop
     style="stop-color:#552200;stop-opacity:0;"
     offset="1"
     id="stop3306" /></linearGradient><linearGradient
   id="linearGradient3284"><stop
     style="stop-color:#000000;stop-opacity:1;"
     offset="0"
     id="stop3286" /><stop
     style="stop-color:#ffffff;stop-opacity:0.02994012;"
     offset="1"
     id="stop3288" /></linearGradient><linearGradient
   id="linearGradient2494"><stop
     style="stop-color:#ecdf2a;stop-opacity:1;"
     offset="0"
     id="stop2496" /><stop
     style="stop-color:#ffffc8;stop-opacity:0.7185629;"
     offset="1"
     id="stop2498" /></linearGradient><linearGradient
   id="linearGradient3260"><stop
     style="stop-color:#a20000;stop-opacity:1;"
     offset="0"
     id="stop3262" /><stop
     id="stop3268"
     offset="0.48784447"
     style="stop-color:#f20000;stop-opacity:1;" /><stop
     style="stop-color:#ffffff;stop-opacity:1;"
     offset="0.51735365"
     id="stop3270" /><stop
     style="stop-color:#ffffff;stop-opacity:1;"
     offset="1"
     id="stop3264" /></linearGradient><inkscape:perspective
   sodipodi:type="inkscape:persp3d"
   inkscape:vp_x="0 : 24 : 1"
   inkscape:vp_y="0 : 1000 : 0"
   inkscape:vp_z="48 : 24 : 1"
   inkscape:persp3d-origin="24 : 16 : 1"
   id="perspective54" /><linearGradient
   id="linearGradient6684">
  <stop
   id="stop6686"
   offset="0"
   style="stop-color:#78ac63;stop-opacity:1;" />
  <stop
   id="stop6688"
   offset="1"
   style="stop-color:#2cd900;stop-opacity:0;" />
</linearGradient>
<linearGradient
   id="linearGradient6665">
  <stop
   style="stop-color:#000000;stop-opacity:1.0000000;"
   offset="0.0000000"
   id="stop6667" />
  <stop
   style="stop-color:#000000;stop-opacity:0.0000000;"
   offset="1.0000000"
   id="stop6669" />
</linearGradient>
<linearGradient
   id="linearGradient6625">
  <stop
   id="stop6627"
   offset="0"
   style="stop-color:#990000;stop-opacity:1;" />
  <stop
   style="stop-color:#feff1d;stop-opacity:1;"
   offset="0.19680229"
   id="stop6637" />
  <stop
   style="stop-color:#ffffc5;stop-opacity:1;"
   offset="0.47187439"
   id="stop6633" />
  <stop
   id="stop6635"
   offset="0.81320065"
   style="stop-color:#cdc705;stop-opacity:1;" />
  <stop
   id="stop6629"
   offset="1"
   style="stop-color:#feff07;stop-opacity:1;" />
</linearGradient>
<linearGradient
   id="linearGradient6617">
  <stop
   id="stop6619"
   offset="0.0000000"
   style="stop-color:#ffffff;stop-opacity:0.24742268;" />
  <stop
   id="stop6621"
   offset="1"
   style="stop-color:#ffffff;stop-opacity:0;" />
</linearGradient>
<linearGradient
   id="linearGradient6604">
  <stop
   id="stop6606"
   offset="0"
   style="stop-color:#009c00;stop-opacity:1;" />
  <stop
   id="stop6608"
   offset="1"
   style="stop-color:#ffffff;stop-opacity:1;" />
</linearGradient>
<radialGradient
   r="13.2807"
   fy="20.971201"
   fx="28.789101"
   cy="20.971201"
   cx="28.789101"
   gradientUnits="userSpaceOnUse"
   id="radialGradient5199"
   xlink:href="#aigrd1"
   inkscape:collect="always" />


<radialGradient
   r="14.6944"
   fy="13.5444"
   fx="19.292"
   cy="13.5444"
   cx="19.292"
   gradientUnits="userSpaceOnUse"
   id="radialGradient5201"
   xlink:href="#aigrd2"
   inkscape:collect="always" />


<linearGradient
   y2="16.723101"
   x2="23.412001"
   y1="11.5991"
   x1="18.229"
   gradientUnits="userSpaceOnUse"
   id="linearGradient5203"
   xlink:href="#aigrd3"
   inkscape:collect="always" />



		
	
			
			
			<radialGradient
   gradientUnits="userSpaceOnUse"
   fy="20.971201"
   fx="28.789101"
   r="13.2807"
   cy="20.971201"
   cx="28.789101"
   id="aigrd1">
				<stop
   id="stop5115"
   style="stop-color:#355e12;stop-opacity:1;"
   offset="0" />



				<stop
   id="stop5117"
   style="stop-color:#21c309;stop-opacity:1;"
   offset="1" />



			</radialGradient>



			
			<radialGradient
   gradientUnits="userSpaceOnUse"
   fy="13.5444"
   fx="19.292"
   r="14.6944"
   cy="13.5444"
   cx="19.292"
   id="aigrd2">
				<stop
   id="stop5122"
   style="stop-color:#ffffff;stop-opacity:1;"
   offset="0" />



				<stop
   id="stop5124"
   style="stop-color:#066500;stop-opacity:1;"
   offset="1" />



			</radialGradient>



			
			
			
			
			
			<linearGradient
   y2="16.723101"
   x2="23.412001"
   y1="11.5991"
   x1="18.229"
   gradientUnits="userSpaceOnUse"
   id="aigrd3">
				<stop
   id="stop5137"
   style="stop-color:#FFFFFF"
   offset="0" />



				<stop
   id="stop5139"
   style="stop-color:#901505"
   offset="1" />



			</linearGradient>



			
			
			
		<linearGradient
   gradientTransform="matrix(1.135551,0,0,1.135551,-3.259995,-3.266773)"
   y2="16.723101"
   x2="23.412001"
   y1="11.5991"
   x1="18.229"
   gradientUnits="userSpaceOnUse"
   id="linearGradient5274"
   xlink:href="#aigrd3"
   inkscape:collect="always" />


<radialGradient
   gradientTransform="matrix(1.135551,0,0,1.135551,-4.540325,-2.077433)"
   r="14.6944"
   fy="13.5444"
   fx="19.292"
   cy="13.5444"
   cx="19.292"
   gradientUnits="userSpaceOnUse"
   id="radialGradient5281"
   xlink:href="#aigrd2"
   inkscape:collect="always" />


<radialGradient
   gradientTransform="matrix(1.7636389,0,0,1.7636389,-18.846951,-14.092804)"
   r="13.2807"
   fy="20.971201"
   fx="28.789101"
   cy="20.971201"
   cx="28.789101"
   gradientUnits="userSpaceOnUse"
   id="radialGradient5284"
   xlink:href="#aigrd1"
   inkscape:collect="always" />



				
			<linearGradient
   gradientUnits="userSpaceOnUse"
   y2="59.83532"
   x2="50.801872"
   y1="5.9244628"
   x1="15.338736"
   gradientTransform="matrix(1.3132252,0,0,1.2530706,-7.3924897,-5.540506)"
   id="linearGradient6610"
   xlink:href="#linearGradient6604"
   inkscape:collect="always" />

<linearGradient
   gradientUnits="userSpaceOnUse"
   y2="34.417061"
   x2="38.672676"
   y1="24.538456"
   x1="38.084389"
   gradientTransform="matrix(1.13585,0,0,1.5947777,-8.9380165,-5.9295393)"
   id="linearGradient6631"
   xlink:href="#linearGradient6625"
   inkscape:collect="always" />



<linearGradient
   gradientUnits="userSpaceOnUse"
   y2="26.182709"
   x2="40.189514"
   y1="40.264633"
   x1="33.43243"
   gradientTransform="matrix(1.13585,0,0,1.5947777,-7.2148299,-8.2032098)"
   id="linearGradient6690"
   xlink:href="#linearGradient6684"
   inkscape:collect="always" />
<linearGradient
   inkscape:collect="always"
   xlink:href="#linearGradient3260"
   id="linearGradient3266"
   x1="-52.91629"
   y1="-16.89539"
   x2="-49.309578"
   y2="-34.681648"
   gradientUnits="userSpaceOnUse" /><inkscape:perspective
   sodipodi:type="inkscape:persp3d"
   inkscape:vp_x="0 : 526.18109 : 1"
   inkscape:vp_y="0 : 1000 : 0"
   inkscape:vp_z="744.09448 : 526.18109 : 1"
   inkscape:persp3d-origin="372.04724 : 350.78739 : 1"
   id="perspective3186" /><inkscape:perspective
   sodipodi:type="inkscape:persp3d"
   inkscape:vp_x="0 : 526.18109 : 1"
   inkscape:vp_y="0 : 1000 : 0"
   inkscape:vp_z="744.09448 : 526.18109 : 1"
   inkscape:persp3d-origin="372.04724 : 350.78739 : 1"
   id="perspective2390" /><inkscape:perspective
   id="perspective10"
   inkscape:persp3d-origin="372.04724 : 350.78739 : 1"
   inkscape:vp_z="744.09448 : 526.18109 : 1"
   inkscape:vp_y="0 : 1000 : 0"
   inkscape:vp_x="0 : 526.18109 : 1"
   sodipodi:type="inkscape:persp3d" /><linearGradient
   inkscape:collect="always"
   xlink:href="#linearGradient2494"
   id="linearGradient2461"
   gradientUnits="userSpaceOnUse"
   gradientTransform="matrix(1.3413922,-0.5599435,0.5599435,1.3413922,-16.805672,5.1034741)"
   x1="24.723339"
   y1="15.982227"
   x2="23.684263"
   y2="26.388744" /><linearGradient
   inkscape:collect="always"
   xlink:href="#linearGradient3302"
   id="linearGradient2463"
   gradientUnits="userSpaceOnUse"
   x1="271.63528"
   y1="634.21509"
   x2="269.92438"
   y2="700.05896" /><radialGradient
   inkscape:collect="always"
   xlink:href="#linearGradient3235"
   id="radialGradient3241"
   cx="24.576954"
   cy="15.440888"
   fx="24.576954"
   fy="15.440888"
   r="15.283294"
   gradientTransform="translate(0,1.3790752e-6)"
   gradientUnits="userSpaceOnUse" /></defs>


<sodipodi:namedview
   inkscape:current-layer="svg5105"
   inkscape:window-y="26"
   inkscape:window-x="0"
   inkscape:cy="47.90124"
   inkscape:cx="1.6505811"
   inkscape:zoom="2.8093842"
   id="base"
   pagecolor="#ffffff"
   bordercolor="#666666"
   borderopacity="0.16470588"
   inkscape:pageopacity="0.0"
   inkscape:pageshadow="2"
   inkscape:window-width="1440"
   inkscape:window-height="841"
   inkscape:showpageshadow="false"
   showgrid="false"
   showguides="true"
   inkscape:guide-bbox="true"><sodipodi:guide
     orientation="0,1"
     position="10.571172,50.842306"
     id="guide2460" /></sodipodi:namedview>



	



<path
   id="path5112"
   d="M 24.576952,16.113836 C 24.576952,16.113836 16.62964,27.117807 16.62964,32.161293 C 16.62964,37.204781 25.799615,34.453788 29.467607,38.121779 C 33.135597,41.78977 20.908961,51.265412 20.908961,51.265412 L 33.135597,47.903088 L 38.026252,53.099409 C 38.026252,46.833257 45.209399,41.78977 41.541408,37.968946 C 37.720584,34.148123 26.869447,34.606622 26.258117,29.563134 C 25.646782,24.519648 24.729785,16.266669 24.729785,16.266669 L 24.576952,16.113836 z"
   style="fill:url(#linearGradient6631);fill-opacity:1;fill-rule:nonzero;stroke:#2b1100;stroke-width:1.34589207;stroke-miterlimit:6.5999999;stroke-opacity:1" />


<path
   sodipodi:nodetypes="cscccsss"
   style="fill:none;fill-opacity:1;fill-rule:nonzero;stroke:url(#linearGradient6690);stroke-width:0.97055703;stroke-miterlimit:6.5999999;stroke-opacity:1"
   d="M 20.784058,34.330247 C 26.910558,34.933729 30.782709,35.99313 31.290931,39.69916 C 31.735228,42.939043 25.594922,48.760996 25.594922,48.760996 L 33.460166,46.574266 L 37.284343,50.559383 C 38.176552,45.564857 43.158904,42.185234 40.889864,39.113101 C 38.043721,35.259613 28.822528,36.093637 28.381679,32.45665 C 27.940835,28.819664 17.164929,33.970262 20.784058,34.330247 z"
   id="path6680" />
<path
   sodipodi:nodetypes="csssssssssssss"
   id="path5119"
   d="M 39.804575,4.2420008 C 41.508908,8.1850003 44.503004,7.9843821 44.577052,13.247125 C 44.619282,16.182103 46.940312,17.723232 46.940312,20.721419 C 46.940312,23.719602 41.762275,25.201044 39.998639,26.964678 C 38.235001,28.72832 40.137771,33.251068 35.353217,34.580115 C 30.614125,35.896529 28.298659,34.051025 25.300473,34.051025 C 22.302284,34.051025 15.127809,39.832203 12.482344,37.186743 C 9.8368884,34.541285 9.7804464,28.760107 7.4877161,26.467374 C 5.0186204,23.998281 1.1174856,20.548574 1.1174856,16.139478 C 1.1174856,11.73038 3.6635548,9.4027867 7.3113528,5.3037065 C 11.074959,1.0744952 11.191358,-5.2781279 15.600455,-5.2781279 C 20.009554,-5.2781279 21.699531,-4.0686651 25.452181,-4.1635049 C 31.434096,-4.3146837 32.167148,-7.1598184 36.566632,-4.9289224 C 40.445567,-2.9619862 38.470386,1.1553347 39.804575,4.2420008 z"
   style="fill:url(#radialGradient5284);fill-rule:nonzero;stroke:#0f0a04;stroke-width:1.34589207;stroke-linecap:round;stroke-linejoin:round;stroke-miterlimit:4;stroke-opacity:1" />


<path
   id="path5126"
   d="M 39.860247,15.440888 C 39.860247,22.707538 34.720539,28.83203 27.89692,30.358564 C 26.827208,30.597874 25.716117,30.724181 24.576952,30.724181 C 16.171139,30.724181 9.2936584,23.846701 9.2936584,15.440888 C 9.2936584,7.0350771 16.171139,0.15759513 24.576952,0.15759513 C 32.982763,0.15759513 39.860247,7.0350771 39.860247,15.440888 z"
   style="fill:url(#radialGradient3241);fill-rule:nonzero;stroke:none;stroke-miterlimit:4;fill-opacity:1.0"
   sodipodi:nodetypes="cssssc" />

















	
<path
   style="fill:none;fill-rule:nonzero;stroke:url(#linearGradient6610);stroke-width:1.34589207;stroke-linecap:round;stroke-linejoin:round;stroke-miterlimit:4;stroke-opacity:1"
   d="M 38.396078,5.296259 C 39.643588,8.1823868 41.649856,8.6308504 42.424384,11.184061 C 42.613533,11.807587 42.729001,12.556647 42.742461,13.497383 C 42.780697,16.170321 44.894717,17.573852 44.894717,20.30435 C 44.894717,23.034851 40.178994,24.384021 38.572815,25.990197 C 36.96664,27.596376 38.69953,31.715322 34.34215,32.925705 C 30.026175,34.124586 27.917443,32.443855 25.186942,32.443855 C 22.456444,32.443855 15.922521,37.708873 13.513255,35.299602 C 11.10399,32.890342 11.052588,27.625321 8.9645567,25.537293 C 6.7159087,23.288645 3.1630777,20.146939 3.1630777,16.131497 C 3.1630777,12.116058 5.4818283,9.9962733 8.8039397,6.2631724 C 12.231519,2.4115569 12.33753,-3.3738869 16.352968,-3.3738869 C 20.36841,-3.3738869 21.907501,-2.2724082 25.325106,-2.3587804 C 27.677587,-2.4182338 29.138705,-2.935173 30.362237,-3.3398152 C 31.97214,-3.8722377 33.170707,-4.2102409 35.447229,-3.0558592 C 38.979846,-1.264536 37.181009,2.485179 38.396078,5.296259 z"
   id="path6600"
   sodipodi:nodetypes="csssssssssssssss" />
<g
   id="g2451"
   transform="matrix(1.0371779,-0.2613993,0.2613993,1.0371779,-5.9025214,6.051926)"><path
     sodipodi:nodetypes="cccscsccsccsscssscsccc"
     id="path2460"
     d="M 23.625792,1.8212713 C 21.924986,2.4269262 21.118071,5.0328224 21.626523,7.723071 L 21.726772,9.6337369 C 19.010449,10.346336 16.331512,10.981756 17.376802,13.913453 C 17.564868,14.440917 17.991746,15.033717 18.572497,15.552796 C 16.360973,15.631101 14.675089,17.547893 16.836185,19.857202 C 17.14911,20.189351 17.619599,20.516102 18.156817,20.793551 L 17.869698,20.77394 C 15.763546,20.960998 16.037214,23.438738 18.29812,24.918523 C 18.595204,25.112968 19.115349,25.261183 19.707556,25.399411 L 19.205962,25.422838 C 17.346368,25.929251 17.973113,27.598969 20.072589,28.501222 C 21.307504,29.031941 25.667302,28.79247 27.124124,27.46369 C 27.13384,27.454826 27.154259,27.456127 27.163713,27.447165 C 29.464255,28.14822 33.187033,25.303896 33.824426,24.248358 C 34.576825,23.002357 35.957098,22.302483 36.653825,21.114753 C 37.254097,20.091454 37.298864,18.484362 36.85576,17.032459 C 36.378926,15.470033 34.819536,15.19994 33.765199,14.41754 C 32.525712,13.640867 31.911231,12.014874 30.532438,11.350603 C 28.645935,10.441704 26.816682,8.7350054 26.843482,7.0794481 C 26.47045,5.750357 27.952763,4.6288976 27.543927,3.3004287 C 26.005185,1.8072248 24.646279,1.4578785 23.625792,1.8212713 z"
     style="fill:url(#linearGradient2461);fill-opacity:1;fill-rule:evenodd;stroke:none;stroke-width:0.77531707px;stroke-linecap:round;stroke-linejoin:round;stroke-opacity:1" /><g
     style="stroke:#552200"
     transform="matrix(0.1643626,-6.8610632e-2,6.8610632e-2,0.1643626,-61.261152,-67.093487)"
     inkscape:label="Layer 1"
     id="layer1"><g
       style="stroke:#552200"
       id="g3232"><g
         style="stroke:#552200"
         id="g2485"><path
           style="fill:none;fill-rule:evenodd;stroke:url(#linearGradient2463);stroke-width:5.97598934px;stroke-linecap:round;stroke-linejoin:round;stroke-opacity:1"
           d="M 275.36326,683.7892 C 288.86959,678.3555 304.63339,675.94853 315.88231,667.48821 C 321.20571,663.48453 324.81925,655.24886 325.66365,646.7678 C 326.5723,637.64116 319.16106,632.7892 315.39054,626.45499 C 310.64821,619.75005 310.95769,609.96871 305.25055,603.54484 C 297.44182,594.75537 291.61587,581.94378 295.33541,573.42387 C 296.27725,565.73068 306.33552,563.23348 307.09051,555.46608 C 294.44237,525.9601 271.96025,541.48494 266.8655,565.54669 C 264.71258,572.01319 263.87512,580.57168 268.06289,590.0425 C 278.00831,608.57441 280.26345,598.1521 283.81533,615.0449 C 266.26379,643.65006 230.55262,605.96929 231.4775,588.51861 C 232.40233,571.06793 242.19198,572.86786 257.8072,575.05065"
           id="path2396"
           sodipodi:nodetypes="csscsccccccc" /><path
           style="fill:none;fill-rule:evenodd;stroke:#552200;stroke-width:5.77495575px;stroke-linecap:round;stroke-linejoin:round;stroke-opacity:1"
           d="M 235.03593,599.82861 C 223.22472,594.88445 209.58247,601.118 215.9189,618.11643 C 223.14273,637.29869 278.0345,667.8272 273.46895,631.42124 C 272.51575,629.06872 267.71394,625.8776 267.71394,625.8776"
           id="path2401"
           sodipodi:nodetypes="cccs" /><path
           sodipodi:nodetypes="cscs"
           id="path3175"
           d="M 219.24267,625.0707 C 207.92551,621.48464 204.02483,634.87356 212.53861,647.43069 C 219.63285,657.89422 267.37303,680.33569 261.20471,651.33355 C 260.2135,649.35243 255.6185,648.0227 255.6185,648.0227"
           style="fill:none;fill-rule:evenodd;stroke:#552200;stroke-width:5.22211552px;stroke-linecap:round;stroke-linejoin:round;stroke-opacity:1" /><path
           style="fill:none;fill-rule:evenodd;stroke:#552200;stroke-width:4.59540319px;stroke-linecap:round;stroke-linejoin:round;stroke-opacity:1"
           d="M 216.04927,651.92178 C 205.31894,650.52364 204.9454,660.65196 213.87193,669.86759 C 221.30998,677.54668 265.1503,691.00048 256.95876,667.84255 C 255.87462,666.33971 251.52874,665.87652 251.52874,665.87652"
           id="path3177"
           sodipodi:nodetypes="cscs" /></g></g></g></g>
</svg>