<?xml version="1.0" encoding="UTF-8" standalone="no"?>
<svg xmlns:svg="http://www.w3.org/2000/svg" xmlns="http://www.w3.org/2000/svg" xmlns:xlink="http://www.w3.org/1999/xlink" version="1.0" width="48" height="48" id="svg2">
<defs id="defs4">
<linearGradient id="linearGradient3195">
 <stop style="stop-color:#eeeeec;stop-opacity:1" offset="0"/>
 <stop style="stop-color:#eeeeec;stop-opacity:0" offset="1"/>
</linearGradient>
<linearGradient id="linearGradient3186">
 <stop style="stop-color:#888a85;stop-opacity:1" offset="0"/>
 <stop style="stop-color:#888a85;stop-opacity:0" offset="1"/>
</linearGradient>
<linearGradient id="linearGradient3303">
 <stop style="stop-color:#888a85;stop-opacity:1" offset="0"/>
 <stop style="stop-color:#888a85;stop-opacity:0" offset="1"/>
</linearGradient>
<linearGradient id="linearGradient3282">
 <stop style="stop-color:#ffffff;stop-opacity:1" offset="0"/>
 <stop style="stop-color:#ffffff;stop-opacity:0" offset="1"/>
</linearGradient>
<linearGradient id="linearGradient3264">
 <stop style="stop-color:#ffffff;stop-opacity:1" offset="0"/>
 <stop style="stop-color:#ffffff;stop-opacity:0" offset="1"/>
</linearGradient>
<linearGradient id="linearGradient3250">
 <stop style="stop-color:#ffffff;stop-opacity:1" offset="0"/>
 <stop style="stop-color:#ffffff;stop-opacity:0" offset="1"/>
</linearGradient>
<linearGradient id="linearGradient3240">
 <stop style="stop-color:#ffffff;stop-opacity:1" offset="0"/>
 <stop style="stop-color:#ffffff;stop-opacity:0.47572815" offset="1"/>
</linearGradient>
<linearGradient id="linearGradient3228">
 <stop style="stop-color:#eeeeec;stop-opacity:1" offset="0"/>
 <stop style="stop-color:#eeeeec;stop-opacity:0" offset="1"/>
</linearGradient>
<linearGradient id="linearGradient3218">
 <stop style="stop-color:#ff0f0f;stop-opacity:1" offset="0"/>
 <stop style="stop-color:#ff0f0f;stop-opacity:0" offset="1"/>
</linearGradient>
<linearGradient id="linearGradient3185">
 <stop style="stop-color:#a40000;stop-opacity:1" offset="0"/>
 <stop style="stop-color:#680000;stop-opacity:1" offset="1"/>
</linearGradient>
<linearGradient id="linearGradient3169">
 <stop style="stop-color:#e40000;stop-opacity:0.592" offset="0"/>
 <stop style="stop-color:#770000;stop-opacity:1" offset="1"/>
</linearGradient>
<linearGradient id="linearGradient3161">
 <stop style="stop-color:#ffffff;stop-opacity:0.534" offset="0"/>
 <stop style="stop-color:#000000;stop-opacity:0.078" offset="1"/>
</linearGradient>
<linearGradient x1="13.258" y1="-6.137" x2="31.466" y2="21.617" id="linearGradient2442" xlink:href="#linearGradient3282" gradientUnits="userSpaceOnUse" gradientTransform="matrix(1,0,0,0.931648,0,3.2023477)"/>
<linearGradient x1="15.173" y1="5.0464" x2="26.04" y2="29.487" id="linearGradient2445" xlink:href="#linearGradient3264" gradientUnits="userSpaceOnUse" gradientTransform="matrix(1,0,0,0.931648,0,3.2023477)"/>
<radialGradient cx="73.063" cy="17.438" r="1.063" fx="73.063" fy="17.438" id="radialGradient2448" xlink:href="#linearGradient3228" gradientUnits="userSpaceOnUse" gradientTransform="matrix(1,0,0,1.1176471,0,-2.05147)"/>
<radialGradient cx="69.188" cy="19.25" r="1.6875" fx="69.188" fy="19.25" id="radialGradient2451" xlink:href="#linearGradient3218" gradientUnits="userSpaceOnUse" gradientTransform="matrix(1,0,0,0.8971427,-47.75,5.26405)"/>
<linearGradient x1="20.627" y1="17.396" x2="23.34" y2="28.084" id="linearGradient2454" xlink:href="#linearGradient3195" gradientUnits="userSpaceOnUse"/>
<linearGradient x1="20.524" y1="15.617" x2="24.022" y2="26" id="linearGradient2457" xlink:href="#linearGradient3169" gradientUnits="userSpaceOnUse" gradientTransform="matrix(1.12019,0,0,0.931648,-2.3880578,2.812426)"/>
<linearGradient x1="20.524" y1="15.617" x2="24.022" y2="26" id="linearGradient2459" xlink:href="#linearGradient3185" gradientUnits="userSpaceOnUse" gradientTransform="matrix(1.12019,0,0,0.931648,-2.3880578,2.812426)"/>
<linearGradient x1="14.248" y1="-1.588" x2="30.045" y2="44.678" id="linearGradient2462" xlink:href="#linearGradient3240" gradientUnits="userSpaceOnUse" gradientTransform="matrix(1,0,0,0.931648,0,3.2023477)"/>
<radialGradient cx="21.427" cy="15.473" r="9.418" fx="21.427" fy="15.473" id="radialGradient2466" xlink:href="#linearGradient3161" gradientUnits="userSpaceOnUse" gradientTransform="matrix(1.637125,3.5074227e-3,-0.00577,2.3362135,-13.925388,-28.1445)"/>
<linearGradient x1="24.5028" y1="25.502" x2="28.92" y2="49.629" id="linearGradient2468" xlink:href="#linearGradient3186" gradientUnits="userSpaceOnUse"/>
<linearGradient x1="21.213" y1="37.488" x2="30.573" y2="54.283" id="linearGradient2471" xlink:href="#linearGradient3250" gradientUnits="userSpaceOnUse" gradientTransform="matrix(0.9074683,0,0,0.6032804,2.666555,17.72205)"/>
<radialGradient cx="24.875" cy="44.063" r="10.875" fx="24.875" fy="44.063" id="radialGradient2475" xlink:href="#linearGradient3303" gradientUnits="userSpaceOnUse" gradientTransform="matrix(1.5632184,0,0,0.34,-14.885057,29.121767)"/>
</defs>
<path d="M 41,44.0625 C 41,46.1 33.388842,47.75 24,47.75 C 14.61,47.75 7,46.1 7,44.0625 C 7,42.02595 14.61,40.375 24,40.375 C 33.389,40.375 41,42.02595 41,44.0625 L 41,44.0625 z" style="opacity:0.32642487;fill:url(#radialGradient2475)"/>
<path d="M 32.606414,44.339373 C 32.606414,45.72648 28.967704,46.850952 24.479128,46.850952 C 20,46.850952 16.351842,45.72648 16.351842,44.34 C 16.351842,42.952266 20,41.827794 24.479128,41.827794 C 28.967704,41.827794 32.606414,42.952266 32.606414,44.34 L 32.606414,44.34 z" style="fill:#d3d7cf;stroke:#888a85"/>
<path d="M 31.461809,44.36 C 31.461809,45.129535 28.337546,45.754 24.483572,45.754 C 20.629598,45.754 17.505334,45.129535 17.505334,44.36 C 17.505334,43.590385 20.629598,42.966522 24.483571,42.966522 C 28.337546,42.966522 31.461809,43.590385 31.461809,44.36 L 31.461809,44.36 z" style="fill:none;stroke:url(#linearGradient2471)"/>
<path d="M 20.535714,44.011866 C 24.295756,45.247822 26.063666,44.648155 28.433036,44.286369 C 28.433036,44.286369 24.194848,45.834462 24.258929,34.529018 C 24.295261,28.119167 26.759763,26.595904 32.583005,20.56182 C 36.612747,16.386172 30.267857,4.5 30.267857,4.5 C 26.220238,5.2209 22.35119,5.2763739 17.589286,4.667 C 17.589286,4.667 12.91,16.52094 16.339286,20.637479 C 21.607143,26.959377 24.394887,25.265324 24.632134,34.675634 C 24.88157,44.57 22.872754,43.801868 20.535714,44.011866 z" style="fill:url(#radialGradient2466);stroke:url(#linearGradient2468)"/>
<path d="M 30.5,4 C 30.5,4.8286029 27.590612,5.5 24,5.5 C 20.409389,5.5 17.5,4.8286029 17.5,4 C 17.5,3.1713973 20.409389,2.5 24,2.5 C 27.590612,2.5 30.5,3.1713973 30.5,4 L 30.5,4 z" style="fill:none;stroke:#888a85"/>
<path d="M 31.5,20.054403 C 35.020854,16.072038 29.725808,5.4347921 29.725808,5.4347921 C 26.188437,6.1223407 22.365184,6.4222688 18.20357,5.8404972 C 18.20357,5.8404972 14.3053,16.08411 17.303,20 C 21.906873,26.039372 27,26.382988 24.430866,28.340431 C 24.137443,28.564541 26.41,25.81 31.5,20.054403 z" style="opacity:0.67;fill:none;stroke:url(#linearGradient2462)"/>
<path d="M 15.221897,18.23959 C 15.347394,19.575766 17.306985,21.795613 19.186935,23.813442 C 21.975116,26.806113 22.743616,27.676147 24.5131,27.644776 C 26.790937,27.664383 28.76,24.234573 31.408836,21.81 C 33.165555,20.201871 33.751246,18.063132 33.751246,18.063132 C 33.751246,18.063132 31.059016,16.313187 24.4107,16.317498 C 18.386834,16.321403 16.495,18 15.221897,18.24 z" style="fill:url(#linearGradient2457);stroke:url(#linearGradient2459)"/>
<path d="M 15.952612,18.539692 C 15.952612,18.539692 19.021638,16.835025 24.337616,16.835024 C 29.288206,16.835023 33.154143,18.230652 33.154143,18.230652 C 33.154143,18.230652 32.678668,20.390361 24.418326,20.331543 C 14.547811,20.261849 16.094058,18.422053 15.952612,18.539692 z" style="opacity:0.37;fill:url(#linearGradient2454)"/>
<path d="M 23.125,22.534048 C 23.125,23.370168 22.369481,24.047976 21.4375,24.047976 C 20.505519,24.047976 19.75,23.370168 19.75,22.534048 C 19.75,21.697928 20.505519,21.02012 21.4375,21.02012 C 22.369481,21.02012 23.125,21.697928 23.125,22.534048 z" style="opacity:0.55;fill:url(#radialGradient2451)"/>
<path d="M 74.125,17.4375 C 74.125,18.093338 73.649303,18.625 73.0625,18.625 C 72.475697,18.625 72,18.093338 72,17.4375 C 72,16.781662 72.475697,16.25 73.0625,16.25 C 73.649303,16.25 74.125,16.781662 74.125,17.4375 z" style="opacity:0.55;fill:url(#radialGradient2448)"/>
<path d="M 16.368382,18.820159 C 16.477117,19.95532 18.395946,21.441561 20.0248,23.155825 C 22.440578,25.698276 22.929656,26.684461 24.4628,26.657811 C 26.436396,26.674468 28.14246,23.431255 30.437505,21.371363 C 31.959588,20 32.6,18.537666 32.6,18.537666 C 32.6,18.537666 30.272894,17.309111 24.512567,17.312774 C 19.293273,17.31609 17.471361,18.620278 16.368382,18.82016 z" style="fill:none;stroke:url(#linearGradient2445)"/>
<path d="M 17.806349,22 C 17.806349,22 13.16,15.68 17.412505,6.5 C 18.089,5.0408275 18.031223,5.0187549 18.031223,5.0187549 C 18.031223,5.0187549 22.539029,5.8422234 25.190679,5.512836 C 27.84233,5.1834486 30.052038,4.936408 30.052038,4.936408 C 30.052038,4.936408 32.1951,9.2157969 32.438524,11 C 32.6153,12.347624 33.218854,17.212944 33.218854,17.212944 C 33.218854,17.213 29.1,17.95 24.283825,16.937 C 19.112,15.849 18.071514,21.916 17.80635,22 z" style="fill:url(#linearGradient2442)"/>
</svg>