<?xml version="1.0" encoding="utf-8"?>
<!-- Generator: Adobe Illustrator 12.0.0, SVG Export Plug-In . SVG Version: 6.00 Build 51448)  -->
<!DOCTYPE svg PUBLIC "-//W3C//DTD SVG 1.1//EN" "http://www.w3.org/Graphics/SVG/1.1/DTD/svg11.dtd" [
	<!ENTITY ns_svg "http://www.w3.org/2000/svg">
	<!ENTITY ns_xlink "http://www.w3.org/1999/xlink">
]>
<svg  version="1.1" id="Layer_1" xmlns="&ns_svg;" xmlns:xlink="&ns_xlink;" width="32.282" height="21" viewBox="0 0 32.282 21"
	 overflow="visible" enable-background="new 0 0 32.282 21" xml:space="preserve">
<g>
	<rect x="0.692" y="13.513" fill="#FEC809" stroke="#B5932F" stroke-width="1" width="31.089" height="6.986"/>
	<linearGradient id="XMLID_5_" gradientUnits="userSpaceOnUse" x1="-27.3662" y1="45.6475" x2="-16.3404" y2="33.5225">
		<stop  offset="0" style="stop-color:#FFFFFF"/>
		<stop  offset="1" style="stop-color:#FFFFFF"/>
	</linearGradient>
	
		<rect x="1.733" y="14.573" opacity="0.41" fill="#FEC809" stroke="url(#XMLID_5_)" stroke-width="1" width="29.052" height="4.99"/>
	<linearGradient id="XMLID_6_" gradientUnits="userSpaceOnUse" x1="-4.2412" y1="22.499" x2="-3.5684" y2="21.7592">
		<stop  offset="0" style="stop-color:#FFFFFF"/>
		<stop  offset="1" style="stop-color:#FFFFFF"/>
	</linearGradient>
	<path opacity="0.31" fill="#FFFFFF" stroke="url(#XMLID_6_)" d="M30.77,16.506c-9.958-0.403-19.514,2.271-29.069,0.13
		c0-0.533,0-1.605,0-2.14c9.496,0.018,19.111,0,29.077,0.045L30.77,16.506z"/>
	<g>
		<rect x="0.5" y="0.499" fill="#FEC809" stroke="#B5932F" stroke-width="1" width="31.089" height="6.986"/>
		<rect x="1.541" y="1.56" opacity="0.41" fill="#FEC809" stroke="url(#XMLID_5_)" stroke-width="1" width="29.052" height="4.99"/>
		<path opacity="0.31" fill="#FFFFFF" stroke="url(#XMLID_6_)" d="M30.577,3.492C20.62,3.089,11.063,5.763,1.509,3.622
			c0-0.533,0-1.605,0-2.14c9.496,0.018,19.111,0,29.076,0.045L30.577,3.492z"/>
	</g>
</g>
</svg>
