<?xml version="1.0" encoding="UTF-8" standalone="no"?>
<!-- Created with Inkscape (http://www.inkscape.org/) -->
<svg
   xmlns:svg="http://www.w3.org/2000/svg"
   xmlns="http://www.w3.org/2000/svg"
   xmlns:xlink="http://www.w3.org/1999/xlink"
   xmlns:inkscape="http://www.inkscape.org/namespaces/inkscape"
   version="1.0"
   width="75"
   height="75"
   id="svg1306">
  <defs
     id="defs1308">
    <linearGradient
       x1="21.78125"
       y1="19.5625"
       x2="22.53125"
       y2="20.78125"
       id="linearGradient13162"
       xlink:href="#linearGradient2977"
       gradientUnits="userSpaceOnUse"
       gradientTransform="matrix(1.0719394,0,0,1.0719394,7.4909906,-14.542889)" />
    <linearGradient
       x1="-18.676649"
       y1="9.999999"
       x2="-9.2710037"
       y2="9.999999"
       id="linearGradient13160"
       xlink:href="#linearGradient2064"
       gradientUnits="userSpaceOnUse"
       gradientTransform="matrix(1.0676842,0,0,0.65227,30.026753,16.306685)" />
    <linearGradient
       x1="-18.676649"
       y1="9.999999"
       x2="-9.2710037"
       y2="9.999999"
       id="linearGradient13158"
       xlink:href="#linearGradient2064"
       gradientUnits="userSpaceOnUse"
       gradientTransform="matrix(1.2204367,0,0,1.0907427,32.075251,11.934039)" />
    <linearGradient
       x1="-12.214286"
       y1="3.6428573"
       x2="-20"
       y2="3.9285715"
       id="linearGradient13156"
       xlink:href="#linearGradient2838"
       gradientUnits="userSpaceOnUse"
       gradientTransform="matrix(0.7579759,-0.7579759,0.7839851,0.7839851,29.61802,-12.973182)" />
    <linearGradient
       x1="-17"
       y1="24.357143"
       x2="-12"
       y2="24.357143"
       id="linearGradient13154"
       xlink:href="#linearGradient2064"
       gradientUnits="userSpaceOnUse"
       gradientTransform="matrix(0.7579759,-0.7579759,0.7579759,0.7579759,28.499877,-13.840343)" />
    <linearGradient
       x1="21.78125"
       y1="19.5625"
       x2="22.53125"
       y2="20.78125"
       id="linearGradient13152"
       xlink:href="#linearGradient2977"
       gradientUnits="userSpaceOnUse"
       gradientTransform="matrix(1.0719394,0,0,1.0719394,9.4909917,-24.54289)" />
    <linearGradient
       x1="-18.676649"
       y1="9.999999"
       x2="-9.2710037"
       y2="9.999999"
       id="linearGradient13150"
       xlink:href="#linearGradient2064"
       gradientUnits="userSpaceOnUse"
       gradientTransform="matrix(1.0676842,0,0,0.65227,38.512035,10.649831)" />
    <linearGradient
       x1="-18.676649"
       y1="9.999999"
       x2="-9.2710037"
       y2="9.999999"
       id="linearGradient13148"
       xlink:href="#linearGradient2064"
       gradientUnits="userSpaceOnUse"
       gradientTransform="matrix(1.2204367,0,0,1.0907427,40.560534,6.2771846)" />
    <linearGradient
       x1="-12.214286"
       y1="3.6428573"
       x2="-20"
       y2="3.9285715"
       id="linearGradient13146"
       xlink:href="#linearGradient2838"
       gradientUnits="userSpaceOnUse"
       gradientTransform="matrix(0.7579759,-0.7579759,0.7839851,0.7839851,31.618021,-22.973183)" />
    <linearGradient
       x1="-17"
       y1="24.357143"
       x2="-12"
       y2="24.357143"
       id="linearGradient13144"
       xlink:href="#linearGradient2064"
       gradientUnits="userSpaceOnUse"
       gradientTransform="matrix(0.7579759,-0.7579759,0.7579759,0.7579759,30.499878,-23.840344)" />
    <linearGradient
       x1="21.78125"
       y1="19.5625"
       x2="22.53125"
       y2="20.78125"
       id="linearGradient13142"
       xlink:href="#linearGradient2977"
       gradientUnits="userSpaceOnUse"
       gradientTransform="matrix(1.0719394,0,0,1.0719394,11.490991,-34.54289)" />
    <linearGradient
       x1="-18.676649"
       y1="9.999999"
       x2="-9.2710037"
       y2="9.999999"
       id="linearGradient13140"
       xlink:href="#linearGradient2064"
       gradientUnits="userSpaceOnUse"
       gradientTransform="matrix(1.0676842,0,0,0.65227,46.997316,4.992976)" />
    <linearGradient
       x1="-18.676649"
       y1="9.999999"
       x2="-9.2710037"
       y2="9.999999"
       id="linearGradient13138"
       xlink:href="#linearGradient2064"
       gradientUnits="userSpaceOnUse"
       gradientTransform="matrix(1.2204367,0,0,1.0907427,49.045815,0.6203298)" />
    <linearGradient
       x1="-12.214286"
       y1="3.6428573"
       x2="-20"
       y2="3.9285715"
       id="linearGradient13136"
       xlink:href="#linearGradient2838"
       gradientUnits="userSpaceOnUse"
       gradientTransform="matrix(0.7579759,-0.7579759,0.7839851,0.7839851,33.618021,-32.973183)" />
    <linearGradient
       x1="-17"
       y1="24.357143"
       x2="-12"
       y2="24.357143"
       id="linearGradient13134"
       xlink:href="#linearGradient2064"
       gradientUnits="userSpaceOnUse"
       gradientTransform="matrix(0.7579759,-0.7579759,0.7579759,0.7579759,32.499878,-33.840344)" />
    <linearGradient
       id="linearGradient6727">
      <stop
         style="stop-color:#217844;stop-opacity:1"
         offset="0"
         id="stop6729" />
      <stop
         style="stop-color:#37483e;stop-opacity:1"
         offset="1"
         id="stop6731" />
    </linearGradient>
    <linearGradient
       x1="-0.99507141"
       y1="-2.8981705"
       x2="62.267136"
       y2="-2.8981705"
       id="linearGradient6789"
       xlink:href="#linearGradient6727"
       gradientUnits="userSpaceOnUse"
       gradientTransform="translate(-0.3688903,-1.159182)" />
    <linearGradient
       id="linearGradient6717">
      <stop
         style="stop-color:#afe9af;stop-opacity:1"
         offset="0"
         id="stop6719" />
      <stop
         style="stop-color:#45b95c;stop-opacity:1"
         offset="0.6964286"
         id="stop6725" />
      <stop
         style="stop-color:#2ca05a;stop-opacity:1"
         offset="1"
         id="stop6721" />
    </linearGradient>
    <radialGradient
       cx="30.636032"
       cy="-2.8981705"
       r="31.631104"
       fx="30.636032"
       fy="-2.8981705"
       id="radialGradient6781"
       xlink:href="#linearGradient6717"
       gradientUnits="userSpaceOnUse"
       gradientTransform="matrix(1,0,0,1.0008876,-0.3688903,-1.1566096)" />
    <linearGradient
       id="linearGradient3218">
      <stop
         style="stop-color:#666666;stop-opacity:1"
         offset="0"
         id="stop3220" />
      <stop
         style="stop-color:#666666;stop-opacity:0"
         offset="1"
         id="stop3222" />
    </linearGradient>
    <linearGradient
       id="linearGradient3199">
      <stop
         style="stop-color:#484537;stop-opacity:1"
         offset="0"
         id="stop3201" />
      <stop
         style="stop-color:#c8ab37;stop-opacity:1"
         offset="1"
         id="stop3203" />
    </linearGradient>
    <linearGradient
       id="linearGradient3187">
      <stop
         style="stop-color:#fff6d5;stop-opacity:1"
         offset="0"
         id="stop3189" />
      <stop
         style="stop-color:#ffd940;stop-opacity:1"
         offset="0.5"
         id="stop3195" />
      <stop
         style="stop-color:#c8ab37;stop-opacity:1"
         offset="0.75"
         id="stop6353" />
      <stop
         style="stop-color:#d4aa00;stop-opacity:1"
         offset="1"
         id="stop3191" />
    </linearGradient>
    <linearGradient
       id="linearGradient2977">
      <stop
         style="stop-color:#000000;stop-opacity:1"
         offset="0"
         id="stop2979" />
      <stop
         style="stop-color:#000000;stop-opacity:0"
         offset="1"
         id="stop2981" />
    </linearGradient>
    <linearGradient
       id="linearGradient2838">
      <stop
         style="stop-color:#22426c;stop-opacity:1"
         offset="0"
         id="stop2840" />
      <stop
         style="stop-color:#000000;stop-opacity:1"
         offset="1"
         id="stop2842" />
    </linearGradient>
    <linearGradient
       id="linearGradient2064">
      <stop
         style="stop-color:#edd400;stop-opacity:1"
         offset="0"
         id="stop2066" />
      <stop
         style="stop-color:#fce94f;stop-opacity:1"
         offset="1"
         id="stop2068" />
    </linearGradient>
    <linearGradient
       x1="-17"
       y1="24.357143"
       x2="-12"
       y2="24.357143"
       id="linearGradient2070"
       xlink:href="#linearGradient2064"
       gradientUnits="userSpaceOnUse"
       gradientTransform="translate(-24.15295,-1.64083)" />
    <linearGradient
       x1="-18.676649"
       y1="9.999999"
       x2="-9.2710037"
       y2="9.999999"
       id="linearGradient2830"
       xlink:href="#linearGradient2064"
       gradientUnits="userSpaceOnUse"
       gradientTransform="matrix(1.138531,0,0,1.017541,-22.16013,-0.1779)" />
    <linearGradient
       x1="-12.214286"
       y1="3.6428573"
       x2="-20"
       y2="3.9285715"
       id="linearGradient2844"
       xlink:href="#linearGradient2838"
       gradientUnits="userSpaceOnUse"
       gradientTransform="matrix(1,0,0,1.034314,-23.9874,-0.331234)" />
    <linearGradient
       x1="-18.676649"
       y1="9.999999"
       x2="-9.2710037"
       y2="9.999999"
       id="linearGradient2893"
       xlink:href="#linearGradient2064"
       gradientUnits="userSpaceOnUse"
       gradientTransform="matrix(0.99603,0,0,0.608495,-24.07115,3.901276)" />
    <radialGradient
       cx="5.7381582"
       cy="-53.95179"
       r="33.961769"
       fx="5.7381582"
       fy="-53.95179"
       id="radialGradient3193"
       xlink:href="#linearGradient3187"
       gradientUnits="userSpaceOnUse"
       gradientTransform="matrix(1.0936931,0,0,0.8194401,-0.5376259,-11.077575)" />
    <linearGradient
       x1="-28.223612"
       y1="-78.268806"
       x2="42.881912"
       y2="-55.287834"
       id="linearGradient3205"
       xlink:href="#linearGradient3199"
       gradientUnits="userSpaceOnUse" />
    <radialGradient
       cx="38.360542"
       cy="71.287689"
       r="27.400389"
       fx="38.360542"
       fy="71.287689"
       id="radialGradient3224"
       xlink:href="#linearGradient3218"
       gradientUnits="userSpaceOnUse"
       gradientTransform="matrix(1,0,0,0.1225806,0,62.549198)" />
    <filter
       id="filter5345">
      <feGaussianBlur
         inkscape:collect="always"
         stdDeviation="1.2150685"
         id="feGaussianBlur5347" />
    </filter>
    <linearGradient
       x1="-17"
       y1="24.357143"
       x2="-12"
       y2="24.357143"
       id="linearGradient5374"
       xlink:href="#linearGradient2064"
       gradientUnits="userSpaceOnUse"
       gradientTransform="matrix(0.707107,-0.707107,0.707107,0.707107,19.59895,0.655397)" />
    <linearGradient
       x1="-12.214286"
       y1="3.6428573"
       x2="-20"
       y2="3.9285715"
       id="linearGradient5376"
       xlink:href="#linearGradient2838"
       gradientUnits="userSpaceOnUse"
       gradientTransform="matrix(1,0,0,1.034314,13.56067,15.63159)" />
    <linearGradient
       x1="-18.676649"
       y1="9.999999"
       x2="-9.2710037"
       y2="9.999999"
       id="linearGradient5378"
       xlink:href="#linearGradient2064"
       gradientUnits="userSpaceOnUse"
       gradientTransform="matrix(1.138531,0,0,1.017541,15.38794,15.78492)" />
    <linearGradient
       x1="-18.676649"
       y1="9.999999"
       x2="-9.2710037"
       y2="9.999999"
       id="linearGradient5380"
       xlink:href="#linearGradient2064"
       gradientUnits="userSpaceOnUse"
       gradientTransform="matrix(0.99603,0,0,0.608495,13.47692,19.86411)" />
    <linearGradient
       x1="21.78125"
       y1="19.5625"
       x2="22.53125"
       y2="20.78125"
       id="linearGradient5382"
       xlink:href="#linearGradient2977"
       gradientUnits="userSpaceOnUse" />
    <linearGradient
       x1="-17"
       y1="24.357143"
       x2="-12"
       y2="24.357143"
       id="linearGradient6421"
       xlink:href="#linearGradient2064"
       gradientUnits="userSpaceOnUse"
       gradientTransform="matrix(0.707107,-0.707107,0.707107,0.707107,19.59895,0.655397)" />
    <linearGradient
       x1="-12.214286"
       y1="3.6428573"
       x2="-20"
       y2="3.9285715"
       id="linearGradient6423"
       xlink:href="#linearGradient2838"
       gradientUnits="userSpaceOnUse"
       gradientTransform="matrix(1,0,0,1.034314,13.56067,15.63159)" />
    <linearGradient
       x1="-18.676649"
       y1="9.999999"
       x2="-9.2710037"
       y2="9.999999"
       id="linearGradient6425"
       xlink:href="#linearGradient2064"
       gradientUnits="userSpaceOnUse"
       gradientTransform="matrix(1.138531,0,0,1.017541,15.38794,15.78492)" />
    <linearGradient
       x1="-18.676649"
       y1="9.999999"
       x2="-9.2710037"
       y2="9.999999"
       id="linearGradient6427"
       xlink:href="#linearGradient2064"
       gradientUnits="userSpaceOnUse"
       gradientTransform="matrix(0.99603,0,0,0.608495,13.47692,19.86411)" />
    <linearGradient
       x1="21.78125"
       y1="19.5625"
       x2="22.53125"
       y2="20.78125"
       id="linearGradient6429"
       xlink:href="#linearGradient2977"
       gradientUnits="userSpaceOnUse" />
    <linearGradient
       x1="-17"
       y1="24.357143"
       x2="-12"
       y2="24.357143"
       id="linearGradient6537"
       xlink:href="#linearGradient2064"
       gradientUnits="userSpaceOnUse"
       gradientTransform="matrix(0.707107,-0.707107,0.707107,0.707107,19.59895,0.655397)" />
    <linearGradient
       x1="-12.214286"
       y1="3.6428573"
       x2="-20"
       y2="3.9285715"
       id="linearGradient6539"
       xlink:href="#linearGradient2838"
       gradientUnits="userSpaceOnUse"
       gradientTransform="matrix(1,0,0,1.034314,13.56067,15.63159)" />
    <linearGradient
       x1="-18.676649"
       y1="9.999999"
       x2="-9.2710037"
       y2="9.999999"
       id="linearGradient6541"
       xlink:href="#linearGradient2064"
       gradientUnits="userSpaceOnUse"
       gradientTransform="matrix(1.138531,0,0,1.017541,15.38794,15.78492)" />
    <linearGradient
       x1="-18.676649"
       y1="9.999999"
       x2="-9.2710037"
       y2="9.999999"
       id="linearGradient6543"
       xlink:href="#linearGradient2064"
       gradientUnits="userSpaceOnUse"
       gradientTransform="matrix(0.99603,0,0,0.608495,13.47692,19.86411)" />
    <linearGradient
       x1="21.78125"
       y1="19.5625"
       x2="22.53125"
       y2="20.78125"
       id="linearGradient6545"
       xlink:href="#linearGradient2977"
       gradientUnits="userSpaceOnUse" />
    <radialGradient
       cx="30.636032"
       cy="-2.8981705"
       r="31.631104"
       fx="30.636032"
       fy="-2.8981705"
       id="radialGradient12991"
       xlink:href="#linearGradient6717"
       gradientUnits="userSpaceOnUse"
       gradientTransform="matrix(1,0,0,1.0008876,6.995071,40.241562)" />
    <linearGradient
       x1="-0.99507141"
       y1="-2.8981705"
       x2="62.267136"
       y2="-2.8981705"
       id="linearGradient12993"
       xlink:href="#linearGradient6727"
       gradientUnits="userSpaceOnUse"
       gradientTransform="translate(6.995071,40.23899)" />
    <radialGradient
       cx="38.360542"
       cy="71.287689"
       r="27.400389"
       fx="38.360542"
       fy="71.287689"
       id="radialGradient12996"
       xlink:href="#linearGradient3218"
       gradientUnits="userSpaceOnUse"
       gradientTransform="matrix(0.9635042,0,0,0.1491877,0.4398463,58.776949)" />
  </defs>
  <path
     d="M 63.80078,69.412198 C 63.803565,71.670134 51.982893,73.500781 37.40039,73.500781 C 22.817887,73.500781 10.997215,71.670134 11.000001,69.412198 C 10.997215,67.154262 22.817887,65.323615 37.40039,65.323615 C 51.982893,65.323615 63.803565,67.154262 63.80078,69.412198 z "
     style="opacity:0.65;fill:url(#radialGradient12996);fill-opacity:1;stroke:none;stroke-width:2;stroke-miterlimit:4;stroke-dasharray:none;stroke-dashoffset:0;stroke-opacity:1"
     id="path3208" />
  <path
     d="M 7.0000001,28.300294 L 28.506347,28.300294 L 28.506347,6.681642 L 46.643554,6.681642 L 46.643554,28.300294 L 68.262207,28.300294 L 68.262207,46.493654 L 46.643554,46.493654 L 46.643554,68.000002 L 28.506347,68.000002 L 28.506347,46.493654 L 7.0000001,46.493654 L 7.0000001,28.300294 z "
     style="font-size:115px;opacity:0.98999999;fill:url(#radialGradient12991);fill-opacity:1;stroke:url(#linearGradient12993);stroke-width:2;stroke-miterlimit:4;stroke-opacity:1;font-family:Arial Black"
     id="text6713" />
  <g
     transform="translate(7.3639613,41.398172)"
     id="g13164">
    <g
       transform="matrix(0.8,0,0,0.8,55.621679,14.502205)"
       style="opacity:0.6;filter:url(#filter5345)"
       id="g6375">
      <path
         d="M -38.954261,-3.9934013 C -32.475213,3.0033537 -27.169884,12.271909 -27.10333,12.281917 C -27.10333,12.281917 -9.3164433,16.794207 -10.056387,17.591336 C -10.888342,18.487589 -15.500565,0.93634364 -15.500565,0.93634364 C -15.546734,1.025529 -25.20449,-4.521436 -31.696111,-11.186997 L -38.954261,-3.9934013 z "
         style="fill:#666666;fill-opacity:1;fill-rule:evenodd;stroke:none;stroke-width:1.00000012px;stroke-linecap:butt;stroke-linejoin:miter;stroke-opacity:1"
         id="path6377" />
      <rect
         width="2.6798515"
         height="28.138435"
         rx="0"
         ry="0"
         x="-20.275051"
         y="-29.698589"
         transform="matrix(0.7071068,-0.7071068,0.7071068,0.7071068,0,0)"
         style="opacity:0.6;fill:#666666;fill-opacity:1;stroke:none;stroke-width:1;stroke-linecap:round;stroke-linejoin:round;stroke-miterlimit:4;stroke-dasharray:none;stroke-dashoffset:0;stroke-opacity:1"
         id="rect6379" />
      <path
         d="M -11.142857 27.571428 A 2.5714285 2.5714285 0 1 1  -16.285714,27.571428 A 2.5714285 2.5714285 0 1 1  -11.142857 27.571428 z"
         transform="matrix(0.5526906,-0.5526906,0.5526906,0.5526906,-29.123708,-16.557429)"
         style="fill:#666666;fill-opacity:1;stroke:none;stroke-width:1;stroke-linecap:round;stroke-linejoin:round;stroke-miterlimit:4;stroke-dasharray:none;stroke-dashoffset:0;stroke-opacity:1"
         id="path6381" />
      <path
         d="M -11.142508,16.47798 L -20.570139,7.2608976"
         style="fill:#666666;fill-opacity:0.75;fill-rule:evenodd;stroke:none;stroke-width:0.99999958px;stroke-linecap:butt;stroke-linejoin:miter;stroke-opacity:1"
         id="path6383" />
      <path
         d="M -37.167355,-3.9758818 C -31.268155,2.3132284 -26.275018,10.896461 -26.262668,10.937804 L -12.598824,15.084745 L -16.692449,2.0062638 C -16.604046,1.9636649 -25.811418,-3.3733018 -31.695982,-9.3888678 L -37.167355,-3.9758818 z "
         style="opacity:0.6;fill:#666666;fill-opacity:1;fill-rule:evenodd;stroke:none;stroke-width:1.00000024px;stroke-linecap:butt;stroke-linejoin:miter;stroke-opacity:1"
         id="path6385" />
      <path
         d="M -58.693998,-15.962375 L -43.902988,-30.920874 L -31.859412,-17.453628 L -45.143007,-4.1700338 L -58.693998,-15.962375 z "
         style="fill:#666666;fill-opacity:1;stroke:none;stroke-width:1.00000048;stroke-linecap:round;stroke-linejoin:miter;stroke-miterlimit:4;stroke-dashoffset:0;stroke-opacity:1"
         id="path6387" />
      <path
         d="M -56.18152,-15.927455 L -43.883054,-28.812139 L -32.867757,-16.540662 L -44.245025,-5.1633933 L -56.18152,-15.927455 z "
         style="opacity:0.5;fill:#666666;fill-opacity:1;stroke:none;stroke-width:1.00000072;stroke-linecap:round;stroke-linejoin:miter;stroke-miterlimit:4;stroke-dashoffset:0;stroke-opacity:1"
         id="path6389" />
      <rect
         width="21.452988"
         height="6.6931982"
         rx="2.0472131"
         ry="2.0472128"
         x="-30.324492"
         y="-34.869709"
         transform="matrix(0.7071068,-0.7071068,0.7071068,0.7071068,0,0)"
         style="fill:#666666;fill-opacity:1;stroke:none;stroke-width:1.00000024;stroke-linecap:round;stroke-linejoin:round;stroke-miterlimit:4;stroke-dasharray:none;stroke-dashoffset:0;stroke-opacity:1"
         id="rect6391" />
      <rect
         width="2.6798515"
         height="8.1122761"
         rx="0"
         ry="0"
         x="-17.578312"
         y="-35.612274"
         transform="matrix(0.7071068,-0.7071068,0.7071068,0.7071068,0,0)"
         style="opacity:0.5;fill:#666666;fill-opacity:1;stroke:none;stroke-width:1;stroke-linecap:round;stroke-linejoin:round;stroke-miterlimit:4;stroke-dasharray:none;stroke-dashoffset:0;stroke-opacity:1"
         id="rect6393" />
      <rect
         width="18.767897"
         height="4.0025706"
         rx="0.71060288"
         ry="0.71060312"
         x="-28.970835"
         y="-33.539509"
         transform="matrix(0.7071068,-0.7071068,0.7071068,0.7071068,0,0)"
         style="opacity:0.5;fill:#666666;fill-opacity:1;stroke:none;stroke-width:1.00000083;stroke-linecap:round;stroke-linejoin:miter;stroke-miterlimit:4;stroke-dasharray:none;stroke-dashoffset:0;stroke-opacity:1"
         id="rect6395" />
    </g>
    <g
       transform="translate(0,3.9292712e-4)"
       id="g12698">
      <g
         transform="matrix(0.8,0,0,0.8,59.621679,-5.4977952)"
         style="opacity:0.6;filter:url(#filter5345)"
         id="g4240">
        <path
           d="M -38.954261,-3.9934013 C -32.475213,3.0033537 -27.169884,12.271909 -27.10333,12.281917 C -27.10333,12.281917 -9.3164433,16.794207 -10.056387,17.591336 C -10.888342,18.487589 -15.500565,0.93634364 -15.500565,0.93634364 C -15.546734,1.025529 -25.20449,-4.521436 -31.696111,-11.186997 L -38.954261,-3.9934013 z "
           style="fill:#666666;fill-opacity:1;fill-rule:evenodd;stroke:none;stroke-width:1.00000012px;stroke-linecap:butt;stroke-linejoin:miter;stroke-opacity:1"
           id="path3228" />
        <rect
           width="2.6798515"
           height="28.138435"
           rx="0"
           ry="0"
           x="-20.275051"
           y="-29.698589"
           transform="matrix(0.7071068,-0.7071068,0.7071068,0.7071068,0,0)"
           style="opacity:0.6;fill:#666666;fill-opacity:1;stroke:none;stroke-width:1;stroke-linecap:round;stroke-linejoin:round;stroke-miterlimit:4;stroke-dasharray:none;stroke-dashoffset:0;stroke-opacity:1"
           id="rect3230" />
        <path
           d="M -11.142857 27.571428 A 2.5714285 2.5714285 0 1 1  -16.285714,27.571428 A 2.5714285 2.5714285 0 1 1  -11.142857 27.571428 z"
           transform="matrix(0.5526906,-0.5526906,0.5526906,0.5526906,-29.123708,-16.557429)"
           style="fill:#666666;fill-opacity:1;stroke:none;stroke-width:1;stroke-linecap:round;stroke-linejoin:round;stroke-miterlimit:4;stroke-dasharray:none;stroke-dashoffset:0;stroke-opacity:1"
           id="path3232" />
        <path
           d="M -11.142508,16.47798 L -20.570139,7.2608976"
           style="fill:#666666;fill-opacity:0.75;fill-rule:evenodd;stroke:none;stroke-width:0.99999958px;stroke-linecap:butt;stroke-linejoin:miter;stroke-opacity:1"
           id="path3234" />
        <path
           d="M -37.167355,-3.9758818 C -31.268155,2.3132284 -26.275018,10.896461 -26.262668,10.937804 L -12.598824,15.084745 L -16.692449,2.0062638 C -16.604046,1.9636649 -25.811418,-3.3733018 -31.695982,-9.3888678 L -37.167355,-3.9758818 z "
           style="opacity:0.6;fill:#666666;fill-opacity:1;fill-rule:evenodd;stroke:none;stroke-width:1.00000024px;stroke-linecap:butt;stroke-linejoin:miter;stroke-opacity:1"
           id="path3236" />
        <path
           d="M -58.693998,-15.962375 L -43.902988,-30.920874 L -31.859412,-17.453628 L -45.143007,-4.1700338 L -58.693998,-15.962375 z "
           style="fill:#666666;fill-opacity:1;stroke:none;stroke-width:1.00000048;stroke-linecap:round;stroke-linejoin:miter;stroke-miterlimit:4;stroke-dashoffset:0;stroke-opacity:1"
           id="path3238" />
        <path
           d="M -56.18152,-15.927455 L -43.883054,-28.812139 L -32.867757,-16.540662 L -44.245025,-5.1633933 L -56.18152,-15.927455 z "
           style="opacity:0.5;fill:#666666;fill-opacity:1;stroke:none;stroke-width:1.00000072;stroke-linecap:round;stroke-linejoin:miter;stroke-miterlimit:4;stroke-dashoffset:0;stroke-opacity:1"
           id="path3240" />
        <rect
           width="21.452988"
           height="6.6931982"
           rx="2.0472131"
           ry="2.0472128"
           x="-30.324492"
           y="-34.869709"
           transform="matrix(0.7071068,-0.7071068,0.7071068,0.7071068,0,0)"
           style="fill:#666666;fill-opacity:1;stroke:none;stroke-width:1.00000024;stroke-linecap:round;stroke-linejoin:round;stroke-miterlimit:4;stroke-dasharray:none;stroke-dashoffset:0;stroke-opacity:1"
           id="rect3242" />
        <rect
           width="2.6798515"
           height="8.1122761"
           rx="0"
           ry="0"
           x="-17.578312"
           y="-35.612274"
           transform="matrix(0.7071068,-0.7071068,0.7071068,0.7071068,0,0)"
           style="opacity:0.5;fill:#666666;fill-opacity:1;stroke:none;stroke-width:1;stroke-linecap:round;stroke-linejoin:round;stroke-miterlimit:4;stroke-dasharray:none;stroke-dashoffset:0;stroke-opacity:1"
           id="rect3244" />
        <rect
           width="18.767897"
           height="4.0025706"
           rx="0.71060288"
           ry="0.71060312"
           x="-28.970835"
           y="-33.539509"
           transform="matrix(0.7071068,-0.7071068,0.7071068,0.7071068,0,0)"
           style="opacity:0.5;fill:#666666;fill-opacity:1;stroke:none;stroke-width:1.00000083;stroke-linecap:round;stroke-linejoin:miter;stroke-miterlimit:4;stroke-dasharray:none;stroke-dashoffset:0;stroke-opacity:1"
           id="rect3246" />
      </g>
      <path
         d="M 28.963798,-11.354879 C 34.147037,-5.7574753 38.3913,1.6573686 38.444543,1.6653749 C 38.444543,1.6653749 52.674052,5.2752069 52.082097,5.9129101 C 51.416533,6.6299122 47.726754,-7.4110833 47.726754,-7.4110833 C 47.68982,-7.339735 39.963615,-11.777307 34.770318,-17.109755 L 28.963798,-11.354879 z "
         style="fill:url(#linearGradient13134);fill-opacity:1;fill-rule:evenodd;stroke:#af6d09;stroke-width:1.07193947px;stroke-linecap:butt;stroke-linejoin:miter;stroke-opacity:1"
         id="path2947" />
      <rect
         width="2.1438811"
         height="22.510748"
         rx="0"
         ry="0"
         x="32.066418"
         y="12.987382"
         transform="matrix(0.7071068,-0.7071068,0.7071068,0.7071068,0,0)"
         style="opacity:0.5;fill:#ffffff;fill-opacity:1;stroke:none;stroke-width:1;stroke-linecap:round;stroke-linejoin:round;stroke-miterlimit:4;stroke-dasharray:none;stroke-dashoffset:0;stroke-opacity:1"
         id="rect2949" />
      <path
         d="M -11.142857 27.571428 A 2.5714285 2.5714285 0 1 1  -16.285714,27.571428 A 2.5714285 2.5714285 0 1 1  -11.142857 27.571428 z"
         transform="matrix(0.4421525,-0.4421525,0.4421525,0.4421525,36.82824,-21.406101)"
         style="fill:#af6d09;fill-opacity:1;stroke:none;stroke-width:1;stroke-linecap:round;stroke-linejoin:round;stroke-miterlimit:4;stroke-dasharray:none;stroke-dashoffset:0;stroke-opacity:1"
         id="path2951" />
      <path
         d="M 51.2132,5.022225 L 43.671095,-2.3514404"
         style="fill:none;fill-opacity:0.75;fill-rule:evenodd;stroke:#af6d09;stroke-width:1.07193899px;stroke-linecap:butt;stroke-linejoin:miter;stroke-opacity:1"
         id="path2953" />
      <path
         d="M 30.393323,-11.340864 C 35.112683,-6.3095755 39.107192,0.55700994 39.117072,0.59008463 L 50.048147,3.9076374 L 46.773247,-6.5551472 C 46.843969,-6.5892263 39.478072,-10.8588 34.770421,-15.671252 L 30.393323,-11.340864 z "
         style="opacity:0.5;fill:none;fill-opacity:1;fill-rule:evenodd;stroke:#ffffff;stroke-width:1.07193971px;stroke-linecap:butt;stroke-linejoin:miter;stroke-opacity:1"
         id="path2955" />
      <path
         d="M 13.172009,-20.930057 L 25.004817,-32.896857 L 34.639677,-22.12306 L 24.012802,-11.496185 L 13.172009,-20.930057 z "
         style="fill:url(#linearGradient13136);fill-opacity:1;stroke:#071325;stroke-width:1.0719403;stroke-linecap:round;stroke-linejoin:miter;stroke-miterlimit:4;stroke-dashoffset:0;stroke-opacity:1"
         id="rect2957" />
      <path
         d="M 15.181991,-20.902121 L 25.020764,-31.209868 L 33.833002,-21.392687 L 24.731187,-12.290872 L 15.181991,-20.902121 z "
         style="opacity:0.5;fill:none;fill-opacity:1;stroke:#ffffff;stroke-width:1.07194054;stroke-linecap:round;stroke-linejoin:miter;stroke-miterlimit:4;stroke-dashoffset:0;stroke-opacity:1"
         id="rect2959" />
      <rect
         width="17.16239"
         height="5.3545585"
         rx="1.6377704"
         ry="1.6377703"
         x="24.026865"
         y="8.8504868"
         transform="matrix(0.7071068,-0.7071068,0.7071068,0.7071068,0,0)"
         style="fill:url(#linearGradient13138);fill-opacity:1;stroke:#af6d09;stroke-width:1.07194006;stroke-linecap:round;stroke-linejoin:round;stroke-miterlimit:4;stroke-dasharray:none;stroke-dashoffset:0;stroke-opacity:1"
         id="rect2961" />
      <rect
         width="2.1438811"
         height="6.4898205"
         rx="0"
         ry="0"
         x="34.223808"
         y="8.2564344"
         transform="matrix(0.7071068,-0.7071068,0.7071068,0.7071068,0,0)"
         style="opacity:0.5;fill:#ffffff;fill-opacity:1;stroke:none;stroke-width:1;stroke-linecap:round;stroke-linejoin:round;stroke-miterlimit:4;stroke-dasharray:none;stroke-dashoffset:0;stroke-opacity:1"
         id="rect2963" />
      <rect
         width="15.014317"
         height="3.2020564"
         rx="0.56848228"
         ry="0.56848246"
         x="25.109791"
         y="9.9146442"
         transform="matrix(0.7071068,-0.7071068,0.7071068,0.7071068,0,0)"
         style="opacity:0.5;fill:url(#linearGradient13140);fill-opacity:1;stroke:#ffffff;stroke-width:1.07194066;stroke-linecap:round;stroke-linejoin:miter;stroke-miterlimit:4;stroke-dasharray:none;stroke-dashoffset:0;stroke-opacity:1"
         id="rect2965" />
      <path
         d="M 30.08244,-9.1848236 L 39.562404,-13.539577 L 36.748563,-15.951441 L 30.08244,-9.1848236 z "
         style="opacity:0.44086022;fill:url(#linearGradient13142);fill-opacity:1;fill-rule:evenodd;stroke:none;stroke-width:1px;stroke-linecap:butt;stroke-linejoin:miter;stroke-opacity:1"
         id="path2975" />
      <g
         transform="matrix(0.8,0,0,0.8,57.62168,4.5022048)"
         style="opacity:0.6;filter:url(#filter5345)"
         id="g6491">
        <path
           d="M -38.954261,-3.9934013 C -32.475213,3.0033537 -27.169884,12.271909 -27.10333,12.281917 C -27.10333,12.281917 -9.3164433,16.794207 -10.056387,17.591336 C -10.888342,18.487589 -15.500565,0.93634364 -15.500565,0.93634364 C -15.546734,1.025529 -25.20449,-4.521436 -31.696111,-11.186997 L -38.954261,-3.9934013 z "
           style="fill:#666666;fill-opacity:1;fill-rule:evenodd;stroke:none;stroke-width:1.00000012px;stroke-linecap:butt;stroke-linejoin:miter;stroke-opacity:1"
           id="path6493" />
        <rect
           width="2.6798515"
           height="28.138435"
           rx="0"
           ry="0"
           x="-20.275051"
           y="-29.698589"
           transform="matrix(0.7071068,-0.7071068,0.7071068,0.7071068,0,0)"
           style="opacity:0.6;fill:#666666;fill-opacity:1;stroke:none;stroke-width:1;stroke-linecap:round;stroke-linejoin:round;stroke-miterlimit:4;stroke-dasharray:none;stroke-dashoffset:0;stroke-opacity:1"
           id="rect6495" />
        <path
           d="M -11.142857 27.571428 A 2.5714285 2.5714285 0 1 1  -16.285714,27.571428 A 2.5714285 2.5714285 0 1 1  -11.142857 27.571428 z"
           transform="matrix(0.5526906,-0.5526906,0.5526906,0.5526906,-29.123708,-16.557429)"
           style="fill:#666666;fill-opacity:1;stroke:none;stroke-width:1;stroke-linecap:round;stroke-linejoin:round;stroke-miterlimit:4;stroke-dasharray:none;stroke-dashoffset:0;stroke-opacity:1"
           id="path6497" />
        <path
           d="M -11.142508,16.47798 L -20.570139,7.2608976"
           style="fill:#666666;fill-opacity:0.75;fill-rule:evenodd;stroke:none;stroke-width:0.99999958px;stroke-linecap:butt;stroke-linejoin:miter;stroke-opacity:1"
           id="path6499" />
        <path
           d="M -37.167355,-3.9758818 C -31.268155,2.3132284 -26.275018,10.896461 -26.262668,10.937804 L -12.598824,15.084745 L -16.692449,2.0062638 C -16.604046,1.9636649 -25.811418,-3.3733018 -31.695982,-9.3888678 L -37.167355,-3.9758818 z "
           style="opacity:0.6;fill:#666666;fill-opacity:1;fill-rule:evenodd;stroke:none;stroke-width:1.00000024px;stroke-linecap:butt;stroke-linejoin:miter;stroke-opacity:1"
           id="path6501" />
        <path
           d="M -58.693998,-15.962375 L -43.902988,-30.920874 L -31.859412,-17.453628 L -45.143007,-4.1700338 L -58.693998,-15.962375 z "
           style="fill:#666666;fill-opacity:1;stroke:none;stroke-width:1.00000048;stroke-linecap:round;stroke-linejoin:miter;stroke-miterlimit:4;stroke-dashoffset:0;stroke-opacity:1"
           id="path6503" />
        <path
           d="M -56.18152,-15.927455 L -43.883054,-28.812139 L -32.867757,-16.540662 L -44.245025,-5.1633933 L -56.18152,-15.927455 z "
           style="opacity:0.5;fill:#666666;fill-opacity:1;stroke:none;stroke-width:1.00000072;stroke-linecap:round;stroke-linejoin:miter;stroke-miterlimit:4;stroke-dashoffset:0;stroke-opacity:1"
           id="path6505" />
        <rect
           width="21.452988"
           height="6.6931982"
           rx="2.0472131"
           ry="2.0472128"
           x="-30.324492"
           y="-34.869709"
           transform="matrix(0.7071068,-0.7071068,0.7071068,0.7071068,0,0)"
           style="fill:#666666;fill-opacity:1;stroke:none;stroke-width:1.00000024;stroke-linecap:round;stroke-linejoin:round;stroke-miterlimit:4;stroke-dasharray:none;stroke-dashoffset:0;stroke-opacity:1"
           id="rect6507" />
        <rect
           width="2.6798515"
           height="8.1122761"
           rx="0"
           ry="0"
           x="-17.578312"
           y="-35.612274"
           transform="matrix(0.7071068,-0.7071068,0.7071068,0.7071068,0,0)"
           style="opacity:0.5;fill:#666666;fill-opacity:1;stroke:none;stroke-width:1;stroke-linecap:round;stroke-linejoin:round;stroke-miterlimit:4;stroke-dasharray:none;stroke-dashoffset:0;stroke-opacity:1"
           id="rect6509" />
        <rect
           width="18.767897"
           height="4.0025706"
           rx="0.71060288"
           ry="0.71060312"
           x="-28.970835"
           y="-33.539509"
           transform="matrix(0.7071068,-0.7071068,0.7071068,0.7071068,0,0)"
           style="opacity:0.5;fill:#666666;fill-opacity:1;stroke:none;stroke-width:1.00000083;stroke-linecap:round;stroke-linejoin:miter;stroke-miterlimit:4;stroke-dasharray:none;stroke-dashoffset:0;stroke-opacity:1"
           id="rect6511" />
      </g>
      <path
         d="M 26.963799,-1.3548791 C 32.147038,4.2425247 36.3913,11.657369 36.444543,11.665375 C 36.444543,11.665375 50.674052,15.275207 50.082097,15.91291 C 49.416533,16.629912 45.726755,2.5889167 45.726755,2.5889167 C 45.68982,2.660265 37.963616,-1.7773069 32.770319,-7.1097552 L 26.963799,-1.3548791 z "
         style="fill:url(#linearGradient13144);fill-opacity:1;fill-rule:evenodd;stroke:#af6d09;stroke-width:1.07193947px;stroke-linecap:butt;stroke-linejoin:miter;stroke-opacity:1"
         id="path6515" />
      <rect
         width="2.1438811"
         height="22.510748"
         rx="0"
         ry="0"
         x="23.581137"
         y="18.644236"
         transform="matrix(0.7071068,-0.7071068,0.7071068,0.7071068,0,0)"
         style="opacity:0.5;fill:#ffffff;fill-opacity:1;stroke:none;stroke-width:1;stroke-linecap:round;stroke-linejoin:round;stroke-miterlimit:4;stroke-dasharray:none;stroke-dashoffset:0;stroke-opacity:1"
         id="rect6517" />
      <path
         d="M -11.142857 27.571428 A 2.5714285 2.5714285 0 1 1  -16.285714,27.571428 A 2.5714285 2.5714285 0 1 1  -11.142857 27.571428 z"
         transform="matrix(0.4421525,-0.4421525,0.4421525,0.4421525,34.828241,-11.406101)"
         style="fill:#af6d09;fill-opacity:1;stroke:none;stroke-width:1;stroke-linecap:round;stroke-linejoin:round;stroke-miterlimit:4;stroke-dasharray:none;stroke-dashoffset:0;stroke-opacity:1"
         id="path6519" />
      <path
         d="M 49.2132,15.022225 L 41.671096,7.6485596"
         style="fill:none;fill-opacity:0.75;fill-rule:evenodd;stroke:#af6d09;stroke-width:1.07193899px;stroke-linecap:butt;stroke-linejoin:miter;stroke-opacity:1"
         id="path6521" />
      <path
         d="M 28.393323,-1.3408635 C 33.112684,3.6904245 37.107193,10.55701 37.117073,10.590085 L 48.048148,13.907637 L 44.773248,3.4448528 C 44.84397,3.4107737 37.478073,-0.85879951 32.770422,-5.6712522 L 28.393323,-1.3408635 z "
         style="opacity:0.5;fill:none;fill-opacity:1;fill-rule:evenodd;stroke:#ffffff;stroke-width:1.07193971px;stroke-linecap:butt;stroke-linejoin:miter;stroke-opacity:1"
         id="path6523" />
      <path
         d="M 11.17201,-10.930057 L 23.004817,-22.896857 L 32.639678,-12.12306 L 22.012803,-1.4961849 L 11.17201,-10.930057 z "
         style="fill:url(#linearGradient13146);fill-opacity:1;stroke:#071325;stroke-width:1.0719403;stroke-linecap:round;stroke-linejoin:miter;stroke-miterlimit:4;stroke-dashoffset:0;stroke-opacity:1"
         id="path6525" />
      <path
         d="M 13.181992,-10.902121 L 23.020765,-21.209868 L 31.833003,-11.392687 L 22.731188,-2.2908724 L 13.181992,-10.902121 z "
         style="opacity:0.5;fill:none;fill-opacity:1;stroke:#ffffff;stroke-width:1.07194054;stroke-linecap:round;stroke-linejoin:miter;stroke-miterlimit:4;stroke-dashoffset:0;stroke-opacity:1"
         id="path6527" />
      <rect
         width="17.16239"
         height="5.3545585"
         rx="1.6377704"
         ry="1.6377703"
         x="15.541585"
         y="14.507341"
         transform="matrix(0.7071068,-0.7071068,0.7071068,0.7071068,0,0)"
         style="fill:url(#linearGradient13148);fill-opacity:1;stroke:#af6d09;stroke-width:1.07194006;stroke-linecap:round;stroke-linejoin:round;stroke-miterlimit:4;stroke-dasharray:none;stroke-dashoffset:0;stroke-opacity:1"
         id="rect6529" />
      <rect
         width="2.1438811"
         height="6.4898205"
         rx="0"
         ry="0"
         x="25.738529"
         y="13.913289"
         transform="matrix(0.7071068,-0.7071068,0.7071068,0.7071068,0,0)"
         style="opacity:0.5;fill:#ffffff;fill-opacity:1;stroke:none;stroke-width:1;stroke-linecap:round;stroke-linejoin:round;stroke-miterlimit:4;stroke-dasharray:none;stroke-dashoffset:0;stroke-opacity:1"
         id="rect6531" />
      <rect
         width="15.014317"
         height="3.2020564"
         rx="0.56848228"
         ry="0.56848246"
         x="16.62451"
         y="15.5715"
         transform="matrix(0.7071068,-0.7071068,0.7071068,0.7071068,0,0)"
         style="opacity:0.5;fill:url(#linearGradient13150);fill-opacity:1;stroke:#ffffff;stroke-width:1.07194066;stroke-linecap:round;stroke-linejoin:miter;stroke-miterlimit:4;stroke-dasharray:none;stroke-dashoffset:0;stroke-opacity:1"
         id="rect6533" />
      <path
         d="M 28.082441,0.81517643 L 37.562405,-3.5395774 L 34.748564,-5.951441 L 28.082441,0.81517643 z "
         style="opacity:0.44086022;fill:url(#linearGradient13152);fill-opacity:1;fill-rule:evenodd;stroke:none;stroke-width:1px;stroke-linecap:butt;stroke-linejoin:miter;stroke-opacity:1"
         id="path6535" />
      <path
         d="M 24.963798,8.6451219 C 30.147037,14.242526 34.391299,21.65737 34.444542,21.665376 C 34.444542,21.665376 48.674051,25.275208 48.082096,25.912911 C 47.416532,26.629913 43.726754,12.588918 43.726754,12.588918 C 43.689819,12.660266 35.963614,8.2226941 30.770318,2.8902458 L 24.963798,8.6451219 z "
         style="fill:url(#linearGradient13154);fill-opacity:1;fill-rule:evenodd;stroke:#af6d09;stroke-width:1.07193947px;stroke-linecap:butt;stroke-linejoin:miter;stroke-opacity:1"
         id="path6399" />
      <rect
         width="2.1438811"
         height="22.510748"
         rx="0"
         ry="0"
         x="15.095855"
         y="24.30109"
         transform="matrix(0.7071068,-0.7071068,0.7071068,0.7071068,0,0)"
         style="opacity:0.5;fill:#ffffff;fill-opacity:1;stroke:none;stroke-width:1;stroke-linecap:round;stroke-linejoin:round;stroke-miterlimit:4;stroke-dasharray:none;stroke-dashoffset:0;stroke-opacity:1"
         id="rect6401" />
      <path
         d="M -11.142857 27.571428 A 2.5714285 2.5714285 0 1 1  -16.285714,27.571428 A 2.5714285 2.5714285 0 1 1  -11.142857 27.571428 z"
         transform="matrix(0.4421525,-0.4421525,0.4421525,0.4421525,32.82824,-1.4061001)"
         style="fill:#af6d09;fill-opacity:1;stroke:none;stroke-width:1;stroke-linecap:round;stroke-linejoin:round;stroke-miterlimit:4;stroke-dasharray:none;stroke-dashoffset:0;stroke-opacity:1"
         id="path6403" />
      <path
         d="M 47.213199,25.022226 L 39.671095,17.648561"
         style="fill:none;fill-opacity:0.75;fill-rule:evenodd;stroke:#af6d09;stroke-width:1.07193899px;stroke-linecap:butt;stroke-linejoin:miter;stroke-opacity:1"
         id="path6405" />
      <path
         d="M 26.393322,8.6591375 C 31.112682,13.690425 35.107192,20.557011 35.117072,20.590086 L 46.048147,23.907638 L 42.773247,13.444854 C 42.843969,13.410775 35.478072,9.1412015 30.770421,4.3287488 L 26.393322,8.6591375 z "
         style="opacity:0.5;fill:none;fill-opacity:1;fill-rule:evenodd;stroke:#ffffff;stroke-width:1.07193971px;stroke-linecap:butt;stroke-linejoin:miter;stroke-opacity:1"
         id="path6407" />
      <path
         d="M 9.1720089,-0.93005622 L 21.004816,-12.896856 L 30.639677,-2.1230591 L 20.012802,8.5038161 L 9.1720089,-0.93005622 z "
         style="fill:url(#linearGradient13156);fill-opacity:1;stroke:#071325;stroke-width:1.0719403;stroke-linecap:round;stroke-linejoin:miter;stroke-miterlimit:4;stroke-dashoffset:0;stroke-opacity:1"
         id="path6409" />
      <path
         d="M 11.181991,-0.90212019 L 21.020764,-11.209867 L 29.833002,-1.3926861 L 20.731187,7.7091286 L 11.181991,-0.90212019 z "
         style="opacity:0.5;fill:none;fill-opacity:1;stroke:#ffffff;stroke-width:1.07194054;stroke-linecap:round;stroke-linejoin:miter;stroke-miterlimit:4;stroke-dashoffset:0;stroke-opacity:1"
         id="path6411" />
      <rect
         width="17.16239"
         height="5.3545585"
         rx="1.6377704"
         ry="1.6377703"
         x="7.0563021"
         y="20.164196"
         transform="matrix(0.7071068,-0.7071068,0.7071068,0.7071068,0,0)"
         style="fill:url(#linearGradient13158);fill-opacity:1;stroke:#af6d09;stroke-width:1.07194006;stroke-linecap:round;stroke-linejoin:round;stroke-miterlimit:4;stroke-dasharray:none;stroke-dashoffset:0;stroke-opacity:1"
         id="rect6413" />
      <rect
         width="2.1438811"
         height="6.4898205"
         rx="0"
         ry="0"
         x="17.253246"
         y="19.570143"
         transform="matrix(0.7071068,-0.7071068,0.7071068,0.7071068,0,0)"
         style="opacity:0.5;fill:#ffffff;fill-opacity:1;stroke:none;stroke-width:1;stroke-linecap:round;stroke-linejoin:round;stroke-miterlimit:4;stroke-dasharray:none;stroke-dashoffset:0;stroke-opacity:1"
         id="rect6415" />
      <rect
         width="15.014317"
         height="3.2020564"
         rx="0.56848228"
         ry="0.56848246"
         x="8.1392269"
         y="21.228354"
         transform="matrix(0.7071068,-0.7071068,0.7071068,0.7071068,0,0)"
         style="opacity:0.5;fill:url(#linearGradient13160);fill-opacity:1;stroke:#ffffff;stroke-width:1.07194066;stroke-linecap:round;stroke-linejoin:miter;stroke-miterlimit:4;stroke-dasharray:none;stroke-dashoffset:0;stroke-opacity:1"
         id="rect6417" />
      <path
         d="M 26.08244,10.815177 L 35.562404,6.4604236 L 32.748563,4.04856 L 26.08244,10.815177 z "
         style="opacity:0.44086022;fill:url(#linearGradient13162);fill-opacity:1;fill-rule:evenodd;stroke:none;stroke-width:1px;stroke-linecap:butt;stroke-linejoin:miter;stroke-opacity:1"
         id="path6419" />
    </g>
  </g>
</svg>
