<?xml version="1.0" encoding="UTF-8" standalone="no"?>
<svg
   xmlns:dc="http://purl.org/dc/elements/1.1/"
   xmlns:cc="http://creativecommons.org/ns#"
   xmlns:rdf="http://www.w3.org/1999/02/22-rdf-syntax-ns#"
   xmlns:svg="http://www.w3.org/2000/svg"
   xmlns="http://www.w3.org/2000/svg"
   xmlns:xlink="http://www.w3.org/1999/xlink"
   xmlns:sodipodi="http://sodipodi.sourceforge.net/DTD/sodipodi-0.dtd"
   xmlns:inkscape="http://www.inkscape.org/namespaces/inkscape"
   version="1.0"
   width="48"
   height="48"
   id="svg2"
   sodipodi:version="0.32"
   inkscape:version="0.46"
   sodipodi:docname="linkedrecords.svg"
   inkscape:output_extension="org.inkscape.output.svg.inkscape">
  <metadata
     id="metadata286">
    <rdf:RDF>
      <cc:Work
         rdf:about="">
        <dc:format>image/svg+xml</dc:format>
        <dc:type
           rdf:resource="http://purl.org/dc/dcmitype/StillImage" />
      </cc:Work>
    </rdf:RDF>
  </metadata>
  <sodipodi:namedview
     inkscape:window-height="968"
     inkscape:window-width="1280"
     inkscape:pageshadow="2"
     inkscape:pageopacity="0.0"
     guidetolerance="10.0"
     gridtolerance="10.0"
     objecttolerance="10.0"
     borderopacity="1.0"
     bordercolor="#666666"
     pagecolor="#ffffff"
     id="base"
     showgrid="false"
     inkscape:zoom="9.625"
     inkscape:cx="24"
     inkscape:cy="24"
     inkscape:window-x="-4"
     inkscape:window-y="-4"
     inkscape:current-layer="svg2" />
  <defs
     id="defs4">
    <linearGradient
       id="linearGradient2065">
      <stop
         style="stop-color:#555753;stop-opacity:1"
         offset="0"
         id="stop5" />
      <stop
         style="stop-color:#fcaf3e;stop-opacity:1"
         offset="1"
         id="stop7" />
    </linearGradient>
    <linearGradient
       id="linearGradient4928">
      <stop
         style="stop-color:#fce94f;stop-opacity:1"
         offset="0"
         id="stop10" />
      <stop
         style="stop-color:#fce94f;stop-opacity:0"
         offset="1"
         id="stop12" />
    </linearGradient>
    <linearGradient
       id="linearGradient4616">
      <stop
         style="stop-color:#2e3436;stop-opacity:1"
         offset="0"
         id="stop15" />
      <stop
         style="stop-color:#2e3436;stop-opacity:0"
         offset="1"
         id="stop17" />
    </linearGradient>
    <linearGradient
       id="linearGradient3327">
      <stop
         style="stop-color:#ffffff;stop-opacity:1"
         offset="0"
         id="stop20" />
      <stop
         style="stop-color:#ffffff;stop-opacity:0"
         offset="1"
         id="stop22" />
    </linearGradient>
    <linearGradient
       id="linearGradient3351">
      <stop
         style="stop-color:#ffffff;stop-opacity:1"
         offset="0"
         id="stop25" />
      <stop
         style="stop-color:#ffffff;stop-opacity:0"
         offset="1"
         id="stop27" />
    </linearGradient>
    <linearGradient
       id="linearGradient3359">
      <stop
         style="stop-color:#ffffff;stop-opacity:1"
         offset="0"
         id="stop30" />
      <stop
         style="stop-color:#ffffff;stop-opacity:0"
         offset="1"
         id="stop32" />
    </linearGradient>
    <linearGradient
       id="linearGradient3377">
      <stop
         style="stop-color:#555753;stop-opacity:1"
         offset="0"
         id="stop35" />
      <stop
         style="stop-color:#888a85;stop-opacity:0"
         offset="1"
         id="stop37" />
    </linearGradient>
    <linearGradient
       id="linearGradient3387">
      <stop
         style="stop-color:#8f9388;stop-opacity:1"
         offset="0"
         id="stop40" />
      <stop
         style="stop-color:#c6cac2;stop-opacity:1"
         offset="0.5"
         id="stop42" />
      <stop
         style="stop-color:#d3d7cf;stop-opacity:0"
         offset="1"
         id="stop44" />
    </linearGradient>
    <linearGradient
       id="linearGradient3397">
      <stop
         style="stop-color:#555753;stop-opacity:1"
         offset="0"
         id="stop47" />
      <stop
         style="stop-color:#d3d7cf;stop-opacity:0"
         offset="1"
         id="stop49" />
    </linearGradient>
    <linearGradient
       id="linearGradient3417">
      <stop
         style="stop-color:#ffffff;stop-opacity:1"
         offset="0"
         id="stop52" />
      <stop
         style="stop-color:#eeeeec;stop-opacity:0"
         offset="1"
         id="stop54" />
    </linearGradient>
    <linearGradient
       id="linearGradient3303">
      <stop
         style="stop-color:#888a85;stop-opacity:1"
         offset="0"
         id="stop57" />
      <stop
         style="stop-color:#eeeeec;stop-opacity:1"
         offset="1"
         id="stop59" />
    </linearGradient>
    <linearGradient
       id="linearGradient3473">
      <stop
         style="stop-color:#888a85;stop-opacity:1"
         offset="0"
         id="stop62" />
      <stop
         style="stop-color:#eeeeec;stop-opacity:1"
         offset="0.5"
         id="stop64" />
      <stop
         style="stop-color:#cecec8;stop-opacity:1"
         offset="1"
         id="stop66" />
    </linearGradient>
    <linearGradient
       id="linearGradient2379">
      <stop
         style="stop-color:#555753;stop-opacity:1"
         offset="0"
         id="stop69" />
      <stop
         style="stop-color:#888a85;stop-opacity:0"
         offset="1"
         id="stop71" />
    </linearGradient>
    <linearGradient
       id="linearGradient2391">
      <stop
         style="stop-color:#555753;stop-opacity:1"
         offset="0"
         id="stop74" />
      <stop
         style="stop-color:#888a85;stop-opacity:0"
         offset="1"
         id="stop76" />
    </linearGradient>
    <linearGradient
       id="linearGradient2397">
      <stop
         style="stop-color:#555753;stop-opacity:1"
         offset="0"
         id="stop79" />
      <stop
         style="stop-color:#888a85;stop-opacity:0"
         offset="1"
         id="stop81" />
    </linearGradient>
    <linearGradient
       id="linearGradient3325">
      <stop
         style="stop-color:#babdb6;stop-opacity:1"
         offset="0"
         id="stop84" />
      <stop
         style="stop-color:#d3d7cf;stop-opacity:0"
         offset="1"
         id="stop86" />
    </linearGradient>
    <linearGradient
       id="linearGradient3346">
      <stop
         style="stop-color:#555753;stop-opacity:1"
         offset="0"
         id="stop89" />
      <stop
         style="stop-color:#d3d7cf;stop-opacity:0"
         offset="1"
         id="stop91" />
    </linearGradient>
    <linearGradient
       id="linearGradient5060">
      <stop
         style="stop-color:#000000;stop-opacity:1"
         offset="0"
         id="stop94" />
      <stop
         style="stop-color:#000000;stop-opacity:0"
         offset="1"
         id="stop96" />
    </linearGradient>
    <linearGradient
       id="linearGradient5048">
      <stop
         style="stop-color:#000000;stop-opacity:0"
         offset="0"
         id="stop99" />
      <stop
         style="stop-color:#000000;stop-opacity:1"
         offset="0.5"
         id="stop101" />
      <stop
         style="stop-color:#000000;stop-opacity:0"
         offset="1"
         id="stop103" />
    </linearGradient>
    <linearGradient
       id="linearGradient5589">
      <stop
         style="stop-color:#ececea;stop-opacity:1"
         offset="0"
         id="stop106" />
      <stop
         style="stop-color:#d6d9d2;stop-opacity:1"
         offset="1"
         id="stop108" />
    </linearGradient>
    <linearGradient
       id="linearGradient3487">
      <stop
         style="stop-color:#ffffff;stop-opacity:1"
         offset="0"
         id="stop121" />
      <stop
         style="stop-color:#eeeeec;stop-opacity:0"
         offset="1"
         id="stop123" />
    </linearGradient>
    <linearGradient
       x1="302.85715"
       y1="366.64789"
       x2="302.85715"
       y2="609.50507"
       id="linearGradient2606"
       xlink:href="#linearGradient5048"
       gradientUnits="userSpaceOnUse"
       gradientTransform="matrix(2.774389,0,0,1.969706,-1892.179,-872.8854)" />
    <radialGradient
       cx="605.71429"
       cy="486.64789"
       r="117.14286"
       fx="605.71429"
       fy="486.64789"
       id="radialGradient2608"
       xlink:href="#linearGradient5060"
       gradientUnits="userSpaceOnUse"
       gradientTransform="matrix(2.774389,0,0,1.969706,-1891.633,-872.8854)" />
    <radialGradient
       cx="605.71429"
       cy="486.64789"
       r="117.14286"
       fx="605.71429"
       fy="486.64789"
       id="radialGradient2610"
       xlink:href="#linearGradient5060"
       gradientUnits="userSpaceOnUse"
       gradientTransform="matrix(-2.774389,0,0,1.969706,112.7623,-872.8854)" />
    <linearGradient
       x1="12.8125"
       y1="4"
       x2="12.8125"
       y2="25.985226"
       id="linearGradient2612"
       xlink:href="#linearGradient5589"
       gradientUnits="userSpaceOnUse"
       gradientTransform="matrix(0.7586207,0,0,0.76,-0.637931,-1.4)" />
    <linearGradient
       x1="-11.986486"
       y1="13.122552"
       x2="-11.986486"
       y2="29.726542"
       id="linearGradient2614"
       xlink:href="#linearGradient2065"
       gradientUnits="userSpaceOnUse"
       gradientTransform="matrix(0.4567904,0,0,0.4583338,16.975301,-0.7708312)" />
    <radialGradient
       cx="-6"
       cy="32.837029"
       r="9.90625"
       fx="-6"
       fy="32.837029"
       id="radialGradient2616"
       xlink:href="#linearGradient4928"
       gradientUnits="userSpaceOnUse"
       gradientTransform="matrix(0.4987,0,0,0.4484765,11.828345,0.2603055)" />
    <linearGradient
       x1="25.355263"
       y1="34"
       x2="25.355263"
       y2="32.4"
       id="linearGradient2618"
       xlink:href="#linearGradient4616"
       gradientUnits="userSpaceOnUse"
       gradientTransform="matrix(0.4411769,0,0,0.5,0.911766,-2.5)" />
    <linearGradient
       x1="302.85715"
       y1="366.64789"
       x2="302.85715"
       y2="609.50507"
       id="linearGradient2620"
       xlink:href="#linearGradient5048"
       gradientUnits="userSpaceOnUse"
       gradientTransform="matrix(2.774389,0,0,1.969706,-1892.179,-872.8854)" />
    <radialGradient
       cx="605.71429"
       cy="486.64789"
       r="117.14286"
       fx="605.71429"
       fy="486.64789"
       id="radialGradient2622"
       xlink:href="#linearGradient5060"
       gradientUnits="userSpaceOnUse"
       gradientTransform="matrix(2.774389,0,0,1.969706,-1891.633,-872.8854)" />
    <radialGradient
       cx="605.71429"
       cy="486.64789"
       r="117.14286"
       fx="605.71429"
       fy="486.64789"
       id="radialGradient2624"
       xlink:href="#linearGradient5060"
       gradientUnits="userSpaceOnUse"
       gradientTransform="matrix(-2.774389,0,0,1.969706,112.7623,-872.8854)" />
    <linearGradient
       x1="12.8125"
       y1="3.9999673"
       x2="12.8125"
       y2="25.985226"
       id="linearGradient2626"
       xlink:href="#linearGradient5589"
       gradientUnits="userSpaceOnUse"
       gradientTransform="matrix(0.7586207,0,0,0.76,-0.637931,-1.4)" />
    <linearGradient
       x1="-11.986486"
       y1="13.122552"
       x2="-11.986486"
       y2="29.726542"
       id="linearGradient2628"
       xlink:href="#linearGradient2065"
       gradientUnits="userSpaceOnUse"
       gradientTransform="matrix(0.4567904,0,0,0.4583338,16.9753,-0.77083)" />
    <radialGradient
       cx="-6.0070167"
       cy="32.837029"
       r="9.90625"
       fx="-6.0070167"
       fy="32.837029"
       id="radialGradient2630"
       xlink:href="#linearGradient4928"
       gradientUnits="userSpaceOnUse"
       gradientTransform="matrix(0.4987,0,0,0.4484765,11.828345,0.2603)" />
    <linearGradient
       x1="25.355263"
       y1="34.006802"
       x2="25.355263"
       y2="32.4"
       id="linearGradient2632"
       xlink:href="#linearGradient4616"
       gradientUnits="userSpaceOnUse"
       gradientTransform="matrix(0.4411769,0,0,0.5,0.911766,-2.5)" />
    <linearGradient
       x1="23.467106"
       y1="20.201925"
       x2="23.467106"
       y2="17.015749"
       id="linearGradient2634"
       xlink:href="#linearGradient3303"
       gradientUnits="userSpaceOnUse"
       gradientTransform="matrix(0.6,0,0,0.6,-2.6752767,41.07749)" />
    <linearGradient
       x1="32.309578"
       y1="15.875"
       x2="44.187737"
       y2="15.875"
       id="linearGradient2636"
       xlink:href="#linearGradient3397"
       gradientUnits="userSpaceOnUse"
       gradientTransform="matrix(0.6,0,0,0.6,-2.6752767,41.07749)" />
    <linearGradient
       x1="37.124252"
       y1="13.375"
       x2="47.5625"
       y2="13.375"
       id="linearGradient2638"
       xlink:href="#linearGradient3377"
       gradientUnits="userSpaceOnUse"
       gradientTransform="matrix(0.6,0,0,0.6,-2.6752767,41.07749)" />
    <linearGradient
       x1="37.551125"
       y1="26.433243"
       x2="46.821011"
       y2="26.433243"
       id="linearGradient2640"
       xlink:href="#linearGradient3359"
       gradientUnits="userSpaceOnUse"
       gradientTransform="matrix(0.6,0,0,0.6,-2.6752767,41.07749)" />
    <linearGradient
       x1="36.122208"
       y1="15.875"
       x2="47.312737"
       y2="15.875"
       id="linearGradient2642"
       xlink:href="#linearGradient3325"
       gradientUnits="userSpaceOnUse"
       gradientTransform="matrix(0.6,0,0,0.6,-2.6752767,41.07749)" />
    <linearGradient
       x1="41.125"
       y1="13.375"
       x2="47.5625"
       y2="13.375"
       id="linearGradient2644"
       xlink:href="#linearGradient2397"
       gradientUnits="userSpaceOnUse"
       gradientTransform="matrix(0.6,0,0,0.6,-2.6752767,41.07749)" />
    <radialGradient
       cx="31.349806"
       cy="14.914701"
       r="12"
       fx="31.349794"
       fy="14.914677"
       id="radialGradient2646"
       xlink:href="#linearGradient3417"
       gradientUnits="userSpaceOnUse"
       gradientTransform="matrix(1.027139,7.049762e-7,-2.341676e-7,0.341179,-0.857269,11.25477)" />
    <linearGradient
       x1="35.176235"
       y1="17.240854"
       x2="47.651093"
       y2="17.240854"
       id="linearGradient2648"
       xlink:href="#linearGradient3351"
       gradientUnits="userSpaceOnUse"
       gradientTransform="matrix(0.6,0,0,0.6,-2.6752767,41.07749)" />
    <linearGradient
       x1="35.253414"
       y1="14.589205"
       x2="48.08326"
       y2="14.589205"
       id="linearGradient2650"
       xlink:href="#linearGradient3327"
       gradientUnits="userSpaceOnUse"
       gradientTransform="matrix(0.6,0,0,0.6,-2.6752767,41.07749)" />
    <linearGradient
       x1="37.551125"
       y1="26.433243"
       x2="46.258511"
       y2="26.433243"
       id="linearGradient2652"
       xlink:href="#linearGradient3359"
       gradientUnits="userSpaceOnUse"
       gradientTransform="matrix(0.6,0,0,0.6,-2.6752767,41.07749)" />
    <linearGradient
       x1="34.122208"
       y1="15.8125"
       x2="44.853527"
       y2="16.0625"
       id="linearGradient2654"
       xlink:href="#linearGradient3346"
       gradientUnits="userSpaceOnUse"
       gradientTransform="matrix(-0.6,0,0,0.6,25.664207,41.07749)" />
    <linearGradient
       x1="37.5"
       y1="13.4375"
       x2="47.5625"
       y2="13.375"
       id="linearGradient2656"
       xlink:href="#linearGradient2391"
       gradientUnits="userSpaceOnUse"
       gradientTransform="matrix(-0.6,0,0,0.6,25.664207,41.07749)" />
    <linearGradient
       x1="37.551125"
       y1="26.433243"
       x2="44.822086"
       y2="26.433243"
       id="linearGradient2658"
       xlink:href="#linearGradient3359"
       gradientUnits="userSpaceOnUse"
       gradientTransform="matrix(-0.6,0,0,0.6,25.664207,41.07749)" />
    <linearGradient
       x1="29.861185"
       y1="15.875"
       x2="46.562737"
       y2="15.875"
       id="linearGradient2660"
       xlink:href="#linearGradient3387"
       gradientUnits="userSpaceOnUse"
       gradientTransform="matrix(-0.6,0,0,0.6,25.664207,41.07749)" />
    <linearGradient
       x1="41.125"
       y1="13.375"
       x2="47.5625"
       y2="13.375"
       id="linearGradient2662"
       xlink:href="#linearGradient2379"
       gradientUnits="userSpaceOnUse"
       gradientTransform="matrix(-0.6,0,0,0.6,25.664207,41.07749)" />
    <radialGradient
       cx="35.973373"
       cy="14.052355"
       r="12"
       fx="35.973362"
       fy="14.05233"
       id="radialGradient2664"
       xlink:href="#linearGradient3417"
       gradientUnits="userSpaceOnUse"
       gradientTransform="matrix(0.751224,2.345941e-6,-7.16423e-7,0.229414,8.256114,12.93155)" />
    <linearGradient
       x1="35.176235"
       y1="17.240854"
       x2="47.651093"
       y2="17.240854"
       id="linearGradient2666"
       xlink:href="#linearGradient3351"
       gradientUnits="userSpaceOnUse"
       gradientTransform="matrix(-0.6,0,0,0.6,25.664207,41.07749)" />
    <linearGradient
       x1="35.253414"
       y1="14.589205"
       x2="48.08326"
       y2="14.589205"
       id="linearGradient2668"
       xlink:href="#linearGradient3327"
       gradientUnits="userSpaceOnUse"
       gradientTransform="matrix(-0.6,0,0,0.6,25.664207,41.07749)" />
    <linearGradient
       x1="37.551125"
       y1="26.433243"
       x2="44.571289"
       y2="26.433243"
       id="linearGradient2670"
       xlink:href="#linearGradient3359"
       gradientUnits="userSpaceOnUse"
       gradientTransform="matrix(-0.6,0,0,0.6,25.664207,41.07749)" />
    <linearGradient
       x1="20"
       y1="24"
       x2="20"
       y2="19.121248"
       id="linearGradient2672"
       xlink:href="#linearGradient3473"
       gradientUnits="userSpaceOnUse"
       gradientTransform="matrix(0.6,0,0,0.6,-2.6752767,41.07749)" />
    <radialGradient
       cx="7.0126991"
       cy="22.25555"
       r="13"
       fx="7.0126991"
       fy="22.25555"
       id="radialGradient2674"
       xlink:href="#linearGradient3487"
       gradientUnits="userSpaceOnUse"
       gradientTransform="matrix(0.21225,0,0,0.254807,12.01156,16.32913)" />
  </defs>
  <g
     id="layer1"
     transform="matrix(0.9987446,0,0,0.9994052,2.9649539e-2,-1.0253785e-3)">
    <g
       transform="matrix(1.4972051,0,0,1.5000402,6.8244468e-4,-6.4301618e-4)"
       id="g186">
      <g
         transform="matrix(1.1327628e-2,0,0,7.3167084e-3,21.575195,18.602605)"
         id="g188">
        <rect
           width="1339.6335"
           height="478.35718"
           x="-1559.2523"
           y="-150.69685"
           style="opacity:0.4;fill:url(#linearGradient2606)"
           id="rect190" />
        <path
           d="M -219.61876,-150.68038 C -219.61876,-150.68038 -219.61876,327.65041 -219.61876,327.65041 C -76.744594,328.55086 125.78146,220.48075 125.78138,88.454235 C 125.78138,-43.572302 -33.655436,-150.68036 -219.61876,-150.68038 z"
           style="opacity:0.4;fill:url(#radialGradient2608)"
           id="path192" />
        <path
           d="M -1559.2523,-150.68038 C -1559.2523,-150.68038 -1559.2523,327.65041 -1559.2523,327.65041 C -1702.1265,328.55086 -1904.6525,220.48075 -1904.6525,88.454235 C -1904.6525,-43.572302 -1745.2157,-150.68036 -1559.2523,-150.68038 z"
           style="opacity:0.4;fill:url(#radialGradient2610)"
           id="path194" />
      </g>
      <rect
         width="22"
         height="19"
         rx="1.6687621"
         ry="1.6676589"
         x="0.5"
         y="0.5"
         style="fill:url(#linearGradient2612);stroke:#888a85"
         id="rect196" />
      <rect
         width="20"
         height="17"
         rx="1.0012571"
         ry="1.0005952"
         x="1.5"
         y="1.5"
         style="fill:none;stroke:#ffffff"
         id="rect198" />
      <rect
         width="16"
         height="11"
         rx="0.33375201"
         ry="0.33353138"
         x="3.5"
         y="4.5"
         style="fill:url(#linearGradient2614);stroke:#2e3436"
         id="rect200" />
      <path
         d="M 8.5209608,10.074294 C 5.9432905,10.227735 3.8924,12.252326 3.892401,14.709149 C 3.892401,14.804027 3.9019808,14.893478 3.9079853,14.986948 L 13.757312,14.986948 C 13.763318,14.893478 13.772897,14.804027 13.772897,14.709149 C 13.772897,12.152454 11.557805,10.074294 8.8326489,10.074294 C 8.7261971,10.074294 8.6257449,10.068057 8.52096,10.074294 L 8.5209608,10.074294 z"
         style="fill:url(#radialGradient2616)"
         id="path202" />
      <rect
         width="15"
         height="1"
         rx="0"
         ry="0"
         x="4"
         y="14"
         style="fill:url(#linearGradient2618)"
         id="rect204" />
      <path
         d="M 14.435715,15 C 14.435715,15 14.167739,13.629396 14.167739,12.78974 C 14.175172,12.406701 17.92352,9.4226972 17.933191,8.9782177 L 17.061733,9.678121 L 16.451503,8.1481188 L 18.508731,8.3445701 L 19.473395,7.4555346 L 18.380834,8.1947283 L 18.005082,8.1161489 L 17.544066,6.5665006 L 17.778544,8.0768578 L 16.075752,7.9982776 L 16.608658,9.2482424 L 15.132404,7.9000527 L 16.693925,9.776565 C 16.693965,10.19509 13.616222,12.75003 13.621457,12.309483 L 12.34499,10.731634 L 12.238409,8.598579 L 13.203074,8.3445701 L 14.048196,6.4239798 L 12.934143,8.1990756 L 12.064416,8.162757 L 10.117535,6.6473952 L 7.4443439,5.7044311 L 9.7281083,6.8611775 L 7.8974176,7.0110172 L 10.309079,7.0110172 L 11.756077,8.3445701 L 11.926607,10.648048 L 9.3444148,8.3445701 L 10.43029,9.5479239 L 8.8620828,10.567155 L 10.584699,9.678121 L 13.309655,12.841356 L 13.203074,15 L 14.435715,15 z"
         style="fill:#000000"
         id="path206" />
      <g
         transform="matrix(0.75,0,0,1.0062389,-0.24,-7.1216579)"
         id="g208">
        <path
           d="M 10.747633,18.010982 C 8.6605561,18.104049 7,19.332043 7,20.822203 C 7,20.879751 7.0077568,20.934008 7.0126184,20.9907 L 14.98738,20.9907 C 14.992244,20.934008 15,20.879751 15,20.822203 C 15,19.271467 13.206495,18.010982 11,18.010982 C 10.913809,18.010982 10.832476,18.007198 10.747633,18.010982 z"
           style="fill:#fef39e"
           id="path210" />
      </g>
      <path
         d="M 7.8609127,11.910714 C 6.7582597,11.982375 5.8645979,12.882227 5.7514222,14 L 10.248578,14 C 10.132534,12.832287 9.1702723,11.910714 8,11.910714 C 7.9512389,11.910714 7.9089126,11.907594 7.8609127,11.910714 z"
         style="fill:#fffbd7;fill-opacity:0.55681817"
         id="path212" />
      <g
         transform="translate(9,6)"
         id="g214">
        <g
           transform="matrix(1.1327628e-2,0,0,7.3167084e-3,21.575195,18.602605)"
           id="g5491">
          <rect
             width="1339.65"
             height="478.35001"
             x="-1559.3"
             y="-150.7"
             style="opacity:0.40206185;fill:url(#linearGradient2620)"
             id="rect217" />
          <path
             d="M -219.61876,-150.68038 C -219.61876,-150.68038 -219.61876,327.65041 -219.61876,327.65041 C -76.744594,328.55086 125.78146,220.48075 125.78138,88.454235 C 125.78138,-43.572302 -33.655436,-150.68036 -219.61876,-150.68038 z"
             style="opacity:0.40206185;fill:url(#radialGradient2622)"
             id="path219" />
          <path
             d="M -1559.2523,-150.68038 C -1559.2523,-150.68038 -1559.2523,327.65041 -1559.2523,327.65041 C -1702.1265,328.55086 -1904.6525,220.48075 -1904.6525,88.454235 C -1904.6525,-43.572302 -1745.2157,-150.68036 -1559.2523,-150.68038 z"
             style="opacity:0.40206185;fill:url(#radialGradient2624)"
             id="path221" />
        </g>
        <rect
           width="22"
           height="19"
           rx="1.6687621"
           ry="1.6676589"
           x="0.5"
           y="0.5"
           style="fill:url(#linearGradient2626);stroke:#888a85"
           id="rect223" />
        <rect
           width="20"
           height="17"
           rx="1.0012571"
           ry="1.0005952"
           x="1.5"
           y="1.5"
           style="fill:none;stroke:#ffffff"
           id="rect225" />
        <rect
           width="16"
           height="11"
           rx="0.33375201"
           ry="0.33353138"
           x="3.5"
           y="4.5"
           style="fill:url(#linearGradient2628);stroke:#2e3436"
           id="rect227" />
        <path
           d="M 8.5209608,10.074294 C 5.9432905,10.227735 3.892401,12.252326 3.892401,14.709149 C 3.892401,14.804027 3.9019808,14.893478 3.9079853,14.986948 L 13.757312,14.986948 C 13.763318,14.893478 13.772897,14.804027 13.772897,14.709149 C 13.772897,12.152454 11.557805,10.074294 8.8326489,10.074294 C 8.7261971,10.074294 8.6257449,10.068057 8.5209608,10.074294 z"
           style="fill:url(#radialGradient2630)"
           id="path229" />
        <rect
           width="15"
           height="1"
           rx="0"
           ry="0"
           x="4"
           y="14"
           style="fill:url(#linearGradient2632)"
           id="rect231" />
        <path
           d="M 14.435715,15 C 14.435715,15 14.167739,13.629396 14.167739,12.78974 C 14.175172,12.406701 17.92352,9.4226972 17.933191,8.9782177 L 17.061733,9.678121 L 16.451503,8.1481188 L 18.508731,8.3445701 L 19.473395,7.4555346 L 18.380834,8.1947283 L 18.005082,8.1161489 L 17.544066,6.5665006 L 17.778544,8.0768578 L 16.075752,7.9982776 L 16.608658,9.2482424 L 15.132404,7.9000527 L 16.693925,9.776565 C 16.693965,10.19509 13.616222,12.75003 13.621457,12.309483 L 12.34499,10.731634 L 12.238409,8.598579 L 13.203074,8.3445701 L 14.048196,6.4239798 L 12.934143,8.1990756 L 12.064416,8.162757 L 10.117535,6.6473952 L 7.4443439,5.7044311 L 9.7281083,6.8611775 L 7.8974176,7.0110172 L 10.309079,7.0110172 L 11.756077,8.3445701 L 11.926607,10.648048 L 9.3444148,8.3445701 L 10.43029,9.5479239 L 8.8620828,10.567155 L 10.584699,9.678121 L 13.309655,12.841356 L 13.203074,15 L 14.435715,15 z"
           style="fill:#000000"
           id="path233" />
        <g
           transform="matrix(0.75,0,0,1.0062389,-0.25,-7.1216579)"
           id="g235">
          <path
             d="M 10.747633,18.010982 C 8.6605561,18.104049 7,19.332043 7,20.822203 C 7,20.879751 7.0077568,20.934008 7.0126184,20.9907 L 14.98738,20.9907 C 14.992244,20.934008 15,20.879751 15,20.822203 C 15,19.271467 13.206495,18.010982 11,18.010982 C 10.913809,18.010982 10.832476,18.007198 10.747633,18.010982 z"
             style="fill:#fef39e"
             id="path237" />
        </g>
        <path
           d="M 7.8609127,11.910714 C 6.7582597,11.982375 5.8645979,12.882227 5.7514222,14 L 10.248578,14 C 10.132534,12.832287 9.1702723,11.910714 8,11.910714 C 7.9512389,11.910714 7.9089126,11.907594 7.8609127,11.910714 z"
           style="fill:#fffbd7;fill-opacity:0.55681817"
           id="path239" />
      </g>
      <g
         transform="matrix(0.9925639,0,0,1.0888298,4.6204211,-30.904812)"
         id="g241">
        <rect
           width="10.036922"
           height="2.9519999"
           x="6.4759998"
           y="50.819187"
           style="fill:url(#linearGradient2634);stroke:#555753"
           id="rect243" />
        <path
           d="M 12.97048,54.361623 C 12.97048,56.13284 16.041749,57.313653 17.066421,57.313652 L 27.140221,57.313652 L 27.140221,54.361623 L 12.97048,54.361623 z"
           style="fill:url(#linearGradient2636);stroke:url(#linearGradient2638)"
           id="path245" />
        <path
           d="M 26.549815,54.952029 L 17.933579,54.952029 C 17.695661,55.14338 17.415596,55.247232 17.121771,55.247232"
           style="opacity:0.75;fill:none;stroke:url(#linearGradient2640)"
           id="path247" />
        <path
           d="M 3.9298893,52 C 3.6822985,52.421179 3.5239853,52.93004 3.5239853,53.476014 C 3.5239853,54.947895 4.5667985,56.13284 5.8671587,56.13284 L 17.121771,56.13284 C 18.422131,56.13284 19.464945,54.947895 19.464945,53.476014 C 19.464945,52.93004 19.306631,52.421179 19.05904,52 L 17.398524,52 C 16.683026,52 16.096593,52.507004 15.95941,53.180811 L 15.0369,53.180811 L 12.398524,53.180811 L 7.9520295,53.180811 C 7.2365308,53.180812 6.6500983,52.673806 6.5129151,52 L 3.9298893,52 z"
           style="fill:#d3d7cf;stroke:#888a85"
           id="path249" />
        <path
           d="M 7.6568266,51.409593 L 15.332103,51.409593"
           style="opacity:0.75;fill:none;stroke:#ffffff"
           id="path251" />
        <path
           d="M 16.476015,49.04797 C 15.229836,49.04797 13.052763,50.870576 12.97048,53.180811 L 18.265683,53.180811 L 18.265683,52 L 27.140221,52 L 27.140221,49.04797 L 16.476015,49.04797 z"
           style="fill:url(#linearGradient2642);stroke:url(#linearGradient2644)"
           id="path253" />
        <path
           d="M 32.4375,13.96875 C 31.610667,13.96875 30.201749,14.649802 29.0625,15.84375 C 28.029017,16.926854 27.225347,18.415244 27.03125,20.03125 L 35,20.03125 L 35,18.5 C 35.000026,18.241127 35.209877,18.031276 35.46875,18.03125 L 50.03125,18.03125 L 50.03125,13.96875 L 32.4375,13.96875 z"
           transform="matrix(0.6,0,0,0.6,-2.6752767,41.07749)"
           style="opacity:0.8;fill:url(#radialGradient2646)"
           id="path255" />
        <path
           d="M 15.424354,54.06642 C 15.368749,53.878347 15.332103,53.682753 15.332103,53.476014 C 15.332103,52.341429 16.26394,51.409593 17.398524,51.409593 L 26.549815,51.409593"
           style="opacity:0.6;fill:none;stroke:url(#linearGradient2648)"
           id="path257" />
        <path
           d="M 26.549815,49.638376 L 16.476015,49.638376 C 16.140759,49.638376 15.334682,49.993 14.704797,50.653136 C 14.074912,51.313264 13.595631,52.20528 13.560886,53.180811 L 13.560886,54.06642"
           style="fill:none;stroke:url(#linearGradient2650)"
           id="path259" />
        <path
           d="M 13.98524,55.247232 C 14.223009,55.513324 14.538441,55.761645 14.926199,55.985239 C 15.737767,56.453215 16.780876,56.723246 17.066421,56.723246 L 26.549815,56.723246"
           style="opacity:0.6;fill:none;stroke:url(#linearGradient2652)"
           id="path261" />
        <path
           d="M 10.018451,54.361623 C 10.018451,56.13284 6.9471816,57.313653 5.9225097,57.313652 L -4.151291,57.313652 L -4.151291,54.361623 L 10.018451,54.361623 z"
           style="fill:url(#linearGradient2654);stroke:url(#linearGradient2656)"
           id="path263" />
        <path
           d="M -3.5608851,54.952029 L 5.0553511,54.952029 C 5.2932693,55.14338 5.5733342,55.247232 5.8671592,55.247232"
           style="opacity:0.7;fill:none;stroke:url(#linearGradient2658)"
           id="path265" />
        <path
           d="M 6.5129156,49.04797 C 7.7590942,49.04797 9.936167,50.870576 10.018451,53.180811 L 4.7232477,53.180811 L 4.7232477,52 L -4.151291,52 L -4.151291,49.04797 L 6.5129156,49.04797 z"
           style="fill:url(#linearGradient2660);stroke:url(#linearGradient2662)"
           id="path267" />
        <path
           d="M 32.4375,13.96875 C 31.610667,13.96875 30.201749,14.649802 29.0625,15.84375 C 28.029017,16.926854 27.225347,18.415244 27.03125,20.03125 L 35,20.03125 L 35,18.5 C 35.000026,18.241127 35.209877,18.031276 35.46875,18.03125 L 50.03125,18.03125 L 50.03125,13.96875 L 32.4375,13.96875 z"
           transform="matrix(-0.6,0,0,0.6,25.664207,41.07749)"
           style="opacity:0.7;fill:url(#radialGradient2664)"
           id="path269" />
        <path
           d="M 7.5645761,54.06642 C 7.6201811,53.878347 7.656827,53.682753 7.656827,53.476014 C 7.656827,52.341429 6.7249906,51.409593 5.5904064,51.409593 L -3.5608851,51.409593"
           style="opacity:0.7;fill:none;stroke:url(#linearGradient2666)"
           id="path271" />
        <path
           d="M -3.5608851,49.638376 L 6.5129156,49.638376 C 6.8481711,49.638376 7.6542482,49.993 8.2841333,50.653136 C 8.9140185,51.313264 9.3932994,52.20528 9.4280447,53.180811 L 9.4280447,54.06642"
           style="fill:none;stroke:url(#linearGradient2668)"
           id="path273" />
        <path
           d="M 9.0036905,55.247232 C 8.7659217,55.513324 8.450489,55.761645 8.0627311,55.985239 C 7.2511633,56.453215 6.2080542,56.723246 5.9225097,56.723246 L -3.5608851,56.723246"
           style="opacity:0.7;fill:none;stroke:url(#linearGradient2670)"
           id="path275" />
        <path
           d="M 3.9298893,52 C 3.6822985,52.421179 3.5239853,52.93 3.5239853,53.476014 C 3.5239847,54.947895 4.5667985,56.13284 5.8671587,56.13284 L 17.121771,56.13284 C 18.422131,56.13284 19.464945,54.947895 19.464945,53.476014 C 19.464945,52.93004 19.306631,52.421179 19.05904,52 L 17.398524,52 C 16.683026,52 16.096593,52.507 15.95941,53.180811 L 7.02952,53.180811 C 6.8923371,52.507004 6.3059041,52 5.6,52 L 3.9298893,52 z"
           style="fill:url(#linearGradient2672);stroke:#555753"
           id="path277" />
        <path
           d="M 18.468635,51.704796 L 18.468635,51.704796 z M 4.1512915,52.2952 C 4,52.549592 3.8913399,52.827965 3.8376384,53.12546 C 3.8169748,53.239934 3.8191882,53.355148 3.8191882,53.476014 C 3.8191876,54.142239 4.0561795,54.731131 4.4280443,55.154981 C 4.5209104,55.261119 4.6142276,55.347777 4.7232472,55.431733 C 4.8322669,55.51569 4.9514533,55.594263 5.0738007,55.653136 C 5.3183463,55.77044 5.5869024,55.837637 5.8671587,55.837637 L 17.121771,55.837637 C 17.402827,55.837637 17.670434,55.77088 17.915129,55.653136 C 18.037477,55.594263 18.156663,55.51569 18.265683,55.431733 C 18.374702,55.347777 18.468019,55.261119 18.560886,55.154981 C 18.93275,54.731131 19.169742,54.142239 19.169742,53.476014 C 19.169742,53.367723 19.163205,53.266358 19.151291,53.162361 C 19.149404,53.150815 19.153364,53.136941 19.151291,53.12546 C 19.09759,52.827965 18.968901,52.549592 18.837638,52.295202 L 18.210332,52.295202 C 18.433026,52.597476 18.579336,53.00187 18.579336,53.476014 C 18.579336,54.535234 17.880932,55.247232 17.121771,55.247232 L 5.8671587,55.247232 C 5.1079982,55.247231 4.4095941,54.535233 4.4095941,53.476014 C 4.4095941,53.00187 4.5559038,52.597476 4.7785978,52.295202 L 4.1512915,52.295202 L 4.1512915,52.2952 z"
           style="opacity:0.75;fill:#ffffff"
           id="path279" />
        <path
           d="M 6.1875,52.4375 L 6.1875,53.21875 C 6.1875,53.683827 6.5661719,54.0625 7.03125,54.0625 L 15.96875,54.0625 C 16.433828,54.062498 16.8125,53.683828 16.8125,53.21875 L 16.8125,52.4375 C 16.528085,52.602223 16.318842,52.911865 16.25,53.25 C 16.242427,53.289694 16.208779,53.311788 16.1875,53.34375 C 16.149587,53.43724 16.079904,53.46875 15.96875,53.46875 L 7.03125,53.46875 C 6.9279978,53.470571 6.8356293,53.425432 6.78125,53.34375 C 6.759971,53.311789 6.7263238,53.289692 6.71875,53.25 C 6.6499081,52.911867 6.4719145,52.602221 6.1875,52.4375 z"
           style="opacity:0.9;fill:#ffffff"
           id="path281" />
        <path
           d="M 11.5,19 C 11.198127,19.592213 11,20.27145 11,21 C 11,23.256835 12.570013,25 14.46875,25 L 33.53125,25 C 35.429987,25 37,23.256835 37,21 C 37,20.27145 36.801873,19.592213 36.5,19 L 34,19 C 33.024326,19 32.249062,19.677406 32.0625,20.59375 C 32.016889,20.832791 31.805816,21.004288 31.5625,21 L 16.4375,21 C 16.194184,21.004288 15.983111,20.832791 15.9375,20.59375 C 15.750938,19.677406 14.975674,19 14,19 L 11.5,19 z"
           transform="matrix(0.6,0,0,0.6,-2.6752767,41.07749)"
           style="fill:url(#radialGradient2674)"
           id="path283" />
      </g>
    </g>
  </g>
</svg>
