<?xml version="1.0" encoding="UTF-8" standalone="no"?>
<!-- Created with Inkscape (http://www.inkscape.org/) -->
<svg
   xmlns:svg="http://www.w3.org/2000/svg"
   xmlns="http://www.w3.org/2000/svg"
   xmlns:xlink="http://www.w3.org/1999/xlink"
   version="1.0"
   width="48"
   height="48"
   id="svg15004">
  <defs
     id="defs15006">
    <linearGradient
       id="linearGradient5932">
      <stop
         id="stop5934"
         style="stop-color:#aa8a00;stop-opacity:1"
         offset="0" />
      <stop
         id="stop5936"
         style="stop-color:#685400;stop-opacity:1"
         offset="1" />
    </linearGradient>
    <linearGradient
       x1="15.785038"
       y1="7.033917"
       x2="15.785038"
       y2="11.669251"
       id="linearGradient5938"
       xlink:href="#linearGradient5932"
       gradientUnits="userSpaceOnUse" />
    <linearGradient
       id="linearGradient5904">
      <stop
         id="stop5906"
         style="stop-color:#6b99ca;stop-opacity:1"
         offset="0" />
      <stop
         id="stop5908"
         style="stop-color:#6b99ca;stop-opacity:0"
         offset="1" />
    </linearGradient>
    <linearGradient
       x1="19.666338"
       y1="19.245584"
       x2="21.732088"
       y2="19.245584"
       id="linearGradient5910"
       xlink:href="#linearGradient5904"
       gradientUnits="userSpaceOnUse"
       gradientTransform="translate(-4.958783,4.4652e-2)" />
    <linearGradient
       id="linearGradient5924">
      <stop
         id="stop5926"
         style="stop-color:#edd400;stop-opacity:1"
         offset="0" />
      <stop
         id="stop5928"
         style="stop-color:#fffbce;stop-opacity:1"
         offset="1" />
    </linearGradient>
    <radialGradient
       cx="20.539745"
       cy="14.45822"
       r="4.561861"
       fx="20.539745"
       fy="14.45822"
       id="radialGradient5930"
       xlink:href="#linearGradient5924"
       gradientUnits="userSpaceOnUse"
       gradientTransform="matrix(-2.1933856e-2,-1.4404292,1.1932891,-1.852436e-2,-1.2022609,43.884324)" />
  </defs>
  <g
     id="layer1">
    <g
       transform="matrix(2,0,0,2,150,-790.01865)"
       id="draw_pen"
       style="display:inline">
      <rect
         width="24"
         height="23.981354"
         x="50"
         y="-0.98135376"
         transform="translate(-125,396)"
         id="rect7455"
         style="opacity:1;fill:#ffffff;fill-opacity:0;stroke:none;stroke-width:1;stroke-linecap:butt;stroke-linejoin:miter;stroke-miterlimit:0;stroke-dasharray:none;stroke-dashoffset:0;stroke-opacity:1" />
      <g
         transform="translate(-74.001359,396)"
         id="g5975">
        <path
           d="M 4,6.4612365 C 4.0114032,6.4612365 9.893184,2.5448104 10.971929,2.5008056 L 12.963908,2.5008056 C 13.895714,2.4608307 15.628027,3.9170185 15.492491,5.0211681"
           id="path5896"
           style="fill:none;fill-rule:evenodd;stroke:#888a85;stroke-width:3;stroke-linecap:butt;stroke-linejoin:miter;stroke-miterlimit:4;stroke-dasharray:none;stroke-opacity:1" />
        <path
           d="M 14.027228,15.5 L 11.541143,13.499778 L 11.5,11.036988 C 11.5,10.032359 14.487239,8.079054 14.487239,5.4999999 L 16.585794,5.4999999 C 16.585794,7.9564115 19.5,9.9817008 19.5,11.163282 L 19.501359,13.48103 L 17.389364,15.489754 L 14.027228,15.5 z"
           id="path5912"
           style="fill:url(#radialGradient5930);fill-opacity:1;fill-rule:evenodd;stroke:#aa8b00;stroke-width:0.99999994px;stroke-linecap:butt;stroke-linejoin:miter;stroke-opacity:1" />
        <path
           d="M 13.541217,21.999999 L 13.541217,15.5 L 17.5,15.5 L 17.5,21.999999"
           id="path5900"
           style="fill:#3465a4;fill-opacity:1;fill-rule:evenodd;stroke:#204a87;stroke-width:1px;stroke-linecap:butt;stroke-linejoin:miter;stroke-opacity:1" />
        <path
           d="M 14.582433,22.03582 L 14.582433,16.544652 L 16.541216,16.544652 L 16.541216,22.03582"
           id="path5902"
           style="fill:#3465a4;fill-opacity:1;fill-rule:evenodd;stroke:url(#linearGradient5910);stroke-width:0.99999988px;stroke-linecap:butt;stroke-linejoin:miter;stroke-opacity:1" />
        <path
           d="M 14.395421,14.5 L 12.530857,13.044635 L 12.5,11.106883 C 12.5,10.437045 15.387878,8.3993276 15.387878,6.5 L 15.689223,6.5 C 15.689223,8.3180183 18.5,10.706189 18.5,11.106883 L 18.434042,13.080154 L 16.917023,14.491803 L 14.395421,14.5 z"
           id="path5940"
           style="opacity:0.39673911;fill:none;fill-opacity:1;fill-rule:evenodd;stroke:#ffffff;stroke-width:0.99999994px;stroke-linecap:butt;stroke-linejoin:miter;stroke-opacity:1" />
        <path
           d="M 15.5,5.4789006 L 15.5,12"
           id="path5914"
           style="fill:none;fill-rule:evenodd;stroke:url(#linearGradient5938);stroke-width:1px;stroke-linecap:butt;stroke-linejoin:miter;stroke-opacity:1" />
        <path
           d="M 2.9643646,13.34375 L -0.03563542,15.75 L 0.0086481589,17.959795 L 2.9193449,15.65625 L 2.9643646,13.34375 z"
           id="path5944"
           style="fill:#888a85;fill-opacity:1;fill-rule:evenodd;stroke:none;stroke-width:3;stroke-linecap:butt;stroke-linejoin:miter;stroke-miterlimit:4;stroke-opacity:1" />
        <g
           transform="matrix(0.9770125,0,0,1,11.442698,1)"
           id="g5953">
          <path
             d="M -10.161433,3.4967883 L -10.161433,-0.50000006 L -6.0960343,-0.50000006 L -6.0960343,3.475555 L -7.1251228,3.475555 L -7.1251228,7.5429116 L -6.0960343,7.5429116 L -6.0960343,11.535016 L -7.1437686,11.52622 L -7.1437686,16.531002 L -6.0814526,16.531002 L -6.0814526,20.499999 L -10.18842,20.499999 L -10.18842,16.531002 L -9.1884202,16.531002 L -9.1884202,11.507226 L -10.099117,11.507226 L -10.099117,7.5382281 L -9.1884202,7.5382281 L -9.1884202,3.4967883 L -10.161433,3.4967883 z"
             id="path4923"
             style="fill:#ffffff;fill-opacity:1;fill-rule:evenodd;stroke:#888a85;stroke-width:1.01169574;stroke-linecap:butt;stroke-linejoin:miter;stroke-miterlimit:4;stroke-dasharray:none;stroke-opacity:1" />
          <rect
             width="1"
             height="1.000001"
             rx="0"
             ry="0"
             x="-8.6884203"
             y="8.999999"
             id="rect4925"
             style="opacity:1;fill:#888a85;fill-opacity:1;stroke:none;stroke-width:1;stroke-linecap:round;stroke-linejoin:miter;stroke-miterlimit:4;stroke-dasharray:none;stroke-dashoffset:0;stroke-opacity:1" />
        </g>
        <path
           d="M 0.5,16.912169 L 3.5,14.5"
           id="path5946"
           style="fill:none;fill-rule:evenodd;stroke:#ffffff;stroke-width:1;stroke-linecap:butt;stroke-linejoin:miter;stroke-miterlimit:4;stroke-dasharray:none;stroke-opacity:1" />
        <path
           d="M 3.6857873,6.7427214 C 3.6972364,6.7427214 9.870609,2.5454693 10.953697,2.5008173 L 12.953697,2.5008173 C 13.889255,2.4602553 15.628542,3.9378473 15.492461,5.0582273"
           id="path5898"
           style="fill:none;fill-rule:evenodd;stroke:#ffffff;stroke-width:1px;stroke-linecap:butt;stroke-linejoin:miter;stroke-opacity:1" />
      </g>
    </g>
  </g>
</svg>
