<?xml version="1.0" encoding="UTF-8" standalone="no"?>
<!-- Created with Inkscape (http://www.inkscape.org/) -->
<svg
   xmlns:dc="http://purl.org/dc/elements/1.1/"
   xmlns:cc="http://web.resource.org/cc/"
   xmlns:rdf="http://www.w3.org/1999/02/22-rdf-syntax-ns#"
   xmlns:svg="http://www.w3.org/2000/svg"
   xmlns="http://www.w3.org/2000/svg"
   xmlns:xlink="http://www.w3.org/1999/xlink"
   xmlns:sodipodi="http://sodipodi.sourceforge.net/DTD/sodipodi-0.dtd"
   xmlns:inkscape="http://www.inkscape.org/namespaces/inkscape"
   version="1.0"
   width="48.038364"
   height="41.797432"
   id="svg2327"
   sodipodi:version="0.32"
   inkscape:version="0.45"
   sodipodi:docname="Video-display-wide.svg"
   sodipodi:docbase="/home/rugby471/Desktop"
   inkscape:output_extension="org.inkscape.output.svg.inkscape"
   sodipodi:modified="true">
  <metadata
     id="metadata70">
    <rdf:RDF>
      <cc:Work
         rdf:about="">
        <dc:format>image/svg+xml</dc:format>
        <dc:type
           rdf:resource="http://purl.org/dc/dcmitype/StillImage" />
      </cc:Work>
    </rdf:RDF>
  </metadata>
  <sodipodi:namedview
     inkscape:window-height="713"
     inkscape:window-width="1024"
     inkscape:pageshadow="2"
     inkscape:pageopacity="0.0"
     guidetolerance="10.0"
     gridtolerance="10.0"
     objecttolerance="10.0"
     borderopacity="1.0"
     bordercolor="#666666"
     pagecolor="#ffffff"
     id="base"
     inkscape:zoom="3.4427051"
     inkscape:cx="27.785853"
     inkscape:cy="20.847368"
     inkscape:window-x="0"
     inkscape:window-y="0"
     inkscape:current-layer="svg2327" />
  <defs
     id="defs3">
    <linearGradient
       id="linearGradient2329">
      <stop
         style="stop-color:#ffffff;stop-opacity:1"
         offset="0"
         id="stop2331" />
      <stop
         style="stop-color:#ffffff;stop-opacity:0"
         offset="1"
         id="stop2333" />
    </linearGradient>
    <linearGradient
       id="linearGradient2321">
      <stop
         style="stop-color:#7b7f7a;stop-opacity:1"
         offset="0"
         id="stop2323" />
      <stop
         style="stop-color:#7b7f7a;stop-opacity:0"
         offset="1"
         id="stop2325" />
    </linearGradient>
    <linearGradient
       id="linearGradient2711">
      <stop
         style="stop-color:#909090;stop-opacity:1"
         offset="0"
         id="stop2713" />
      <stop
         style="stop-color:#bebebe;stop-opacity:0"
         offset="1"
         id="stop2715" />
    </linearGradient>
    <linearGradient
       id="linearGradient2701">
      <stop
         style="stop-color:#585956;stop-opacity:1"
         offset="0"
         id="stop2703" />
      <stop
         style="stop-color:#bbbeb8;stop-opacity:1"
         offset="1"
         id="stop2705" />
    </linearGradient>
    <linearGradient
       id="linearGradient2683">
      <stop
         style="stop-color:#000000;stop-opacity:1"
         offset="0"
         id="stop2685" />
      <stop
         style="stop-color:#000000;stop-opacity:0"
         offset="1"
         id="stop2687" />
    </linearGradient>
    <linearGradient
       id="linearGradient2675">
      <stop
         style="stop-color:#5b5b97;stop-opacity:1"
         offset="0"
         id="stop2677" />
      <stop
         style="stop-color:#1b1b43;stop-opacity:1"
         offset="1"
         id="stop2679" />
    </linearGradient>
    <linearGradient
       id="linearGradient2667">
      <stop
         style="stop-color:#ffffff;stop-opacity:1"
         offset="0"
         id="stop2669" />
      <stop
         style="stop-color:#fcfcff;stop-opacity:0"
         offset="1"
         id="stop2671" />
    </linearGradient>
    <linearGradient
       id="linearGradient2454">
      <stop
         style="stop-color:#000000;stop-opacity:1"
         offset="0"
         id="stop2456" />
      <stop
         style="stop-color:#000000;stop-opacity:0"
         offset="1"
         id="stop2458" />
    </linearGradient>
    <linearGradient
       id="linearGradient2415">
      <stop
         style="stop-color:#ffffff;stop-opacity:1"
         offset="0"
         id="stop2417" />
      <stop
         style="stop-color:#ffffff;stop-opacity:0"
         offset="1"
         id="stop2419" />
    </linearGradient>
    <linearGradient
       id="linearGradient2253">
      <stop
         style="stop-color:#8f8f8f;stop-opacity:1"
         offset="0"
         id="stop2255" />
      <stop
         style="stop-color:#494949;stop-opacity:1"
         offset="1"
         id="stop2257" />
    </linearGradient>
    <linearGradient
       id="linearGradient2245">
      <stop
         style="stop-color:#dde1d9;stop-opacity:1"
         offset="0"
         id="stop2247" />
      <stop
         style="stop-color:#cacdc6;stop-opacity:1"
         offset="1"
         id="stop2249" />
    </linearGradient>
    <linearGradient
       x1="8.6116238"
       y1="7.2293582"
       x2="34.784473"
       y2="33.339787"
       id="linearGradient2251"
       xlink:href="#linearGradient2245"
       gradientUnits="userSpaceOnUse"
       gradientTransform="matrix(1.3399119,0,0,0.8823971,-1.1219894,1.6233405)" />
    <linearGradient
       x1="17.698339"
       y1="13.004725"
       x2="34.974548"
       y2="55.200756"
       id="linearGradient2421"
       xlink:href="#linearGradient2415"
       gradientUnits="userSpaceOnUse"
       gradientTransform="matrix(1.3156337,0,0,0.8995595,1.9643426,3.9243245)" />
    <radialGradient
       cx="12.57571"
       cy="67.501709"
       r="8.7662792"
       fx="12.57571"
       fy="67.501709"
       id="radialGradient2460"
       xlink:href="#linearGradient2454"
       gradientUnits="userSpaceOnUse"
       gradientTransform="scale(1.925808,0.519262)" />
    <linearGradient
       x1="11.492236"
       y1="1.6537577"
       x2="17.199417"
       y2="26.729263"
       id="linearGradient2673"
       xlink:href="#linearGradient2667"
       gradientUnits="userSpaceOnUse"
       gradientTransform="matrix(1.4988366,0,0,0.8939504,1.2307628,1.5807515)" />
    <linearGradient
       x1="19.150396"
       y1="32.622238"
       x2="16.315819"
       y2="8.8666229"
       id="linearGradient2681"
       xlink:href="#linearGradient2675"
       gradientUnits="userSpaceOnUse"
       gradientTransform="matrix(1.4203996,0,0,0.9433157,1.3895674,1.5807515)" />
    <linearGradient
       x1="3.7069976"
       y1="171.29134"
       x2="3.7069974"
       y2="162.45061"
       id="linearGradient2689"
       xlink:href="#linearGradient2683"
       gradientUnits="userSpaceOnUse"
       gradientTransform="matrix(6.800242,0,0,0.17528,1.8738175,2.195627)" />
    <linearGradient
       x1="12.206709"
       y1="53.535141"
       x2="12.127711"
       y2="64.892525"
       id="linearGradient2707"
       xlink:href="#linearGradient2701"
       gradientUnits="userSpaceOnUse"
       gradientTransform="matrix(1.816345,0,0,1.278927,2.5,-40.24508)" />
    <linearGradient
       x1="34.300991"
       y1="3.9384086"
       x2="35.520542"
       y2="3.8451097"
       id="linearGradient2717"
       xlink:href="#linearGradient2711"
       gradientUnits="userSpaceOnUse" />
    <linearGradient
       x1="34.300991"
       y1="3.9384086"
       x2="35.520542"
       y2="3.8451097"
       id="linearGradient2721"
       xlink:href="#linearGradient2711"
       gradientUnits="userSpaceOnUse" />
    <linearGradient
       x1="34.300991"
       y1="3.9384086"
       x2="35.520542"
       y2="3.8451097"
       id="linearGradient2725"
       xlink:href="#linearGradient2711"
       gradientUnits="userSpaceOnUse" />
    <linearGradient
       x1="34.300991"
       y1="3.9384086"
       x2="35.520542"
       y2="3.8451097"
       id="linearGradient2729"
       xlink:href="#linearGradient2711"
       gradientUnits="userSpaceOnUse" />
    <linearGradient
       x1="34.300991"
       y1="3.9384086"
       x2="35.520542"
       y2="3.8451097"
       id="linearGradient2733"
       xlink:href="#linearGradient2711"
       gradientUnits="userSpaceOnUse" />
    <linearGradient
       x1="10.390738"
       y1="5.3817744"
       x2="32.536823"
       y2="31.246054"
       id="linearGradient1561"
       xlink:href="#linearGradient2253"
       gradientUnits="userSpaceOnUse"
       gradientTransform="matrix(1.3097116,0,0,0.9027436,0.8051087,2.9237836)" />
    <linearGradient
       x1="-35.658386"
       y1="33.416473"
       x2="-35.658386"
       y2="28.205938"
       id="linearGradient2327"
       xlink:href="#linearGradient2321"
       gradientUnits="userSpaceOnUse" />
    <linearGradient
       x1="-35.122688"
       y1="34.242237"
       x2="-35.074745"
       y2="30.962345"
       id="linearGradient2337"
       xlink:href="#linearGradient2329"
       gradientUnits="userSpaceOnUse" />
  </defs>
  <g
     transform="translate(-0.3558174,-4.0706221)"
     id="layer1">
    <path
       d="M 41.10058 35.051105 A 16.882174 4.552 0 1 1  7.3362331,35.051105 A 16.882174 4.552 0 1 1  41.10058 35.051105 z"
       transform="matrix(1.050251,0,0,1.867888,-0.945558,-28.10611)"
       style="opacity:0.50857143;color:#000000;fill:url(#radialGradient2460);fill-opacity:1;fill-rule:evenodd;stroke:none;stroke-width:1;stroke-linecap:round;stroke-linejoin:miter;marker:none;marker-start:none;marker-mid:none;marker-end:none;stroke-miterlimit:4;stroke-dashoffset:0;stroke-opacity:0.70063692;visibility:visible;display:inline;overflow:visible"
       id="path2452" />
    <path
       d="M -26.263968 29.716238 A 9.3944187 3.939595 0 1 1  -45.052805,29.716238 A 9.3944187 3.939595 0 1 1  -26.263968 29.716238 z"
       transform="translate(60.03339,8.07843)"
       style="color:#000000;fill:#adb0aa;fill-opacity:1;fill-rule:evenodd;stroke:#4b4d4a;stroke-width:1;stroke-linecap:butt;stroke-linejoin:miter;marker:none;marker-start:none;marker-mid:none;marker-end:none;stroke-miterlimit:4;stroke-dashoffset:0;stroke-opacity:1;visibility:visible;display:inline;overflow:visible"
       id="path2407" />
    <path
       d="M -26.263968 29.716238 A 9.3944187 3.939595 0 1 1  -45.052805,29.716238 A 9.3944187 3.939595 0 1 1  -26.263968 29.716238 z"
       transform="matrix(0.902373,0,0,0.82765,56.55215,12.86792)"
       style="color:#000000;fill:none;fill-opacity:1;fill-rule:evenodd;stroke:url(#linearGradient2327);stroke-width:1.15713382;stroke-linecap:butt;stroke-linejoin:miter;marker:none;marker-start:none;marker-mid:none;marker-end:none;stroke-miterlimit:4;stroke-dasharray:none;stroke-dashoffset:0;stroke-opacity:1;visibility:visible;display:inline;overflow:visible"
       id="path1825" />
    <path
       d="M -26.263968 29.716238 A 9.3944187 3.939595 0 1 1  -45.052805,29.716238 A 9.3944187 3.939595 0 1 1  -26.263968 29.716238 z"
       transform="matrix(0.837548,0,0,0.852655,54.17811,11.00615)"
       style="color:#000000;fill:none;fill-opacity:1;fill-rule:evenodd;stroke:url(#linearGradient2337);stroke-width:1.18333709;stroke-linecap:butt;stroke-linejoin:miter;marker:none;marker-start:none;marker-mid:none;marker-end:none;stroke-miterlimit:4;stroke-dasharray:none;stroke-dashoffset:0;stroke-opacity:1;visibility:visible;display:inline;overflow:visible"
       id="path2983" />
    <rect
       width="9.0396729"
       height="6.3650389"
       x="19.972397"
       y="31.078613"
       style="color:#000000;fill:url(#linearGradient2707);fill-opacity:1;fill-rule:evenodd;stroke:none;stroke-width:0.60872948;stroke-linecap:butt;stroke-linejoin:miter;marker:none;marker-start:none;marker-mid:none;marker-end:none;stroke-miterlimit:4;stroke-dashoffset:0;stroke-opacity:1;visibility:visible;display:inline;overflow:visible"
       id="rect2699" />
    <path
       d="M 4.4587707,4.6142981 L 44.291229,4.6142981 C 45.371995,4.6142981 46.217315,5.1960224 46.267841,6.0116633 L 47.84752,31.512732 C 47.916551,32.627101 46.778952,33.526952 45.451627,33.526952 L 3.2983726,33.526952 C 1.9710478,33.526952 0.83344937,32.627101 0.90247956,31.512732 L 2.4821589,6.0116633 C 2.5299316,5.2404587 3.131446,4.6142981 4.4587707,4.6142981 z "
       style="color:#000000;fill:url(#linearGradient2251);fill-opacity:1;fill-rule:evenodd;stroke:url(#linearGradient1561);stroke-width:1.08735204;stroke-linecap:butt;stroke-linejoin:miter;marker:none;marker-start:none;marker-mid:none;marker-end:none;stroke-miterlimit:4;stroke-dashoffset:0;stroke-opacity:1;visibility:visible;display:inline;overflow:visible"
       id="rect2404" />
    <path
       d="M 5.8519372,7.2054894 L 4.3492075,29.201482 L 42.637861,29.201482 L 41.022842,7.2987093 L 5.8519372,7.2054894 z "
       style="fill:url(#linearGradient2681);fill-opacity:1;fill-rule:evenodd;stroke:#000079;stroke-width:0.54932469;stroke-linecap:butt;stroke-linejoin:round;stroke-miterlimit:4;stroke-dasharray:none;stroke-opacity:1"
       id="path2377" />
    <path
       d="M 3.2772543,31.610789 L 45.506089,31.610789"
       style="fill:none;fill-opacity:0.75;fill-rule:evenodd;stroke:url(#linearGradient2689);stroke-width:1.08759356;stroke-linecap:round;stroke-linejoin:miter;stroke-miterlimit:4;stroke-opacity:0.24840764"
       id="path2393" />
    <path
       d="M 4.2375856,5.6251594 L 44.423064,5.5874801 C 44.759903,5.5871642 45.087135,5.8239645 45.114209,6.2379186 L 46.731212,30.96115 C 46.800123,32.014771 46.090357,32.741259 44.833433,32.741259 L 3.8423974,32.741259 C 2.5854723,32.741259 1.9509779,32.014819 2.0188249,30.96115 L 3.5909454,6.5460025 C 3.6368898,5.8324814 3.7884981,5.6255805 4.2375856,5.6251594 z "
       style="color:#000000;fill:none;fill-opacity:1;fill-rule:evenodd;stroke:url(#linearGradient2421);stroke-width:1.08788323;stroke-linecap:butt;stroke-linejoin:miter;marker:none;marker-start:none;marker-mid:none;marker-end:none;stroke-miterlimit:4;stroke-dashoffset:0;stroke-opacity:0.70063692;visibility:visible;display:inline;overflow:visible"
       id="path2397" />
    <path
       d="M 6.2160694,7.6450397 L 5.2452202,25.475386 C 18.60633,23.080127 23.901138,15.006663 40.513938,12.358051 L 40.318599,7.7109559 L 6.2160694,7.6450397 z "
       style="opacity:0.53142856;fill:url(#linearGradient2673);fill-opacity:1;fill-rule:evenodd;stroke:none;stroke-width:0.25pt;stroke-linecap:butt;stroke-linejoin:miter;stroke-opacity:1"
       id="path2443" />
    <path
       d="M 35.620504 3.9384086 A 0.83968931 0.83968931 0 1 1  33.941126,3.9384086 A 0.83968931 0.83968931 0 1 1  35.620504 3.9384086 z"
       transform="matrix(1.331237,0,0,0.658449,-3.0315073,5.728866)"
       style="color:#000000;fill:url(#linearGradient2717);fill-opacity:1;fill-rule:evenodd;stroke:none;stroke-width:0.5;stroke-linecap:butt;stroke-linejoin:miter;marker:none;marker-start:none;marker-mid:none;marker-end:none;stroke-miterlimit:4;stroke-dashoffset:0;stroke-opacity:1;visibility:visible;display:inline;overflow:visible"
       id="path2709" />
    <path
       d="M 35.620504 3.9384086 A 0.83968931 0.83968931 0 1 1  33.941126,3.9384086 A 0.83968931 0.83968931 0 1 1  35.620504 3.9384086 z"
       transform="matrix(1.331237,0,0,0.658449,-2.9179073,7.83465)"
       style="color:#000000;fill:url(#linearGradient2721);fill-opacity:1;fill-rule:evenodd;stroke:none;stroke-width:0.5;stroke-linecap:butt;stroke-linejoin:miter;marker:none;marker-start:none;marker-mid:none;marker-end:none;stroke-miterlimit:4;stroke-dashoffset:0;stroke-opacity:1;visibility:visible;display:inline;overflow:visible"
       id="path2719" />
    <path
       d="M 35.620504 3.9384086 A 0.83968931 0.83968931 0 1 1  33.941126,3.9384086 A 0.83968931 0.83968931 0 1 1  35.620504 3.9384086 z"
       transform="matrix(1.331237,0,0,0.658449,-2.8043073,9.83465)"
       style="color:#000000;fill:url(#linearGradient2725);fill-opacity:1;fill-rule:evenodd;stroke:none;stroke-width:0.5;stroke-linecap:butt;stroke-linejoin:miter;marker:none;marker-start:none;marker-mid:none;marker-end:none;stroke-miterlimit:4;stroke-dashoffset:0;stroke-opacity:1;visibility:visible;display:inline;overflow:visible"
       id="path2723" />
    <path
       d="M 35.620504 3.9384086 A 0.83968931 0.83968931 0 1 1  33.941126,3.9384086 A 0.83968931 0.83968931 0 1 1  35.620504 3.9384086 z"
       transform="matrix(1.331237,0,0,0.658449,-2.6907073,11.83465)"
       style="color:#000000;fill:url(#linearGradient2729);fill-opacity:1;fill-rule:evenodd;stroke:none;stroke-width:0.5;stroke-linecap:butt;stroke-linejoin:miter;marker:none;marker-start:none;marker-mid:none;marker-end:none;stroke-miterlimit:4;stroke-dashoffset:0;stroke-opacity:1;visibility:visible;display:inline;overflow:visible"
       id="path2727" />
    <path
       d="M 35.620504 3.9384086 A 0.83968931 0.83968931 0 1 1  33.941126,3.9384086 A 0.83968931 0.83968931 0 1 1  35.620504 3.9384086 z"
       transform="matrix(1.331237,0,0,0.658449,-2.5771073,13.83465)"
       style="color:#000000;fill:url(#linearGradient2733);fill-opacity:1;fill-rule:evenodd;stroke:none;stroke-width:0.5;stroke-linecap:butt;stroke-linejoin:miter;marker:none;marker-start:none;marker-mid:none;marker-end:none;stroke-miterlimit:4;stroke-dashoffset:0;stroke-opacity:1;visibility:visible;display:inline;overflow:visible"
       id="path2731" />
    <path
       d="M 22.5,30.192666 L 22.781716,30.192666 C 22.865481,30.192667 22.929701,30.21133 22.974376,30.248656 C 23.019345,30.28569 23.041829,30.338594 23.04183,30.40737 C 23.041829,30.47644 23.019345,30.529638 22.974376,30.566965 C 22.929701,30.603998 22.865481,30.622515 22.781716,30.622515 L 22.669735,30.622515 L 22.669735,30.850885 L 22.5,30.850885 L 22.5,30.192666 M 22.669735,30.315669 L 22.669735,30.499512 L 22.76364,30.499512 C 22.796558,30.499512 22.821982,30.491576 22.839911,30.475705 C 22.857839,30.45954 22.866804,30.436762 22.866804,30.40737 C 22.866804,30.377979 22.857839,30.355348 22.839911,30.339476 C 22.821982,30.323605 22.796558,30.315669 22.76364,30.315669 L 22.669735,30.315669 M 23.461979,30.303765 C 23.41025,30.303766 23.370131,30.32287 23.341621,30.361078 C 23.313112,30.399288 23.298857,30.453074 23.298857,30.522437 C 23.298857,30.591507 23.313112,30.645146 23.341621,30.683355 C 23.370131,30.721564 23.41025,30.740668 23.461979,30.740668 C 23.514001,30.740668 23.554267,30.721564 23.582778,30.683355 C 23.611287,30.645146 23.625541,30.591507 23.625542,30.522437 C 23.625541,30.453074 23.611287,30.399288 23.582778,30.361078 C 23.554267,30.32287 23.514001,30.303766 23.461979,30.303765 M 23.461979,30.180762 C 23.567787,30.180763 23.650671,30.211036 23.71063,30.271582 C 23.770588,30.332128 23.800567,30.415747 23.800568,30.522437 C 23.800567,30.628834 23.770588,30.712305 23.71063,30.772851 C 23.650671,30.833398 23.567787,30.863671 23.461979,30.863671 C 23.356464,30.863671 23.27358,30.833398 23.213328,30.772851 C 23.15337,30.712305 23.123391,30.628834 23.123391,30.522437 C 23.123391,30.415747 23.15337,30.332128 23.213328,30.271582 C 23.27358,30.211036 23.356464,30.180763 23.461979,30.180762 M 23.92842,30.192666 L 24.117994,30.192666 L 24.357387,30.644117 L 24.357387,30.192666 L 24.518305,30.192666 L 24.518305,30.850885 L 24.32873,30.850885 L 24.089338,30.399434 L 24.089338,30.850885 L 23.92842,30.850885 L 23.92842,30.192666 M 24.591489,30.192666 L 24.777095,30.192666 L 24.926991,30.427209 L 25.076887,30.192666 L 25.262935,30.192666 L 25.012079,30.573578 L 25.012079,30.850885 L 24.842344,30.850885 L 24.842344,30.573578 L 24.591489,30.192666"
       style="font-size:0.9029026px;font-style:normal;font-variant:normal;font-weight:bold;font-stretch:normal;writing-mode:lr-tb;text-anchor:start;fill:#4a4a4a;fill-opacity:1;stroke:none;stroke-width:1pt;stroke-linecap:butt;stroke-linejoin:miter;stroke-opacity:1;font-family:Bitstream Vera Sans"
       id="text2735" />
  </g>
  <g
     id="g6122">
    <path
       id="path2222"
       d="M 35.77864,10.961793 L 35.77864,12.692003 L 30.078565,12.692003 C 29.13172,12.692003 28.350155,13.257189 28.350155,13.975706 C 28.350155,14.694222 29.131719,15.287316 30.078565,15.287316 L 35.741866,15.287316 L 35.741866,16.961712 L 39.713531,13.919893 L 35.77864,10.961793 z "
       style="fill:#ffffff;fill-opacity:0.50819672;fill-rule:evenodd;stroke:none;stroke-width:1px;stroke-linecap:butt;stroke-linejoin:miter;stroke-opacity:1;opacity:0.76923077" />
    <path
       style="fill:#ffffff;fill-opacity:0.50819672;fill-rule:evenodd;stroke:none;stroke-width:1px;stroke-linecap:butt;stroke-linejoin:miter;stroke-opacity:1;opacity:0.76923077"
       d="M 10.253974,10.962157 L 10.253974,12.692366 L 15.954049,12.692366 C 16.900894,12.692366 17.682459,13.257553 17.682459,13.97607 C 17.682459,14.694586 16.900895,15.28768 15.954049,15.28768 L 10.290748,15.28768 L 10.290748,16.962076 L 6.3190822,13.920257 L 10.253974,10.962157 z "
       id="use4168" />
  </g>
</svg>
