<?xml version="1.0" encoding="UTF-8" standalone="no"?>
<!-- Created with Inkscape (http://www.inkscape.org/) -->

<svg
   xmlns:dc="http://purl.org/dc/elements/1.1/"
   xmlns:cc="http://creativecommons.org/ns#"
   xmlns:rdf="http://www.w3.org/1999/02/22-rdf-syntax-ns#"
   xmlns:svg="http://www.w3.org/2000/svg"
   xmlns="http://www.w3.org/2000/svg"
   xmlns:sodipodi="http://sodipodi.sourceforge.net/DTD/sodipodi-0.dtd"
   xmlns:inkscape="http://www.inkscape.org/namespaces/inkscape"
   width="800"
   height="200"
   id="svg2"
   version="1.1"
   inkscape:version="0.48.0 r9654"
   sodipodi:docname="CEFLA.svg"
   inkscape:export-filename="D:\Images\Trademarks\CEFLA.png"
   inkscape:export-xdpi="450"
   inkscape:export-ydpi="450">
  <defs
     id="defs4" />
  <sodipodi:namedview
     id="base"
     pagecolor="#ffffff"
     bordercolor="#666666"
     borderopacity="1.0"
     inkscape:pageopacity="0.0"
     inkscape:pageshadow="2"
     inkscape:zoom="1.4"
     inkscape:cx="90.488339"
     inkscape:cy="34.40707"
     inkscape:document-units="px"
     inkscape:current-layer="layer1"
     showgrid="false"
     inkscape:window-width="1440"
     inkscape:window-height="838"
     inkscape:window-x="-8"
     inkscape:window-y="-2"
     inkscape:window-maximized="1" />
  <metadata
     id="metadata7">
    <rdf:RDF>
      <cc:Work
         rdf:about="">
        <dc:format>image/svg+xml</dc:format>
        <dc:type
           rdf:resource="http://purl.org/dc/dcmitype/StillImage" />
        <dc:title></dc:title>
      </cc:Work>
    </rdf:RDF>
  </metadata>
  <g
     inkscape:label="Layer 1"
     inkscape:groupmode="layer"
     id="layer1"
     transform="translate(0,-852.36218)">
    <path
       sodipodi:type="arc"
       style="fill:#000000;fill-opacity:1;stroke:none"
       id="path3812"
       sodipodi:cx="147.7348"
       sodipodi:cy="93.681442"
       sodipodi:rx="73.993675"
       sodipodi:ry="71.973366"
       d="m 221.72848,93.681442 c 0,39.749788 -33.1281,71.973368 -73.99368,71.973368 -40.86558,0 -73.993673,-32.22358 -73.993673,-71.973368 0,-39.749792 33.128093,-71.973366 73.993673,-71.973366 40.86558,0 73.99368,32.223574 73.99368,71.973366 z"
       transform="matrix(1.0127729,0,0,1.0234101,-5.4875751,848.98927)" />
    <path
       inkscape:connector-curvature="0"
       style="fill:#ffffff;fill-opacity:1;stroke:none"
       d="m 162.13775,873.55268 c -18.41043,0 -33.34375,15.04385 -33.34375,33.59375 0,18.5499 14.93332,33.59375 33.34375,33.59375 18.41043,0 33.34375,-15.04385 33.34375,-33.59375 0,-9.03208 -3.55634,-17.21371 -9.3125,-23.25 -6.94005,-4.62939 -14.69378,-8.17343 -23.03125,-10.3125 -0.3323,-0.01 -0.66533,-0.0312 -1,-0.0312 z"
       id="path3812-1" />
    <text
       xml:space="preserve"
       style="font-size:40px;font-style:normal;font-weight:normal;line-height:125%;letter-spacing:0px;word-spacing:0px;fill:#000000;fill-opacity:1;stroke:none;font-family:Sans"
       x="98.742409"
       y="14.384471"
       id="text3042"
       sodipodi:linespacing="125%"
       transform="translate(0,852.36218)"><tspan
         sodipodi:role="line"
         id="tspan3044"></tspan></text>
    <g
       id="g3892">
      <g
         id="text3849"
         style="font-size:69.44715118px;font-style:normal;font-weight:normal;line-height:125%;letter-spacing:0px;word-spacing:0px;fill:#ffffff;fill-opacity:1;stroke:none;font-family:Sans"
         transform="scale(0.99999452,1.0000055)">
        <path
           id="path3888"
           style="fill:#ffffff;font-family:chiller;-inkscape-font-specification:chiller"
           d="m 101.20517,942.55712 -0.57646,1.59376 -0.0678,1.01729 -1.186842,2.64496 -0.949472,1.89895 -0.576466,0.81383 -0.881653,1.32248 -1.119022,1.0512 -0.915563,1.18684 -1.593758,0.94948 -2.984057,0.64428 -1.32248,0.13564 -1.458119,-0.27128 -3.187516,-0.373 -0.983382,-0.54256 -1.458119,-0.64428 -2.339772,-1.52594 -2.373682,-1.59376 -1.797216,-1.93286 -1.32248,-0.77992 -0.779924,-1.28857 -1.458119,-1.32248 -0.949473,-2.03458 -0.983383,-1.93286 -0.406916,-2.1024 0,-2.74669 -0.06782,-3.28925 0.406917,-2.47541 0.678195,-2.30586 1.051202,-2.17022 0.06782,-2.13632 0.644285,-2.13631 0.746015,-0.98338 0.406917,-0.71211 1.119021,-0.67819 1.593758,-0.98339 1.458119,-0.40691 2.102404,-0.3391 2.57714,-1.0512 2.068494,-0.71211 1.119022,-0.81383 2.068494,0.13564 2.238043,0.20346 1.3903,1.0512 1.017292,0.20346 1.525938,1.52593 1.458119,2.57715 0.101729,0.88165 -1.051202,0.16955 -0.406917,1.3903 -1.695487,0.61037 -1.390299,-0.91556 -2.000675,-0.13564 -1.661577,-0.88165 -1.865036,-0.23737 -1.763307,0.57646 -2.271952,0.54256 -1.898946,0.77992 -1.152931,0.94948 -0.915563,1.32248 -0.915563,1.59375 -0.881653,2.57714 -0.644285,2.98406 -0.135639,1.52594 -0.06782,1.96677 0.339097,2.33977 0.169549,2.37368 0.881653,2.06849 0.915564,1.52594 2.984057,3.49271 1.797216,1.18684 1.186841,0.61037 3.390974,0.3391 2.984058,-0.81383 2.50932,-0.84775 1.593758,-1.59376 1.119022,-1.72939 1.797216,-2.17023 1.051202,-0.40691 1.186841,-0.27128 0.881653,-1.45812 0.847742,-0.54256 0.98338,0.20346 z" />
        <path
           id="path3890"
           style="fill:#ffffff;font-family:chiller;-inkscape-font-specification:chiller"
           d="m 125.45064,943.77787 -0.61038,0.91557 -0.98338,0.54255 -1.18684,0.50865 -1.45812,0.47473 -1.59376,0.13564 -1.45812,0.3391 -1.01729,0.50865 -1.18684,0.40691 -0.98338,0.27128 -1.59376,0.0678 -1.25466,-0.13564 -0.84774,0.0678 -0.74602,0.27128 -0.3391,0.77992 0.13564,1.45812 0.40692,0.77993 0.77992,0.94947 1.45812,1.59376 0.74602,0.7121 1.45812,0.74602 0.77992,0.373 0.94947,0.40692 1.11903,0 1.0512,-0.27128 0.88165,-0.13564 0.98338,-0.373 0.98339,-0.20346 0.61037,0 0.0678,0.27128 -0.3391,0.373 -0.61037,0.40692 -1.0512,0.54256 -1.11903,0.57646 -1.0512,0.40692 -1.01729,0.27128 -1.52594,-0.0678 -1.52594,-0.3391 -1.25466,-0.64429 -1.45812,-0.94947 -1.32248,-1.11902 -0.91556,-0.61038 -0.67819,-0.64428 -0.57647,-0.81383 -0.40692,-0.30519 -0.84774,-2.0685 -0.74601,-1.79721 -0.47474,-1.45812 -0.16955,-1.11902 0.10173,-1.25466 0.27128,-1.32248 0.27128,-1.11902 0.33909,-0.74602 0.3391,-0.84774 0.30519,-0.40692 0.61037,-0.54256 0.47474,-0.0678 0.84774,-1.18685 0.98339,-0.84774 1.01729,-0.54255 1.25466,-0.20346 1.59376,0 1.32248,-0.0678 1.79721,0.20346 1.45812,0.40691 4.03526,2.00068 1.0512,0.64428 0.98339,0.88166 0.54255,0.7121 0.3391,1.18684 z m -3.4588,10.30856 -0.40691,0.3391 -0.37301,-0.3391 0.20346,-0.44082 0.50865,0 z m -2.98405,-12.30923 -0.57647,-0.61038 -0.88165,-0.44082 -0.98338,-0.40692 -1.11903,-0.13564 -1.08511,0 -0.98338,0.27128 -0.98338,0.40692 -0.88166,0.64428 -0.50864,0.27128 -0.54256,0.61037 0.20346,0.44083 0.47474,-0.0678 0.77992,0.0678 1.32248,0 1.11902,0.27128 1.15293,0 1.25466,-0.0678 1.11903,-0.27128 0.98338,-0.27128 z" />
      </g>
      <g
         id="text3853"
         style="font-size:73.47892761px;font-style:normal;font-weight:normal;line-height:125%;letter-spacing:2.96718311px;word-spacing:0px;fill:#ffffff;fill-opacity:1;stroke:none;font-family:Sans"
         transform="scale(1.0337037,0.96739521)">
        <path
           id="path3883"
           style="fill:#ffffff;font-family:chiller;-inkscape-font-specification:chiller"
           d="m 139.11638,999.49893 -0.21527,0.86107 -0.64581,0.6817 -0.68169,0.4305 -0.86108,0.072 -2.43973,-0.287 -1.8298,-0.5382 -1.54277,0 -1.04047,0.3229 -1.11223,0.5741 -1.07635,0.4305 -0.32291,0.4305 -0.71757,0.3229 -1.82979,1.3993 -0.89696,0.9328 -0.57406,1.0405 -0.43054,1.184 -0.68169,1.2199 -0.14351,1.3275 0.14351,1.6145 -0.35878,1.471 -0.28703,1.6863 -0.14351,1.7221 0,1.6146 -0.17939,1.2198 0.39466,0.7535 0.71757,0.4305 1.39925,0.2871 2.36798,-0.2871 1.39925,0 1.21987,0.2871 1.61452,0.2511 0.75345,0.3588 1.04047,-0.2153 0.93284,0.3588 0.14352,0.8611 -1.14811,0.6817 -2.72676,0 -2.00919,-0.072 -2.76263,0 -1.32751,0.287 -1.39925,-0.1435 -0.60993,0.6458 -0.0718,1.0405 -0.86108,0.897 -0.82521,0.6458 -0.14351,1.0405 0.14351,1.1481 0.14352,2.7267 0.25115,2.2245 0.0717,2.1886 0,2.5114 0.0718,2.7268 0.35878,2.5474 0.14352,2.2244 0.64581,1.3993 0.46642,1.0763 0,1.3275 -0.46642,1.0405 -0.21527,0.6458 -0.43054,0.4664 -0.5023,0.1436 -0.53818,-0.323 -1.1481,-1.0763 -0.75345,-0.897 -0.57405,-1.3275 -0.14352,-1.3275 0.35879,-0.861 0.57405,-0.8252 -0.21527,-2.4757 -0.35878,-3.6237 -0.0718,-2.6909 -0.14351,-2.5832 -0.21527,-1.6863 -0.53818,-2.0092 0,-1.9733 -0.35878,-1.471 -0.14352,-2.4756 -0.50229,-5.023 0.21527,-2.045 -0.39467,-5.2742 0,-1.9374 0.1794,-1.6863 0.50229,-1.9733 -0.21527,-1.184 0.57406,-1.6863 0.43054,-2.1885 0.75344,-1.18403 1.25575,-0.53818 1.47101,0 0.64581,-0.35878 0.75345,-0.0718 0.43054,-0.57405 1.04047,-0.68169 1.07635,-0.64581 1.47102,-1.18399 0.68169,-0.93284 1.00459,-0.68169 1.04047,-0.43054 1.18399,0 1.47101,0.43054 0.93284,0.75345 3.22906,0.71757 0.46641,0.57405 1.07636,0.17939 0.3229,0.5023 0.71757,0.71757 0.8252,0.25115 0.5023,0.71756 z" />
        <path
           id="path3885"
           style="fill:#ffffff;font-family:chiller;-inkscape-font-specification:chiller"
           d="m 169.99695,1040.9385 -0.0718,1.0046 -0.53818,0.8252 -0.28702,0.6458 -0.64581,0.5381 -1.11223,0 -0.96872,0.2871 -1.07635,0.3588 -1.25575,0 -1.47101,-0.1436 -1.68628,0.2871 -1.11223,0 -1.25575,0.3588 -1.00459,0.6099 -1.39926,0.4305 -1.3275,0.8252 -1.11223,0.7176 -2.04507,0 -1.25574,-0.2153 -1.47101,0 -1.18399,-0.072 -1.00459,-0.2153 -1.11223,-0.3947 -1.25575,0.1794 -0.8252,-0.2511 -0.35878,-0.5741 0.0718,-0.8252 0,-0.9328 0.0718,-0.8252 0.39466,-0.7893 -0.17939,-0.8252 0.17939,-0.7176 0.21527,-0.897 0,-1.1122 0.35879,-1.3634 0.0717,-1.3992 -0.0717,-1.184 0.21527,-1.1123 0.14351,-1.2557 0.28703,-1.0764 0.0718,-1.3275 -0.0718,-0.7534 0,-2.7985 0.0718,-1.2199 0,-1.6145 0.1794,-1.184 0.14351,-1.5428 0.0718,-0.9687 -0.0718,-1.0046 -0.14351,-1.0404 0.14351,-0.9688 0,-1.2557 0.0718,-1.1481 0.14351,-1.1122 -0.14351,-0.6817 0.14351,-0.7176 0.14351,-0.9687 -0.0718,-0.7176 0.28702,-0.8969 -0.35878,-0.7894 -0.14351,-1.0404 0,-1.184 -0.0718,-1.0764 -0.14351,-1.1122 0,-0.9687 0.35878,-0.6458 -0.53818,-0.61 -0.14351,-0.7175 0.46642,-0.6458 0,-0.8252 0.28703,-0.89701 0,-1.07635 0.0718,-0.96872 -0.0718,-0.64581 0.64581,-0.8252 0.75344,-0.64581 0.71757,-0.28703 0.89696,-0.10763 0.93284,-0.28703 0.89696,0.0718 0.8252,0.53817 0.78933,0.43054 0.96871,0.64581 0.64581,0.96872 0.28703,1.04047 0.14351,0.78933 -0.28702,0.96869 -0.14352,0.7176 -0.86108,0.7534 -0.53817,0.8611 -0.21527,1.3993 -0.35879,0.9687 -0.21527,0.9687 -0.21527,1.0046 -0.3229,1.0405 0,1.184 -0.35879,1.1481 -0.28703,2.0809 0,1.0764 -0.35878,0.9687 -0.21527,0.7534 -0.39466,0.6458 -0.0718,0.9688 -0.21527,1.1481 -0.28703,2.4397 0,1.184 -0.35878,1.0046 -0.14351,1.3275 -0.32291,1.2557 0,1.184 -0.21527,0.8611 -0.14351,0.7534 0,1.1123 -0.28703,0.9328 -0.0718,0.9687 -0.21527,1.1122 -0.35878,1.2199 0.0718,0.897 -0.0718,1.471 -0.25115,1.1122 -0.21527,0.7893 0,0.5382 -0.14351,0.7893 -0.0718,0.9688 0.21527,0.4305 0.68169,0.1435 0.78932,-0.3588 1.25575,-0.1435 1.39925,-0.1435 0.78933,0 1.04047,0.4305 1.18399,0 0.78932,-0.287 0.96872,-0.072 1.3275,-0.4665 0.71757,-0.287 1.11223,0.072 1.39925,0.2152 1.3275,-0.2152 1.54277,-0.3588 1.18399,-0.5741 0.93284,-0.4664 0.21527,-0.6458 1.04047,-0.5741 0.82521,-0.3946 1.00459,0.2153 0.75345,0.5381 0.43054,0.7894 0.75344,0.7534 0.14352,0.7893 0.21527,0.9687 z m -5.31,-11.8399 -0.21527,0.4305 -0.43055,-0.1435 -0.35878,-0.6458 0.5023,-0.6099 0.5023,0.3588 z m -21.45528,-10.4406 -0.0718,0.4305 -0.57406,0.3229 -0.35878,-0.5381 0.43054,-0.5741 z" />
      </g>
      <g
         id="text3857"
         style="font-size:70.75243378px;font-style:normal;font-weight:normal;line-height:125%;letter-spacing:0px;word-spacing:0px;fill:#ffffff;fill-opacity:1;stroke:none;font-family:Sans"
         transform="scale(0.99625498,1.0037591)">
        <path
           id="path3880"
           style="fill:#ffffff;font-family:chiller;-inkscape-font-specification:chiller"
           d="m 213.4273,957.81921 -0.0691,0.27638 -0.27638,0.13819 -0.20728,0 0,-0.20729 0.0691,-0.27637 0.13819,-0.0691 z m 0.55275,20.38278 -0.27637,0.34547 -0.55276,0.20729 -0.20728,-0.34547 -0.38002,-0.51821 -0.48366,-0.96732 -0.69094,-0.93277 -1.00186,-1.7619 -0.72549,-1.69281 -0.27638,-1.20915 -0.48366,-0.65639 -0.86368,-2.45285 -0.69094,-0.86367 -0.55275,-1.27824 -0.79458,-1.27825 -0.62185,-0.55275 -1.48553,-1.62371 -0.31092,-0.93277 -1.1746,-0.82913 -1.48553,-0.27638 -1.58916,0.20728 -1.62371,0.27638 -1.17461,0.48366 -1.27824,1.14005 -1.20915,0.62185 -0.27637,0.5873 -0.93277,0.69094 -1.96919,1.14005 -0.38002,0.41457 -0.27637,1.55462 0,1.00186 -0.48366,0.55276 0,1.20915 -0.20728,1.27824 0.20728,2.07282 -0.20728,1.41643 -0.41457,1.48553 -0.65639,1.1746 -0.76004,0.93277 -1.27824,1.14005 -1.20915,0.20729 -1.14005,0.13818 -0.34547,-0.27637 -0.6564,0 -0.48366,-0.5873 -0.34547,-0.27638 0,-0.69094 -0.34547,-0.51821 0,-1.41643 0.34547,-0.89822 -0.0691,-0.79458 0.20728,-0.48366 0.41456,-0.20729 0,-0.65639 0.6564,-0.34547 0.27638,-0.62185 0.41456,-0.86368 0.5873,-0.27637 0.55275,-1.27825 0.20729,-1.41643 0.34547,-0.20728 -0.13819,-0.93277 0.27638,-1.41643 0,-0.89822 -0.62185,-1.34734 -0.41457,-1.20915 -0.13818,-1.34734 -0.0691,-0.93277 0.20728,-0.27637 -0.13818,-0.48366 0,-0.27638 1.03641,-1.27824 0,-0.41457 0.5873,-0.65639 0.76003,-1.20915 0.93278,-1.34734 0.20728,-0.96731 0.0691,-0.72549 -0.0691,-0.55276 0.34547,-1.7619 0.27638,-1.69281 0.5873,-2.14191 0.13818,-1.20915 0.27638,-0.55276 -0.0691,-1.83099 -0.13819,-1.62371 0.13819,-1.55462 0.55275,-1.27825 0.51821,-1.00186 0.62184,-0.48366 0.20729,-0.93277 0.44911,-0.62185 0.20728,-0.5873 -0.20728,-0.41457 0.13819,-0.93277 -0.51821,-1.1055 0.13819,-1.14006 -0.41457,-0.5182 0.20729,-0.89823 0.44911,0 0.76003,-0.5873 0.41457,-0.0691 0.31092,-0.55276 1.10551,-0.13818 0.93277,0.41456 0.79458,1.20915 0.34548,0.20728 0.55275,1.07096 0.65639,1.27824 0.27638,1.20915 0.62185,1.38189 0.79458,1.07095 0.0691,0.58731 0.55275,0.62184 0.34547,0.72549 0.65639,0.89823 -0.0691,0.86367 0.62185,1.27825 0.0691,0.55275 0.38002,0.69094 0.34547,1.20915 0.55275,1.00186 0.20729,1.69281 0.31092,1.20915 0.41457,1.69281 0,0.62184 0.34547,0.93278 0.48366,1.62371 0.44911,1.48552 0.13819,1.20915 0.34547,0.86368 0.93277,0.62185 1.1055,0.34547 1.34734,-0.0691 1.27824,0 1.27825,0.27638 0.20728,0.38002 0.27637,0.34547 -0.27637,0.20728 -0.20728,0.34547 -0.55276,0.5873 -0.72549,0.0691 -0.27637,0.34547 -1.07096,0.20728 -1.20915,0.55275 -0.48366,0.44912 0,0.82913 0.20728,1.00186 0.44911,1.00187 0.55276,0.96731 0.48366,1.41644 0.34547,0.86367 0.44911,1.34734 0.48366,1.20915 0.72549,1.48552 0.48366,1.2437 0.27637,1.93463 0.34547,0.20729 0.44912,1.00186 0.48366,0.96732 0,0.5873 0.34547,0.34547 z m 0.0691,2.52194 c -0.0231,0.0461 -0.13822,0.0921 -0.34547,0.13819 l -0.20729,-0.0691 -0.0691,-0.20728 0.20728,-0.20728 0.34547,0.0691 z m -27.77586,-26.01396 -0.0691,0.34547 -0.31093,0.20729 -0.41456,-0.27638 0,-0.34547 0.34547,-0.38002 0.38002,-0.13819 0.0691,0.20729 z m -4.38748,17.37719 -0.31092,0.13819 -0.34547,-0.13819 0,-0.34547 0.20728,-0.13819 0.38002,0.0691 0.0691,0.20729 z m 1.2437,9.22407 -0.0691,0.27638 -0.48366,-0.0691 -0.20728,-0.5182 0.34547,-0.0691 0.41457,0 z m 17.92993,-25.49575 -0.31092,-0.76004 -0.69094,-1.27824 -0.13819,-1.20915 -0.34547,-0.55275 -0.24183,-0.72549 -0.41457,-0.69094 0.0691,-1.831 -0.89823,-1.20914 0.27638,-0.51821 -0.34547,-0.82913 -0.44911,-2.48739 -0.55276,-1.14005 -0.0691,-0.89823 -0.79458,-1.00186 -0.27638,-0.55276 -0.69094,-1.48552 -1.41643,1.41643 0.13819,0.89822 -0.51821,0.79459 0,0.82913 -0.13819,0.44911 -0.27638,1.41643 -0.13818,1.24369 0,0.38002 -0.34547,0.48366 0,1.00187 -0.13819,1.96918 0,0.93277 -0.38002,0.82913 0.24183,0.86368 -0.38002,1.07096 0.5873,0.82913 1.62371,0.72549 1.69281,0.62185 1.41643,0.79458 0.79459,0.55275 1.38188,0.27638 0.93277,-0.20728 0.27638,-0.20729 z m -3.35106,0.13819 -0.41457,0.10364 -0.34547,-0.24183 0.0691,-0.27638 0.34548,0 0.20728,-0.13818 0.13819,0.20728 z" />
      </g>
    </g>
    <text
       xml:space="preserve"
       style="font-size:16.66854858000000000px;font-style:normal;font-weight:normal;line-height:125%;letter-spacing:0px;word-spacing:0px;fill:#000000;fill-opacity:1;stroke:none;font-family:Sans"
       x="223.46301"
       y="885.0437"
       id="text3861"
       sodipodi:linespacing="125%"
       transform="scale(0.97355326,1.0271652)"><tspan
         sodipodi:role="line"
         id="tspan3863"
         x="223.46301"
         y="885.0437"
         style="fill:#000000;stroke:#000000;stroke-width:0.14960810999999999;stroke-miterlimit:4;stroke-opacity:1;stroke-dasharray:none;font-family:chiller;-inkscape-font-specification:chiller;fill-opacity:1">Foreign Language Acquisition</tspan></text>
    <text
       xml:space="preserve"
       style="font-size:16.66854858px;font-style:normal;font-weight:normal;line-height:125%;letter-spacing:0px;word-spacing:0px;fill:#000000;fill-opacity:1;stroke:none;font-family:Sans"
       x="139.24239"
       y="884.93103"
       id="text3861-9"
       sodipodi:linespacing="125%"
       transform="scale(0.97355324,1.0271652)"><tspan
         sodipodi:role="line"
         id="tspan3863-8"
         x="139.24239"
         y="884.93103"
         style="fill:#000000;fill-opacity:1;stroke:#000000;stroke-width:0.14960811;stroke-miterlimit:4;stroke-opacity:1;stroke-dasharray:none;font-family:chiller;-inkscape-font-specification:chiller">Centre for</tspan></text>
  </g>
</svg>
