<?xml version="1.0" encoding="UTF-8" standalone="no"?>
<!-- Created with Inkscape (http://www.inkscape.org/) -->

<svg
   xmlns:dc="http://purl.org/dc/elements/1.1/"
   xmlns:cc="http://creativecommons.org/ns#"
   xmlns:rdf="http://www.w3.org/1999/02/22-rdf-syntax-ns#"
   xmlns:svg="http://www.w3.org/2000/svg"
   xmlns="http://www.w3.org/2000/svg"
   xmlns:xlink="http://www.w3.org/1999/xlink"
   xmlns:sodipodi="http://sodipodi.sourceforge.net/DTD/sodipodi-0.dtd"
   xmlns:inkscape="http://www.inkscape.org/namespaces/inkscape"
   width="1024"
   height="1024"
   id="svg2"
   sodipodi:version="0.32"
   inkscape:version="0.47 r22583"
   version="1.0"
   sodipodi:docname="Cursusdienst-02.svg"
   inkscape:output_extension="org.inkscape.output.svg.inkscape">
  <sodipodi:namedview
     id="base"
     pagecolor="#dcdcdc"
     bordercolor="#666666"
     borderopacity="1.0"
     gridtolerance="10000"
     guidetolerance="10"
     objecttolerance="10"
     inkscape:pageopacity="0.16470588"
     inkscape:pageshadow="2"
     inkscape:zoom="0.5"
     inkscape:cx="495.65073"
     inkscape:cy="474.83304"
     inkscape:document-units="px"
     inkscape:current-layer="layer1"
     width="1024px"
     height="1024px"
     inkscape:window-width="1680"
     inkscape:window-height="1024"
     inkscape:window-x="-4"
     inkscape:window-y="-4"
     borderlayer="false"
     inkscape:showpageshadow="true"
     showguides="false"
     inkscape:guide-bbox="false"
     showgrid="false"
     inkscape:guide-points="false"
     inkscape:window-maximized="0">
    <sodipodi:guide
       orientation="vertical"
       position="512"
       id="guide3550" />
    <sodipodi:guide
       orientation="horizontal"
       position="442"
       id="guide3638" />
    <sodipodi:guide
       orientation="vertical"
       position="154"
       id="guide3640" />
    <sodipodi:guide
       orientation="vertical"
       position="870"
       id="guide3642" />
    <sodipodi:guide
       orientation="horizontal"
       position="338"
       id="guide3644" />
    <sodipodi:guide
       orientation="horizontal"
       position="353"
       id="guide3646" />
    <sodipodi:guide
       orientation="horizontal"
       position="330"
       id="guide3648" />
    <sodipodi:guide
       orientation="vertical"
       position="563"
       id="guide3650" />
    <sodipodi:guide
       orientation="vertical"
       position="554"
       id="guide3652" />
    <sodipodi:guide
       orientation="horizontal"
       position="70"
       id="guide3654" />
    <sodipodi:guide
       orientation="horizontal"
       position="62"
       id="guide3656" />
    <sodipodi:guide
       orientation="vertical"
       position="470"
       id="guide3658" />
    <sodipodi:guide
       orientation="vertical"
       position="461"
       id="guide3660" />
    <sodipodi:guide
       orientation="vertical"
       position="842"
       id="guide3662" />
    <sodipodi:guide
       orientation="vertical"
       position="182"
       id="guide3664" />
    <sodipodi:guide
       orientation="horizontal"
       position="169"
       id="guide3666" />
    <sodipodi:guide
       orientation="vertical"
       position="532"
       id="guide3674" />
    <sodipodi:guide
       orientation="vertical"
       position="492"
       id="guide3676" />
    <sodipodi:guide
       orientation="vertical"
       position="481"
       id="guide3678" />
    <sodipodi:guide
       orientation="vertical"
       position="543"
       id="guide3680" />
    <sodipodi:guide
       orientation="horizontal"
       position="407.33333"
       id="guide3759" />
    <sodipodi:guide
       orientation="horizontal"
       position="417.33333"
       id="guide3761" />
    <sodipodi:guide
       orientation="vertical"
       position="288"
       id="guide3763" />
    <sodipodi:guide
       orientation="vertical"
       position="736"
       id="guide3765" />
    <sodipodi:guide
       orientation="horizontal"
       position="291.2"
       id="guide3815" />
    <sodipodi:guide
       orientation="horizontal"
       position="100"
       id="guide3817" />
    <sodipodi:guide
       orientation="vertical"
       position="488"
       id="guide3821" />
    <sodipodi:guide
       orientation="vertical"
       position="536"
       id="guide3823" />
  </sodipodi:namedview>
  <defs
     id="defs4">
    <inkscape:perspective
       sodipodi:type="inkscape:persp3d"
       inkscape:vp_x="0 : 512 : 1"
       inkscape:vp_y="0 : 1000 : 0"
       inkscape:vp_z="1024 : 512 : 1"
       inkscape:persp3d-origin="512 : 341.33333 : 1"
       id="perspective3345" />
    <linearGradient
       id="linearGradient3751">
      <stop
         offset="0"
         style="stop-color:#feedcf;stop-opacity:1;"
         id="stop3757" />
      <stop
         offset="1"
         style="stop-color:#f79e3f;stop-opacity:1;"
         id="stop3755" />
    </linearGradient>
    <linearGradient
       id="linearGradient3735">
      <stop
         offset="0"
         style="stop-color:#f79e3f;stop-opacity:1;"
         id="stop3737" />
      <stop
         offset="1"
         style="stop-color:#feedcf;stop-opacity:1;"
         id="stop3739" />
    </linearGradient>
    <linearGradient
       id="linearGradient3716">
      <stop
         offset="0"
         style="stop-color:#fd8d00;stop-opacity:1;"
         id="stop3718" />
      <stop
         offset="0.51785713"
         style="stop-color:#fd8d00;stop-opacity:1;"
         id="stop3724" />
      <stop
         offset="1"
         style="stop-color:#b82d00;stop-opacity:1;"
         id="stop3720" />
    </linearGradient>
    <linearGradient
       id="linearGradient3698">
      <stop
         offset="0"
         style="stop-color:#0487f9;stop-opacity:1;"
         id="stop3700" />
      <stop
         offset="1"
         style="stop-color:#0357af;stop-opacity:1;"
         id="stop3702" />
    </linearGradient>
    <linearGradient
       id="linearGradient3690">
      <stop
         offset="0"
         style="stop-color:#0552ac;stop-opacity:1;"
         id="stop3692" />
      <stop
         offset="1"
         style="stop-color:#023a85;stop-opacity:1;"
         id="stop3694" />
    </linearGradient>
    <linearGradient
       id="linearGradient3682">
      <stop
         offset="0"
         style="stop-color:#0686f4;stop-opacity:1;"
         id="stop3684" />
      <stop
         offset="1"
         style="stop-color:#043b8b;stop-opacity:1;"
         id="stop3686" />
    </linearGradient>
    <linearGradient
       id="linearGradient3591">
      <stop
         offset="0"
         style="stop-color:#373737;stop-opacity:1;"
         id="stop3593" />
      <stop
         offset="1"
         style="stop-color:#000000;stop-opacity:1;"
         id="stop3595" />
    </linearGradient>
    <linearGradient
       id="linearGradient3583">
      <stop
         offset="0"
         style="stop-color:#000000;stop-opacity:1;"
         id="stop3585" />
      <stop
         offset="1"
         style="stop-color:#373737;stop-opacity:1;"
         id="stop3587" />
    </linearGradient>
    <linearGradient
       id="linearGradient3477">
      <stop
         offset="0"
         style="stop-color:#864300;stop-opacity:1;"
         id="stop3479" />
      <stop
         offset="0.2857143"
         style="stop-color:#864300;stop-opacity:1;"
         id="stop3490" />
      <stop
         offset="1"
         style="stop-color:#643100;stop-opacity:1;"
         id="stop3481" />
    </linearGradient>
    <linearGradient
       id="linearGradient3407">
      <stop
         offset="0"
         style="stop-color:#f9a800;stop-opacity:1;"
         id="stop3409" />
      <stop
         offset="0.74000001"
         style="stop-color:#f9a800;stop-opacity:1;"
         id="stop3415" />
      <stop
         offset="1"
         style="stop-color:#a85a00;stop-opacity:1;"
         id="stop3411" />
    </linearGradient>
    <linearGradient
       id="linearGradient3255">
      <stop
         offset="0"
         style="stop-color:#ffffff;stop-opacity:1;"
         id="stop3257" />
      <stop
         offset="0.74000001"
         style="stop-color:#ffffff;stop-opacity:1;"
         id="stop3403" />
      <stop
         offset="1"
         style="stop-color:#dcdcdc;stop-opacity:1;"
         id="stop3259" />
    </linearGradient>
    <radialGradient
       r="330"
       id="radialGradient3488"
       fx="616.41565"
       fy="648.35767"
       gradientUnits="userSpaceOnUse"
       inkscape:collect="always"
       cy="648.35767"
       cx="616.41565"
       xlink:href="#linearGradient3477"
       gradientTransform="matrix(1.1241965,0,0,1.1689263,-69.136047,-99.825146)" />
    <radialGradient
       r="108.5"
       id="radialGradient3502"
       fx="429.33334"
       fy="532"
       gradientUnits="userSpaceOnUse"
       inkscape:collect="always"
       cy="532"
       cx="429.33334"
       xlink:href="#linearGradient3255" />
    <radialGradient
       r="74.666664"
       id="radialGradient3504"
       fx="424"
       fy="521.33331"
       gradientUnits="userSpaceOnUse"
       inkscape:collect="always"
       cy="521.33331"
       cx="424"
       xlink:href="#linearGradient3407"
       gradientTransform="matrix(1,0,0,0.9642857,0,18.61903)" />
    <radialGradient
       r="108.5"
       id="radialGradient3522"
       fx="429.33334"
       fy="532"
       gradientUnits="userSpaceOnUse"
       inkscape:collect="always"
       cy="532"
       cx="429.33334"
       xlink:href="#linearGradient3255" />
    <radialGradient
       r="74.666664"
       id="radialGradient3524"
       fx="424"
       fy="521.33331"
       gradientUnits="userSpaceOnUse"
       inkscape:collect="always"
       cy="521.33331"
       cx="424"
       xlink:href="#linearGradient3407"
       gradientTransform="matrix(1,0,0,0.9642857,0,18.61903)" />
    <radialGradient
       r="108.5"
       id="radialGradient3542"
       fx="429.33334"
       fy="532"
       gradientUnits="userSpaceOnUse"
       inkscape:collect="always"
       cy="532"
       cx="429.33334"
       xlink:href="#linearGradient3255" />
    <radialGradient
       r="74.666664"
       id="radialGradient3544"
       fx="424"
       fy="521.33331"
       gradientUnits="userSpaceOnUse"
       inkscape:collect="always"
       cy="521.33331"
       cx="424"
       xlink:href="#linearGradient3407"
       gradientTransform="matrix(1,0,0,0.9642857,0,18.61903)" />
    <linearGradient
       id="linearGradient3625"
       gradientUnits="userSpaceOnUse"
       inkscape:collect="always"
       x1="-31.055939"
       x2="36.795502"
       xlink:href="#linearGradient3583"
       gradientTransform="matrix(1.1542858,0,0,1.1542858,76.317193,-159.41614)"
       y1="360.31979"
       y2="869.99493" />
    <radialGradient
       r="96.650002"
       id="radialGradient3628"
       fx="464.11002"
       fy="348.92838"
       gradientUnits="userSpaceOnUse"
       inkscape:collect="always"
       cy="348.92838"
       cx="464.11002"
       xlink:href="#linearGradient3591"
       gradientTransform="matrix(2.3645044,0,0,1.5613412,-623.61626,-186.49626)" />
    <radialGradient
       r="96.650002"
       id="radialGradient3631"
       fx="488.04721"
       fy="313.56512"
       gradientUnits="userSpaceOnUse"
       inkscape:collect="always"
       cy="313.56512"
       cx="488.04721"
       xlink:href="#linearGradient3591"
       gradientTransform="matrix(2.3486303,-0.8162882,0.439389,1.2642133,-853.37751,360.27397)" />
    <linearGradient
       id="linearGradient3688"
       gradientUnits="userSpaceOnUse"
       inkscape:collect="always"
       x1="461.0152"
       x2="562.9848"
       xlink:href="#linearGradient3682"
       y1="823.54112"
       y2="831.54114" />
    <linearGradient
       id="linearGradient3696"
       gradientUnits="userSpaceOnUse"
       inkscape:collect="always"
       x1="557.5"
       x2="844.5"
       xlink:href="#linearGradient3690"
       y1="778"
       y2="838" />
    <linearGradient
       id="linearGradient3704"
       gradientUnits="userSpaceOnUse"
       inkscape:collect="always"
       x1="154"
       x2="462"
       xlink:href="#linearGradient3698"
       y1="718"
       y2="934" />
    <radialGradient
       r="54.5"
       id="radialGradient3722"
       fx="522.5"
       fy="724"
       gradientUnits="userSpaceOnUse"
       inkscape:collect="always"
       cy="724"
       cx="522.5"
       xlink:href="#linearGradient3716"
       gradientTransform="matrix(1,0,0,0.733945,0,192.62385)" />
    <linearGradient
       id="linearGradient3741"
       gradientUnits="userSpaceOnUse"
       inkscape:collect="always"
       x1="157.167"
       x2="511.00033"
       xlink:href="#linearGradient3735"
       y1="673.08334"
       y2="673.08334" />
    <linearGradient
       id="linearGradient3749"
       gradientUnits="userSpaceOnUse"
       inkscape:collect="always"
       x1="512"
       x2="865.83331"
       xlink:href="#linearGradient3751"
       y1="673.08331"
       y2="673.08331" />
    <linearGradient
       id="linearGradient3776"
       gradientUnits="userSpaceOnUse"
       inkscape:collect="always"
       x1="512"
       x2="865.83331"
       xlink:href="#linearGradient3751"
       y1="673.08331"
       y2="673.08331" />
    <linearGradient
       id="linearGradient3778"
       gradientUnits="userSpaceOnUse"
       inkscape:collect="always"
       x1="157.167"
       x2="511.00033"
       xlink:href="#linearGradient3735"
       y1="673.08334"
       y2="673.08334" />
    <radialGradient
       r="54.5"
       id="radialGradient3780"
       fx="522.5"
       fy="724"
       gradientUnits="userSpaceOnUse"
       inkscape:collect="always"
       cy="724"
       cx="522.5"
       xlink:href="#linearGradient3716"
       gradientTransform="matrix(1,0,0,0.733945,0,192.62385)" />
    <linearGradient
       id="linearGradient3794"
       gradientUnits="userSpaceOnUse"
       inkscape:collect="always"
       x1="349.89429"
       x2="462.51547"
       xlink:href="#linearGradient3735"
       gradientTransform="matrix(1.1,0,0,1.1,-51.2,-76.983334)"
       y1="747.02271"
       y2="613.68939" />
    <linearGradient
       id="linearGradient3797"
       gradientUnits="userSpaceOnUse"
       inkscape:collect="always"
       x1="560.43182"
       x2="656.13635"
       xlink:href="#linearGradient3751"
       gradientTransform="matrix(1.1,0,0,1.1,-51.2,-76.983334)"
       y1="613.68933"
       y2="744.59845" />
    <inkscape:perspective
       id="perspective4446"
       inkscape:persp3d-origin="0.5 : 0.33333333 : 1"
       inkscape:vp_z="1 : 0.5 : 1"
       inkscape:vp_y="0 : 1000 : 0"
       inkscape:vp_x="0 : 0.5 : 1"
       sodipodi:type="inkscape:persp3d" />
    <linearGradient
       inkscape:collect="always"
       xlink:href="#linearGradient3682"
       id="linearGradient4461"
       gradientUnits="userSpaceOnUse"
       x1="461.0152"
       y1="823.54112"
       x2="562.9848"
       y2="831.54114"
       gradientTransform="matrix(1.1,0,0,1.1,-51.2,-76.983334)" />
    <linearGradient
       inkscape:collect="always"
       xlink:href="#linearGradient3698"
       id="linearGradient4464"
       gradientUnits="userSpaceOnUse"
       x1="154"
       y1="718"
       x2="462"
       y2="934"
       gradientTransform="matrix(1.1,0,0,1.1,-51.2,-76.983334)" />
    <linearGradient
       inkscape:collect="always"
       xlink:href="#linearGradient3690"
       id="linearGradient4467"
       gradientUnits="userSpaceOnUse"
       x1="557.5"
       y1="778"
       x2="844.5"
       y2="838"
       gradientTransform="matrix(1.1,0,0,1.1,-51.2,-76.983334)" />
    <inkscape:perspective
       id="perspective5206"
       inkscape:persp3d-origin="0.5 : 0.33333333 : 1"
       inkscape:vp_z="1 : 0.5 : 1"
       inkscape:vp_y="0 : 1000 : 0"
       inkscape:vp_x="0 : 0.5 : 1"
       sodipodi:type="inkscape:persp3d" />
    <mask
       maskUnits="userSpaceOnUse"
       id="mask5740">
      <path
         style="fill:#ffffff;fill-opacity:1;fill-rule:evenodd;stroke:none"
         id="path5742"
         d="m 118.2,563.21667 337.7,114.4 19.8,294.8 -326.7,-108.9 -30.8,-300.3 z" />
    </mask>
  </defs>
  <metadata
     id="metadata7">
    <rdf:RDF>
      <cc:Work
         rdf:about="">
        <dc:format>image/svg+xml</dc:format>
        <dc:type
           rdf:resource="http://purl.org/dc/dcmitype/StillImage" />
        <dc:title></dc:title>
      </cc:Work>
    </rdf:RDF>
  </metadata>
  <g
     inkscape:label="Layer 1"
     id="layer1"
     inkscape:groupmode="layer">
    <path
       style="opacity:1;fill:url(#radialGradient3488);fill-opacity:1;stroke:none;stroke-width:1;stroke-miterlimit:4;stroke-dasharray:none;stroke-opacity:1"
       id="path3475"
       sodipodi:cx="556.66669"
       sodipodi:cy="585.33331"
       sodipodi:type="arc"
       d="M 886.66669 585.33331 A 330 340 0 1 1  226.66669,585.33331 A 330 340 0 1 1  886.66669 585.33331 z"
       transform="matrix(1.030303,0,0,1,-61.535368,-73.333313)"
       sodipodi:rx="330"
       sodipodi:ry="340" />
    <image
       sodipodi:absref="I:\High-Res\Logo\Owl-Mask.png"
       xlink:href="Owl-Mask.png"
       style="opacity:0.22222222"
       id="image3472"
       width="791.20001"
       y="2.2999973"
       x="113.23333"
       height="966.40002" />
    <g
       id="g3493"
       transform="translate(-20,-42.666667)">
      <path
         style="opacity:1;fill:#ffffff;fill-opacity:1;stroke:none;stroke-width:1;stroke-miterlimit:4;stroke-dasharray:none;stroke-opacity:1"
         id="path3430"
         sodipodi:cx="429.33334"
         sodipodi:cy="532"
         sodipodi:type="arc"
         d="m 537.33334,532 c 0,59.64675 -48.35324,108 -108,108 -59.64675,0 -108,-48.35325 -108,-108 0,-59.64675 48.35325,-108 108,-108 59.64676,0 108,48.35325 108,108 z"
         transform="translate(-29.666344,-44.333)"
         sodipodi:rx="108"
         sodipodi:ry="108" />
      <path
         style="opacity:1;fill:#855900;fill-opacity:1;stroke:none;stroke-width:1;stroke-miterlimit:4;stroke-dasharray:none;stroke-opacity:1"
         id="path3426"
         sodipodi:cx="429.33334"
         sodipodi:cy="532"
         sodipodi:type="arc"
         d="m 537.33334,532 c 0,59.64675 -48.35324,108 -108,108 -59.64675,0 -108,-48.35325 -108,-108 0,-59.64675 48.35325,-108 108,-108 59.64676,0 108,48.35325 108,108 z"
         transform="translate(-39.666344,-54.333)"
         sodipodi:rx="108"
         sodipodi:ry="108" />
      <path
         style="opacity:1;fill:url(#radialGradient3502);fill-opacity:1;stroke:none;stroke-width:1;stroke-miterlimit:4;stroke-dasharray:none;stroke-opacity:1"
         id="path2282"
         sodipodi:cx="429.33334"
         sodipodi:cy="532"
         sodipodi:type="arc"
         d="m 537.33334,532 c 0,59.64675 -48.35324,108 -108,108 -59.64675,0 -108,-48.35325 -108,-108 0,-59.64675 48.35325,-108 108,-108 59.64676,0 108,48.35325 108,108 z"
         transform="translate(-34.666666,-49.333334)"
         sodipodi:rx="108"
         sodipodi:ry="108" />
      <path
         style="opacity:1;fill:url(#radialGradient3504);fill-opacity:1;stroke:none;stroke-width:1;stroke-miterlimit:4;stroke-dasharray:none;stroke-opacity:1"
         id="path3405"
         sodipodi:cx="424"
         sodipodi:cy="521.33331"
         sodipodi:type="arc"
         d="m 498.66666,521.33331 c 0,39.7645 -33.4294,72 -74.66666,72 -41.23726,0 -74.66666,-32.2355 -74.66666,-72 0,-39.7645 33.4294,-72 74.66666,-72 41.23726,0 74.66666,32.2355 74.66666,72 z"
         transform="matrix(0.9040179,0,0,0.9375,27.696417,16.250001)"
         sodipodi:rx="74.666664"
         sodipodi:ry="72" />
      <path
         style="opacity:1;fill:#000000;fill-opacity:1;stroke:none;stroke-width:1;stroke-miterlimit:4;stroke-dasharray:none;stroke-opacity:1"
         id="path3417"
         sodipodi:cx="424"
         sodipodi:cy="521.33331"
         sodipodi:type="arc"
         d="m 498.66666,521.33331 c 0,39.7645 -33.4294,72 -74.66666,72 -41.23726,0 -74.66666,-32.2355 -74.66666,-72 0,-39.7645 33.4294,-72 74.66666,-72 41.23726,0 74.66666,32.2355 74.66666,72 z"
         transform="matrix(0.4946786,0,0,0.513,201.25628,237.55599)"
         sodipodi:rx="74.666664"
         sodipodi:ry="72" />
      <path
         style="opacity:1;fill:#ffffff;fill-opacity:1;stroke:none;stroke-width:1;stroke-miterlimit:4;stroke-dasharray:none;stroke-opacity:1"
         id="path3422"
         sodipodi:cx="439.33334"
         sodipodi:cy="438"
         sodipodi:type="arc"
         d="m 457.33334,438 c 0,9.94113 -8.05887,18 -18,18 -9.94112,0 -18,-8.05887 -18,-18 0,-9.94113 8.05888,-18 18,-18 9.94113,0 18,8.05887 18,18 z"
         transform="translate(-13.333333,89.333333)"
         sodipodi:rx="18"
         sodipodi:ry="18" />
      <path
         style="opacity:1;fill:#ffffff;fill-opacity:1;stroke:none;stroke-width:1;stroke-miterlimit:4;stroke-dasharray:none;stroke-opacity:1"
         id="path3424"
         sodipodi:cx="439.33334"
         sodipodi:cy="438"
         sodipodi:type="arc"
         d="m 457.33334,438 c 0,9.94113 -8.05887,18 -18,18 -9.94112,0 -18,-8.05887 -18,-18 0,-9.94113 8.05888,-18 18,-18 9.94113,0 18,8.05887 18,18 z"
         transform="matrix(0.5,0,0,0.5,226.99999,282.33333)"
         sodipodi:rx="18"
         sodipodi:ry="18" />
    </g>
    <g
       transform="translate(-20.667,-42.666667)"
       id="g3506">
      <path
         style="opacity:1;fill:#ffffff;fill-opacity:1;stroke:none;stroke-width:1;stroke-miterlimit:4;stroke-dasharray:none;stroke-opacity:1"
         id="path3508"
         sodipodi:cx="429.33334"
         sodipodi:cy="532"
         sodipodi:type="arc"
         d="m 537.33334,532 c 0,59.64675 -48.35324,108 -108,108 -59.64675,0 -108,-48.35325 -108,-108 0,-59.64675 48.35325,-108 108,-108 59.64676,0 108,48.35325 108,108 z"
         transform="translate(-29.666344,-44.333)"
         sodipodi:rx="108"
         sodipodi:ry="108" />
      <path
         style="opacity:1;fill:#855900;fill-opacity:1;stroke:none;stroke-width:1;stroke-miterlimit:4;stroke-dasharray:none;stroke-opacity:1"
         id="path3510"
         sodipodi:cx="429.33334"
         sodipodi:cy="532"
         sodipodi:type="arc"
         d="m 537.33334,532 c 0,59.64675 -48.35324,108 -108,108 -59.64675,0 -108,-48.35325 -108,-108 0,-59.64675 48.35325,-108 108,-108 59.64676,0 108,48.35325 108,108 z"
         transform="translate(-39.666344,-54.333)"
         sodipodi:rx="108"
         sodipodi:ry="108" />
      <path
         style="opacity:1;fill:url(#radialGradient3522);fill-opacity:1;stroke:none;stroke-width:1;stroke-miterlimit:4;stroke-dasharray:none;stroke-opacity:1"
         id="path3512"
         sodipodi:cx="429.33334"
         sodipodi:cy="532"
         sodipodi:type="arc"
         d="m 537.33334,532 c 0,59.64675 -48.35324,108 -108,108 -59.64675,0 -108,-48.35325 -108,-108 0,-59.64675 48.35325,-108 108,-108 59.64676,0 108,48.35325 108,108 z"
         transform="translate(-34.666666,-49.333334)"
         sodipodi:rx="108"
         sodipodi:ry="108" />
      <path
         style="opacity:1;fill:url(#radialGradient3524);fill-opacity:1;stroke:none;stroke-width:1;stroke-miterlimit:4;stroke-dasharray:none;stroke-opacity:1"
         id="path3514"
         sodipodi:cx="424"
         sodipodi:cy="521.33331"
         sodipodi:type="arc"
         d="m 498.66666,521.33331 c 0,39.7645 -33.4294,72 -74.66666,72 -41.23726,0 -74.66666,-32.2355 -74.66666,-72 0,-39.7645 33.4294,-72 74.66666,-72 41.23726,0 74.66666,32.2355 74.66666,72 z"
         transform="matrix(0.9040179,0,0,0.9375,27.696417,16.250001)"
         sodipodi:rx="74.666664"
         sodipodi:ry="72" />
      <path
         style="opacity:1;fill:#000000;fill-opacity:1;stroke:none;stroke-width:1;stroke-miterlimit:4;stroke-dasharray:none;stroke-opacity:1"
         id="path3516"
         sodipodi:cx="424"
         sodipodi:cy="521.33331"
         sodipodi:type="arc"
         d="m 498.66666,521.33331 c 0,39.7645 -33.4294,72 -74.66666,72 -41.23726,0 -74.66666,-32.2355 -74.66666,-72 0,-39.7645 33.4294,-72 74.66666,-72 41.23726,0 74.66666,32.2355 74.66666,72 z"
         transform="matrix(0.4946786,0,0,0.513,201.25628,237.55599)"
         sodipodi:rx="74.666664"
         sodipodi:ry="72" />
      <path
         style="opacity:1;fill:#ffffff;fill-opacity:1;stroke:none;stroke-width:1;stroke-miterlimit:4;stroke-dasharray:none;stroke-opacity:1"
         id="path3518"
         sodipodi:cx="439.33334"
         sodipodi:cy="438"
         sodipodi:type="arc"
         d="m 457.33334,438 c 0,9.94113 -8.05887,18 -18,18 -9.94112,0 -18,-8.05887 -18,-18 0,-9.94113 8.05888,-18 18,-18 9.94113,0 18,8.05887 18,18 z"
         transform="translate(-13.333333,89.333333)"
         sodipodi:rx="18"
         sodipodi:ry="18" />
      <path
         style="opacity:1;fill:#ffffff;fill-opacity:1;stroke:none;stroke-width:1;stroke-miterlimit:4;stroke-dasharray:none;stroke-opacity:1"
         id="path3520"
         sodipodi:cx="439.33334"
         sodipodi:cy="438"
         sodipodi:type="arc"
         d="m 457.33334,438 c 0,9.94113 -8.05887,18 -18,18 -9.94112,0 -18,-8.05887 -18,-18 0,-9.94113 8.05888,-18 18,-18 9.94113,0 18,8.05887 18,18 z"
         transform="matrix(0.5,0,0,0.5,226.99999,282.33333)"
         sodipodi:rx="18"
         sodipodi:ry="18" />
    </g>
    <g
       transform="translate(255.333,-42.667)"
       id="g3526">
      <path
         style="opacity:1;fill:#ffffff;fill-opacity:1;stroke:none;stroke-width:1;stroke-miterlimit:4;stroke-dasharray:none;stroke-opacity:1"
         id="path3528"
         sodipodi:cx="429.33334"
         sodipodi:cy="532"
         sodipodi:type="arc"
         d="m 537.33334,532 c 0,59.64675 -48.35324,108 -108,108 -59.64675,0 -108,-48.35325 -108,-108 0,-59.64675 48.35325,-108 108,-108 59.64676,0 108,48.35325 108,108 z"
         transform="translate(-29.666344,-44.333)"
         sodipodi:rx="108"
         sodipodi:ry="108" />
      <path
         style="opacity:1;fill:#855900;fill-opacity:1;stroke:none;stroke-width:1;stroke-miterlimit:4;stroke-dasharray:none;stroke-opacity:1"
         id="path3530"
         sodipodi:cx="429.33334"
         sodipodi:cy="532"
         sodipodi:type="arc"
         d="m 537.33334,532 c 0,59.64675 -48.35324,108 -108,108 -59.64675,0 -108,-48.35325 -108,-108 0,-59.64675 48.35325,-108 108,-108 59.64676,0 108,48.35325 108,108 z"
         transform="translate(-39.666344,-54.333)"
         sodipodi:rx="108"
         sodipodi:ry="108" />
      <path
         style="opacity:1;fill:url(#radialGradient3542);fill-opacity:1;stroke:none;stroke-width:1;stroke-miterlimit:4;stroke-dasharray:none;stroke-opacity:1"
         id="path3532"
         sodipodi:cx="429.33334"
         sodipodi:cy="532"
         sodipodi:type="arc"
         d="m 537.33334,532 c 0,59.64675 -48.35324,108 -108,108 -59.64675,0 -108,-48.35325 -108,-108 0,-59.64675 48.35325,-108 108,-108 59.64676,0 108,48.35325 108,108 z"
         transform="translate(-34.666666,-49.333334)"
         sodipodi:rx="108"
         sodipodi:ry="108" />
      <path
         style="opacity:1;fill:url(#radialGradient3544);fill-opacity:1;stroke:none;stroke-width:1;stroke-miterlimit:4;stroke-dasharray:none;stroke-opacity:1"
         id="path3534"
         sodipodi:cx="424"
         sodipodi:cy="521.33331"
         sodipodi:type="arc"
         d="m 498.66666,521.33331 c 0,39.7645 -33.4294,72 -74.66666,72 -41.23726,0 -74.66666,-32.2355 -74.66666,-72 0,-39.7645 33.4294,-72 74.66666,-72 41.23726,0 74.66666,32.2355 74.66666,72 z"
         transform="matrix(0.9040179,0,0,0.9375,27.696417,16.250001)"
         sodipodi:rx="74.666664"
         sodipodi:ry="72" />
      <path
         style="opacity:1;fill:#000000;fill-opacity:1;stroke:none;stroke-width:1;stroke-miterlimit:4;stroke-dasharray:none;stroke-opacity:1"
         id="path3536"
         sodipodi:cx="424"
         sodipodi:cy="521.33331"
         sodipodi:type="arc"
         d="m 498.66666,521.33331 c 0,39.7645 -33.4294,72 -74.66666,72 -41.23726,0 -74.66666,-32.2355 -74.66666,-72 0,-39.7645 33.4294,-72 74.66666,-72 41.23726,0 74.66666,32.2355 74.66666,72 z"
         transform="matrix(0.4946786,0,0,0.513,201.25628,237.55599)"
         sodipodi:rx="74.666664"
         sodipodi:ry="72" />
      <path
         style="opacity:1;fill:#ffffff;fill-opacity:1;stroke:none;stroke-width:1;stroke-miterlimit:4;stroke-dasharray:none;stroke-opacity:1"
         id="path3538"
         sodipodi:cx="439.33334"
         sodipodi:cy="438"
         sodipodi:type="arc"
         d="m 457.33334,438 c 0,9.94113 -8.05887,18 -18,18 -9.94112,0 -18,-8.05887 -18,-18 0,-9.94113 8.05888,-18 18,-18 9.94113,0 18,8.05887 18,18 z"
         transform="translate(-13.333333,89.333333)"
         sodipodi:rx="18"
         sodipodi:ry="18" />
      <path
         style="opacity:1;fill:#ffffff;fill-opacity:1;stroke:none;stroke-width:1;stroke-miterlimit:4;stroke-dasharray:none;stroke-opacity:1"
         id="path3540"
         sodipodi:cx="439.33334"
         sodipodi:cy="438"
         sodipodi:type="arc"
         d="m 457.33334,438 c 0,9.94113 -8.05887,18 -18,18 -9.94112,0 -18,-8.05887 -18,-18 0,-9.94113 8.05888,-18 18,-18 9.94113,0 18,8.05887 18,18 z"
         transform="matrix(0.5,0,0,0.5,226.99999,282.33333)"
         sodipodi:rx="18"
         sodipodi:ry="18" />
    </g>
    <g
       id="g3633">
      <path
         style="fill:url(#radialGradient3631);fill-opacity:1;fill-rule:evenodd;stroke:none;stroke-width:4;stroke-linecap:butt;stroke-linejoin:miter;stroke-miterlimit:4;stroke-dasharray:none;stroke-opacity:1"
         d="M 512.01651,194.27599 L 668.40574,138.06227 C 708.80575,190.58227 730.73718,251.75942 730.73718,251.75942 C 730.73718,251.75942 623.96574,296.77657 593.95431,317.55371 C 563.94288,338.33086 530.49424,358.3 512.02566,358.3 L 512.01651,194.27599 z "
         sodipodi:nodetypes="cccscc"
         id="path3553" />
      <path
         style="fill:url(#radialGradient3628);fill-opacity:1;fill-rule:evenodd;stroke:none;stroke-width:4;stroke-linecap:butt;stroke-linejoin:miter;stroke-miterlimit:4;stroke-dasharray:none;stroke-opacity:1"
         d="M 512.05086,194.26866 L 356.05601,138.06227 C 315.656,190.58227 293.72457,251.75942 293.72457,251.75942 C 293.72457,251.75942 400.49601,296.77657 430.50744,317.55371 C 460.51887,338.33086 493.59144,358.3 512.06002,358.3 L 512.05086,194.26866 z "
         sodipodi:nodetypes="cccscc"
         id="path3555" />
      <rect
         style="fill:url(#linearGradient3625);fill-opacity:1;stroke:none;stroke-width:1;stroke-miterlimit:4;stroke-dasharray:none;stroke-opacity:1"
         id="rect3546"
         width="424.99231"
         transform="matrix(0.9506055,-0.3104017,0.9506055,0.3104017,0,0)"
         y="207.31822"
         x="-93.706429"
         height="424.99231" />
    </g>
    <path
       style="fill:url(#linearGradient3797);fill-opacity:1;fill-rule:evenodd;stroke:none;stroke-width:1px;stroke-linecap:butt;stroke-linejoin:miter;stroke-opacity:1"
       d="M 512,677.61667 C 558.2,601.35 654.39508,601.35 758.4,590.35 C 809.87256,584.90605 901.21666,559 901.21666,559 L 890.21666,661.48333 L 568.1,767.81667 L 512,677.61667 z "
       sodipodi:nodetypes="cscccc"
       id="path3731" />
    <path
       style="fill:url(#linearGradient3794);fill-opacity:1;fill-rule:evenodd;stroke:none;stroke-width:1px;stroke-linecap:butt;stroke-linejoin:miter;stroke-opacity:1"
       id="path3733"
       sodipodi:nodetypes="cscccc"
       d="M 510.90036,677.61667 C 465.8,601.35 369.60492,601.35 265.6,590.35 C 214.12744,584.90605 121.6837,559 121.6837,559 L 132.6837,661.48333 L 454.80036,767.81667 L 510.90036,677.61667 z " />
    <path
       style="fill:url(#radialGradient3780);fill-opacity:1;stroke:none;stroke-width:4;stroke-miterlimit:4;stroke-dasharray:none;stroke-opacity:1"
       id="path3706"
       sodipodi:cx="522.5"
       sodipodi:cy="724"
       sodipodi:type="arc"
       d="M 575 724 A 52.5 38 0 1 1  470,724 A 52.5 38 0 1 1  575 724 z"
       transform="matrix(1.1,0,0,0.3473678,-62.75,434.92237)"
       sodipodi:rx="52.5"
       sodipodi:ry="38" />
    <path
       d="m 905.8,563.21667 -30.8,300.3 -326.7,108.9 19.8,-294.8 337.7,-114.4 z"
       id="path3668"
       style="fill:url(#linearGradient4467);fill-opacity:1;fill-rule:evenodd;stroke:none" />
    <path
       d="m 118.2,563.21667 337.7,114.4 19.8,294.8 -326.7,-108.9 -30.8,-300.3 z"
       id="path3670"
       style="fill:url(#linearGradient4464);fill-opacity:1;fill-rule:evenodd;stroke:none" />
    <path
       d="m 563.71452,815.2527 c 107.5503,-35.87877 196.39488,-59.7333 195.84108,-52.43502 -0.5521,7.27546 -89.78899,42.72386 -196.7346,78.335 0,0 0.89352,-25.89998 0.89352,-25.89998 0,0 0,0 0,0 m -3.10726,84.27925 c 105.59009,-35.01324 192.80414,-58.35724 192.27014,-51.31619 -0.5309,7.00027 -88.12288,41.52188 -193.13025,76.27951 0,0 0.86011,-24.96332 0.86011,-24.96332 0,0 0,0 0,0 m 5.99552,-174.00926 c 109.65308,-36.81456 200.22252,-61.21917 199.64732,-53.63476 -0.5734,7.56041 -91.54943,44.00304 -200.57424,80.53688 0,0 0.92692,-26.90212 0.92692,-26.90212 0,0 0,0 0,0"
       style="fill:#ed1c24;fill-opacity:1;stroke:none"
       id="path2848"
       sodipodi:nodetypes="csccccsccccsccc" />
    <path
       id="path4493"
       d="m 143.39693,814.7742 c 0,0 -7.77259,-77.72594 -7.77259,-77.72594 0,0 1.47843,0.49634 1.47843,0.49634 0.81309,0.27296 1.45489,0.26123 1.42625,-0.0261 -0.0286,-0.28733 0.1475,-0.45543 0.39144,-0.37353 0.45156,0.15161 0.24779,-3.53622 -0.54833,-9.91499 -0.19129,-1.53274 -0.18738,-2.4672 0.0101,-2.40084 0.21083,0.0709 0.15202,-1.61173 -0.16927,-4.83913 -0.2723,-2.7354 -0.37485,-5.0535 -0.22896,-5.17765 0.14526,-0.12361 0.14092,-1.46297 -0.01,-2.97677 -0.15065,-1.51429 -0.16365,-2.94586 -0.0288,-3.18086 0.40565,-0.70704 0.0669,-8.3456 -0.46606,-10.49831 -0.44481,-1.79665 -0.50565,-2.59882 -0.57729,-7.61441 -0.0161,-1.12742 -0.14377,-3.49249 -0.28376,-5.25605 -0.14797,-1.86419 -0.11103,-3.63058 0.0883,-4.21679 0.18864,-0.55485 0.23057,-1.48778 0.0932,-2.07318 -0.18234,-0.7768 -0.0489,-1.13754 0.49382,-1.33459 0.58065,-0.21083 0.67781,-0.52189 0.44302,-1.41851 -0.16544,-0.63177 -0.19892,-1.39111 -0.0744,-1.68736 0.12455,-0.29627 0.14054,-1.37375 0.0355,-2.39457 -0.10508,-1.02105 -0.1502,-2.18852 -0.10026,-2.59423 0.19124,-1.55364 0.1474,-5.77336 -0.0677,-6.50713 -0.12444,-0.42442 -0.0342,-0.70381 0.20153,-0.62421 0.28037,0.0947 0.48942,0.73715 0.60934,1.87263 0.25882,2.45053 0.75393,5.41859 1.01906,6.1094 0.12419,0.32359 0.29221,1.59005 0.37337,2.81409 0.0822,1.23947 0.28099,2.26974 0.44885,2.32636 0.16573,0.0559 0.29623,0.66968 0.29001,1.36386 -0.007,0.81805 0.21389,1.64003 0.62887,2.33683 0.35204,0.59112 0.70219,1.70403 0.77815,2.4731 0.076,0.76893 0.29743,1.68458 0.49219,2.03487 0.41147,0.74005 1.93548,15.30797 2.1087,20.15008 0.0752,2.10284 0.22108,3.25256 0.42113,3.31988 0.16833,0.0567 0.35074,-0.24882 0.40537,-0.67886 0.0607,-0.47799 0.29772,-0.59295 0.60962,-0.2957 0.40505,0.38601 0.44885,0.2282 0.21245,-0.76561 -0.16381,-0.68867 -0.39447,-3.05905 -0.5126,-5.26835 -0.1846,-3.4522 -0.13717,-3.99337 0.33624,-3.83392 0.3669,0.12358 0.51973,-0.20823 0.45715,-0.99257 -0.0517,-0.64814 -0.0908,-1.63622 -0.0869,-2.19572 0.004,-0.55957 -0.23253,-4.36417 -0.52571,-8.45781 -0.49343,-6.88982 -0.57688,-7.49327 -1.10653,-7.99939 -0.52359,-0.50032 -0.52115,-0.56517 0.0284,-0.75355 0.77491,-0.26565 0.6084,-2.28168 -0.24264,-2.93486 -0.7833,-0.60118 -0.89983,-1.47613 -0.16341,-1.22764 0.48011,0.162 0.5192,-0.43685 0.30244,-4.63752 -0.13701,-2.65503 -0.32156,-5.71637 -0.41005,-6.80183 -0.0885,-1.08572 -0.005,-2.03223 0.18666,-2.10315 0.35223,-0.13065 0.51237,0.44768 0.58167,2.10026 0.063,1.5015 0.92063,1.32483 0.94417,-0.19453 0.012,-0.77259 -0.0754,-7.79746 -0.19427,-15.6224 -0.1191,-7.83783 -0.17543,-14.78113 -0.12501,-15.4179 0.0577,-0.7293 1.16566,5.09532 2.98981,15.71664 1.58966,9.25601 3.01023,17.37698 3.15955,18.06263 0.35986,1.65234 1.1988,1.93563 0.97258,0.32845 -0.33032,-2.34669 -0.28746,-2.64301 0.25066,-1.73233 0.29846,0.50509 0.40153,0.98749 0.26477,1.23912 -0.12317,0.22661 -0.0444,2.10072 0.17497,4.16389 0.21925,2.06229 0.41657,3.29377 0.43857,2.73737 0.1002,-2.53491 0.50375,-1.59027 0.85273,1.99558 0.33897,3.48288 0.43753,3.89224 1.0869,4.51524 0.59739,0.57315 0.64069,0.71538 0.26506,0.87061 -0.37372,0.15445 -0.35802,1.19148 0.0934,6.18542 0.32338,3.57738 0.6765,6.16714 0.87605,6.42587 0.18698,0.24244 0.54036,2.55251 0.80169,5.24019 0.37279,3.83405 0.59159,5.04253 1.08522,5.9953 0.51162,0.98746 0.69462,2.07851 1.0614,6.32658 0.3966,4.59353 0.50236,5.17358 1.01452,5.56568 0.53857,0.41233 0.52688,0.0448 -0.20218,-6.34135 -0.51308,-4.49435 -0.67862,-6.87067 -0.48971,-7.03137 0.17288,-0.14706 0.0993,-1.9412 -0.18692,-4.55414 -0.4678,-4.27099 -0.37113,-7.0631 0.29784,-8.58616 0.17239,-0.39249 0.19156,-1.13179 0.0426,-1.64291 -0.149,-0.51117 -0.15936,-1.18352 -0.023,-1.49409 0.13637,-0.31059 0.20772,-0.7751 0.15855,-1.03225 -0.0492,-0.25715 -0.0764,-0.69334 -0.0605,-0.9693 0.0159,-0.27597 -0.006,-1.20426 -0.0489,-2.06298 -0.23154,-4.64524 -0.25582,-8.02485 -0.057,-7.95774 0.19103,0.0645 0.64671,2.2789 1.13302,5.50548 0.0671,0.44503 0.26572,1.11639 0.44143,1.49192 0.17569,0.37549 0.27875,0.99936 0.22903,1.38635 -0.0497,0.38696 0.25468,2.28537 0.67627,4.21801 0.42143,1.93187 0.71686,3.68499 0.65667,3.89652 -0.0602,0.21151 0.19347,0.42957 0.56368,0.48457 0.54705,0.0813 0.68127,0.32431 0.71677,1.29769 0.024,0.65859 0.24965,1.76794 0.50137,2.46522 0.25168,0.69717 0.53691,2.38001 0.63385,3.73937 0.0969,1.35897 0.37032,3.00814 0.60758,3.66509 0.24555,0.67992 0.82711,4.88517 1.34987,9.75977 0.96935,9.03898 1.70868,14.24739 2.2869,16.11445 0.19278,0.62249 0.56114,2.5898 0.81849,4.37127 0.64599,4.47166 0.84867,5.05362 1.8037,5.1804 0.44,0.0584 0.94755,-0.0186 1.12789,-0.17116 0.18035,-0.15256 0.68579,0.14351 1.12315,0.65789 0.62598,0.73621 0.90329,0.8421 1.3038,0.49788 1.1121,-0.95579 1.2602,-0.49697 1.72492,5.34166 0.43715,5.49223 0.44093,5.51136 1.08948,5.51006 0.63131,-10e-4 0.66614,0.13319 1.16141,4.48233 0.28062,2.4642 0.56024,4.56955 0.62152,4.67974 0.0613,0.11018 0.42456,-0.89202 0.8074,-2.22745 0,0 0.69637,-2.42906 0.69637,-2.42906 0,0 1.18679,2.36363 1.18679,2.36363 0.65249,1.29952 1.2159,2.6749 1.25217,3.05668 0.0363,0.38175 0.19863,0.73861 0.3608,0.79304 0.16217,0.0544 0.32635,0.43075 0.36485,0.83625 0.0385,0.40546 0.24362,0.8891 0.45582,1.07479 0.24048,0.21042 0.41938,1.05465 0.47493,2.24092 0.049,1.04649 0.26216,2.25704 0.47369,2.69027 0.25719,0.52674 0.40246,1.79631 0.43862,3.83253 0.032,1.80258 0.21554,3.58328 0.45013,4.3681 0.2178,0.72867 0.63009,4.05794 0.91603,7.39635 0,0 0.51938,6.06379 0.51938,6.06379 0,0 0.75376,0.25247 0.75376,0.25247 0.72056,0.24134 0.74149,0.12311 0.4755,-2.68635 -0.28014,-2.95904 -0.0993,-6.213 0.33748,-6.06661 0.1293,0.0433 0.1579,-0.73761 0.0635,-1.73563 -0.0944,-0.99824 -0.0261,-1.76634 0.15178,-1.70671 0.17787,0.0596 0.73152,-0.11362 1.23037,-0.38502 0.75208,-0.40919 0.89182,-0.81302 0.81773,-2.36375 0,0 -0.0894,-1.87099 -0.0894,-1.87099 0,0 1.75758,0.49699 1.75758,0.49699 0.96663,0.27332 3.51129,1.07023 5.65464,1.77085 0,0 3.89642,1.27368 3.89642,1.27368 0,0 -0.43367,-4.65765 -0.43367,-4.65765 0,0 -0.43411,-4.66223 -0.43411,-4.66223 0,0 4.03665,1.21469 4.03665,1.21469 0,0 4.03594,1.21448 4.03594,1.21448 0,0 -0.23673,-3.47995 -0.23673,-3.47995 0,0 -0.23691,-3.48251 -0.23691,-3.48251 0,0 3.37517,1.13339 3.37517,1.13339 0,0 3.3746,1.13321 3.3746,1.13321 0,0 -0.23827,-2.60192 -0.23827,-2.60192 0,0 -0.2384,-2.60334 -0.2384,-2.60334 0,0 2.78805,0.9366 2.78805,0.9366 0,0 2.78764,0.93645 2.78764,0.93645 0,0 -0.30542,-4.26841 -0.30542,-4.26841 -0.28504,-3.98299 -0.26184,-4.26845 0.34272,-4.21587 0.57972,0.0504 0.62172,-0.23787 0.39613,-2.72096 -0.18521,-2.03857 -0.13718,-2.82112 0.18044,-2.93712 0.24206,-0.0884 0.31538,-0.45668 0.16624,-0.83539 -0.14668,-0.37253 -0.33861,-1.5782 -0.4265,-2.67947 -0.088,-1.10154 -0.23506,-2.94064 -0.32703,-4.08698 -0.1223,-1.52367 -0.0433,-2.04325 0.29327,-1.92997 0.25332,0.0853 0.35704,-0.10813 0.23052,-0.42972 -0.53364,-1.35635 0.38332,-0.2613 0.95976,1.14609 0.58173,1.42034 0.93919,3.94734 1.08255,7.65101 0.0273,0.70547 0.20819,2.75962 0.40202,4.56431 0,0 0.35199,3.2794 0.35199,3.2794 0,0 2.92139,0.98202 2.92139,0.98202 0,0 2.92099,0.98188 2.92099,0.98188 0,0 -0.0961,-2.93999 -0.0961,-2.93999 -0.0529,-1.61776 -0.2427,-4.54127 -0.42184,-6.49689 -0.30306,-3.30877 0.009,-6.43197 0.62178,-6.22561 0.44052,0.14825 0.93098,2.92919 1.66303,9.42717 0,0 0.77003,6.83533 0.77003,6.83533 0,0 3.03449,1.1641 3.03449,1.1641 0,0 3.03393,1.1639 3.03393,1.1639 0,0 -0.19476,-2.73734 -0.19476,-2.73734 -0.71219,-10.01067 -0.73376,-12.55159 -0.11468,-13.60588 0.39546,-0.67345 0.42977,-0.63408 0.56682,0.65032 0.69526,6.51595 1.16058,10.08468 1.36268,10.4524 0.13194,0.24003 0.3511,1.68798 0.487,3.21724 0,0 0.24697,2.7792 0.24697,2.7792 0,0 2.9462,0.99035 2.9462,0.99035 0,0 2.94576,0.99021 2.94576,0.99021 0,0 -0.21396,-2.47277 -0.21396,-2.47277 -0.11721,-1.3604 -0.12475,-2.76514 -0.0157,-3.12098 0.10908,-0.35586 0.0572,-1.15496 -0.11522,-1.77583 -0.17249,-0.62095 -0.28139,-2.08777 -0.24193,-3.25978 0.0495,-1.47262 -0.0658,-2.51974 -0.37325,-3.38705 -0.35114,-0.99064 -0.35962,-1.14417 -0.0401,-0.72734 0.2432,0.31736 0.52678,0.2049 0.71034,-0.28171 0.28422,-0.75345 0.33935,-0.696 0.78836,0.82146 0.69823,2.35961 0.88688,3.54009 0.54755,3.42594 -0.17165,-0.0577 -0.0372,0.76518 0.31858,1.94995 0.4974,1.65646 0.55768,2.17735 0.31469,2.7189 -0.24007,0.53499 -0.22252,0.7389 0.0863,1.01275 0.25175,0.22287 0.48282,1.42445 0.65898,3.42654 0.24059,2.73424 0.33748,3.10364 0.86012,3.27932 0.53287,0.17912 0.61946,0.54502 0.90905,3.84065 0,0 0.31983,3.63989 0.31983,3.63989 0,0 2.50097,0.84021 2.50097,0.84021 0,0 2.50065,0.84012 2.50065,0.84012 0,0 0.29495,3.37636 0.29495,3.37636 0,0 0.29474,3.37396 0.29474,3.37396 0,0 3.66076,1.22926 3.66076,1.22926 0,0 3.66008,1.22902 3.66008,1.22902 0,0 0.38995,3.52879 0.38995,3.52879 0,0 0.38966,3.52617 0.38966,3.52617 0,0 3.90266,1.4501 3.90266,1.4501 0,0 3.90178,1.44977 3.90178,1.44977 0,0 0.3538,4.12404 0.3538,4.12404 0,0 0.35349,4.12044 0.35349,4.12044 0,0 3.19094,1.07028 3.19094,1.07028 0,0 3.19046,1.07012 3.19046,1.07012 0,0 -1.634,-21.29222 -1.634,-21.29222 -0.90184,-11.75173 -2.75222,-35.56592 -4.1144,-52.95153 0,0 -2.48956,-31.77389 -2.48956,-31.77389 0,0 2.16537,0.91314 2.16537,0.91314 0,0 2.16505,0.913 2.16505,0.913 0,0 -0.24777,-2.92823 -0.24777,-2.92823 -0.13634,-1.61128 -0.14299,-3.01836 -0.0148,-3.12632 0.12828,-0.10797 2.51337,0.20958 5.30008,0.70564 2.78659,0.49604 5.16948,0.81523 5.29544,0.70934 0.12595,-0.10591 -0.0308,-2.85795 -0.34858,-6.11766 0,0 -0.57836,-5.93248 -0.57836,-5.93248 0,0 1.05006,0.48251 1.05006,0.48251 0.5775,0.26536 1.18599,0.35094 1.35223,0.19013 0.18887,-0.18269 0.0876,-5.00333 -0.27038,-12.86127 -0.5782,-12.69124 -0.71972,-17.2978 -0.51898,-16.90348 0.0599,0.11768 0.79471,6.62092 1.63168,14.44007 0.83557,7.80642 1.61928,14.72515 1.74276,15.38638 0.16654,0.89178 0.47679,1.32904 1.20193,1.69408 0,0 0.97737,0.49203 0.97737,0.49203 0,0 0.8222,6.4515 0.8222,6.4515 0,0 0.82109,6.44284 0.82109,6.44284 0,0 3.57795,1.46667 3.57795,1.46667 0,0 3.5771,1.46632 3.5771,1.46632 0,0 0.40764,3.21644 0.40764,3.21644 0,0 0.40736,3.21429 0.40736,3.21429 0,0 1.78936,0.76111 1.78936,0.76111 0.98405,0.41857 1.93331,1.02672 2.10952,1.35147 0.17616,0.32471 0.36488,1.50103 0.41932,2.6138 0.0624,1.27585 0.24574,2.15071 0.49648,2.36964 0.21858,0.19088 4.11363,1.47691 8.6548,2.85761 0,0 8.2544,2.50965 8.2544,2.50965 0,0 -0.3979,-6.79205 -0.3979,-6.79205 0,0 -0.39848,-6.80175 -0.39848,-6.80175 0,0 20.8707,7.23594 20.8707,7.23594 11.4692,3.97641 20.95509,7.41901 21.08604,7.6524 0.13095,0.23337 2.05915,22.66691 4.2734,49.71174 2.20167,26.89143 4.41458,53.21314 4.9283,58.62524 0,0 0.93259,9.8245 0.93259,9.8245 0,0 3.37248,1.3808 3.37248,1.3808 0,0 3.37173,1.3805 3.37173,1.3805 0,0 0.59741,4.1982 0.59741,4.1982 0.32835,2.3074 0.69088,4.1698 0.80577,4.1397 0.11488,-0.03 1.25729,0.2965 2.53859,0.7259 0,0 2.32944,0.7806 2.32944,0.7806 0,0 -0.56886,-7.6825 -0.56886,-7.6825 0,0 -0.5698,-7.6951 -0.5698,-7.6951 0,0 3.89204,1.3057 3.89204,1.3057 0,0 3.89127,1.3054 3.89127,1.3054 0,0 -0.26653,-6.1788 -0.26653,-6.1788 -0.14675,-3.4019 -0.44941,-8.6805 -0.67262,-11.7299 -0.38366,-5.2412 -0.37008,-5.6246 0.24492,-6.90411 0,0 0.65136,-1.35511 0.65136,-1.35511 0,0 0.77617,1.38078 0.77617,1.38078 0.60831,1.08214 0.81517,1.91814 0.95736,3.86864 0.0997,1.3679 0.27494,2.5183 0.38938,2.5568 0.11445,0.038 0.44296,-0.4554 0.73006,-1.0974 0,0 0.52207,-1.1676 0.52207,-1.1676 0,0 0.63411,1.7309 0.63411,1.7309 0,0 0.63388,1.7304 0.63388,1.7304 0,0 4.85237,1.9578 4.85237,1.9578 2.66813,1.0765 6.38596,2.4729 8.26211,3.1031 0,0 3.41071,1.1458 3.41071,1.1458 0,0 -1.18273,-19.39602 -1.18273,-19.39602 -1.08633,-17.81454 -1.26703,-24.31586 -0.66879,-24.11424 0.10149,0.0342 0.45164,0.89345 0.77801,1.90924 0,0 0.59325,1.84635 0.59325,1.84635 0,0 -0.22998,-3.51359 -0.22998,-3.51359 -0.17525,-2.67857 -0.12694,-3.5534 0.20332,-3.67235 0.37245,-0.13413 0.34635,-1.01626 -0.18544,-6.26493 -0.57409,-5.66611 -0.59506,-7.02572 -0.2843,-18.48064 0.18484,-6.81409 0.36408,-12.44865 0.39806,-12.51225 0.034,-0.0636 1.17056,6.18418 2.52378,13.87279 2.03172,11.5437 2.52166,14.90265 2.84197,19.47848 0.2994,4.27711 0.49626,5.70381 0.87172,6.31917 0.36377,0.59623 0.58144,2.04699 0.87099,5.80442 0.35114,4.55683 0.38866,4.76298 0.4196,2.30602 0.0776,-6.15748 1.22384,-3.37374 2.03446,4.93748 0.4153,4.2581 0.72414,6.18572 1.17534,7.33704 0.52502,1.3397 0.77414,3.46267 1.75345,14.93763 0,0 1.13835,13.3386 1.13835,13.3386 0,0 6.93378,2.4639 6.93378,2.4639 0,0 6.93116,2.463 6.93116,2.463 0,0 -0.39264,-5.7638 -0.39264,-5.7638 -0.36762,-5.3967 -0.35192,-5.8811 0.24265,-7.4712 0.34976,-0.9355 0.71722,-1.6652 0.8165,-1.6214 0.0993,0.044 0.72579,0.9937 1.39209,2.1107 1.11928,1.8764 1.24294,2.2992 1.63124,5.5761 0.23097,1.9491 0.53991,3.7026 0.68662,3.8975 0.14672,0.1948 0.29711,0.8032 0.3342,1.3518 0.0513,0.7594 0.27029,1.0655 0.91782,1.2831 1.06113,0.3565 1.76934,-1.5951 1.82746,-5.0378 0.0396,-2.3443 0.55252,-3.0052 1.00594,-1.2958 0.29435,1.1097 1.41957,1.4572 1.34984,0.417 -0.0333,-0.4962 0.14787,-0.6737 0.46799,-0.4587 0.40788,0.2739 0.52934,0.7633 0.55478,2.2345 0.0355,2.0548 0.27762,2.45 0.76562,1.25 0.29265,-0.7197 0.38324,-0.6492 1.29475,1.0069 0.5389,0.9791 1.05184,2.2817 1.13991,2.8947 0.15782,1.0985 0.72346,1.5275 0.72779,0.552 0.001,-0.2757 0.0167,-0.666 0.0343,-0.8673 0.0177,-0.2012 -0.093,-1.992 -0.24579,-3.9802 -0.2599,-3.3796 -0.22759,-3.6941 0.49198,-4.7925 0,0 0.77036,-1.1758 0.77036,-1.1758 0,0 1.13266,1.8074 1.13266,1.8074 0.6228,0.9939 1.23322,2.412 1.3566,3.1515 0.12337,0.7393 1.00078,8.6894 1.94818,17.6514 0,0 1.71795,16.2509 1.71795,16.2509 0,0 1.1641,1.3545 1.1641,1.3545 0,0 1.16376,1.3541 1.16376,1.3541 0,0 4.49668,68.3805 4.49668,68.3805 0,0 4.43152,67.3906 4.43152,67.3906 0,0 -162.99147,-54.1092 -162.99147,-54.1092 0,0 -164.3418,-54.5574 -164.3418,-54.5574 0,0 -7.64651,-76.4651 -7.64651,-76.4651 0,0 7.5e-4,2e-4 7.5e-4,2e-4 m 178.4177,-2.672 c 0,0 3.18484,1.0682 3.18484,1.0682 0,0 -0.42752,-6.28676 -0.42752,-6.28676 0,0 -0.42809,-6.29511 -0.42809,-6.29511 0,0 4.27883,1.29769 4.27883,1.29769 2.94774,0.894 4.34702,1.12939 4.49987,0.75701 0.13428,-0.3271 -0.98783,-15.0742 -2.84945,-37.44037 0,0 -3.09545,-37.18938 -3.09545,-37.18938 0,0 -5.08266,-2.02414 -5.08266,-2.02414 -2.79614,-1.11355 -6.54235,-2.47072 -8.32456,-3.01578 0,0 -3.24074,-0.99114 -3.24074,-0.99114 0,0 3.44176,44.11041 3.44176,44.11041 2.11642,27.12435 3.53592,43.99277 3.74088,44.46387 0.18196,0.4181 0.50768,0.6966 0.72387,0.6187 0.21616,-0.078 1.82653,0.3392 3.57842,0.9268 0,0 0,0 0,0 m -179.0692,-99.11836 c -0.0132,-0.7946 -0.14724,-1.60398 -0.29784,-1.79849 -0.15061,-0.19451 -0.23287,0.0601 -0.18279,0.56574 0.0822,0.82994 0.039,0.80598 -0.44521,-0.24675 -0.5045,-1.09696 -0.526,-1.05606 -0.36169,0.68798 0.13975,1.48346 0.28814,1.89171 0.74309,2.04473 0.39742,0.13367 0.56122,-0.24334 0.54444,-1.25321 0,0 0,0 0,0 m -0.67507,-8.98824 c -0.12891,-1.30237 -0.36795,-2.41317 -0.53119,-2.46813 -0.16323,-0.055 -0.19123,0.96597 -0.0622,2.26838 0.12896,1.30207 0.36793,2.41205 0.53108,2.46696 0.16315,0.0549 0.19122,-0.96519 0.0623,-2.26721 0,0 0,0 0,0 m 22.8487,7.84336 c -0.14397,-1.4895 -0.2942,-2.067 -0.46203,-1.77602 -0.21912,0.3799 0.27699,3.84813 0.56417,3.94478 0.0611,0.0206 0.0152,-0.95525 -0.10214,-2.16876 0,0 0,0 0,0 m -23.7988,-8.54464 c -0.18777,-1.7378 -0.27647,-2.02587 -0.39323,-1.27701 -0.21015,1.34795 -0.0166,3.3004 0.33893,3.42005 0.16316,0.0549 0.18761,-0.90932 0.0543,-2.14304 0,0 0,0 0,0 m 6.44708,2.63632 c -0.13495,-1.37112 -0.70822,-1.48089 -0.68229,-0.13064 0.0159,0.82855 0.14037,1.17684 0.39588,1.10782 0.20497,-0.0554 0.33386,-0.49508 0.28641,-0.97718 0,0 0,0 0,0"
       style="fill:#000000;opacity:0.3"
       mask="url(#mask5740)" />
    <path
       d="m 568.08328,677.15713 -9.89705,294.71215 c 0,0 -24.19279,8.79739 -46.18623,8.79739 -21.99344,0 -46.18623,-8.79739 -46.18623,-8.79739 l -9.89705,-294.71215 c 0,0 21.99344,8.79738 56.08328,8.79738 34.08984,0 54.98361,-8.79738 56.08328,-8.79738 z"
       sodipodi:nodetypes="cczccsc"
       id="path3672"
       style="fill:url(#linearGradient4461);fill-opacity:1;fill-rule:evenodd;stroke:none" />
    <path
       style="font-weight:bold;fill:#fcfcfc;fill-opacity:1"
       id="path4130"
       d="M 548.92442,743.64344 C 548.92442,743.64344 546.73244,801.53206 546.73244,801.53206 C 546.73244,801.53206 522.88124,802.72157 522.88124,802.72157 C 522.88124,802.72157 522.92632,798.98739 522.92632,798.98739 C 528.59035,798.11642 532.68231,797.02073 535.20255,795.69856 C 537.72889,794.373 539.64639,792.626 540.9547,790.45272 C 542.26876,788.26961 542.98712,785.3966 543.10601,781.82076 C 543.10601,781.82076 543.40509,772.82087 543.40509,772.82087 C 543.45195,771.40942 543.19243,770.38459 542.62586,769.74889 C 542.05835,769.11221 541.24972,768.79138 540.20044,768.78707 C 540.20044,768.78707 515.68262,768.68571 515.68262,768.68571 C 515.68262,768.68571 515.66974,771.8124 515.66974,771.8124 C 515.65499,775.38216 516.71825,778.13482 518.8523,780.08389 C 520.97682,782.02426 524.40463,783.17472 529.13746,783.5413 C 529.13746,783.5413 529.06461,787.48633 529.06461,787.48633 C 529.06461,787.48633 496.75251,787.3999 496.75251,787.3999 C 496.75251,787.3999 496.68932,783.44453 496.68932,783.44453 C 502.07448,783.1958 505.86271,782.10276 508.06134,780.15985 C 510.26824,778.20949 511.37408,775.24709 511.37257,771.25319 C 511.37257,771.25319 511.37158,768.66788 511.37158,768.66788 C 511.37158,768.66788 485.10778,768.5593 485.10778,768.5593 C 483.95297,768.55449 483.1444,768.87009 482.68265,769.5055 C 482.00759,770.47225 481.69909,771.86131 481.75602,773.66888 C 481.75602,773.66888 482.00678,781.63016 482.00678,781.63016 C 482.17624,787.01024 484.14553,791.3645 487.89425,794.71927 C 491.61411,798.04811 497.12577,800.10687 504.43508,800.91307 C 504.43508,800.91307 504.46516,804.72127 504.46516,804.72127 C 504.46516,804.72127 478.39068,803.7567 478.39068,803.7567 C 478.39068,803.7567 476.2,743.2 476.2,743.2 C 476.2,743.2 480.79721,743.22804 480.79721,743.22804 C 480.79721,743.22804 480.99714,749.57528 480.99714,749.57528 C 481.04188,750.99566 481.45125,752.076 482.22443,752.81848 C 482.99634,753.55973 484.01695,753.93326 485.28703,753.93997 C 485.28703,753.93997 540.63336,754.23157 540.63336,754.23157 C 541.79541,754.23768 542.66238,753.8758 543.23503,753.14516 C 543.80837,752.41346 544.12716,751.09139 544.19094,749.17412 C 544.19094,749.17412 544.37565,743.61571 544.37565,743.61571 C 544.37565,743.61571 548.92442,743.64344 548.92442,743.64344 C 548.92442,743.64344 548.92442,743.64344 548.92442,743.64344 M 546.30375,812.85362 C 546.30375,812.85362 546.60709,830.73481 546.60709,830.73481 C 546.60709,830.73481 514.0834,830.75733 514.0834,830.75733 C 517.7668,833.42322 520.26447,835.86356 521.58926,838.08271 C 522.90709,840.29029 523.54603,842.69388 523.51136,845.29055 C 523.46351,848.86468 522.18948,851.57971 519.69625,853.45191 C 516.83379,855.56834 512.81219,856.63011 507.61885,856.6442 C 507.61885,856.6442 488.25917,856.69656 488.25917,856.69656 C 486.91985,856.70012 485.94485,856.96573 485.33485,857.49289 C 484.72552,858.01939 484.43682,858.78137 484.46821,859.77758 C 484.46821,859.77758 484.54438,862.19614 484.54438,862.19614 C 484.54438,862.19614 480.50523,862.20879 480.50523,862.20879 C 480.50523,862.20879 479.72772,840.71632 479.72772,840.71632 C 479.72772,840.71632 483.86764,840.71026 483.86764,840.71026 C 483.86764,840.71026 483.94232,843.08133 483.94232,843.08133 C 483.98377,844.39736 484.29211,845.28492 484.86696,845.74654 C 485.62333,846.38678 486.66381,846.70527 487.9891,846.70275 C 487.9891,846.70275 507.21922,846.66566 507.21922,846.66566 C 509.97843,846.66031 512.17209,846.00977 513.80436,844.71144 C 515.44099,843.40953 516.26598,841.77593 516.27611,839.8067 C 516.2886,837.35881 515.12623,835.23985 512.78125,833.45408 C 510.42592,831.66044 507.21212,830.76208 503.14567,830.76491 C 503.14567,830.76491 487.55872,830.7757 487.55872,830.7757 C 486.20936,830.77662 485.21313,831.06281 484.57079,831.63377 C 483.92921,832.20402 483.62535,833.01795 483.65862,834.07419 C 483.65862,834.07419 483.74309,836.75626 483.74309,836.75626 C 483.74309,836.75626 479.58463,836.76106 479.58463,836.76106 C 479.58463,836.76106 478.73455,813.26231 478.73455,813.26231 C 478.73455,813.26231 483.00319,813.26516 483.00319,813.26516 C 483.00319,813.26516 483.1085,816.60865 483.1085,816.60865 C 483.14558,817.78606 483.52323,818.67405 484.24074,819.27423 C 484.95721,819.87353 485.96752,820.17295 487.2722,820.17313 C 487.2722,820.17313 537.18188,820.17962 537.18188,820.17962 C 538.62663,820.1798 539.77548,819.76674 540.62976,818.93939 C 541.48537,818.1106 541.93683,817.00086 541.98317,815.60798 C 541.98317,815.60798 542.07481,812.85066 542.07481,812.85066 C 542.07481,812.85066 546.30375,812.85362 546.30375,812.85362 C 546.30375,812.85362 546.30375,812.85362 546.30375,812.85362 M 544.22433,867.76963 C 544.22433,867.76963 543.03176,899.26426 543.03176,899.26426 C 542.85427,903.95005 541.36433,907.60999 538.57315,910.27174 C 535.79868,912.91734 532.42069,914.24858 528.42478,914.27737 C 524.91275,914.3026 521.95262,913.28301 519.53591,911.21008 C 517.10574,909.12556 515.21277,905.96546 513.85643,901.70476 C 512.69501,907.3585 510.80134,911.33662 508.17416,913.68687 C 505.56088,916.02455 502.28679,917.20339 498.33972,917.23267 C 494.85019,917.25847 491.82579,916.4564 489.25932,914.82098 C 487.43092,913.65442 485.77292,911.5987 484.28134,908.64004 C 482.77851,905.659 481.94852,902.10553 481.79875,897.96552 C 481.79875,897.96552 480.71461,867.99692 480.71461,867.99692 C 480.71461,867.99692 484.72664,867.98257 484.72664,867.98257 C 484.72664,867.98257 484.88256,872.93266 484.88256,872.93266 C 484.90913,873.77621 485.22881,874.41256 485.84117,874.84263 C 486.68506,875.41516 487.67616,875.69874 488.81525,875.69399 C 488.81525,875.69399 537.53537,875.49041 537.53537,875.49041 C 538.27002,875.48733 538.87195,875.21618 539.34163,874.67648 C 539.81178,874.1361 540.06821,873.23018 540.11059,871.95634 C 540.11059,871.95634 540.24924,867.78385 540.24924,867.78385 C 540.24924,867.78385 544.22433,867.76963 544.22433,867.76963 C 544.22433,867.76963 544.22433,867.76963 544.22433,867.76963 M 515.44788,886.80401 C 515.44788,886.80401 515.42228,892.59734 515.42228,892.59734 C 515.40487,896.52904 516.38481,899.31202 518.35555,900.96865 C 520.31765,902.61802 523.56944,903.42561 528.11486,903.3968 C 532.05518,903.37174 534.88082,902.56009 536.5982,900.95749 C 538.32169,899.34902 539.26059,896.28831 539.41149,891.74264 C 539.48402,889.55494 539.29371,888.16274 538.83976,887.57404 C 538.38504,886.98442 537.53001,886.69246 536.27506,886.69881 C 536.27506,886.69881 515.44788,886.80401 515.44788,886.80401 C 515.44788,886.80401 515.44788,886.80401 515.44788,886.80401 M 511.58513,886.82353 C 511.58513,886.82353 488.94992,886.93785 488.94992,886.93785 C 487.76969,886.9438 486.87656,887.15831 486.27109,887.5811 C 485.66615,888.00347 485.37524,888.57502 485.39792,889.29511 C 485.39792,889.29511 485.60678,895.92609 485.60678,895.92609 C 485.70783,899.13427 486.84996,901.63028 489.02603,903.42629 C 491.19185,905.21377 494.31505,906.09102 498.40136,906.06433 C 502.67683,906.03634 505.93642,905.05705 508.18957,903.12018 C 510.45244,901.17483 511.58724,898.34515 511.58657,894.61236 C 511.58657,894.61236 511.58513,886.82353 511.58513,886.82353 C 511.58513,886.82353 511.58513,886.82353 511.58513,886.82353" />
  </g>
</svg>
