<?xml version="1.0" encoding="UTF-8" standalone="no"?>
<!-- Created with Inkscape (http://www.inkscape.org/) -->

<svg
   xmlns:dc="http://purl.org/dc/elements/1.1/"
   xmlns:cc="http://creativecommons.org/ns#"
   xmlns:rdf="http://www.w3.org/1999/02/22-rdf-syntax-ns#"
   xmlns:svg="http://www.w3.org/2000/svg"
   xmlns="http://www.w3.org/2000/svg"
   xmlns:sodipodi="http://sodipodi.sourceforge.net/DTD/sodipodi-0.dtd"
   xmlns:inkscape="http://www.inkscape.org/namespaces/inkscape"
   width="744.09448819"
   height="1052.3622047"
   id="svg2"
   version="1.1"
   inkscape:version="0.47 r22583"
   sodipodi:docname="New document 1">
  <defs
     id="defs4">
    <inkscape:perspective
       sodipodi:type="inkscape:persp3d"
       inkscape:vp_x="0 : 526.18109 : 1"
       inkscape:vp_y="0 : 1000 : 0"
       inkscape:vp_z="744.09448 : 526.18109 : 1"
       inkscape:persp3d-origin="372.04724 : 350.78739 : 1"
       id="perspective10" />
    <clipPath
       id="clipPath2834"
       clipPathUnits="userSpaceOnUse">
      <path
         id="path2836"
         d="M 0,118.555 0,0 l 1086.6,0 0,118.555 -1086.6,0 z" />
    </clipPath>
    <inkscape:perspective
       id="perspective2824"
       inkscape:persp3d-origin="0.5 : 0.33333333 : 1"
       inkscape:vp_z="1 : 0.5 : 1"
       inkscape:vp_y="0 : 1000 : 0"
       inkscape:vp_x="0 : 0.5 : 1"
       sodipodi:type="inkscape:persp3d" />
  </defs>
  <sodipodi:namedview
     id="base"
     pagecolor="#ffffff"
     bordercolor="#666666"
     borderopacity="1.0"
     inkscape:pageopacity="0.0"
     inkscape:pageshadow="2"
     inkscape:zoom="7.5"
     inkscape:cx="270.10282"
     inkscape:cy="520"
     inkscape:document-units="px"
     inkscape:current-layer="layer1"
     showgrid="false"
     inkscape:window-width="1680"
     inkscape:window-height="1024"
     inkscape:window-x="-4"
     inkscape:window-y="-4"
     inkscape:window-maximized="1" />
  <metadata
     id="metadata7">
    <rdf:RDF>
      <cc:Work
         rdf:about="">
        <dc:format>image/svg+xml</dc:format>
        <dc:type
           rdf:resource="http://purl.org/dc/dcmitype/StillImage" />
        <dc:title></dc:title>
      </cc:Work>
    </rdf:RDF>
  </metadata>
  <g
     inkscape:label="Layer 1"
     inkscape:groupmode="layer"
     id="layer1">
    <path
       id="path2838"
       style="fill:#ed1c24;fill-opacity:1;fill-rule:nonzero;stroke:none"
       d="m 212.0557,514.62483 c 18.33047,0 33.4757,1.0335 33.4757,2.3097 0,1.2762 -15.14523,2.3109 -33.4757,2.3109 l 0,-4.6206" />
    <path
       id="path2840"
       style="fill:none;stroke:#ed1c24;stroke-width:0.09174991;stroke-linecap:square;stroke-linejoin:miter;stroke-miterlimit:3.8636899;stroke-opacity:1;stroke-dasharray:none"
       d="m 212.0557,514.62483 c 18.33047,0 33.4757,1.0335 33.4757,2.3097 0,1.2762 -15.14523,2.3109 -33.4757,2.3109 l 0,-4.6206 z" />
    <path
       id="path2842"
       style="fill:#ed1c24;fill-opacity:1;fill-rule:nonzero;stroke:none"
       d="m 212.0557,545.47785 c 18.33047,0 33.4757,1.03476 33.4757,2.31211 0,1.27383 -15.14523,2.3086 -33.4757,2.3086 l 0,-4.62071" />
    <path
       id="path2844"
       style="fill:none;stroke:#ed1c24;stroke-width:0.09174991;stroke-linecap:square;stroke-linejoin:miter;stroke-miterlimit:3.8636899;stroke-opacity:1;stroke-dasharray:none"
       d="m 212.0557,545.47785 c 18.33047,0 33.4757,1.03476 33.4757,2.31211 0,1.27383 -15.14523,2.3086 -33.4757,2.3086 l 0,-4.62071 z" />
    <path
       id="path2846"
       style="fill:#ed1c24;fill-opacity:1;fill-rule:nonzero;stroke:none"
       d="m 212.09086,530.25753 c 18.3293,0 33.47564,1.03476 33.47564,2.31096 0,1.27617 -15.14634,2.31093 -33.47564,2.31093 l 0,-4.62189" />
    <path
       id="path2848"
       style="fill:none;stroke:#ed1c24;stroke-width:0.09174991;stroke-linecap:square;stroke-linejoin:miter;stroke-miterlimit:3.8636899;stroke-opacity:1;stroke-dasharray:none"
       d="m 212.09086,530.25753 c 18.3293,0 33.47564,1.03476 33.47564,2.31096 0,1.27617 -15.14634,2.31093 -33.47564,2.31093 l 0,-4.62189 z" />
  </g>
</svg>
