<?xml version="1.0" encoding="UTF-8" standalone="no"?>
<!-- Created with Inkscape (http://www.inkscape.org/) -->
<svg
   xmlns:dc="http://purl.org/dc/elements/1.1/"
   xmlns:cc="http://web.resource.org/cc/"
   xmlns:rdf="http://www.w3.org/1999/02/22-rdf-syntax-ns#"
   xmlns:svg="http://www.w3.org/2000/svg"
   xmlns="http://www.w3.org/2000/svg"
   xmlns:xlink="http://www.w3.org/1999/xlink"
   xmlns:sodipodi="http://sodipodi.sourceforge.net/DTD/sodipodi-0.dtd"
   xmlns:inkscape="http://www.inkscape.org/namespaces/inkscape"
   width="744.09448819"
   height="1052.3622047"
   id="svg2881"
   sodipodi:version="0.32"
   inkscape:version="0.45.1"
   sodipodi:docbase="I:\High-Res\Logo"
   sodipodi:docname="Cursus-dienst-Skew.svg"
   inkscape:output_extension="org.inkscape.output.svg.inkscape">
  <sodipodi:namedview
     id="base"
     pagecolor="#ffffff"
     bordercolor="#666666"
     borderopacity="1.0"
     gridtolerance="10000"
     guidetolerance="10"
     objecttolerance="10"
     inkscape:pageopacity="0.0"
     inkscape:pageshadow="2"
     inkscape:zoom="2"
     inkscape:cx="375"
     inkscape:cy="520"
     inkscape:document-units="px"
     inkscape:current-layer="layer1"
     inkscape:window-width="1680"
     inkscape:window-height="1024"
     inkscape:window-x="-4"
     inkscape:window-y="-4" />
  <defs
     id="defs2883">
    <linearGradient
       id="linearGradient3682">
      <stop
         offset="0"
         style="stop-color:#0686f4;stop-opacity:1;"
         id="stop3684" />
      <stop
         offset="1"
         style="stop-color:#043b8b;stop-opacity:1;"
         id="stop3686" />
    </linearGradient>
    <linearGradient
       id="linearGradient3698">
      <stop
         offset="0"
         style="stop-color:#0487f9;stop-opacity:1;"
         id="stop3700" />
      <stop
         offset="1"
         style="stop-color:#0357af;stop-opacity:1;"
         id="stop3702" />
    </linearGradient>
    <linearGradient
       id="linearGradient3690">
      <stop
         offset="0"
         style="stop-color:#0552ac;stop-opacity:1;"
         id="stop3692" />
      <stop
         offset="1"
         style="stop-color:#023a85;stop-opacity:1;"
         id="stop3694" />
    </linearGradient>
    <linearGradient
       id="linearGradient2907"
       gradientUnits="userSpaceOnUse"
       inkscape:collect="always"
       x1="461.0152"
       x2="562.9848"
       xlink:href="#linearGradient3682"
       gradientTransform="matrix(0,-1.1,1.1,0,-473.925,1095.5622)"
       y1="823.54112"
       y2="831.54114" />
  </defs>
  <metadata
     id="metadata2886">
    <rdf:RDF>
      <cc:Work
         rdf:about="">
        <dc:format>image/svg+xml</dc:format>
        <dc:type
           rdf:resource="http://purl.org/dc/dcmitype/StillImage" />
      </cc:Work>
    </rdf:RDF>
  </metadata>
  <g
     inkscape:label="Layer 1"
     id="layer1"
     inkscape:groupmode="layer">
    <path
       style="fill:url(#linearGradient2907);fill-opacity:1;fill-rule:evenodd;stroke:none;stroke-width:1px;stroke-linecap:butt;stroke-linejoin:miter;stroke-opacity:1"
       d="M 280.21546,476.27892 L 574.92762,486.17597 C 574.92762,486.17597 583.725,510.36876 583.725,532.3622 C 583.725,554.35564 574.92762,578.54843 574.92762,578.54843 L 280.21546,588.44548 C 280.21546,588.44548 289.01285,566.45204 289.01285,532.3622 C 289.01285,498.27236 280.21546,477.37859 280.21546,476.27892 z "
       sodipodi:nodetypes="cczccsc"
       id="path3672" />
    <path
       style="font-weight:bold;fill:#fcfcfc;fill-opacity:1"
       id="flowRoot3799"
       d="M330.49271291 493.057262789C330.49271291 493.057262789 394.81340303 495.492797104 394.81340303 495.492797104C394.81340303 495.492797104 396.135075339 521.994127807 396.135075339 521.994127807C396.135075339 521.994127807 391.985977944 521.944043534 391.985977944 521.944043534C391.018243811 515.650682235 389.800808491 511.104054404 388.331730096 508.303794493C386.858885576 505.496736567 384.917768924 503.366196092 382.503021928 501.912512866C380.077342348 500.452444136 376.885109691 499.654267155 372.911948609 499.522169297C372.911948609 499.522169297 362.912070698 499.189849401 362.912070698 499.189849401C361.34379632 499.13779298 360.205105439 499.426145276 359.498758478 500.055666958C358.791338994 500.686226459 358.434860422 501.584712529 358.430075236 502.750584627C358.430075236 502.750584627 358.317446303 529.992603307 358.317446303 529.992603307C358.317446303 529.992603307 361.791551776 530.006914456 361.791551776 530.006914456C365.757955486 530.023302438 368.816464495 528.841901431 370.982092405 526.470736139C373.138063217 524.110153344 374.416346817 520.301479738 374.823665757 515.042782657C374.823665757 515.042782657 379.207029724 515.123726153 379.207029724 515.123726153C379.207029724 515.123726153 379.110986229 551.026053419 379.110986229 551.026053419C379.110986229 551.026053419 374.716145093 551.096259202 374.716145093 551.096259202C374.439770962 545.112747226 373.225284807 540.903614202 371.066500645 538.460691736C368.899428904 536.008580391 365.607871262 534.779862172 361.1702065 534.781536478C361.1702065 534.781536478 358.297642441 534.782644025 358.297642441 534.782644025C358.297642441 534.782644025 358.176992893 563.96464141 358.176992893 563.96464141C358.171652847 565.247762729 358.522321832 566.146177336 359.228333933 566.65922829C360.302495787 567.409300169 361.845886277 567.752082499 363.854313183 567.688822612C363.854313183 567.688822612 372.70016605 567.410202734 372.70016605 567.410202734C378.678037134 567.221916343 383.516113712 565.033815438 387.243630803 560.868557179C390.942337646 556.73539591 393.229855342 550.61131837 394.125626986 542.489867665C394.125626986 542.489867665 398.356956554 542.456439655 398.356956554 542.456439655C398.356956554 542.456439655 397.285220819 571.428089324 397.285220819 571.428089324C397.285220819 571.428089324 330.0 573.86218 330.0 573.86218C330.0 573.86218 330.031146471 568.754158732 330.031146471 568.754158732C330.031146471 568.754158732 337.083641474 568.532024663 337.083641474 568.532024663C338.661842287 568.482315706 339.862217852 568.0274471 340.687198752 567.168364073C341.510809067 566.310696328 341.925840618 565.176673812 341.933287812 563.765468731C341.933287812 563.765468731 342.2572873 502.269555159 342.2572873 502.269555159C342.264077957 500.978390663 341.861989631 500.015088738 341.050169027 499.378807999C340.237166622 498.741756751 338.768213764 498.387553596 336.637911608 498.316696158C336.637911608 498.316696158 330.461894681 498.111452322 330.461894681 498.111452322C330.461894681 498.111452322 330.49271291 493.057262789 330.49271291 493.057262789C330.49271291 493.057262789 330.49271291 493.057262789 330.49271291 493.057262789M407.392912326 495.969126361C407.392912326 495.969126361 427.260893755 495.632084951 427.260893755 495.632084951C427.260893755 495.632084951 427.285920429 531.769506812 427.285920429 531.769506812C430.248023974 527.676843279 432.959506226 524.901650564 435.42523217 523.429669781C437.878097743 521.965414734 440.548753188 521.255482779 443.433944678 521.294002743C447.405193632 521.347156892 450.421895637 522.762753597 452.502124283 525.533006709C454.853708361 528.713516722 456.033450103 533.181961669 456.049111183 538.952339008C456.049111183 538.952339008 456.107276914 560.463101224 456.107276914 560.463101224C456.111242946 561.951235644 456.406356146 563.034575424 456.992097758 563.712345618C457.577091731 564.389376265 458.423742492 564.710147379 459.530635996 564.675283298C459.530635996 564.675283298 462.217931576 564.590640926 462.217931576 564.590640926C462.217931576 564.590640926 462.231978392 569.078594218 462.231978392 569.078594218C462.231978392 569.078594218 438.351456101 569.942489082 438.351456101 569.942489082C438.351456101 569.942489082 438.344726438 565.342580801 438.344726438 565.342580801C438.344726438 565.342580801 440.979246585 565.25960071 440.979246585 565.25960071C442.441509308 565.213543482 443.42767952 564.870940428 443.940587331 564.232222826C444.651971833 563.391816262 445.0058493 562.235723204 445.00304903 560.763168957C445.00304903 560.763168957 444.961843762 539.39638124 444.961843762 539.39638124C444.955892029 536.330590514 444.233067879 533.893192484 442.790483154 532.07954791C441.343921521 530.261083373 439.528815693 529.344417948 437.340773767 529.333169534C434.620903524 529.319289241 432.266499504 530.610811651 430.282310656 533.216341425C428.289366443 535.833383848 427.291187378 539.404270145 427.294336916 543.922545281C427.294336916 543.922545281 427.306330936 561.241384474 427.306330936 561.241384474C427.30734878 562.74067481 427.625339735 563.847589466 428.259744984 564.561299067C428.893355377 565.274173458 429.797723071 565.611787747 430.971318244 565.574822748C430.971318244 565.574822748 433.951388333 565.48095879 433.951388333 565.48095879C433.951388333 565.48095879 433.956730861 570.10147139 433.956730861 570.10147139C433.956730861 570.10147139 407.847014183 571.046008944 407.847014183 571.046008944C407.847014183 571.046008944 407.850172794 566.303074825 407.850172794 566.303074825C407.850172794 566.303074825 411.565163914 566.186062889 411.565163914 566.186062889C412.873403651 566.144856958 413.86004706 565.725249848 414.526917467 564.928018419C415.192812927 564.131939759 415.525497946 563.00938456 415.525697125 561.559730613C415.525697125 561.559730613 415.532915547 506.104527308 415.532915547 506.104527308C415.533114061 504.499247671 415.074151808 503.222749469 414.154870175 502.273554948C413.234005438 501.322886273 412.000950103 500.821248623 410.453306843 500.769758556C410.453306843 500.769758556 407.389616918 500.667944801 407.389616918 500.667944801C407.389616918 500.667944801 407.392912326 495.969126361 407.392912326 495.969126361C407.392912326 495.969126361 407.392912326 495.969126361 407.392912326 495.969126361M468.410694959 498.279594473C468.410694959 498.279594473 503.404735672 499.604660899 503.404735672 499.604660899C508.611163306 499.801878425 512.677761992 501.45735973 515.63525713 504.558678454C518.574823743 507.641421908 520.053969042 511.394744771 520.085963074 515.834637513C520.113988407 519.736904185 518.981123375 523.025927575 516.677857419 525.711159642C514.361725883 528.411355872 510.850514009 530.514650503 506.1164032 532.021705467C512.398332298 533.312157949 516.818458729 535.41624311 519.429846059 538.335329577C522.027272903 541.238984738 523.337087313 544.876855204 523.369631945 549.262492638C523.39829383 553.139739506 522.507114077 556.500194142 520.689970601 559.351819611C519.39379144 561.383386193 517.109658209 563.225604053 513.822261042 564.882914739C510.509997492 566.552721261 506.561696971 567.474935148 501.961684998 567.64134385C501.961684998 567.64134385 468.663240541 568.84593874 468.663240541 568.84593874C468.663240541 568.84593874 468.647286776 564.388134035 468.647286776 564.388134035C468.647286776 564.388134035 474.147405407 564.214895524 474.147405407 564.214895524C475.084667595 564.18537436 475.791728515 563.830160417 476.269580419 563.149776355C476.905726986 562.21211051 477.220816145 561.11088834 477.215536976 559.845236336C477.215536976 559.845236336 476.989345462 505.711770641 476.989345462 505.711770641C476.985925499 504.895487249 476.684639255 504.226679233 476.084968171 503.704810077C475.484553211 503.182425407 474.477975669 502.897506237 473.062599052 502.850415307C473.062599052 502.850415307 468.426501804 502.69634669 468.426501804 502.69634669C468.426501804 502.69634669 468.410694959 498.279594473 468.410694959 498.279594473C468.410694959 498.279594473 468.410694959 498.279594473 468.410694959 498.279594473M489.560008666 530.253424399C489.560008666 530.253424399 495.99704128 530.281873477 495.99704128 530.281873477C500.365595034 530.301212694 503.457800189 529.212387046 505.298499761 527.022683963C507.13113032 524.842561385 508.028452283 521.229464359 507.996437121 516.179001245C507.968603427 511.80085771 507.066759743 508.661273857 505.286096197 506.753065427C503.498910153 504.838083847 500.098118474 503.794853744 495.047367302 503.62719315C492.616586807 503.546597856 491.069709996 503.758049827 490.41559606 504.26243898C489.760456591 504.767694421 489.436060514 505.717717351 489.443121562 507.112115773C489.443121562 507.112115773 489.560008666 530.253424399 489.560008666 530.253424399C489.560008666 530.253424399 489.560008666 530.253424399 489.560008666 530.253424399M489.581687315 534.545363096C489.581687315 534.545363096 489.708721565 559.695603668 489.708721565 559.695603668C489.715327307 561.006969877 489.953674469 561.999335857 490.423443142 562.67208607C490.892741955 563.344229044 491.527800077 563.667461205 492.327902004 563.642260209C492.327902004 563.642260209 499.695647957 563.410196607 499.695647957 563.410196607C503.260303497 563.297919826 506.033641339 562.028886705 508.029215077 559.611026517C510.01530536 557.204565179 510.990023373 553.734338979 510.960363439 549.194000279C510.929260224 544.443476995 509.841161531 540.821713507 507.689081133 538.318214497C505.527578481 535.803908784 502.38348964 534.543023074 498.235953658 534.543759611C498.235953658 534.543759611 489.581687315 534.545363096 489.581687315 534.545363096C489.581687315 534.545363096 489.581687315 534.545363096 489.581687315 534.545363096" />
    <path
       style="fill:none;fill-rule:evenodd;stroke:#000000;stroke-width:1px;stroke-linecap:butt;stroke-linejoin:miter;stroke-opacity:1"
       d="M 330,573.86218 L 330.5,491.86218 L 523,499.36218 L 523.5,566.86218 L 330,573.86218 z "
       id="path4094" />
  </g>
</svg>
