<?xml version="1.0" encoding="UTF-8" standalone="no"?>
<!-- Created with Inkscape (http://www.inkscape.org/) -->

<svg
   xmlns:dc="http://purl.org/dc/elements/1.1/"
   xmlns:cc="http://creativecommons.org/ns#"
   xmlns:rdf="http://www.w3.org/1999/02/22-rdf-syntax-ns#"
   xmlns:svg="http://www.w3.org/2000/svg"
   xmlns="http://www.w3.org/2000/svg"
   xmlns:xlink="http://www.w3.org/1999/xlink"
   xmlns:sodipodi="http://sodipodi.sourceforge.net/DTD/sodipodi-0.dtd"
   xmlns:inkscape="http://www.inkscape.org/namespaces/inkscape"
   sodipodi:docname="Cursusdienst-Skyline.svg"
   inkscape:version="0.47 r22583"
   version="1.1"
   id="svg4469"
   height="1052.3622047"
   width="744.09448819">
  <defs
     id="defs4471">
    <inkscape:perspective
       sodipodi:type="inkscape:persp3d"
       inkscape:vp_x="0 : 526.18109 : 1"
       inkscape:vp_y="0 : 1000 : 0"
       inkscape:vp_z="744.09448 : 526.18109 : 1"
       inkscape:persp3d-origin="372.04724 : 350.78739 : 1"
       id="perspective4477" />
    <inkscape:perspective
       id="perspective4487"
       inkscape:persp3d-origin="0.5 : 0.33333333 : 1"
       inkscape:vp_z="1 : 0.5 : 1"
       inkscape:vp_y="0 : 1000 : 0"
       inkscape:vp_x="0 : 0.5 : 1"
       sodipodi:type="inkscape:persp3d" />
    <inkscape:perspective
       id="perspective4503"
       inkscape:persp3d-origin="0.5 : 0.33333333 : 1"
       inkscape:vp_z="1 : 0.5 : 1"
       inkscape:vp_y="0 : 1000 : 0"
       inkscape:vp_x="0 : 0.5 : 1"
       sodipodi:type="inkscape:persp3d" />
    <linearGradient
       inkscape:collect="always"
       xlink:href="#linearGradient3698"
       id="linearGradient4464"
       gradientUnits="userSpaceOnUse"
       x1="154"
       y1="718"
       x2="462"
       y2="934"
       gradientTransform="matrix(1.1,0,0,1.1,-51.2,-76.983334)" />
    <linearGradient
       id="linearGradient3698">
      <stop
         offset="0"
         style="stop-color:#0487f9;stop-opacity:1;"
         id="stop3700" />
      <stop
         offset="1"
         style="stop-color:#0357af;stop-opacity:1;"
         id="stop3702" />
    </linearGradient>
    <linearGradient
       y2="934"
       x2="462"
       y1="718"
       x1="154"
       gradientTransform="matrix(1.1,0,0,1.1,-115.29286,-603.86639)"
       gradientUnits="userSpaceOnUse"
       id="linearGradient4512"
       xlink:href="#linearGradient3698"
       inkscape:collect="always" />
  </defs>
  <sodipodi:namedview
     id="base"
     pagecolor="#ffffff"
     bordercolor="#666666"
     borderopacity="1.0"
     inkscape:pageopacity="0.0"
     inkscape:pageshadow="2"
     inkscape:zoom="1.5"
     inkscape:cx="226.82605"
     inkscape:cy="649.0359"
     inkscape:document-units="px"
     inkscape:current-layer="layer1"
     showgrid="false"
     inkscape:window-width="1680"
     inkscape:window-height="1024"
     inkscape:window-x="-4"
     inkscape:window-y="-4"
     inkscape:window-maximized="1" />
  <metadata
     id="metadata4474">
    <rdf:RDF>
      <cc:Work
         rdf:about="">
        <dc:format>image/svg+xml</dc:format>
        <dc:type
           rdf:resource="http://purl.org/dc/dcmitype/StillImage" />
        <dc:title></dc:title>
      </cc:Work>
    </rdf:RDF>
  </metadata>
  <g
     inkscape:label="Layer 1"
     inkscape:groupmode="layer"
     id="layer1">
    <path
       style="fill:#000000"
       d="m -42.833333,807.98124 0,-150 5,0 c 2.75,0 5,-0.45 5,-1 0,-0.55 0.675,-1 1.5,-1 1.52721,0 2.09933,-7.16484 1.53712,-19.25 -0.13498,-2.9015 0.20396,-4.75 0.87096,-4.75 0.71212,0 1.09192,-3.2838 1.09192,-9.44098 0,-5.2153 0.44759,-9.71761 1,-10.05902 0.55,-0.33992 1,-2.97648 1,-5.85902 0,-2.88254 0.45153,-5.69251 1.00341,-6.24439 1.66031,-1.66031 3.12624,-16.45773 2.01445,-20.33433 -0.92753,-3.23408 -0.86164,-4.76872 0.62524,-14.56226 0.33401,-2.2 0.70762,-6.75137 0.83025,-10.11417 0.12957,-3.55331 0.86852,-7.03583 1.76427,-8.31469 0.84772,-1.21029 1.31566,-3.06339 1.03987,-4.11801 -0.3659,-1.39923 0.22268,-2.1928 2.17768,-2.93609 2.09159,-0.79522 2.53662,-1.46754 2.02935,-3.0658 -0.35736,-1.12597 -0.21202,-2.58812 0.32298,-3.24923 0.53501,-0.6611 0.96172,-2.77701 0.94824,-4.70201 -0.0135,-1.925 0.23172,-4.175 0.54488,-5 1.19898,-3.15861 2.49792,-11.36142 2.00326,-12.65049 -0.28608,-0.74551 0.12307,-1.34951 0.9141597,-1.34951 0.94075,0 1.44572,1.11495 1.47196,3.25 0.0567,4.60947 0.75637,10.07595 1.44002,11.25 0.32027,0.55 0.46887,2.9125 0.33023,5.25 -0.14042,2.36758 0.19639,4.25 0.76042,4.25 0.55687,0 0.79959,1.11369 0.53939,2.47486 -0.30669,1.60432 0.17994,3.06585 1.38342,4.15499 1.02109,0.92407 1.85652,2.87038 1.85652,4.32514 0,1.45475 0.4559,3.10091 1.01309997,3.65811 1.17735,1.17735 1.47751,28.73726 0.41537,38.1369 -0.46161,4.08508 -0.34881,6.25 0.32565,6.25 0.56755,0 1.30884003,-0.72169 1.64732003,-1.60375 0.37618,-0.9803 1.24211,-1.36327 2.22751,-0.98514 1.27975,0.49108 1.48672,0.1517 1.00396,-1.64625 -0.33447,-1.24567 -0.324,-5.75236 0.0233,-10.01486 0.5423,-6.65648 0.8933,-7.75 2.48761,-7.75 1.23564,0 1.8818,-0.75224 1.93273,-2.25 0.0421,-1.2375 0.24463,-3.15 0.45011,-4.25 0.20548,-1.1 0.6856703,-8.40183 1.0670903,-16.22628 0.64121,-13.15381 0.55749,-14.27847 -1.1105703,-14.91857 -1.64884,-0.63271 -1.61817,-0.76105 0.3563903,-1.49149 2.78424,-1.02996 2.89447,-4.85895 0.16047,-5.57391 -2.5160903,-0.65797 -2.6215703,-2.28975 -0.14802,-2.28975 1.61272,0 1.95315,-1.19501 2.63511,-9.25 0.43072,-5.0875 0.83482,-10.93253 0.89802,-12.98895 0.0632,-2.05642 0.67739,-3.95479 1.36489,-4.21861 1.26651,-0.48601 1.62504,0.53471 1.3023,3.70756 -0.29334,2.88373 2.74344,1.9752 3.34253,-1 0.30456,-1.5125 2.3914,-15.125 4.63743,-30.25 2.24602,-15.125 4.40267,-28.53522 4.79255,-29.8005 0.44646,-1.44893 2.3085,9.10085 5.03025,28.5 2.37676,16.94028 4.55547,31.813 4.84157,33.0505 0.68965,2.98297 3.50588,2.98297 3.26425,0 -0.35267,-4.35373 -0.10379,-4.95895 1.45552,-3.53943 0.86496,0.78743 1.05962,1.65928 0.5,2.23943 -0.50402,0.5225 -0.8642,4.1225 -0.8004,8 0.0638,3.8775 0.33248,6.15 0.59707,5.05 1.205042,-5.00993 2.286932,-3.43355 2.286932,3.33222 0,6.57635 0.20405,7.31091 2.25,8.09984 1.88241,0.72587 1.98483,0.97519 0.62694,1.52606 -1.35108,0.5481 -1.64714,2.56414 -1.76676,12.03078 -0.0858,6.78747 0.26622,11.62569 0.87306,12.00074 0.56865,0.35145 1.01676,4.64437 1.01676,9.74064 0,7.27491 0.35286,9.50219 1.75,11.04619 1.44831,1.60054 1.71672,3.62223 1.55692,11.72699 -0.17295,8.77198 -5.9e-4,9.84339 1.65315,10.27585 1.73917,0.4548 1.82276,-0.26071 1.44136,-12.33818 -0.2681,-8.48996 -0.0414,-13.04558 0.67097,-13.48587 0.65189,-0.40289 1.00165,-3.8746 0.88758,-8.81008 -0.18631,-8.06149 1.09229,-13.59339 3.93304,-17.01628 0.7319,-0.88189 1.04762,-2.3412 0.7016,-3.24291 -0.34602,-0.90172 -0.15557,-2.21008 0.42321,-2.90748 0.57879,-0.69739 0.98326,-1.65286 0.89884,-2.12325 -0.0844,-0.47039 -0.0323,-1.30526 0.11587,-1.85526 0.14816,-0.55 0.38405,-2.35 0.5242,-4 0.7577,-8.92048 1.8092,-15.5 2.47711,-15.5 0.64177,0 1.48083,4.02088 2.08675,10 0.0836,0.825 0.54844,2.00546 1.03296,2.62325 0.48452,0.61779 0.63323,1.7688 0.33046,2.55779 -0.30277,0.789 0.11778,4.29911 0.93454,7.80025 0.81676,3.50114 1.25557,6.73696 0.97514,7.19071 -0.28044,0.45376 0.52876,0.71318 1.79821,0.5765 1.87589,-0.20197 2.2613,0.18517 2.0582,2.06744 -0.13745,1.27377 0.2754,3.29747 0.91743,4.49712 0.64203,1.19964 1.07024,4.30893 0.95158,6.90952 -0.11866,2.60059 0.27992,5.65452 0.88575,6.78651 0.62709,1.17174 1.24186,9.04233 1.4274,18.27454 0.34456,17.14427 1.17459,26.91796 2.56613,30.21637 0.46407,1.1 1.08951,4.73721 1.38986,8.08268 0.75441,8.40298 1.26726,9.41837 4.56313,9.03462 1.5185,-0.1768 3.31855,-0.6661 4.00011,-1.08733 0.68156,-0.42123 2.34907,-0.17189 3.70556,0.55409 1.94175,1.03919 2.87576,1.06428 4.391081,0.11795 4.20693,-2.62727 4.57132,-1.81906 4.24527,9.41598 -0.30707,10.5811 -0.30023,10.61647 1.96992,10.1825 2.20975,-0.42242 2.28673,-0.17929 2.56747,8.10879 0.15918,4.69935 0.4349,8.68975 0.61272,8.86757 0.17782,0.17782 1.78518,-2.05254 3.57191,-4.95635 l 3.2486,-5.27965 3.36798,3.89619 c 1.8524,2.1429 3.36799,4.49621 3.36799,5.22957 0,0.73336 0.45,1.33339 1,1.33339 0.55,0 1,0.6375 1,1.41667 0,0.77916 0.55781,1.6026 1.23958,1.82986 0.77264,0.25754 1.11885,1.81455 0.91908,4.13336 -0.17629,2.04609 0.16831,4.30916 0.76577,5.02905 0.72649,0.87537 0.81369,3.30206 0.26328,7.32678 -0.48746,3.56438 -0.43623,6.98546 0.12565,8.39109 0.52176,1.30525 0.86071,7.66069 0.75324,14.12319 l -0.19541,11.75 2.5644,0 c 2.45151,0 2.56441,-0.25003 2.56441,-5.679 0,-5.71452 1.71631,-12.321 3.20089,-12.321 0.43951,0 0.79911,-1.575 0.79911,-3.5 0,-1.925 0.49449,-3.5 1.09887,-3.5 0.60438,0 2.60457,-0.7145 4.44487,-1.58778 2.77427,-1.31648 3.39813,-2.21353 3.65113,-5.25 l 0.30513,-3.66222 6,-0.18398 c 3.3,-0.10119 11.9625,-0.21369 19.25,-0.25 l 13.25,-0.066 0,-8.97178 0,-8.97178 13.75,-0.27822 13.75,-0.27822 0.29569,-6.75 0.29569,-6.75 11.45432,0 11.4543,0 0,-5 0,-5 9.4596,0 9.4595,0 0.2905,-8.25 c 0.2707,-7.69161 0.4427,-8.27163 2.5404,-8.56955 2.0115,-0.28569 2.25,-0.88374 2.25,-5.64301 0,-3.9054 0.4164,-5.48327 1.5634,-5.92339 0.8741,-0.33545 1.2472,-1.11153 0.8461,-1.76042 -0.3944,-0.63828 -0.6826,-2.89146 -0.6403,-5.00707 0.042,-2.11561 0.1116,-5.64656 0.1539,-7.84656 0.056,-2.92329 0.4965,-4 1.6359,-4 0.8575,0 1.2809,-0.45 0.941,-1 -1.4334,-2.31921 1.4211,-0.76931 2.9884,1.6226 1.5821,2.41463 2.0312,7.16207 1.36,14.3774 -0.1279,1.375 -0.1461,5.3125 -0.04,8.75 l 0.1921,6.25 9.9074,0 9.9075,0 0.5889,-5.75 c 0.324,-3.1625 0.5797,-8.81216 0.5684,-12.5548 -0.019,-6.32879 2.0504,-12.6952 4.1268,-12.6952 1.4918,0 2.3329,5.15892 2.8531,17.5 l 0.5479,13 10.25,0.28498 10.25,0.28499 0.1719,-5.28499 c 0.628,-19.30172 1.3432,-24.30008 3.8331,-26.79 1.5902,-1.59019 1.6978,-1.53534 1.7775,0.90619 0.4047,12.39634 0.9221,19.13675 1.5144,19.72911 0.3867,0.38668 0.7031,3.10305 0.7031,6.03639 l 0,5.33333 10,0 10,0 0.015,-4.75 c 0.01,-2.6125 0.4172,-5.38481 0.9083,-6.16069 0.4912,-0.77589 0.5564,-2.32071 0.145,-3.43296 -0.4115,-1.11224 -0.3397,-3.93739 0.1596,-6.27811 0.6271,-2.94022 0.5467,-4.93034 -0.26,-6.43772 -0.9213,-1.7214 -0.9036,-2.01864 0.084,-1.40842 0.7518,0.46466 1.7771,0.0545 2.5682,-1.02734 1.2247,-1.67487 1.3996,-1.59815 2.5011,1.09722 1.7136,4.19289 2.0097,6.39802 0.859,6.39802 -0.5821,0 -0.3655,1.53559 0.5134,3.63903 1.2291,2.94179 1.2796,3.93095 0.2634,5.16262 -1.0041,1.21692 -1.0055,1.60828 -0.01,1.9443 0.8117,0.27322 1.25,2.4951 1.25,6.33738 0,5.25 0.2253,5.91667 2,5.91667 1.8095,0 2,0.66667 2,7 l 0,7 8.5,0 8.5,0 0,6.5 0,6.5 12.4543,0 12.4543,0 0.2957,6.75 0.2957,6.75 13.25,0.27903 13.25,0.27902 0,7.97098 0,7.97097 10.8824,0 10.8825,0 0.626,-41.25 c 0.3443,-22.6875 0.9597,-68.475 1.3676,-101.75 l 0.7415,-60.5 7.25,0.35329 7.25,0.35328 0,-5.54427 c 0,-3.04934 0.3901,-5.78538 0.8669,-6.08007 0.4769,-0.2947 8.6613,-1.24686 18.1876,-2.11592 9.5263,-0.86906 17.7033,-1.81665 18.1711,-2.10576 0.4678,-0.28912 0.7209,-5.54214 0.5625,-11.67339 l -0.2882,-11.14775 3.5,0.24676 c 1.925,0.13572 4.0094,-0.0981 4.632,-0.51971 0.7073,-0.47896 1.7463,-9.76936 2.7696,-24.76648 1.6493,-24.16952 2.483,-32.97124 3.0634,-32.34166 0.1732,0.18791 0.8463,12.26665 1.4958,26.84166 0.6494,14.575 1.3754,27.4841 1.6132,28.68688 0.3208,1.6224 1.2705,2.26771 3.6792,2.5 l 3.2468,0.31312 1,12 1,12 12,0.5 12,0.5 0.5,6 0.5,6 6,0.30491 c 3.3,0.1677 6.4256,0.72829 6.9458,1.24576 0.5201,0.51746 0.8426,2.68884 0.7165,4.82527 -0.1446,2.45016 0.2447,4.03788 1.0543,4.30004 0.7058,0.22859 13.8834,0.17001 29.2834,-0.13018 l 28,-0.5458 0.5,-13 0.5,-13 70.5,0.34522 c 38.775,0.18988 70.8221,0.64705 71.2159,1.01595 0.3938,0.36889 1.2144,42.96354 1.8236,94.65477 0.6091,51.69123 1.412,102.53406 1.784,112.98406 l 0.6765,19 11.5,0.5 11.5,0.5 1,8 c 0.55,4.4 1.3375,7.8875 1.75,7.75 0.4125,-0.1375 4.35,-0.25 8.75,-0.25 l 8,0 0,-15 0,-15 13.3463,0 13.3463,0 0.6537,-12.157 c 0.3595,-6.68635 0.6537,-17.00183 0.6537,-22.92328 0,-10.1686 0.1461,-10.93988 2.6315,-13.89371 l 2.6316,-3.12744 2.3684,2.22503 c 1.8567,1.74424 2.3685,3.26777 2.3685,7.05071 0,2.65413 0.3206,4.82569 0.7124,4.82569 0.3918,0 1.6709,-1.20203 2.8424,-2.67117 l 2.1299,-2.67117 1.7834,3.01909 1.7834,3.01909 16.534,0.65208 c 9.0936,0.35864 21.7935,0.65208 28.222,0.65208 l 11.6881,0 0.6751,-37.75 c 0.6175,-34.53545 1.5962,-47.25 3.6369,-47.25 0.3462,0 1.3574,1.4625 2.247,3.25 l 1.6175,3.25 0.064,-6.78138 c 0.049,-5.16641 0.4337,-6.92329 1.6167,-7.37725 1.3341,-0.51192 1.4604,-2.23326 0.897,-12.21862 -0.6075,-10.76714 -0.3458,-13.42632 3.5544,-36.12275 2.3155,-13.475 4.3195,-24.62017 4.4533,-24.76704 0.1338,-0.14688 2.5608,11.32812 5.3934,25.5 4.2614,21.32043 5.15,27.60103 5.1496,36.3946 -4e-4,8.22721 0.3383,10.90872 1.4995,11.87244 1.1252,0.93385 1.5312,3.6504 1.6248,10.87244 0.1136,8.76622 0.1944,9.14862 0.9033,4.2742 1.7751,-12.20476 5.102,-7.47477 5.9098,8.40213 0.4144,8.14502 1.0251,11.75413 2.3238,13.73267 1.5116,2.30287 1.8665,6.34206 2.5,28.45123 l 0.7383,25.76733 23.75,0.2681 23.74999,0.2681 0,-11.21435 c 0,-10.4876 0.1708,-11.46085 2.636,-15.0181 1.4498,-2.09206 2.9123,-3.78685 3.25,-3.7662 0.3377,0.0206 2.3085,1.48894 4.3795,3.26287 3.48,2.98081 3.8134,3.73851 4.3976,9.99466 0.3477,3.72314 1.0157,7.00641 1.4845,7.29615 0.4688,0.28974 0.8524,1.40025 0.8524,2.46779 0,1.47792 0.6962,1.94098 2.9184,1.94098 3.6418,0 6.5901,-4.35999 7.6074,-11.25 0.6923,-4.6889 2.6479,-6.3458 3.8358,-3.25 0.7714,2.01026 4.6384,1.94913 4.6384,-0.0733 0,-0.96444 0.6773,-1.43852 1.75,-1.225 1.3668,0.27206 1.6781,1.16397 1.4218,4.07333 -0.3582,4.06503 0.3989,4.68964 2.3937,1.97499 1.196,-1.62757 1.4974,-1.54798 4.3087,1.13775 1.6625,1.58826 3.1585,3.83826 3.3243,5 0.2972,2.08201 2.1833,2.55791 2.4265,0.61225 0.069,-0.55 0.2142,-1.3375 0.3232,-1.75 0.109,-0.4125 0.139,-3.90322 0.067,-7.75715 -0.1228,-6.54739 0.064,-7.19421 2.8445,-9.85827 l 2.976,-2.85113 3.5525,2.83463 c 1.9539,1.55905 3.7663,3.97027 4.0276,5.35827 0.2613,1.38801 1.4964,16.62633 2.7446,33.86294 l 2.2695,31.33929 3.7852,1.93104 3.7851,1.93103 0,134.97967 -2e-4,134.97966 -567.49999,0 -567.500003,0 0,-150 z m 629.051043,-125 10.8874,0 0.2808,-12.25 0.2808,-12.25 14.6492,-0.27616 c 10.0936,-0.19027 14.9384,-0.65674 15.5791,-1.5 0.5628,-0.74067 0.7533,-29.29302 0.4826,-72.32107 l -0.4474,-71.09723 -17.1318,-0.6042 c -9.4224,-0.33232 -22.0817,-0.51356 -28.1317,-0.40277 l -11,0.20143 -0.5345,84.5 c -0.3311,52.35252 -0.175,84.99287 0.4102,85.79551 0.5196,0.71253 1.5844,1.05003 2.3663,0.75 0.7818,-0.30003 6.3209,-0.54551 12.309,-0.54551 z M -9.5821133,605.72293 c 0.22843,-1.55636 0.0403,-3.06149 -0.4179497,-3.34474 -0.4583,-0.28324 -0.83327,0.27258 -0.83327,1.23516 0,1.58014 -0.14262,1.56159 -1.4682,-0.19098 -1.38096,-1.8258 -1.47008,-1.73105 -1.5,1.59458 -0.0255,2.82969 0.35119,3.53572 1.88615,3.53572 1.3409,0 2.0429097,-0.85138 2.3332697,-2.82974 z m 0.74878,-17.24169 c 0,-2.475 -0.45,-4.5 -1,-4.5 -0.5499997,0 -0.9999997,2.025 -0.9999997,4.5 0,2.475 0.45,4.5 0.9999997,4.5 0.55,0 1,-2.025 1,-4.5 z m 77.0000023,0.3 c 0,-2.83457 -0.32917,-3.87083 -1.0125,-3.1875 -0.89224,0.89224 -0.33174,7.3875 0.6375,7.3875 0.20625,0 0.375,-1.89 0.375,-4.2 z m -80.070282,-1.05 c -0.0544,-3.29154 -0.26411,-3.79896 -0.92972,-2.25 -1.19837,2.78876 -1.19837,6.5 0,6.5 0.55,0 0.96837,-1.9125 0.92972,-4.25 z m 21.5702797,0.91667 c 0,-2.60655 -1.9609,-2.44297 -2.33415,0.19471 -0.22908,1.61892 0.0853,2.22156 1,1.91667 0.73379,-0.24459 1.33415,-1.19472 1.33415,-2.11138 z"
       id="path4493" />
    <path
       style="fill:none;stroke:#000000;stroke-width:1px;stroke-linecap:butt;stroke-linejoin:miter;stroke-opacity:1"
       d="m 113.33333,299.69552 -30,-300.00000433 338,114.66666433 19.33333,294 -327.33333,-108.66666 z"
       id="path5127" />
  </g>
</svg>
