<?xml version="1.0" encoding="UTF-8" standalone="no"?>
<!-- Created with Inkscape (http://www.inkscape.org/) -->

<svg
   xmlns:dc="http://purl.org/dc/elements/1.1/"
   xmlns:cc="http://creativecommons.org/ns#"
   xmlns:rdf="http://www.w3.org/1999/02/22-rdf-syntax-ns#"
   xmlns:svg="http://www.w3.org/2000/svg"
   xmlns="http://www.w3.org/2000/svg"
   xmlns:xlink="http://www.w3.org/1999/xlink"
   xmlns:sodipodi="http://sodipodi.sourceforge.net/DTD/sodipodi-0.dtd"
   xmlns:inkscape="http://www.inkscape.org/namespaces/inkscape"
   width="744.09448819"
   height="1052.3622047"
   id="svg4469"
   version="1.1"
   inkscape:version="0.47 r22583"
   sodipodi:docname="Cursusdienst-Skyline.svg">
  <sodipodi:namedview
     id="base"
     pagecolor="#ffffff"
     bordercolor="#666666"
     borderopacity="1.0"
     inkscape:pageopacity="0.0"
     inkscape:pageshadow="2"
     inkscape:zoom="1.5"
     inkscape:cx="226.82605"
     inkscape:cy="809.0359"
     inkscape:document-units="px"
     inkscape:current-layer="layer1"
     showgrid="false"
     inkscape:window-width="1680"
     inkscape:window-height="1024"
     inkscape:window-x="-4"
     inkscape:window-y="-4"
     inkscape:window-maximized="1" />
  <defs
     id="defs4471">
    <inkscape:perspective
       id="perspective4477"
       inkscape:persp3d-origin="372.04724 : 350.78739 : 1"
       inkscape:vp_z="744.09448 : 526.18109 : 1"
       inkscape:vp_y="0 : 1000 : 0"
       inkscape:vp_x="0 : 526.18109 : 1"
       sodipodi:type="inkscape:persp3d" />
    <inkscape:perspective
       sodipodi:type="inkscape:persp3d"
       inkscape:vp_x="0 : 0.5 : 1"
       inkscape:vp_y="0 : 1000 : 0"
       inkscape:vp_z="1 : 0.5 : 1"
       inkscape:persp3d-origin="0.5 : 0.33333333 : 1"
       id="perspective4487" />
    <inkscape:perspective
       sodipodi:type="inkscape:persp3d"
       inkscape:vp_x="0 : 0.5 : 1"
       inkscape:vp_y="0 : 1000 : 0"
       inkscape:vp_z="1 : 0.5 : 1"
       inkscape:persp3d-origin="0.5 : 0.33333333 : 1"
       id="perspective4503" />
    <linearGradient
       gradientTransform="matrix(1.1,0,0,1.1,-51.2,-76.983334)"
       y2="934"
       x2="462"
       y1="718"
       x1="154"
       gradientUnits="userSpaceOnUse"
       id="linearGradient4464"
       xlink:href="#linearGradient3698"
       inkscape:collect="always" />
    <linearGradient
       id="linearGradient3698">
      <stop
         id="stop3700"
         style="stop-color:#0487f9;stop-opacity:1;"
         offset="0" />
      <stop
         id="stop3702"
         style="stop-color:#0357af;stop-opacity:1;"
         offset="1" />
    </linearGradient>
    <linearGradient
       inkscape:collect="always"
       xlink:href="#linearGradient3698"
       id="linearGradient4512"
       gradientUnits="userSpaceOnUse"
       gradientTransform="matrix(1.1,0,0,1.1,-115.29286,-603.86639)"
       x1="154"
       y1="718"
       x2="462"
       y2="934" />
  </defs>
  <metadata
     id="metadata4474">
    <rdf:RDF>
      <cc:Work
         rdf:about="">
        <dc:format>image/svg+xml</dc:format>
        <dc:type
           rdf:resource="http://purl.org/dc/dcmitype/StillImage" />
        <dc:title></dc:title>
      </cc:Work>
    </rdf:RDF>
  </metadata>
  <g
     id="layer1"
     inkscape:groupmode="layer"
     inkscape:label="Layer 1">
    <path
       id="path4493"
       d="M105.687567677 223.230639752C105.687567677 223.230639752 97.9149779355 145.504681398 97.9149779355 145.504681398C97.9149779355 145.504681398 99.3934122109 146.001015462 99.3934122109 146.001015462C100.206504308 146.273983502 100.848301079 146.262248575 100.819655844 145.974932184C100.791008878 145.68759842 100.967157039 145.519504142 101.211095063 145.601404225C101.662656381 145.753012035 101.458885593 142.065182119 100.662774482 135.686406136C100.471479193 134.153668566 100.47538762 133.2192072 100.672867227 133.285569406C100.883703413 133.356420035 100.824888387 131.673838374 100.50360445 128.446441465C100.231297696 125.711035559 100.128751013 123.392937723 100.274640656 123.268787709C100.419898117 123.145175976 100.415560077 121.805824568 100.264953329 120.292018582C100.114298723 118.777731546 100.101303001 117.346158048 100.236126254 117.111164984C100.641779677 116.404122697 100.303030871 108.765558658 99.7700707014 106.612846998C99.3252603149 104.816199221 99.2644177234 104.014030338 99.1927848613 98.9984388123C99.176683095 97.8710158517 99.0490107166 95.5059521527 98.9090257908 93.7423858899C98.7610519833 91.8782000981 98.79798927 90.1118070348 98.9972841715 89.5255959095C99.1859162894 88.9707469913 99.2278510324 88.0378195411 99.0904370885 87.4524157141C98.9080981479 86.6756156655 99.0415550272 86.314879503 99.5842538925 86.117826372C100.164901446 85.9069949239 100.262063565 85.5959421756 100.027267163 84.6993179393C99.8618308049 84.0675502676 99.8283521503 83.3082132148 99.9528973244 83.0119554455C100.077454116 82.7156846678 100.093439497 81.6382065126 99.9883919688 80.6173852385C99.8833160792 79.5963442177 99.8381966534 78.4288691659 99.8881350067 78.0231569185C100.079372862 76.4695155801 100.035530473 72.2497978272 99.8203892781 71.5160266691C99.6959508291 71.0916130166 99.7861456456 70.8122227348 100.02191796 70.8918208887C100.302290631 70.9864763916 100.511337824 71.6289727752 100.63125953 72.7644492513C100.890082482 75.2149760639 101.385192056 78.1830416758 101.650316263 78.8738540797C101.774505982 79.1974418871 101.942529188 80.4638993411 102.023691954 81.6879384368C102.105879143 82.9274092474 102.304675905 83.9576780884 102.472537674 84.0142974406C102.638267157 84.0701975784 102.768770083 84.6839780571 102.762549547 85.378159586C102.755216112 86.196213192 102.976440207 87.0181892506 103.39141649 87.7149913175C103.74345673 88.3061114033 104.093612981 89.4190238307 104.16957096 90.1880850872C104.245516199 90.9570173516 104.467003703 91.8726744933 104.661759609 92.2229554556C105.073229322 92.9630100454 106.597243612 107.53092923 106.770457011 112.373043505C106.845679068 114.475882999 106.991544315 115.625599259 107.191586465 115.692921919C107.359917978 115.749572607 107.542333512 115.444097196 107.596963106 115.014055852C107.657683486 114.536071988 107.894676593 114.421109047 108.206582849 114.718357055C108.611632659 115.10437048 108.655432322 114.946560085 108.419032101 113.952746187C108.255218816 113.26408433 108.024555907 110.893704287 107.906429359 108.68439689C107.721831696 105.23219708 107.769264873 104.691028375 108.242669905 104.850482259C108.609565839 104.974061388 108.762402624 104.642248142 108.699818893 103.85791368C108.648108235 103.20977457 108.609007071 102.221686628 108.612947107 101.662186957C108.616887608 101.102621019 108.38042444 97.2980155494 108.087244811 93.204377792C107.593807207 86.3145635163 107.510363223 85.711113373 106.980713754 85.204993114C106.457118112 84.704664658 106.459556306 84.6398211541 107.009080234 84.4514378658C107.783987565 84.1857910793 107.617477672 82.1697602784 106.766439006 81.5165821371C105.983141237 80.9153981054 105.866614808 80.0404511175 106.603027272 80.2889357894C107.08314318 80.4509393538 107.122228487 79.8520919627 106.905466167 75.6514216205C106.768460442 72.9963850605 106.58391236 69.9350525174 106.495416725 68.8495865815C106.406901001 67.763874248 106.490887588 66.8173606948 106.682081583 66.7464430144C107.034307862 66.6157942693 107.194452611 67.1941202316 107.263753637 68.8467044984C107.326716186 70.3482020929 108.184380523 70.1715261126 108.207919248 68.6521650526C108.219888836 67.8795819311 108.132547546 60.854711191 108.013650444 53.0297686571C107.894554549 45.191938621 107.83821671 38.2486385594 107.888637608 37.6118706141C107.946382418 36.8825720896 109.054295239 42.7071933903 110.878446313 53.3285104879C112.468111401 62.5845145742 113.888675222 70.7054899925 114.037998388 71.3911362444C114.397855642 73.0434760617 115.236801282 73.326766061 115.010578962 71.7195886383C114.680264081 69.3729026683 114.723117417 69.0765839543 115.261239259 69.9872601396C115.559697881 70.4923541807 115.662765651 70.974754477 115.526008584 71.2263810128C115.402844774 71.4529901653 115.481620893 73.3270994648 115.700975118 75.3902710474C115.920234943 77.4525547295 116.117552416 78.6840352208 116.139547508 78.127641784C116.239748111 75.5927254985 116.643297706 76.5373729198 116.992284664 80.1232180694C117.331250655 83.6060976715 117.429811088 84.015454688 118.07917857 84.6384642988C118.676572317 85.2116107314 118.71986738 85.3538403058 118.34424216 85.5090729524C117.970515537 85.6635169503 117.986220744 86.7005539605 118.437666973 91.6944886457C118.761048287 95.2718668121 119.114169288 97.8616257854 119.31371684 98.1203609966C119.500697355 98.3628029882 119.854075597 100.672866102 120.115408174 103.360553562C120.488204882 107.194599254 120.706996947 108.403084432 121.200632802 109.355846361C121.712247894 110.343306116 121.895252813 111.434361094 122.262027799 115.682433531C122.658630624 120.275960707 122.764387534 120.856008836 123.276546374 121.248114106C123.815122703 121.660444274 123.803427949 121.292961496 123.074370635 114.906758129C122.561291948 110.412406295 122.395751441 108.036087324 122.584659281 107.875386971C122.757536189 107.728334958 122.683930373 105.934188805 122.397738012 103.321248786C121.929944533 99.0502644152 122.02661418 96.2581536687 122.695581826 94.7350895289C122.867972942 94.342596511 122.887142921 93.6032968534 122.738154066 93.0921841589C122.589149074 92.5810125796 122.578788297 91.9086603291 122.715148497 91.5980891768C122.85152152 91.2875030438 122.922869961 90.8229847759 122.873695853 90.5658438335C122.824525072 90.3086911951 122.797279781 89.8725010763 122.813181754 89.5965429836C122.829081685 89.3205677102 122.807076573 88.3922820385 122.764273636 87.5335597971C122.532732041 82.8883207138 122.508449926 79.5087070949 122.707262143 79.5758221795C122.898291576 79.6403099492 123.353974017 81.8547238162 123.840278968 85.0812978711C123.907352331 85.5263307193 124.105999341 86.1976877056 124.281705332 86.5732150708C124.45739804 86.9487140499 124.560455966 87.5725758765 124.510736264 87.9595654092C124.461021189 88.3465282037 124.765418924 90.2449373527 125.18701448 92.1775810023C125.608441705 94.1094530007 125.903871895 95.8625732685 125.843683395 96.0740961668C125.783495202 96.2856136199 126.037151073 96.503667032 126.407356239 96.5586725952C126.95441297 96.6399573827 127.088633744 96.8829795166 127.124131185 97.8563587315C127.148146471 98.5149500297 127.373775648 99.6243012163 127.625496019 100.321579778C127.877180109 101.018753972 128.16241035 102.701592912 128.259348333 104.060952271C128.356258649 105.419923648 128.629669388 107.069088342 128.866928879 107.72603631C129.112482188 108.405959005 129.694044852 112.611208185 130.216800468 117.485812523C131.186149597 126.524793433 131.92547653 131.733199536 132.503700172 133.600255696C132.696484869 134.222748379 133.064836482 136.19006186 133.322192109 137.97152683C133.968183864 142.443193342 134.170862801 143.025148646 135.125888123 143.151932882C135.565893207 143.210347968 136.073443198 143.133325886 136.253784007 142.980769475C136.434131348 142.828207539 136.939568965 143.124275369 137.376927812 143.638655058C138.002909033 144.374867242 138.28022003 144.480761138 138.680733219 144.136542142C139.792834137 143.18074776 139.940929611 143.639570622 140.405648853 149.47820261C140.842797095 154.970430828 140.846579827 154.989559245 141.49513194 154.988259839C142.126437476 154.986996928 142.16126714 155.121454237 142.656538588 159.470589972C142.937156934 161.934788394 143.216779153 164.040144999 143.278055592 164.150327196C143.339330673 164.260506951 143.702616251 163.258312273 144.085459771 161.922878116C144.085459771 161.922878116 144.781825923 159.493817969 144.781825923 159.493817969C144.781825923 159.493817969 145.968616559 161.857450306 145.968616559 161.857450306C146.621112816 163.156965635 147.184522611 164.532345687 147.220794696 164.914129949C147.257063863 165.295883481 147.419421135 165.652741156 147.581589592 165.707169328C147.743756729 165.761597057 147.907940704 166.137923071 147.946441245 166.543419974C147.984938 166.948877004 148.190058567 167.432522802 148.402261288 167.618210766C148.642738034 167.82863493 148.821640515 168.672861124 148.87718737 169.859127164C148.926185123 170.905624836 149.139351648 172.11616558 149.350881738 172.54939626C149.608070213 173.076142972 149.753341552 174.345713955 149.789501268 176.381929184C149.821510596 178.184509258 150.005039142 179.96520777 150.239629602 180.750031594C150.457434799 181.478695401 150.869715903 184.80797244 151.155660777 188.146377421C151.155660777 188.146377421 151.67504074 194.210169236 151.67504074 194.210169236C151.67504074 194.210169236 152.42880264 194.462638568 152.42880264 194.462638568C153.149355746 194.703984755 153.170292728 194.585750405 152.904304976 191.776289038C152.624156154 188.817253191 152.805014926 185.563289907 153.24178117 185.709681943C153.371084005 185.753020698 153.399681097 184.972070967 153.305312613 183.97404696C153.210924229 182.97581248 153.279215649 182.207710122 153.457088957 182.267344073C153.634960675 182.32697749 154.188612622 182.153723335 154.687459979 181.882317611C155.439541639 181.473134716 155.57927553 181.069296946 155.505187203 179.518566119C155.505187203 179.518566119 155.415796171 177.647583892 155.415796171 177.647583892C155.415796171 177.647583892 157.173384795 178.144565433 157.173384795 178.144565433C158.140007086 178.417890227 160.684666905 179.214801854 162.828015203 179.915423392C162.828015203 179.915423392 166.724442837 181.189103797 166.724442837 181.189103797C166.724442837 181.189103797 166.290767017 176.531454629 166.290767017 176.531454629C166.290767017 176.531454629 165.85666438 171.869221488 165.85666438 171.869221488C165.85666438 171.869221488 169.893307383 173.083909295 169.893307383 173.083909295C169.893307383 173.083909295 173.929251795 174.298386886 173.929251795 174.298386886C173.929251795 174.298386886 173.692518961 170.818437495 173.692518961 170.818437495C173.692518961 170.818437495 173.455611775 167.335925143 173.455611775 167.335925143C173.455611775 167.335925143 176.830782967 168.469323598 176.830782967 168.469323598C176.830782967 168.469323598 180.205375553 169.602527755 180.205375553 169.602527755C180.205375553 169.602527755 179.96710577 167.000613904 179.96710577 167.000613904C179.96710577 167.000613904 179.728705176 164.397271591 179.728705176 164.397271591C179.728705176 164.397271591 182.516763425 165.333868414 182.516763425 165.333868414C182.516763425 165.333868414 185.304401343 166.270324036 185.304401343 166.270324036C185.304401343 166.270324036 184.998976919 162.001913275 184.998976919 162.001913275C184.713935845 158.018921551 184.737140557 157.733459149 185.341701848 157.786041946C185.921420465 157.836457636 185.963422073 157.548169239 185.73782819 155.065077148C185.552620377 153.026510992 185.600653739 152.243960135 185.918272466 152.127964139C186.16032628 152.039540258 186.233645621 151.671276688 186.084505625 151.29256777C185.937834766 150.920036614 185.745895113 149.714365187 185.65800714 148.613103993C185.57001019 147.511557399 185.422950861 145.672458703 185.330980419 144.526120392C185.20867754 143.002453629 185.287659242 142.482874055 185.624254638 142.596148376C185.8775689 142.681396129 185.981286379 142.488024096 185.854766138 142.166425607C185.321133317 140.810081859 186.238085541 141.905126976 186.814533936 143.31252034C187.396264549 144.732864455 187.753715959 147.259857295 187.897077361 150.963531373C187.924386922 151.668999144 188.105265022 153.723153445 188.299096678 155.527835884C188.299096678 155.527835884 188.651090931 158.80724288 188.651090931 158.80724288C188.651090931 158.80724288 191.57247787 159.789259931 191.57247787 159.789259931C191.57247787 159.789259931 194.493465055 160.771142606 194.493465055 160.771142606C194.493465055 160.771142606 194.397324106 157.831151049 194.397324106 157.831151049C194.344452013 156.213385049 194.154622842 153.289877437 193.975483396 151.334257576C193.672423354 148.025489886 193.984104188 144.902292363 194.597263553 145.108646473C195.037779301 145.256898691 195.528244756 148.037841935 196.260290917 154.53581807C196.260290917 154.53581807 197.03032128 161.371147473 197.03032128 161.371147473C197.03032128 161.371147473 200.06480942 162.53525235 200.06480942 162.53525235C200.06480942 162.53525235 203.098741871 163.699149082 203.098741871 163.699149082C203.098741871 163.699149082 202.90398402 160.961813988 202.90398402 160.961813988C202.191792626 150.951142446 202.170216114 148.410222109 202.789296073 147.355931331C203.184755629 146.682478947 203.219070689 146.72185082 203.356117152 148.006254855C204.051382781 154.52219963 204.516700261 158.090933844 204.718800616 158.458651668C204.850736816 158.698681247 205.069901813 160.146632634 205.205797196 161.675889061C205.205797196 161.675889061 205.452766827 164.455085005 205.452766827 164.455085005C205.452766827 164.455085005 208.398965344 165.445442407 208.398965344 165.445442407C208.398965344 165.445442407 211.34472712 166.435653 211.34472712 166.435653C211.34472712 166.435653 211.130765879 163.962878936 211.130765879 163.962878936C211.013555309 162.602476814 211.00602085 161.197735233 211.115066176 160.841898034C211.224149019 160.486037788 211.172302288 159.686937957 210.999854891 159.066070537C210.82735634 158.445118732 210.718464562 156.978300403 210.757915405 155.806285471C210.807460805 154.333673666 210.692087571 153.286551195 210.384674572 152.419242851C210.033529038 151.428597927 210.02504587 151.275071477 210.344546012 151.691903419C210.587750874 152.00926076 210.871330469 151.89679585 211.054894918 151.410192191C211.339105926 150.656739538 211.394241864 150.714192691 211.843252512 152.231652103C212.541484543 154.591264898 212.730125229 155.771743403 212.39080103 155.657585373C212.219146249 155.599835964 212.353596241 156.42277303 212.709376084 157.607535909C213.206782127 159.264004786 213.267063797 159.784891924 213.024071154 160.326440844C212.783996679 160.861433521 212.801551724 161.065339196 213.110360488 161.339185656C213.362106937 161.562064763 213.593177206 162.763639005 213.769340998 164.765730129C214.009926855 167.499974239 214.106818083 167.869371479 214.629456048 168.045048303C215.162328239 168.224165208 215.248921529 168.590066313 215.538506986 171.885703121C215.538506986 171.885703121 215.858341188 175.525586752 215.858341188 175.525586752C215.858341188 175.525586752 218.359310444 176.365804807 218.359310444 176.365804807C218.359310444 176.365804807 220.859964899 177.205917103 220.859964899 177.205917103C220.859964899 177.205917103 221.154914044 180.582283089 221.154914044 180.582283089C221.154914044 180.582283089 221.449653026 183.956243291 221.449653026 183.956243291C221.449653026 183.956243291 225.110408525 185.185495897 225.110408525 185.185495897C225.110408525 185.185495897 228.770489481 186.414521998 228.770489481 186.414521998C228.770489481 186.414521998 229.160438639 189.94331174 229.160438639 189.94331174C229.160438639 189.94331174 229.55009782 193.46947738 229.55009782 193.46947738C229.55009782 193.46947738 233.452759916 194.919582595 233.452759916 194.919582595C233.452759916 194.919582595 237.354538014 196.369354333 237.354538014 196.369354333C237.354538014 196.369354333 237.708336973 200.493393876 237.708336973 200.493393876C237.708336973 200.493393876 238.06182697 204.613832017 238.06182697 204.613832017C238.06182697 204.613832017 241.252771567 205.68411425 241.252771567 205.68411425C241.252771567 205.68411425 244.443232744 206.754234339 244.443232744 206.754234339C244.443232744 206.754234339 242.809232776 185.462014172 242.809232776 185.462014172C241.907385686 173.710283954 240.057014496 149.896090623 238.694829387 132.510476226C238.694829387 132.510476226 236.205265253 100.736587779 236.205265253 100.736587779C236.205265253 100.736587779 238.370635769 101.649729258 238.370635769 101.649729258C238.370635769 101.649729258 240.535686862 102.562730943 240.535686862 102.562730943C240.535686862 102.562730943 240.2879194 99.6345021646 240.2879194 99.6345021646C240.151582889 98.0232151413 240.144925418 96.6161421042 240.273173956 96.5081760838C240.401454978 96.4002120552 242.7865379 96.7177609989 245.573251156 97.2138218571C248.359835848 97.7098598295 250.742728777 98.0290537445 250.868685017 97.9231566014C250.994643966 97.8172515246 250.837867558 95.0652124719 250.520109388 91.8054981159C250.520109388 91.8054981159 249.941751898 85.8730194026 249.941751898 85.8730194026C249.941751898 85.8730194026 250.991812167 86.3555264022 250.991812167 86.3555264022C251.569309737 86.6208899229 252.177802566 86.7064743064 252.344042262 86.5456607479C252.532905451 86.3629660517 252.431677715 81.5423330566 252.073656159 73.6843854544C251.495462342 60.9931491646 251.353939407 56.3865912329 251.554678858 56.7809074656C251.614580942 56.898589392 252.349389458 63.4018283581 253.186355329 71.2209789537C254.021930256 79.0274012909 254.805644716 85.9461295256 254.929121886 86.6073608868C255.095661537 87.4991398699 255.405913481 87.9363995166 256.131049947 88.3014433065C256.131049947 88.3014433065 257.108424868 88.7934701786 257.108424868 88.7934701786C257.108424868 88.7934701786 257.93062073 95.2449703107 257.93062073 95.2449703107C257.93062073 95.2449703107 258.751712845 101.687809705 258.751712845 101.687809705C258.751712845 101.687809705 262.329657119 103.15447898 262.329657119 103.15447898C262.329657119 103.15447898 265.906762512 104.620804381 265.906762512 104.620804381C265.906762512 104.620804381 266.314399297 107.837243691 266.314399297 107.837243691C266.314399297 107.837243691 266.721762717 111.05152602 266.721762717 111.05152602C266.721762717 111.05152602 268.511120609 111.81263587 268.511120609 111.81263587C269.495173456 112.231206052 270.444430119 112.839364609 270.620636846 113.164110506C270.796802105 113.488820042 270.985519992 114.665137972 271.039958603 115.777905986C271.102380892 117.053762558 271.285701367 117.928618981 271.536439159 118.147549354C271.755022897 118.338425081 275.650067592 119.624463836 280.191244047 121.005156173C280.191244047 121.005156173 288.445643808 123.51481124 288.445643808 123.51481124C288.445643808 123.51481124 288.047738721 116.722764206 288.047738721 116.722764206C288.047738721 116.722764206 287.649264688 109.921005537 287.649264688 109.921005537C287.649264688 109.921005537 308.519963234 117.156947719 308.519963234 117.156947719C319.989155806 121.133360411 329.47504831 124.575962467 329.606001661 124.809351143C329.736948511 125.042723681 331.665149914 147.476257938 333.879402948 174.521088058C336.081067876 201.412515297 338.293977388 227.734185381 338.80770438 233.146352654C338.80770438 233.146352654 339.740285888 242.970790208 339.740285888 242.970790208C339.740285888 242.970790208 343.112768241 244.351620691 343.112768241 244.351620691C343.112768241 244.351620691 346.48449582 245.732142139 346.48449582 245.732142139C346.48449582 245.732142139 347.081910587 249.930340676 347.081910587 249.930340676C347.410262972 252.237763551 347.772791683 254.100167986 347.887676384 254.07003948C348.00256211 254.039910706 349.144965462 254.366576981 350.426274191 254.79593952C350.426274191 254.79593952 352.755714021 255.576527507 352.755714021 255.576527507C352.755714021 255.576527507 352.186847089 247.894033261 352.186847089 247.894033261C352.186847089 247.894033261 351.617049074 240.198964834 351.617049074 240.198964834C351.617049074 240.198964834 355.509085445 241.504647881 355.509085445 241.504647881C355.509085445 241.504647881 359.400356848 242.8100743 359.400356848 242.8100743C359.400356848 242.8100743 359.133828561 236.631197999 359.133828561 236.631197999C358.987078058 233.229341396 358.684423568 227.950690857 358.461206131 224.901309698C358.077549111 219.660157804 358.091132814 219.276733006 358.706125934 217.997219106C358.706125934 217.997219106 359.357492585 216.642114876 359.357492585 216.642114876C359.357492585 216.642114876 360.133655286 218.022890934 360.133655286 218.022890934C360.74197216 219.105043615 360.948833753 219.941060692 361.091018578 221.891506649C361.190741075 223.259467974 361.365957859 224.40987482 361.480401969 224.448323116C361.594845417 224.486771191 361.923359048 223.992976073 362.210457574 223.350916835C362.210457574 223.350916835 362.732530874 222.183287513 362.732530874 222.183287513C362.732530874 222.183287513 363.366639954 223.914283577 363.366639954 223.914283577C363.366639954 223.914283577 364.0005231 225.644662888 364.0005231 225.644662888C364.0005231 225.644662888 368.852893315 227.602440095 368.852893315 227.602440095C371.521015768 228.678942702 375.238848004 230.075293494 377.115001066 230.705552564C377.115001066 230.705552564 380.525708892 231.851317047 380.525708892 231.851317047C380.525708892 231.851317047 379.342980594 212.455314519 379.342980594 212.455314519C378.256654039 194.640770799 378.07594815 188.139448592 378.674189546 188.34106513C378.775678011 188.375268301 379.125825292 189.234520675 379.452200399 190.250310698C379.452200399 190.250310698 380.045448008 192.096661492 380.045448008 192.096661492C380.045448008 192.096661492 379.815473862 188.583071081 379.815473862 188.583071081C379.640223568 185.904504678 379.688532659 185.029673531 380.018786157 184.910723766C380.391235281 184.776588117 380.365140389 183.894461967 379.833347938 178.64578717C379.259263933 172.979675837 379.238290547 171.620067103 379.54905087 160.16515411C379.733889223 153.351064359 379.913130321 147.716504861 379.947111413 147.652896558C379.981092619 147.589282115 381.117672193 153.837081491 382.470889347 161.525688947C384.502610341 173.069390698 384.992552365 176.428340631 385.312864871 181.004165558C385.612259703 185.281276371 385.809119019 186.707976104 386.184578665 187.323343794C386.548354382 187.91956537 386.766017191 189.370325157 387.055566647 193.127760807C387.406713648 197.684586066 387.444232112 197.890744875 387.47516736 195.433779549C387.552733188 189.276295597 388.699010464 192.060043644 389.509630303 200.371264897C389.92493296 204.62935947 390.233771191 206.556984563 390.684966183 207.708300834C391.209992297 209.048004518 391.459106787 211.170965398 392.438420465 222.645979269C392.438420465 222.645979269 393.57676957 235.984536015 393.57676957 235.984536015C393.57676957 235.984536015 400.510554166 238.448445415 400.510554166 238.448445415C400.510554166 238.448445415 407.441706008 240.911419327 407.441706008 240.911419327C407.441706008 240.911419327 407.049074422 235.147618881 407.049074422 235.147618881C406.681451973 229.750950584 406.697146863 229.266580059 407.291716231 227.676405214C407.641483554 226.740941879 408.008940725 226.011244276 408.108221136 226.055031039C408.207499077 226.098791721 408.834008118 227.048744854 409.500308107 228.165749288C410.619586627 230.042135778 410.743250475 230.464928224 411.131553733 233.741849592C411.362521536 235.690927435 411.671456993 237.444463816 411.818174287 237.639322463C411.964885925 237.834173596 412.11527936 238.442524493 412.15236983 238.991152533C412.203711353 239.750576695 412.422664878 240.056656258 413.070188185 240.274220892C414.13132061 240.630756146 414.839534344 238.679156488 414.897647707 235.236484351C414.937217754 232.892168392 415.450170132 232.231245576 415.903587331 233.940658873C416.197938319 235.050345564 417.323157318 235.397860921 417.253427023 234.35758968C417.22016918 233.861432625 417.40130141 233.683915637 417.721424369 233.898919217C418.129296626 234.17285752 418.250763943 234.662187539 418.276199811 236.133399621C418.311699461 238.188231126 418.553821998 238.583426111 419.041824129 237.383392651C419.334473406 236.663759794 419.425056482 236.734212604 420.336574812 238.390303373C420.875470442 239.369403033 421.388405618 240.671990878 421.476475293 241.285033008C421.634298718 242.383503001 422.199944932 242.812494639 422.204272813 241.837050289C422.205569828 241.56129901 422.220945472 241.170987843 422.238596905 240.969751202C422.256249104 240.76850582 422.145629444 238.977749426 421.992813433 236.98957346C421.732908455 233.60991653 421.765223541 233.295409616 422.484786373 232.197032413C422.484786373 232.197032413 423.255150201 231.021247755 423.255150201 231.021247755C423.255150201 231.021247755 424.38781129 232.828678341 424.38781129 232.828678341C425.010607447 233.822490402 425.621028668 235.240589055 425.744411283 235.980090148C425.867775055 236.719481404 426.745191577 244.669535803 427.692586521 253.631489134C427.692586521 253.631489134 429.4105371 269.882450534 429.4105371 269.882450534C429.4105371 269.882450534 430.574636198 271.23691678 430.574636198 271.23691678C430.574636198 271.23691678 431.738396555 272.591008219 431.738396555 272.591008219C431.738396555 272.591008219 436.235077126 340.971576054 436.235077126 340.971576054C436.235077126 340.971576054 440.666600792 408.362160344 440.666600792 408.362160344C440.666600792 408.362160344 277.675125701 354.252976881 277.675125701 354.252976881C277.675125701 354.252976881 113.33333 299.69552 113.33333 299.69552C113.33333 299.69552 105.686817027 223.230389162 105.686817027 223.230389162C105.686817027 223.230389162 105.687567677 223.230639752 105.687567677 223.230639752M284.105272605 220.55859081C284.105272605 220.55859081 287.290114681 221.626785941 287.290114681 221.626785941C287.290114681 221.626785941 286.862593874 215.340071077 286.862593874 215.340071077C286.862593874 215.340071077 286.434501879 209.044956871 286.434501879 209.044956871C286.434501879 209.044956871 290.713330154 210.34264608 290.713330154 210.34264608C293.66106786 211.236645219 295.06035294 211.472043661 295.213201114 211.099660125C295.347478102 210.772559492 294.22536874 196.0254626 292.36374669 173.659287319C292.36374669 173.659287319 289.268301229 136.469906942 289.268301229 136.469906942C289.268301229 136.469906942 284.185635291 134.445766303 284.185635291 134.445766303C281.389498273 133.332215137 277.643293576 131.975050315 275.86108194 131.429985185C275.86108194 131.429985185 272.620341341 130.438845599 272.620341341 130.438845599C272.620341341 130.438845599 276.062102236 174.549263662 276.062102236 174.549263662C278.178522345 201.673608502 279.598017256 218.541998922 279.802975595 219.013098666C279.984936195 219.4312811 280.310660602 219.709686321 280.526848691 219.631815575C280.743012116 219.553933362 282.353382671 219.971007422 284.105272605 220.55859081C284.105272605 220.55859081 284.105272605 220.55859081 284.105272605 220.55859081M105.035779677 121.440264196C105.022576014 120.645657187 104.888535121 119.836281362 104.737942167 119.641774164C104.587329091 119.447259803 104.505073905 119.70185917 104.555152486 120.207510485C104.637348335 121.037454912 104.594105457 121.013490871 104.109939106 119.960759819C103.605435049 118.863803518 103.583944897 118.904697033 103.748251362 120.648743677C103.887995586 122.132199629 104.036390483 122.540448181 104.491336714 122.693466565C104.888757072 122.827136473 105.052562551 122.450133256 105.035779677 121.440264196C105.035779677 121.440264196 105.035779677 121.440264196 105.035779677 121.440264196M104.360709408 112.452020734C104.23180375 111.149649154 103.992756062 110.038846178 103.829523114 109.983892622C103.666288917 109.928938645 103.638294932 110.949855452 103.767283537 112.252273704C103.896236928 113.554336385 104.135206526 114.664320547 104.298357786 114.71922786C104.4615078 114.774134754 104.489579874 113.754036761 104.360709408 112.452020734C104.360709408 112.452020734 104.360709408 112.452020734 104.360709408 112.452020734M127.209413654 120.295383138C127.065435561 118.805877709 126.915213373 118.228380837 126.747381449 118.519355143C126.528255839 118.899258566 127.024370738 122.367494299 127.311553838 122.464143583C127.372664602 122.484709944 127.326713661 121.508894126 127.209413654 120.295383138C127.209413654 120.295383138 127.209413654 120.295383138 127.209413654 120.295383138M103.410613122 111.750736409C103.222842879 110.01294068 103.134137645 109.724871602 103.017384998 110.473729601C102.807229851 111.821675608 103.000784466 113.774131015 103.356305191 113.893783341C103.519471703 113.948697869 103.543922632 112.984456584 103.410613122 111.750736409C103.410613122 111.750736409 103.410613122 111.750736409 103.410613122 111.750736409M109.857689527 114.387060749C109.722741641 113.015935958 109.149472941 112.906165552 109.175399185 114.256420104C109.191310676 115.084971324 109.315768306 115.43325599 109.571275 115.364241784C109.776251028 115.308875545 109.905138183 114.869158173 109.857689527 114.387060749C109.857689527 114.387060749 109.857689527 114.387060749 109.857689527 114.387060749"
       style="fill:#000000" />
    <path
       id="path5127"
       d="m 113.33333,299.69552 -30,-300.00000433 338,114.66666433 19.33333,294 -327.33333,-108.66666 z"
       style="fill:none;stroke:#000000;stroke-width:1px;stroke-linecap:butt;stroke-linejoin:miter;stroke-opacity:1" />
  </g>
</svg>
