<?xml version="1.0" encoding="UTF-8" standalone="no"?>
<!-- Created with Inkscape (http://www.inkscape.org/) -->
<svg
   xmlns:svg="http://www.w3.org/2000/svg"
   xmlns="http://www.w3.org/2000/svg"
   version="1.0"
   width="905.46808"
   height="171.8105"
   id="svg3223">
  <defs
     id="defs3225" />
  <g
     transform="translate(83.09153,-450.78565)"
     id="layer1">
    <rect
       width="133.11459"
       height="78.803841"
       x="-60.304161"
       y="512.82465"
       id="rect3270"
       style="opacity:1;fill:#3a6ba7;fill-opacity:1;stroke:#a90000;stroke-width:0;stroke-linejoin:miter;stroke-miterlimit:4;stroke-dasharray:none;stroke-opacity:1" />
    <rect
       width="120.52267"
       height="66.024841"
       x="-54.008194"
       y="519.21417"
       id="rect3272"
       style="opacity:1;fill:#ffffff;fill-opacity:1;stroke:#a90000;stroke-width:0;stroke-linejoin:miter;stroke-miterlimit:4;stroke-dasharray:none;stroke-opacity:1" />
    <path
       d="M 92.279794,618.2723 L 92.279794,561.67687 C 92.279786,556.11525 92.55787,551.79941 93.114042,548.72934 C 93.6702,545.65935 94.593434,542.83403 95.883747,540.25337 C 98.597823,534.69177 102.56884,530.34256 107.79682,527.20573 C 113.02475,524.06902 118.84224,522.50063 125.2493,522.50056 C 134.77081,522.50063 142.62386,525.69301 148.80847,532.07773 C 154.99297,538.46256 158.08525,546.54921 158.08533,556.33768 C 158.08525,560.78704 157.31774,565.03614 155.78279,569.085 C 154.24771,573.1339 152.03417,576.73785 149.14218,579.89686 C 146.20556,583.18937 142.6906,585.73661 138.59727,587.53858 C 134.50385,589.34055 130.2325,590.24154 125.78321,590.24154 C 122.53517,590.24154 119.43177,589.87448 116.473,589.14034 C 113.51417,588.4062 110.69998,587.28275 108.03041,585.76998 L 108.03041,573.15614 C 110.69998,575.20284 113.41406,576.71561 116.17268,577.69444 C 118.93122,578.67331 121.7343,579.16273 124.58189,579.16272 C 130.85541,579.16273 136.01662,577.00481 140.06555,572.68896 C 144.11438,568.37314 146.13883,562.83373 146.13888,556.07072 C 146.13883,549.48577 144.15888,544.07983 140.19903,539.85293 C 136.23908,535.62612 131.16686,533.5127 124.98234,533.51264 C 118.79774,533.5127 113.77001,535.63724 109.89912,539.8863 C 106.02819,544.13545 104.09273,549.68598 104.09275,556.5379 L 104.09275,618.2723 L 92.279794,618.2723 z M 170.29872,589.17372 L 170.29872,493.60219 L 182.04495,493.60219 L 182.04495,529.97543 C 184.75901,527.39488 187.6177,525.48167 190.62102,524.2358 C 193.62429,522.99005 196.81667,522.36715 200.1982,522.36708 C 208.34041,522.36715 214.65846,525.05899 219.15233,530.44261 C 223.64609,535.82634 225.89299,543.41244 225.89305,553.20091 L 225.89305,589.17372 L 214.14683,589.17372 L 214.14683,551.33219 C 214.14677,545.72608 212.80086,541.41024 210.10907,538.38466 C 207.41718,535.35916 203.57964,533.8464 198.59644,533.84634 C 193.70215,533.8464 189.72,535.67062 186.65,539.31902 C 183.57994,542.96751 182.04493,547.79502 182.04495,553.80157 L 182.04495,589.17372 L 170.29872,589.17372 z M 249.51897,556.20421 C 249.51895,562.56677 251.55452,567.96157 255.62567,572.38862 C 259.69678,576.81572 264.62441,579.02926 270.40855,579.02925 C 276.19264,579.02926 281.12026,576.81572 285.19144,572.38862 C 289.26252,567.96157 291.29808,562.56677 291.29814,556.20421 C 291.29808,549.88619 289.27365,544.52476 285.22482,540.11989 C 281.17588,535.71511 276.23713,533.5127 270.40855,533.51264 C 264.62441,533.5127 259.69678,535.71511 255.62567,540.11989 C 251.55452,544.52476 249.51895,549.88619 249.51897,556.20421 L 249.51897,556.20421 z M 237.30557,556.33768 C 237.30557,551.79941 238.15094,547.48356 239.84168,543.39015 C 241.53242,539.29682 243.97955,535.60388 247.18308,532.31132 C 250.34208,529.10787 253.89041,526.67187 257.82809,525.00331 C 261.76571,523.33488 265.95919,522.50063 270.40855,522.50056 C 274.85784,522.50063 279.0847,523.33488 283.08914,525.00331 C 287.09348,526.67187 290.65293,529.10787 293.76752,532.31132 C 296.92647,535.51489 299.34023,539.18558 301.0088,543.3234 C 302.67722,547.46132 303.51147,551.79941 303.51154,556.33768 C 303.51147,560.96501 302.67722,565.35871 301.0088,569.51881 C 299.34023,573.67895 296.92647,577.36076 293.76752,580.56426 C 290.65293,583.76778 287.09348,586.20378 283.08914,587.87228 C 279.0847,589.54078 274.85784,590.37503 270.40855,590.37503 C 265.95919,590.37503 261.76571,589.54078 257.82809,587.87228 C 253.89041,586.20378 250.34208,583.76778 247.18308,580.56426 C 243.97955,577.31627 241.53242,573.62333 239.84168,569.48544 C 238.15094,565.34759 237.30557,560.96501 237.30557,556.33768 L 237.30557,556.33768 z M 314.9908,506.34951 L 326.73702,506.34951 L 326.73702,523.70187 L 346.55877,523.70187 L 346.55877,534.7807 L 326.73702,534.7807 L 326.73702,562.81146 C 326.737,568.06168 328.01617,571.89922 330.57456,574.32408 C 333.1329,576.74897 337.21514,577.96142 342.82132,577.9614 L 346.55877,577.9614 L 346.55877,589.17372 L 342.68785,589.17372 C 333.43323,589.17372 326.50341,587.14927 321.89837,583.10038 C 317.29331,579.0515 314.99079,572.95594 314.9908,564.81365 L 314.9908,506.34951 z M 366.98118,556.20421 C 366.98116,562.56677 369.01673,567.96157 373.08788,572.38862 C 377.15898,576.81572 382.08661,579.02926 387.87076,579.02925 C 393.65484,579.02926 398.58247,576.81572 402.65364,572.38862 C 406.72473,567.96157 408.76029,562.56677 408.76035,556.20421 C 408.76029,549.88619 406.73586,544.52476 402.68703,540.11989 C 398.63808,535.71511 393.69934,533.5127 387.87076,533.51264 C 382.08661,533.5127 377.15898,535.71511 373.08788,540.11989 C 369.01673,544.52476 366.98116,549.88619 366.98118,556.20421 L 366.98118,556.20421 z M 354.76778,556.33768 C 354.76778,551.79941 355.61314,547.48356 357.30389,543.39015 C 358.99463,539.29682 361.44175,535.60388 364.64528,532.31132 C 367.80429,529.10787 371.35262,526.67187 375.29029,525.00331 C 379.22792,523.33488 383.4214,522.50063 387.87076,522.50056 C 392.32005,522.50063 396.5469,523.33488 400.55134,525.00331 C 404.55569,526.67187 408.11514,529.10787 411.22973,532.31132 C 414.38868,535.51489 416.80244,539.18558 418.47101,543.3234 C 420.13943,547.46132 420.97367,551.79941 420.97375,556.33768 C 420.97367,560.96501 420.13943,565.35871 418.47101,569.51881 C 416.80244,573.67895 414.38868,577.36076 411.22973,580.56426 C 408.11514,583.76778 404.55569,586.20378 400.55134,587.87228 C 396.5469,589.54078 392.32005,590.37503 387.87076,590.37503 C 383.4214,590.37503 379.22792,589.54078 375.29029,587.87228 C 371.35262,586.20378 367.80429,583.76778 364.64528,580.56426 C 361.44175,577.31627 358.99463,573.62333 357.30389,569.48544 C 355.61314,565.34759 354.76778,560.96501 354.76778,556.33768 L 354.76778,556.33768 z M 562.12863,523.70187 L 562.12863,559.40772 C 562.12856,568.92929 559.60357,576.47089 554.55364,582.03254 C 549.50361,587.5942 542.72952,590.37503 534.23135,590.37503 C 525.77761,590.37503 519.03688,587.5942 514.00916,582.03254 C 508.98141,576.47089 506.46755,568.92929 506.46756,559.40772 L 506.46756,523.70187 L 518.14704,523.70187 L 518.14704,561.5434 C 518.14701,566.70464 519.67092,570.90924 522.71872,574.15724 C 525.76648,577.40525 529.64851,579.02926 534.36483,579.02925 C 539.12557,579.02926 543.0076,577.40525 546.01094,574.15724 C 549.01419,570.90924 550.51583,566.70464 550.51588,561.5434 L 550.51588,523.70187 L 562.12863,523.70187 z M 617.72294,534.91418 L 612.6507,534.91418 C 604.41943,534.91423 597.85667,536.88306 592.96244,540.82066 C 588.06816,544.75835 585.62104,549.99744 585.62106,556.5379 C 585.62104,563.03395 588.07929,568.25077 592.99581,572.18841 C 597.91229,576.12607 604.46392,578.0949 612.6507,578.09489 L 617.72294,578.09489 L 617.72294,589.17372 L 611.84983,589.17372 C 600.14808,589.17372 590.81562,586.18154 583.85245,580.1972 C 576.88925,574.21286 573.40765,566.2597 573.40765,556.33768 C 573.40765,550.99853 574.65347,546.01529 577.1451,541.38795 C 579.6367,536.7607 583.17391,532.86754 587.75674,529.70847 C 590.96023,527.57286 594.36396,526.03784 597.96794,525.10341 C 601.57186,524.16912 606.19915,523.70194 611.84983,523.70187 L 617.72294,523.70187 L 617.72294,534.91418 z M 630.00308,589.17372 L 630.00308,493.60219 L 641.74931,493.60219 L 641.74931,547.46128 L 646.95502,547.46128 C 650.29198,547.46132 653.01719,546.77167 655.13065,545.39234 C 657.24405,544.01309 659.52432,541.29901 661.97149,537.25007 L 670.31397,523.70187 L 683.99566,523.70187 L 674.38511,539.25227 C 672.69432,542.0554 671.02582,544.36904 669.37962,546.19322 C 667.73332,548.01749 666.17606,549.30779 664.70782,550.06413 C 670.09146,551.08751 674.06248,553.30105 676.6209,556.70476 C 679.1792,560.10852 680.45839,564.9249 680.45844,571.15393 L 680.45844,589.17372 L 668.64549,589.17372 L 668.64549,572.62221 C 668.64544,567.90596 667.61097,564.4466 665.54208,562.24417 C 663.4731,560.04177 660.19172,558.94057 655.69794,558.94054 L 641.74931,558.94054 L 641.74931,589.17372 L 630.00308,589.17372 z M 756.67538,560.20859 C 755.02906,569.5522 751.24714,576.93807 745.3296,582.36625 C 739.41194,587.79442 732.20404,590.5085 723.70587,590.5085 C 720.81378,590.5085 717.95508,590.11919 715.1298,589.34055 C 712.30445,588.56192 709.64598,587.41622 707.15438,585.90345 C 701.90416,582.69995 697.83303,578.51759 694.94098,573.35635 C 692.04891,568.19516 690.60288,562.52228 690.60289,556.33768 C 690.60288,551.79941 691.43714,547.48356 693.10564,543.39015 C 694.77413,539.29682 697.18788,535.60388 700.34691,532.31132 C 703.50592,529.06337 707.09874,526.59401 711.12541,524.9032 C 715.15201,523.21252 719.38999,522.36715 723.83935,522.36708 C 730.4688,522.36715 736.39753,524.11351 741.62554,527.60616 C 746.85343,531.09895 751.09141,536.18229 754.33948,542.85622 L 711.42573,566.61563 L 706.48698,557.73922 L 738.32191,539.98642 C 736.36415,537.80629 734.16174,536.16005 731.71466,535.04766 C 729.26748,533.93538 726.59789,533.37922 723.70587,533.37916 C 717.83273,533.37922 712.88286,535.57051 708.85625,539.95304 C 704.82959,544.33567 702.81628,549.75272 702.81629,556.20421 C 702.81628,562.61126 704.84071,568.01718 708.88962,572.422 C 712.93848,576.82684 717.87722,579.02926 723.70587,579.02925 C 729.26748,579.02926 733.92815,577.19391 737.68788,573.52321 C 741.4475,569.85253 743.79452,564.81367 744.72894,558.40663 L 756.67538,560.20859 z M 768.02118,506.34951 L 779.7674,506.34951 L 779.7674,523.70187 L 799.58917,523.70187 L 799.58917,534.7807 L 779.7674,534.7807 L 779.7674,562.81146 C 779.76738,568.06168 781.04656,571.89922 783.60494,574.32408 C 786.16328,576.74897 790.24553,577.96142 795.85171,577.9614 L 799.58917,577.9614 L 799.58917,589.17372 L 795.7182,589.17372 C 786.4636,589.17372 779.53379,587.14927 774.92875,583.10038 C 770.32369,579.0515 768.02117,572.95594 768.02118,564.81365 L 768.02118,506.34951 z"
       id="text3246"
       style="font-size:615.52392578px;font-style:normal;font-weight:normal;line-height:125%;fill:#000000;fill-opacity:1;stroke:none;stroke-width:1px;stroke-linecap:butt;stroke-linejoin:miter;stroke-opacity:1;font-family:Bitstream Vera Sans" />
    <path
       d="M 432.03173,493.60219 L 443.84468,493.60219 L 443.84468,556.33768 C 443.84467,563.18967 445.78012,568.7402 449.65106,572.98929 C 453.52194,577.2384 458.54967,579.36295 464.73427,579.36294 C 471.00777,579.36295 476.10225,577.2384 480.0177,572.98929 C 483.93305,568.7402 485.89076,563.14518 485.89082,556.20421 C 485.89076,549.57475 483.87744,544.16882 479.85086,539.98642 C 475.82416,535.8041 470.65183,533.71292 464.33383,533.71286 C 461.48623,533.71292 458.68315,534.20234 455.9246,535.18114 C 453.166,536.16005 450.45191,537.67282 447.78234,539.71946 L 447.78234,527.10561 C 450.45191,525.5929 453.2661,524.46945 456.22494,523.73525 C 459.18371,523.00117 462.2871,522.63411 465.53516,522.63404 C 468.64963,522.63411 471.74191,523.11241 474.81199,524.06895 C 477.88198,525.02562 480.6628,526.37153 483.15448,528.10672 C 487.9152,531.39927 491.55251,535.4704 494.06645,540.32011 C 496.58025,545.16992 497.83718,550.5091 497.83725,556.33768 C 497.83718,566.21521 494.73378,574.35747 488.52704,580.76449 C 482.32018,587.17151 474.47824,590.37503 465.00123,590.37503 C 458.68315,590.37503 452.89904,588.7844 447.64886,585.60313 C 442.39864,582.42186 438.39425,578.05041 435.63568,572.48874 C 434.34537,570.04163 433.42213,567.34979 432.86598,564.41321 C 432.30979,561.47668 432.03171,557.07185 432.03173,551.19871 L 432.03173,493.60219 z"
       id="text3250"
       style="font-size:615.52392578px;font-style:normal;font-weight:normal;line-height:125%;fill:#3a6ba7;fill-opacity:1;stroke:none;stroke-width:1px;stroke-linecap:butt;stroke-linejoin:miter;stroke-opacity:1;font-family:Bitstream Vera Sans" />
    <path
       d="M 687.3054,476.88774 C 687.3054,484.10069 681.45142,489.95469 674.23846,489.95469 C 667.0255,489.95469 661.17151,484.10069 661.17151,476.88774 C 661.17151,469.67478 667.0255,463.8208 674.23846,463.8208 C 681.45142,463.8208 687.3054,469.67478 687.3054,476.88774 z"
       id="path3260"
       style="fill:#3a6ba7;fill-opacity:1;stroke:#a90000;stroke-width:0;stroke-linejoin:miter;stroke-miterlimit:4;stroke-opacity:1" />
    <path
       d="M 761.06108,469.91871 C 761.06108,478.09339 754.42656,484.72791 746.25187,484.72791 C 738.07719,484.72791 731.44267,478.09339 731.44267,469.91871 C 731.44267,461.74402 738.07719,455.1095 746.25187,455.1095 C 754.42656,455.1095 761.06108,461.74402 761.06108,469.91871 z"
       id="path3262"
       style="fill:#3a6ba7;fill-opacity:1;stroke:#a90000;stroke-width:0;stroke-linejoin:miter;stroke-miterlimit:4;stroke-opacity:1" />
    <path
       d="M 715.18153,488.79317 C 715.18153,492.96065 711.79923,496.34296 707.63175,496.34296 C 703.46426,496.34296 700.08196,492.96065 700.08196,488.79317 C 700.08196,484.62569 703.46426,481.24338 707.63175,481.24338 C 711.79923,481.24338 715.18153,484.62569 715.18153,488.79317 z"
       id="path3264"
       style="fill:#3a6ba7;fill-opacity:1;stroke:#a90000;stroke-width:0;stroke-linejoin:miter;stroke-miterlimit:4;stroke-opacity:1" />
    <path
       d="M 821.20358,368.02585 A 92.407196,92.407196 0 1 1 636.38919,368.02585 A 92.407196,92.407196 0 1 1 821.20358,368.02585 z"
       transform="matrix(0.5981789,0,0,0.5981789,-429.16504,329.95144)"
       id="path3266"
       style="opacity:1;fill:#3a6ba7;fill-opacity:1;stroke:#a90000;stroke-width:0;stroke-linejoin:miter;stroke-miterlimit:4;stroke-dasharray:none;stroke-opacity:1" />
    <path
       d="M 821.20358,368.02585 A 92.407196,92.407196 0 1 1 636.38919,368.02585 A 92.407196,92.407196 0 1 1 821.20358,368.02585 z"
       transform="matrix(0.5111008,0,0,0.5111008,-365.70286,361.99841)"
       id="path3268"
       style="opacity:1;fill:#ffffff;fill-opacity:1;stroke:#a90000;stroke-width:0;stroke-linejoin:miter;stroke-miterlimit:4;stroke-dasharray:none;stroke-opacity:1" />
    <rect
       width="23.428169"
       height="12.779"
       ry="2.1298335"
       x="-53.914658"
       y="505.37024"
       id="rect3274"
       style="opacity:1;fill:#3a6ba7;fill-opacity:1;stroke:#a90000;stroke-width:0;stroke-linejoin:miter;stroke-miterlimit:4;stroke-dasharray:none;stroke-opacity:1" />
    <path
       d="M 7.31805,510.69483 L 8.382966,519.21416 C 25.645995,520.91971 37.263359,530.64585 38.200635,548.49938 L 47.252425,549.03183 C 47.008643,526.91237 30.434585,509.94155 7.31805,510.69483 z"
       id="path3276"
       style="fill:#336aa0;fill-opacity:1;fill-rule:evenodd;stroke:#000000;stroke-width:0;stroke-linecap:butt;stroke-linejoin:miter;stroke-miterlimit:4;stroke-dasharray:none;stroke-opacity:1" />
  </g>
</svg>
