<?xml version="1.0" encoding="UTF-8" standalone="no"?>
<!-- Created with Inkscape (http://www.inkscape.org/) -->
<svg
   xmlns:dc="http://purl.org/dc/elements/1.1/"
   xmlns:cc="http://web.resource.org/cc/"
   xmlns:rdf="http://www.w3.org/1999/02/22-rdf-syntax-ns#"
   xmlns:svg="http://www.w3.org/2000/svg"
   xmlns="http://www.w3.org/2000/svg"
   xmlns:xlink="http://www.w3.org/1999/xlink"
   xmlns:sodipodi="http://sodipodi.sourceforge.net/DTD/sodipodi-0.dtd"
   xmlns:inkscape="http://www.inkscape.org/namespaces/inkscape"
   width="64px"
   height="64px"
   id="svg2676"
   sodipodi:version="0.32"
   inkscape:version="0.45.1"
   sodipodi:docbase="D:\stefan\icons\self\forstwire tango"
   sodipodi:docname="frostwire.svg"
   inkscape:output_extension="org.inkscape.output.svg.inkscape">
  <defs
     id="defs2678">
    <radialGradient
       r="8.6620579"
       fy="19.008621"
       fx="31.112698"
       cy="19.008621"
       cx="31.112698"
       gradientUnits="userSpaceOnUse"
       id="radialGradient6115"
       xlink:href="#linearGradient3816"
       inkscape:collect="always" />
    <linearGradient
       y2="52.090678"
       x2="9.8855033"
       y1="37.197018"
       x1="8.9156475"
       gradientTransform="matrix(3.123841,0,0,0.969691,-79.083924,272.77319)"
       gradientUnits="userSpaceOnUse"
       id="linearGradient6112"
       xlink:href="#linearGradient2152"
       inkscape:collect="always" />
    <linearGradient
       inkscape:collect="always"
       id="linearGradient5204">
      <stop
         style="stop-color:#c4a000;stop-opacity:1;"
         offset="0"
         id="stop5206" />
      <stop
         style="stop-color:#c4a000;stop-opacity:0;"
         offset="1"
         id="stop5208" />
    </linearGradient>
    <linearGradient
       inkscape:collect="always"
       id="linearGradient5196">
      <stop
         style="stop-color:#c4a000;stop-opacity:1;"
         offset="0"
         id="stop5198" />
      <stop
         style="stop-color:#c4a000;stop-opacity:0;"
         offset="1"
         id="stop5200" />
    </linearGradient>
    <linearGradient
       id="linearGradient6045">
      <stop
         style="stop-color:#ffffff;stop-opacity:1.0000000;"
         offset="0.0000000"
         id="stop6047" />
      <stop
         style="stop-color:#fff520;stop-opacity:0.89108908;"
         offset="0.50000000"
         id="stop6049" />
      <stop
         style="stop-color:#fff300;stop-opacity:0.0000000;"
         offset="1.0000000"
         id="stop6051" />
    </linearGradient>
    <radialGradient
       inkscape:collect="always"
       xlink:href="#linearGradient12512"
       id="radialGradient6053"
       gradientUnits="userSpaceOnUse"
       cx="55.000000"
       cy="125.00000"
       fx="55.000000"
       fy="125.00000"
       r="14.375000" />
    <linearGradient
       id="linearGradient10653">
      <stop
         style="stop-color:#f3f4ff;stop-opacity:1.0000000;"
         offset="0.0000000"
         id="stop10655" />
      <stop
         style="stop-color:#9193af;stop-opacity:1.0000000;"
         offset="1.0000000"
         id="stop10657" />
    </linearGradient>
    <linearGradient
       id="linearGradient42174">
      <stop
         style="stop-color:#a0a0a0;stop-opacity:1.0000000;"
         offset="0.0000000"
         id="stop42176" />
      <stop
         style="stop-color:#ffffff;stop-opacity:1.0000000;"
         offset="1.0000000"
         id="stop42178" />
    </linearGradient>
    <linearGradient
       id="linearGradient2145">
      <stop
         style="stop-color:#fffffd;stop-opacity:1.0000000;"
         offset="0.0000000"
         id="stop2147" />
      <stop
         style="stop-color:#cbcbc9;stop-opacity:1.0000000;"
         offset="1.0000000"
         id="stop2149" />
    </linearGradient>
    <linearGradient
       id="linearGradient37935">
      <stop
         id="stop37937"
         offset="0.0000000"
         style="stop-color:#9497b3;stop-opacity:1.0000000;" />
      <stop
         id="stop37939"
         offset="1.0000000"
         style="stop-color:#4c4059;stop-opacity:1.0000000;" />
    </linearGradient>
    <linearGradient
       id="linearGradient2152">
      <stop
         id="stop2154"
         offset="0.0000000"
         style="stop-color:#9aa29a;stop-opacity:1.0000000;" />
      <stop
         id="stop2156"
         offset="1.0000000"
         style="stop-color:#b5beb5;stop-opacity:1.0000000;" />
    </linearGradient>
    <linearGradient
       inkscape:collect="always"
       id="linearGradient3816">
      <stop
         style="stop-color:#000000;stop-opacity:1;"
         offset="0"
         id="stop3818" />
      <stop
         style="stop-color:#000000;stop-opacity:0;"
         offset="1"
         id="stop3820" />
    </linearGradient>
    <radialGradient
       inkscape:collect="always"
       xlink:href="#linearGradient3816"
       id="radialGradient3822"
       cx="31.112698"
       cy="19.008621"
       fx="31.112698"
       fy="19.008621"
       r="8.6620579"
       gradientUnits="userSpaceOnUse" />
    <linearGradient
       inkscape:collect="always"
       xlink:href="#linearGradient2152"
       id="linearGradient4307"
       gradientUnits="userSpaceOnUse"
       gradientTransform="matrix(3.123841,0,0,0.969691,-31.88758,-19.59492)"
       x1="8.9156475"
       y1="37.197018"
       x2="9.8855033"
       y2="52.090678" />
    <radialGradient
       inkscape:collect="always"
       xlink:href="#linearGradient10653"
       id="radialGradient4309"
       gradientUnits="userSpaceOnUse"
       cx="11.329200"
       cy="10.583970"
       fx="11.329200"
       fy="10.583970"
       r="15.532059" />
    <radialGradient
       inkscape:collect="always"
       xlink:href="#linearGradient2145"
       id="radialGradient4311"
       gradientUnits="userSpaceOnUse"
       cx="11.901996"
       cy="10.045444"
       fx="11.901996"
       fy="10.045444"
       r="29.292715" />
    <linearGradient
       inkscape:collect="always"
       xlink:href="#linearGradient42174"
       id="linearGradient4313"
       gradientUnits="userSpaceOnUse"
       x1="6.3422160"
       y1="7.7893324"
       x2="22.218424"
       y2="25.884274" />
    <radialGradient
       inkscape:collect="always"
       xlink:href="#linearGradient5196"
       id="radialGradient5202"
       cx="23.375"
       cy="10.972863"
       fx="23.375"
       fy="10.972863"
       r="3.3478092"
       gradientTransform="matrix(3.63042,0,0,3.742066,-61.48607,-29.18618)"
       gradientUnits="userSpaceOnUse" />
    <linearGradient
       inkscape:collect="always"
       xlink:href="#linearGradient5204"
       id="linearGradient5210"
       x1="19.667364"
       y1="4.2570662"
       x2="20.329933"
       y2="5.2845874"
       gradientUnits="userSpaceOnUse" />
    <radialGradient
       inkscape:collect="always"
       xlink:href="#linearGradient37935"
       id="radialGradient5212"
       gradientUnits="userSpaceOnUse"
       cx="8.7468252"
       cy="6.8283234"
       fx="8.7468252"
       fy="6.8283234"
       r="29.889715" />
    <radialGradient
       r="117.14286"
       fy="486.64789"
       fx="605.71429"
       cy="486.64789"
       cx="605.71429"
       gradientTransform="matrix(-2.774389,0,0,1.969706,112.7623,-872.8854)"
       gradientUnits="userSpaceOnUse"
       id="radialGradient5441"
       xlink:href="#linearGradient5060"
       inkscape:collect="always" />
    <radialGradient
       r="117.14286"
       fy="486.64789"
       fx="605.71429"
       cy="486.64789"
       cx="605.71429"
       gradientTransform="matrix(2.774389,0,0,1.969706,-1891.633,-872.8854)"
       gradientUnits="userSpaceOnUse"
       id="radialGradient5439"
       xlink:href="#linearGradient5060"
       inkscape:collect="always" />
    <linearGradient
       y2="609.50507"
       x2="302.85715"
       y1="366.64789"
       x1="302.85715"
       gradientTransform="matrix(2.774389,0,0,1.969706,-1892.179,-872.8854)"
       gradientUnits="userSpaceOnUse"
       id="linearGradient5437"
       xlink:href="#linearGradient5048"
       inkscape:collect="always" />
    <linearGradient
       inkscape:collect="always"
       id="linearGradient5060">
      <stop
         style="stop-color:black;stop-opacity:1;"
         offset="0"
         id="stop5062" />
      <stop
         style="stop-color:black;stop-opacity:0;"
         offset="1"
         id="stop5064" />
    </linearGradient>
    <linearGradient
       id="linearGradient5048">
      <stop
         style="stop-color:black;stop-opacity:0;"
         offset="0"
         id="stop5050" />
      <stop
         id="stop5056"
         offset="0.5"
         style="stop-color:black;stop-opacity:1;" />
      <stop
         style="stop-color:black;stop-opacity:0;"
         offset="1"
         id="stop5052" />
    </linearGradient>
    <linearGradient
       id="linearGradient12512">
      <stop
         style="stop-color:#ffffff;stop-opacity:1.0000000;"
         offset="0.0000000"
         id="stop12513" />
      <stop
         style="stop-color:#fff520;stop-opacity:0.89108908;"
         offset="0.50000000"
         id="stop12517" />
      <stop
         style="stop-color:#fff300;stop-opacity:0.0000000;"
         offset="1.0000000"
         id="stop12514" />
    </linearGradient>
    <radialGradient
       inkscape:collect="always"
       xlink:href="#linearGradient12512"
       id="radialGradient278"
       gradientUnits="userSpaceOnUse"
       cx="55.000000"
       cy="125.00000"
       fx="55.000000"
       fy="125.00000"
       r="14.375000" />
    <linearGradient
       id="linearGradient2094">
      <stop
         style="stop-color:#d6e3f0;stop-opacity:1.0000000;"
         offset="0.0000000"
         id="stop2096" />
      <stop
         style="stop-color:#95b1cf;stop-opacity:1.0000000;"
         offset="1.0000000"
         id="stop2098" />
    </linearGradient>
    <linearGradient
       id="linearGradient2803">
      <stop
         id="stop2805"
         offset="0"
         style="stop-color:#ffffff;stop-opacity:1;" />
      <stop
         id="stop2807"
         offset="1.0000000"
         style="stop-color:#cbcbcb;stop-opacity:1.0000000;" />
    </linearGradient>
    <linearGradient
       id="linearGradient2795">
      <stop
         id="stop2797"
         offset="0.0000000"
         style="stop-color:#000000;stop-opacity:0.068627454;" />
      <stop
         id="stop2799"
         offset="1.0000000"
         style="stop-color:#ffffff;stop-opacity:1.0000000;" />
    </linearGradient>
    <radialGradient
       inkscape:collect="always"
       xlink:href="#linearGradient5060"
       id="radialGradient5013"
       gradientUnits="userSpaceOnUse"
       cx="605.71429"
       cy="486.64789"
       fx="605.71429"
       fy="486.64789"
       r="117.14286"
       gradientTransform="matrix(2.774389,0,0,1.969706,-1891.633,-872.8854)" />
    <linearGradient
       inkscape:collect="always"
       xlink:href="#linearGradient5048"
       id="linearGradient5016"
       gradientUnits="userSpaceOnUse"
       x1="302.85715"
       y1="366.64789"
       x2="302.85715"
       y2="609.50507"
       gradientTransform="matrix(2.774389,0,0,1.969706,-1892.179,-872.8854)" />
    <radialGradient
       inkscape:collect="always"
       xlink:href="#linearGradient5060"
       id="radialGradient5020"
       gradientUnits="userSpaceOnUse"
       gradientTransform="matrix(-2.774389,0,0,1.969706,112.7623,-872.8854)"
       cx="605.71429"
       cy="486.64789"
       fx="605.71429"
       fy="486.64789"
       r="117.14286" />
    <radialGradient
       inkscape:collect="always"
       xlink:href="#linearGradient3816"
       id="radialGradient10122"
       gradientUnits="userSpaceOnUse"
       cx="31.112698"
       cy="19.008621"
       fx="31.112698"
       fy="19.008621"
       r="8.6620579" />
  </defs>
  <sodipodi:namedview
     id="base"
     pagecolor="#ffffff"
     bordercolor="#666666"
     borderopacity="1.0"
     inkscape:pageopacity="0.0"
     inkscape:pageshadow="2"
     inkscape:zoom="7.7781746"
     inkscape:cx="22.456736"
     inkscape:cy="26.035275"
     inkscape:current-layer="layer1"
     showgrid="true"
     inkscape:document-units="px"
     inkscape:grid-bbox="true"
     inkscape:window-width="979"
     inkscape:window-height="872"
     inkscape:window-x="4"
     inkscape:window-y="20" />
  <metadata
     id="metadata2681">
    <rdf:RDF>
      <cc:Work
         rdf:about="">
        <dc:format>image/svg+xml</dc:format>
        <dc:type
           rdf:resource="http://purl.org/dc/dcmitype/StillImage" />
      </cc:Work>
    </rdf:RDF>
  </metadata>
  <g
     id="layer1"
     inkscape:label="Layer 1"
     inkscape:groupmode="layer">
    <g
       id="g10132">
      <path
         transform="matrix(2.9713213,0,0,0.6852792,-59.326631,41.166387)"
         sodipodi:type="arc"
         style="color:#000000;fill:url(#radialGradient10122);fill-opacity:1;fill-rule:evenodd;stroke:none;stroke-width:1px;stroke-linecap:round;stroke-linejoin:round;marker:none;marker-start:none;marker-mid:none;marker-end:none;stroke-miterlimit:4;stroke-dasharray:none;stroke-dashoffset:0;stroke-opacity:1;visibility:visible;display:inline;overflow:visible"
         id="path4318"
         sodipodi:cx="31.112698"
         sodipodi:cy="19.008621"
         sodipodi:rx="8.6620579"
         sodipodi:ry="8.6620579"
         d="M 39.774755 19.008621 A 8.6620579 8.6620579 0 1 1  22.45064,19.008621 A 8.6620579 8.6620579 0 1 1  39.774755 19.008621 z" />
      <path
         transform="matrix(1.0592348,0,0,1.0418121,-6.1330881,-6.0063337)"
         d="M 61.068316 34.494362 A 24.813021 24.748737 0 1 1  11.442274,34.494362 A 24.813021 24.748737 0 1 1  61.068316 34.494362 z"
         sodipodi:ry="24.748737"
         sodipodi:rx="24.813021"
         sodipodi:cy="34.494362"
         sodipodi:cx="36.255295"
         id="path2745"
         style="fill:#3465a4;fill-opacity:1;fill-rule:evenodd;stroke:#204a87;stroke-width:0.83173823;stroke-linecap:round;stroke-linejoin:miter;stroke-miterlimit:4;stroke-dasharray:none;stroke-dashoffset:0;stroke-opacity:1"
         sodipodi:type="arc" />
      <path
         sodipodi:nodetypes="cczccccccccccssccczccccccccssscccccsssssccccccccssssccssssscccccc"
         style="fill:#eeeeec;stroke-width:1;stroke-miterlimit:4;stroke-dasharray:none"
         d="M 7.2825832,36.237188 C 7.2817397,35.760139 7.0253966,35.098716 7.0267663,33.961736 C 9.4320326,33.054229 15.918593,31.651015 15.919936,30.118595 C 15.921279,28.586175 9.235974,26.15964 7.0133956,26.322497 C 7.0129067,25.204128 7.0109068,24.313493 7.006348,23.873669 C 8.6647812,23.873669 12.727488,25.106454 15.272899,26.569125 L 17.840422,28.044503 C 19.33137,27.082388 20.859216,26.205799 22.497803,25.546825 C 22.957854,25.546825 23.836662,27.611531 23.47818,27.850162 L 19.890704,29.923167 C 20.739245,30.619051 21.636347,31.243341 22.557918,31.835688 C 23.316373,32.240725 22.870433,34.431289 22.029522,34.431289 C 20.525448,33.948355 19.254388,32.948793 17.813666,32.31594 C 17.596854,32.31594 16.391194,32.925908 15.134421,33.671425 C 13.877648,34.416941 11.520179,35.350748 9.8956034,35.746551 C 7.1606313,36.412887 8.336399,35.888894 7.2825832,36.237188 z M 57.135254,23.854547 C 57.141515,24.146169 57.145118,24.914178 57.14595,25.93771 C 50.359304,27.477557 48.653134,28.527139 48.587705,29.879101 C 48.522164,31.233348 53.915542,33.153121 57.11676,33.665119 C 57.106047,34.827292 57.092334,35.51642 57.075506,36.085321 C 55.190122,36.085321 51.123974,34.841355 48.835828,33.371984 L 46.548424,31.903085 L 45.144136,32.902565 C 42.288798,34.934806 41.852054,35.010304 41.089664,33.603442 L 40.404082,32.338318 L 42.152722,31.487036 C 43.114473,31.01883 44.020621,30.451613 44.166383,30.226555 C 44.312144,30.001497 43.628941,29.380037 42.648154,28.845533 C 40.722646,27.796181 40.62084,27.60648 41.317024,26.365152 C 41.932089,25.268461 42.383507,25.327184 44.673088,26.801721 L 46.62162,28.056616 L 48.658161,26.745042 C 50.800182,25.365537 55.231532,23.854547 57.135254,23.854547 z M 19.883028,45.789088 C 19.471032,45.569071 19.137809,45.160538 19.142534,44.881241 C 19.160787,43.80215 29.238942,22.387992 29.922061,21.976803 C 30.455228,21.655872 30.832035,21.721062 31.360891,22.225726 C 32.020651,22.855308 31.708929,23.725747 27.424196,33.218367 C 21.57655,46.173545 21.774108,45.770943 21.153025,45.998373 C 20.866524,46.103285 20.295024,46.009106 19.883028,45.789088 z M 41.831813,45.139469 L 37.318988,35.341802 L 38.115012,33.553223 L 38.911035,31.764645 C 40.779598,36.060335 43.093892,40.215448 44.316673,44.75042 C 44.142858,45.912286 42.400085,46.185149 41.831813,45.139469 z M 27.853153,37.956869 C 27.690592,37.801743 27.557587,37.351253 27.557587,36.955779 C 27.557587,35.996926 33.599128,22.984882 34.398503,22.222073 C 35.23988,21.419183 36.424579,21.912208 36.424579,23.065246 C 36.424579,23.967234 30.938844,36.646996 30.088682,37.710078 C 29.635391,38.276894 28.338547,38.420059 27.853153,37.956869 z M 32.7487,37.974714 C 32.08522,37.341583 32.561879,36.002053 36.653508,27.001223 C 42.809071,13.46012 42.489571,14.045667 43.637678,14.201371 C 44.232492,14.282039 44.672348,14.672658 44.741482,15.181618 C 44.804697,15.646995 42.609385,20.977673 39.863012,27.02757 C 35.857937,35.850219 34.690815,38.051847 33.966288,38.150994 C 33.469462,38.218982 32.921548,38.139657 32.7487,37.974714 z M 19.577294,15.194428 C 19.577294,14.353414 20.820607,13.860596 21.647333,14.373917 C 23.622046,17.872988 26.641555,21.911731 26.230704,26.057902 C 25.971678,26.920715 25.615617,27.710958 25.439456,27.813998 C 23.036826,23.892879 21.067848,19.561845 19.577294,15.194428 z "
         id="path7614" />
      <path
         sodipodi:nodetypes="czzsz"
         id="path5656"
         d="M 61.068316,34.494362 C 61.068316,48.155665 49.701103,59.379193 36.255295,59.243099 C 22.934327,59.107005 11.442274,47.645924 11.442274,34.494362 C 11.442274,21.470235 22.809337,9.8386142 36.255295,9.7456245 C 48.702581,9.6603333 61.068316,20.833059 61.068316,34.494362 z "
         style="fill:none;fill-opacity:1;fill-rule:evenodd;stroke:#729fcf;stroke-width:0.85719168;stroke-linecap:round;stroke-linejoin:miter;stroke-miterlimit:4;stroke-dashoffset:0;stroke-opacity:1"
         transform="matrix(1.0298318,0,0,1.0088645,-5.1813446,-4.925036)" />
    </g>
  </g>
</svg>
