<?xml version="1.0" encoding="UTF-8" standalone="no"?>
<!-- Created with Inkscape (http://www.inkscape.org/) -->
<svg
   xmlns:dc="http://purl.org/dc/elements/1.1/"
   xmlns:cc="http://web.resource.org/cc/"
   xmlns:rdf="http://www.w3.org/1999/02/22-rdf-syntax-ns#"
   xmlns:svg="http://www.w3.org/2000/svg"
   xmlns="http://www.w3.org/2000/svg"
   xmlns:xlink="http://www.w3.org/1999/xlink"
   xmlns:sodipodi="http://sodipodi.sourceforge.net/DTD/sodipodi-0.dtd"
   xmlns:inkscape="http://www.inkscape.org/namespaces/inkscape"
   width="64px"
   height="64px"
   id="svg2676"
   sodipodi:version="0.32"
   inkscape:version="0.45.1"
   sodipodi:docbase="D:\stefan\icons\self\forstwire tango"
   sodipodi:docname="frostwire_16x16.svg"
   inkscape:output_extension="org.inkscape.output.svg.inkscape"
   inkscape:export-filename="D:\stefan\icons\self\forstwire tango\frostwire_16x16.png"
   inkscape:export-xdpi="22.5"
   inkscape:export-ydpi="22.5">
  <defs
     id="defs2678">
    <linearGradient
       y2="52.090678"
       x2="9.8855033"
       y1="37.197018"
       x1="8.9156475"
       gradientTransform="matrix(3.123841,0,0,0.969691,-79.083924,272.77319)"
       gradientUnits="userSpaceOnUse"
       id="linearGradient6112"
       xlink:href="#linearGradient2152"
       inkscape:collect="always" />
    <linearGradient
       inkscape:collect="always"
       id="linearGradient5204">
      <stop
         style="stop-color:#c4a000;stop-opacity:1;"
         offset="0"
         id="stop5206" />
      <stop
         style="stop-color:#c4a000;stop-opacity:0;"
         offset="1"
         id="stop5208" />
    </linearGradient>
    <linearGradient
       inkscape:collect="always"
       id="linearGradient5196">
      <stop
         style="stop-color:#c4a000;stop-opacity:1;"
         offset="0"
         id="stop5198" />
      <stop
         style="stop-color:#c4a000;stop-opacity:0;"
         offset="1"
         id="stop5200" />
    </linearGradient>
    <linearGradient
       id="linearGradient6045">
      <stop
         style="stop-color:#ffffff;stop-opacity:1.0000000;"
         offset="0.0000000"
         id="stop6047" />
      <stop
         style="stop-color:#fff520;stop-opacity:0.89108908;"
         offset="0.50000000"
         id="stop6049" />
      <stop
         style="stop-color:#fff300;stop-opacity:0.0000000;"
         offset="1.0000000"
         id="stop6051" />
    </linearGradient>
    <radialGradient
       inkscape:collect="always"
       xlink:href="#linearGradient12512"
       id="radialGradient6053"
       gradientUnits="userSpaceOnUse"
       cx="55.000000"
       cy="125.00000"
       fx="55.000000"
       fy="125.00000"
       r="14.375000" />
    <linearGradient
       id="linearGradient10653">
      <stop
         style="stop-color:#f3f4ff;stop-opacity:1.0000000;"
         offset="0.0000000"
         id="stop10655" />
      <stop
         style="stop-color:#9193af;stop-opacity:1.0000000;"
         offset="1.0000000"
         id="stop10657" />
    </linearGradient>
    <linearGradient
       id="linearGradient42174">
      <stop
         style="stop-color:#a0a0a0;stop-opacity:1.0000000;"
         offset="0.0000000"
         id="stop42176" />
      <stop
         style="stop-color:#ffffff;stop-opacity:1.0000000;"
         offset="1.0000000"
         id="stop42178" />
    </linearGradient>
    <linearGradient
       id="linearGradient2145">
      <stop
         style="stop-color:#fffffd;stop-opacity:1.0000000;"
         offset="0.0000000"
         id="stop2147" />
      <stop
         style="stop-color:#cbcbc9;stop-opacity:1.0000000;"
         offset="1.0000000"
         id="stop2149" />
    </linearGradient>
    <linearGradient
       id="linearGradient37935">
      <stop
         id="stop37937"
         offset="0.0000000"
         style="stop-color:#9497b3;stop-opacity:1.0000000;" />
      <stop
         id="stop37939"
         offset="1.0000000"
         style="stop-color:#4c4059;stop-opacity:1.0000000;" />
    </linearGradient>
    <linearGradient
       id="linearGradient2152">
      <stop
         id="stop2154"
         offset="0.0000000"
         style="stop-color:#9aa29a;stop-opacity:1.0000000;" />
      <stop
         id="stop2156"
         offset="1.0000000"
         style="stop-color:#b5beb5;stop-opacity:1.0000000;" />
    </linearGradient>
    <linearGradient
       inkscape:collect="always"
       id="linearGradient3816">
      <stop
         style="stop-color:#000000;stop-opacity:1;"
         offset="0"
         id="stop3818" />
      <stop
         style="stop-color:#000000;stop-opacity:0;"
         offset="1"
         id="stop3820" />
    </linearGradient>
    <radialGradient
       inkscape:collect="always"
       xlink:href="#linearGradient3816"
       id="radialGradient3822"
       cx="31.112698"
       cy="19.008621"
       fx="31.112698"
       fy="19.008621"
       r="8.6620579"
       gradientUnits="userSpaceOnUse" />
    <linearGradient
       inkscape:collect="always"
       xlink:href="#linearGradient2152"
       id="linearGradient4307"
       gradientUnits="userSpaceOnUse"
       gradientTransform="matrix(3.123841,0,0,0.969691,-31.88758,-19.59492)"
       x1="8.9156475"
       y1="37.197018"
       x2="9.8855033"
       y2="52.090678" />
    <radialGradient
       inkscape:collect="always"
       xlink:href="#linearGradient10653"
       id="radialGradient4309"
       gradientUnits="userSpaceOnUse"
       cx="11.329200"
       cy="10.583970"
       fx="11.329200"
       fy="10.583970"
       r="15.532059" />
    <radialGradient
       inkscape:collect="always"
       xlink:href="#linearGradient2145"
       id="radialGradient4311"
       gradientUnits="userSpaceOnUse"
       cx="11.901996"
       cy="10.045444"
       fx="11.901996"
       fy="10.045444"
       r="29.292715" />
    <linearGradient
       inkscape:collect="always"
       xlink:href="#linearGradient42174"
       id="linearGradient4313"
       gradientUnits="userSpaceOnUse"
       x1="6.3422160"
       y1="7.7893324"
       x2="22.218424"
       y2="25.884274" />
    <radialGradient
       inkscape:collect="always"
       xlink:href="#linearGradient5196"
       id="radialGradient5202"
       cx="23.375"
       cy="10.972863"
       fx="23.375"
       fy="10.972863"
       r="3.3478092"
       gradientTransform="matrix(3.63042,0,0,3.742066,-61.48607,-29.18618)"
       gradientUnits="userSpaceOnUse" />
    <linearGradient
       inkscape:collect="always"
       xlink:href="#linearGradient5204"
       id="linearGradient5210"
       x1="19.667364"
       y1="4.2570662"
       x2="20.329933"
       y2="5.2845874"
       gradientUnits="userSpaceOnUse" />
    <radialGradient
       inkscape:collect="always"
       xlink:href="#linearGradient37935"
       id="radialGradient5212"
       gradientUnits="userSpaceOnUse"
       cx="8.7468252"
       cy="6.8283234"
       fx="8.7468252"
       fy="6.8283234"
       r="29.889715" />
    <linearGradient
       inkscape:collect="always"
       id="linearGradient5060">
      <stop
         style="stop-color:black;stop-opacity:1;"
         offset="0"
         id="stop5062" />
      <stop
         style="stop-color:black;stop-opacity:0;"
         offset="1"
         id="stop5064" />
    </linearGradient>
    <linearGradient
       id="linearGradient5048">
      <stop
         style="stop-color:black;stop-opacity:0;"
         offset="0"
         id="stop5050" />
      <stop
         id="stop5056"
         offset="0.5"
         style="stop-color:black;stop-opacity:1;" />
      <stop
         style="stop-color:black;stop-opacity:0;"
         offset="1"
         id="stop5052" />
    </linearGradient>
    <linearGradient
       id="linearGradient12512">
      <stop
         style="stop-color:#ffffff;stop-opacity:1.0000000;"
         offset="0.0000000"
         id="stop12513" />
      <stop
         style="stop-color:#fff520;stop-opacity:0.89108908;"
         offset="0.50000000"
         id="stop12517" />
      <stop
         style="stop-color:#fff300;stop-opacity:0.0000000;"
         offset="1.0000000"
         id="stop12514" />
    </linearGradient>
    <radialGradient
       inkscape:collect="always"
       xlink:href="#linearGradient12512"
       id="radialGradient278"
       gradientUnits="userSpaceOnUse"
       cx="55.000000"
       cy="125.00000"
       fx="55.000000"
       fy="125.00000"
       r="14.375000" />
    <linearGradient
       id="linearGradient2094">
      <stop
         style="stop-color:#d6e3f0;stop-opacity:1.0000000;"
         offset="0.0000000"
         id="stop2096" />
      <stop
         style="stop-color:#95b1cf;stop-opacity:1.0000000;"
         offset="1.0000000"
         id="stop2098" />
    </linearGradient>
    <linearGradient
       id="linearGradient2803">
      <stop
         id="stop2805"
         offset="0"
         style="stop-color:#ffffff;stop-opacity:1;" />
      <stop
         id="stop2807"
         offset="1.0000000"
         style="stop-color:#cbcbcb;stop-opacity:1.0000000;" />
    </linearGradient>
    <linearGradient
       id="linearGradient2795">
      <stop
         id="stop2797"
         offset="0.0000000"
         style="stop-color:#000000;stop-opacity:0.068627454;" />
      <stop
         id="stop2799"
         offset="1.0000000"
         style="stop-color:#ffffff;stop-opacity:1.0000000;" />
    </linearGradient>
    <radialGradient
       inkscape:collect="always"
       xlink:href="#linearGradient5060"
       id="radialGradient5013"
       gradientUnits="userSpaceOnUse"
       cx="605.71429"
       cy="486.64789"
       fx="605.71429"
       fy="486.64789"
       r="117.14286"
       gradientTransform="matrix(2.774389,0,0,1.969706,-1891.633,-872.8854)" />
    <linearGradient
       inkscape:collect="always"
       xlink:href="#linearGradient5048"
       id="linearGradient5016"
       gradientUnits="userSpaceOnUse"
       x1="302.85715"
       y1="366.64789"
       x2="302.85715"
       y2="609.50507"
       gradientTransform="matrix(2.774389,0,0,1.969706,-1892.179,-872.8854)" />
    <radialGradient
       inkscape:collect="always"
       xlink:href="#linearGradient5060"
       id="radialGradient5020"
       gradientUnits="userSpaceOnUse"
       gradientTransform="matrix(-2.774389,0,0,1.969706,112.7623,-872.8854)"
       cx="605.71429"
       cy="486.64789"
       fx="605.71429"
       fy="486.64789"
       r="117.14286" />
    <radialGradient
       inkscape:collect="always"
       xlink:href="#linearGradient3816"
       id="radialGradient10122"
       gradientUnits="userSpaceOnUse"
       cx="31.112698"
       cy="19.008621"
       fx="31.112698"
       fy="19.008621"
       r="8.6620579" />
  </defs>
  <sodipodi:namedview
     id="base"
     pagecolor="#ffffff"
     bordercolor="#666666"
     borderopacity="1.0"
     inkscape:pageopacity="0.0"
     inkscape:pageshadow="2"
     inkscape:zoom="7.7781746"
     inkscape:cx="22.456736"
     inkscape:cy="26.035275"
     inkscape:current-layer="layer1"
     showgrid="true"
     inkscape:document-units="px"
     inkscape:grid-bbox="true"
     inkscape:window-width="979"
     inkscape:window-height="872"
     inkscape:window-x="4"
     inkscape:window-y="20" />
  <metadata
     id="metadata2681">
    <rdf:RDF>
      <cc:Work
         rdf:about="">
        <dc:format>image/svg+xml</dc:format>
        <dc:type
           rdf:resource="http://purl.org/dc/dcmitype/StillImage" />
      </cc:Work>
    </rdf:RDF>
  </metadata>
  <g
     id="layer1"
     inkscape:label="Layer 1"
     inkscape:groupmode="layer">
    <path
       d="M 39.774755 19.008621 A 8.6620579 8.6620579 0 1 1  22.45064,19.008621 A 8.6620579 8.6620579 0 1 1  39.774755 19.008621 z"
       sodipodi:ry="8.6620579"
       sodipodi:rx="8.6620579"
       sodipodi:cy="19.008621"
       sodipodi:cx="31.112698"
       id="path4318"
       style="color:#000000;fill:url(#radialGradient10122);fill-opacity:1;fill-rule:evenodd;stroke:none;stroke-width:1px;stroke-linecap:round;stroke-linejoin:round;marker:none;marker-start:none;marker-mid:none;marker-end:none;stroke-miterlimit:4;stroke-dasharray:none;stroke-dashoffset:0;stroke-opacity:1;visibility:visible;display:inline;overflow:visible"
       sodipodi:type="arc"
       transform="matrix(2.9713213,0,0,0.6852792,-59.326631,41.166387)" />
    <path
       sodipodi:type="arc"
       style="fill:#3465a4;fill-opacity:1;fill-rule:evenodd;stroke:#204a87;stroke-width:1.90387827;stroke-linecap:round;stroke-linejoin:miter;stroke-miterlimit:4;stroke-dasharray:none;stroke-dashoffset:0;stroke-opacity:1"
       id="path2745"
       sodipodi:cx="36.255295"
       sodipodi:cy="34.494362"
       sodipodi:rx="24.813021"
       sodipodi:ry="24.748737"
       d="M 61.068316 34.494362 A 24.813021 24.748737 0 1 1  11.442274,34.494362 A 24.813021 24.748737 0 1 1  61.068316 34.494362 z"
       transform="matrix(1.0592348,0,0,1.0418121,-6.1330881,-6.0063337)" />
    <path
       id="path7614"
       d="M 7.9176162,36.43481 C 7.9167964,35.967377 7.6676836,35.319287 7.6690148,34.205225 C 10.006439,33.316011 16.310043,31.941081 16.311348,30.439551 C 16.312653,28.93802 9.8159106,26.560397 7.6560212,26.719971 C 7.6555461,25.624145 7.6536026,24.751463 7.6491723,24.320504 C 9.2608286,24.320504 13.208944,25.52844 15.682561,26.961628 L 18.177666,28.407266 C 19.626561,27.464545 21.111313,26.605625 22.703683,25.959934 C 23.150758,25.959934 24.004778,27.983022 23.656408,28.216843 L 20.170118,30.248062 C 20.994726,30.929919 21.866525,31.541625 22.762102,32.122032 C 23.499165,32.518905 23.065803,34.665313 22.24861,34.665313 C 20.786959,34.192114 19.55175,33.2127 18.151664,32.592603 C 17.940968,32.592603 16.769314,33.190276 15.547989,33.920766 C 14.326664,34.651254 12.035688,35.566238 10.456934,35.954063 C 7.799104,36.606968 8.9417086,36.093537 7.9176162,36.43481 z M 56.364166,24.301768 C 56.370251,24.587512 56.373753,25.34004 56.374561,26.34294 C 49.779335,27.851748 48.121289,28.880174 48.057706,30.204884 C 47.994013,31.531833 53.235268,33.412909 56.346194,33.914587 C 56.335784,35.053334 56.322457,35.728571 56.306104,36.286005 C 54.473898,36.286005 50.522438,35.067113 48.298831,33.627361 L 46.075944,32.18807 L 44.711265,33.167404 C 41.936463,35.158681 41.512037,35.232657 40.771151,33.854153 L 40.104906,32.61453 L 41.804225,31.780408 C 42.738849,31.321639 43.619439,30.765856 43.761089,30.545334 C 43.902739,30.324813 43.238806,29.71588 42.285683,29.19215 C 40.414485,28.16395 40.31555,27.978073 40.992098,26.761766 C 41.589814,25.687181 42.0285,25.744721 44.253503,27.189535 L 46.147075,28.419135 L 48.126174,27.133999 C 50.207778,25.782301 54.51414,24.301768 56.364166,24.301768 z M 20.162658,45.794172 C 19.762283,45.578589 19.43846,45.178291 19.443051,44.904624 C 19.460789,43.847284 29.254684,22.864774 29.918536,22.461874 C 30.436665,22.147412 30.802844,22.211288 31.316783,22.705779 C 31.957934,23.322671 31.655004,24.175564 27.491124,33.47684 C 21.808414,46.170879 22.0004,45.776392 21.396835,45.999238 C 21.118415,46.102035 20.563034,46.009755 20.162658,45.794172 z M 41.492367,45.157647 L 37.106828,35.557473 L 37.880401,33.804946 L 38.653971,32.052421 C 40.46983,36.261522 42.718848,40.33288 43.90714,44.77644 C 43.738228,45.914886 42.04461,46.182249 41.492367,45.157647 z M 27.907982,38.119828 C 27.750006,37.967828 27.620753,37.526419 27.620753,37.138917 C 27.620753,36.199391 33.49189,23.449633 34.268717,22.7022 C 35.086363,21.915494 36.237647,22.398581 36.237647,23.528377 C 36.237647,24.412183 30.90664,36.836358 30.080457,37.878011 C 29.639951,38.433402 28.379686,38.573681 27.907982,38.119828 z M 32.665448,38.137313 C 32.020682,37.516944 32.483897,36.204415 36.460119,27.385016 C 42.442061,14.116863 42.131573,14.690607 43.247296,14.843172 C 43.825333,14.922214 44.252783,15.304959 44.319967,15.80366 C 44.381399,16.259656 42.248007,21.482883 39.579097,27.410832 C 35.686987,36.055642 34.552784,38.212891 33.848693,38.31004 C 33.365881,38.376657 32.833421,38.298931 32.665448,38.137313 z M 19.865548,15.816212 C 19.865548,14.99215 21.073793,14.509266 21.877201,15.01224 C 23.796216,18.44078 26.730558,22.398113 26.331296,26.460709 C 26.079576,27.306131 25.733558,28.080445 25.562365,28.181408 C 23.227503,24.339327 21.31406,20.095594 19.865548,15.816212 z "
       style="fill:#eeeeec;stroke-width:1;stroke-miterlimit:4;stroke-dasharray:none"
       sodipodi:nodetypes="cczccccccccccssccczccccccccssscccccsssssccccccccssssccssssscccccc" />
    <path
       style="fill:none;fill-opacity:1;fill-rule:evenodd;stroke:#729fcf;stroke-width:1.93397355;stroke-linecap:round;stroke-linejoin:miter;stroke-miterlimit:4;stroke-dasharray:none;stroke-dashoffset:0;stroke-opacity:1"
       d="M 56.456114,29.875112 C 56.456114,43.249947 45.176405,54.238125 31.834099,54.104884 C 18.615674,53.971645 7.2120841,42.750894 7.2120841,29.875112 C 7.2120841,17.124093 18.491645,5.7363799 31.834099,5.6453401 C 44.185568,5.5618374 56.456114,16.500279 56.456114,29.875112 z "
       id="path5656"
       sodipodi:nodetypes="czzsz" />
  </g>
</svg>
