<?xml version="1.0" encoding="UTF-8" standalone="no"?>
<!-- Created with Inkscape (http://www.inkscape.org/) -->
<svg
   xmlns:dc="http://purl.org/dc/elements/1.1/"
   xmlns:cc="http://web.resource.org/cc/"
   xmlns:rdf="http://www.w3.org/1999/02/22-rdf-syntax-ns#"
   xmlns:svg="http://www.w3.org/2000/svg"
   xmlns="http://www.w3.org/2000/svg"
   xmlns:xlink="http://www.w3.org/1999/xlink"
   xmlns:sodipodi="http://sodipodi.sourceforge.net/DTD/sodipodi-0.dtd"
   xmlns:inkscape="http://www.inkscape.org/namespaces/inkscape"
   width="64px"
   height="64px"
   id="svg2676"
   sodipodi:version="0.32"
   inkscape:version="0.45.1"
   sodipodi:docbase="D:\stefan\icons\self\Tango.Lang"
   sodipodi:docname="Langenscheidt.svg"
   inkscape:output_extension="org.inkscape.output.svg.inkscape"
   inkscape:export-filename="D:\stefan\icons\self\Tango.Lang\Langenscheidt_32x32.png"
   inkscape:export-xdpi="45"
   inkscape:export-ydpi="45">
  <defs
     id="defs2678">
    <radialGradient
       r="8.6620579"
       fy="19.008621"
       fx="31.112698"
       cy="19.008621"
       cx="31.112698"
       gradientUnits="userSpaceOnUse"
       id="radialGradient6115"
       xlink:href="#linearGradient3816"
       inkscape:collect="always" />
    <linearGradient
       y2="52.090678"
       x2="9.8855033"
       y1="37.197018"
       x1="8.9156475"
       gradientTransform="matrix(3.123841,0,0,0.969691,-79.083924,272.77319)"
       gradientUnits="userSpaceOnUse"
       id="linearGradient6112"
       xlink:href="#linearGradient2152"
       inkscape:collect="always" />
    <linearGradient
       inkscape:collect="always"
       id="linearGradient5204">
      <stop
         style="stop-color:#c4a000;stop-opacity:1;"
         offset="0"
         id="stop5206" />
      <stop
         style="stop-color:#c4a000;stop-opacity:0;"
         offset="1"
         id="stop5208" />
    </linearGradient>
    <linearGradient
       inkscape:collect="always"
       id="linearGradient5196">
      <stop
         style="stop-color:#c4a000;stop-opacity:1;"
         offset="0"
         id="stop5198" />
      <stop
         style="stop-color:#c4a000;stop-opacity:0;"
         offset="1"
         id="stop5200" />
    </linearGradient>
    <linearGradient
       id="linearGradient6045">
      <stop
         style="stop-color:#ffffff;stop-opacity:1.0000000;"
         offset="0.0000000"
         id="stop6047" />
      <stop
         style="stop-color:#fff520;stop-opacity:0.89108908;"
         offset="0.50000000"
         id="stop6049" />
      <stop
         style="stop-color:#fff300;stop-opacity:0.0000000;"
         offset="1.0000000"
         id="stop6051" />
    </linearGradient>
    <radialGradient
       inkscape:collect="always"
       xlink:href="#linearGradient12512"
       id="radialGradient6053"
       gradientUnits="userSpaceOnUse"
       cx="55.000000"
       cy="125.00000"
       fx="55.000000"
       fy="125.00000"
       r="14.375000" />
    <linearGradient
       id="linearGradient10653">
      <stop
         style="stop-color:#f3f4ff;stop-opacity:1.0000000;"
         offset="0.0000000"
         id="stop10655" />
      <stop
         style="stop-color:#9193af;stop-opacity:1.0000000;"
         offset="1.0000000"
         id="stop10657" />
    </linearGradient>
    <linearGradient
       id="linearGradient42174">
      <stop
         style="stop-color:#a0a0a0;stop-opacity:1.0000000;"
         offset="0.0000000"
         id="stop42176" />
      <stop
         style="stop-color:#ffffff;stop-opacity:1.0000000;"
         offset="1.0000000"
         id="stop42178" />
    </linearGradient>
    <linearGradient
       id="linearGradient2145">
      <stop
         style="stop-color:#fffffd;stop-opacity:1.0000000;"
         offset="0.0000000"
         id="stop2147" />
      <stop
         style="stop-color:#cbcbc9;stop-opacity:1.0000000;"
         offset="1.0000000"
         id="stop2149" />
    </linearGradient>
    <linearGradient
       id="linearGradient37935">
      <stop
         id="stop37937"
         offset="0.0000000"
         style="stop-color:#9497b3;stop-opacity:1.0000000;" />
      <stop
         id="stop37939"
         offset="1.0000000"
         style="stop-color:#4c4059;stop-opacity:1.0000000;" />
    </linearGradient>
    <linearGradient
       id="linearGradient2152">
      <stop
         id="stop2154"
         offset="0.0000000"
         style="stop-color:#9aa29a;stop-opacity:1.0000000;" />
      <stop
         id="stop2156"
         offset="1.0000000"
         style="stop-color:#b5beb5;stop-opacity:1.0000000;" />
    </linearGradient>
    <linearGradient
       inkscape:collect="always"
       id="linearGradient3816">
      <stop
         style="stop-color:#000000;stop-opacity:1;"
         offset="0"
         id="stop3818" />
      <stop
         style="stop-color:#000000;stop-opacity:0;"
         offset="1"
         id="stop3820" />
    </linearGradient>
    <radialGradient
       inkscape:collect="always"
       xlink:href="#linearGradient3816"
       id="radialGradient3822"
       cx="31.112698"
       cy="19.008621"
       fx="31.112698"
       fy="19.008621"
       r="8.6620579"
       gradientUnits="userSpaceOnUse" />
    <linearGradient
       inkscape:collect="always"
       xlink:href="#linearGradient2152"
       id="linearGradient4307"
       gradientUnits="userSpaceOnUse"
       gradientTransform="matrix(3.123841,0,0,0.969691,-31.88758,-19.59492)"
       x1="8.9156475"
       y1="37.197018"
       x2="9.8855033"
       y2="52.090678" />
    <radialGradient
       inkscape:collect="always"
       xlink:href="#linearGradient10653"
       id="radialGradient4309"
       gradientUnits="userSpaceOnUse"
       cx="11.329200"
       cy="10.583970"
       fx="11.329200"
       fy="10.583970"
       r="15.532059" />
    <radialGradient
       inkscape:collect="always"
       xlink:href="#linearGradient2145"
       id="radialGradient4311"
       gradientUnits="userSpaceOnUse"
       cx="11.901996"
       cy="10.045444"
       fx="11.901996"
       fy="10.045444"
       r="29.292715" />
    <linearGradient
       inkscape:collect="always"
       xlink:href="#linearGradient42174"
       id="linearGradient4313"
       gradientUnits="userSpaceOnUse"
       x1="6.3422160"
       y1="7.7893324"
       x2="22.218424"
       y2="25.884274" />
    <radialGradient
       inkscape:collect="always"
       xlink:href="#linearGradient5196"
       id="radialGradient5202"
       cx="23.375"
       cy="10.972863"
       fx="23.375"
       fy="10.972863"
       r="3.3478092"
       gradientTransform="matrix(3.63042,0,0,3.742066,-61.48607,-29.18618)"
       gradientUnits="userSpaceOnUse" />
    <linearGradient
       inkscape:collect="always"
       xlink:href="#linearGradient5204"
       id="linearGradient5210"
       x1="19.667364"
       y1="4.2570662"
       x2="20.329933"
       y2="5.2845874"
       gradientUnits="userSpaceOnUse" />
    <radialGradient
       inkscape:collect="always"
       xlink:href="#linearGradient37935"
       id="radialGradient5212"
       gradientUnits="userSpaceOnUse"
       cx="8.7468252"
       cy="6.8283234"
       fx="8.7468252"
       fy="6.8283234"
       r="29.889715" />
    <radialGradient
       r="117.14286"
       fy="486.64789"
       fx="605.71429"
       cy="486.64789"
       cx="605.71429"
       gradientTransform="matrix(-2.774389,0,0,1.969706,112.7623,-872.8854)"
       gradientUnits="userSpaceOnUse"
       id="radialGradient5441"
       xlink:href="#linearGradient5060"
       inkscape:collect="always" />
    <radialGradient
       r="117.14286"
       fy="486.64789"
       fx="605.71429"
       cy="486.64789"
       cx="605.71429"
       gradientTransform="matrix(2.774389,0,0,1.969706,-1891.633,-872.8854)"
       gradientUnits="userSpaceOnUse"
       id="radialGradient5439"
       xlink:href="#linearGradient5060"
       inkscape:collect="always" />
    <linearGradient
       y2="609.50507"
       x2="302.85715"
       y1="366.64789"
       x1="302.85715"
       gradientTransform="matrix(2.774389,0,0,1.969706,-1892.179,-872.8854)"
       gradientUnits="userSpaceOnUse"
       id="linearGradient5437"
       xlink:href="#linearGradient5048"
       inkscape:collect="always" />
    <linearGradient
       inkscape:collect="always"
       id="linearGradient5060">
      <stop
         style="stop-color:black;stop-opacity:1;"
         offset="0"
         id="stop5062" />
      <stop
         style="stop-color:black;stop-opacity:0;"
         offset="1"
         id="stop5064" />
    </linearGradient>
    <linearGradient
       id="linearGradient5048">
      <stop
         style="stop-color:black;stop-opacity:0;"
         offset="0"
         id="stop5050" />
      <stop
         id="stop5056"
         offset="0.5"
         style="stop-color:black;stop-opacity:1;" />
      <stop
         style="stop-color:black;stop-opacity:0;"
         offset="1"
         id="stop5052" />
    </linearGradient>
    <linearGradient
       id="linearGradient12512">
      <stop
         style="stop-color:#ffffff;stop-opacity:1.0000000;"
         offset="0.0000000"
         id="stop12513" />
      <stop
         style="stop-color:#fff520;stop-opacity:0.89108908;"
         offset="0.50000000"
         id="stop12517" />
      <stop
         style="stop-color:#fff300;stop-opacity:0.0000000;"
         offset="1.0000000"
         id="stop12514" />
    </linearGradient>
    <radialGradient
       inkscape:collect="always"
       xlink:href="#linearGradient12512"
       id="radialGradient278"
       gradientUnits="userSpaceOnUse"
       cx="55.000000"
       cy="125.00000"
       fx="55.000000"
       fy="125.00000"
       r="14.375000" />
    <linearGradient
       id="linearGradient2094">
      <stop
         style="stop-color:#d6e3f0;stop-opacity:1.0000000;"
         offset="0.0000000"
         id="stop2096" />
      <stop
         style="stop-color:#95b1cf;stop-opacity:1.0000000;"
         offset="1.0000000"
         id="stop2098" />
    </linearGradient>
    <linearGradient
       id="linearGradient2803">
      <stop
         id="stop2805"
         offset="0"
         style="stop-color:#ffffff;stop-opacity:1;" />
      <stop
         id="stop2807"
         offset="1.0000000"
         style="stop-color:#cbcbcb;stop-opacity:1.0000000;" />
    </linearGradient>
    <linearGradient
       id="linearGradient2795">
      <stop
         id="stop2797"
         offset="0.0000000"
         style="stop-color:#000000;stop-opacity:0.068627454;" />
      <stop
         id="stop2799"
         offset="1.0000000"
         style="stop-color:#ffffff;stop-opacity:1.0000000;" />
    </linearGradient>
    <radialGradient
       inkscape:collect="always"
       xlink:href="#linearGradient5060"
       id="radialGradient5013"
       gradientUnits="userSpaceOnUse"
       cx="605.71429"
       cy="486.64789"
       fx="605.71429"
       fy="486.64789"
       r="117.14286"
       gradientTransform="matrix(2.774389,0,0,1.969706,-1891.633,-872.8854)" />
    <linearGradient
       inkscape:collect="always"
       xlink:href="#linearGradient5048"
       id="linearGradient5016"
       gradientUnits="userSpaceOnUse"
       x1="302.85715"
       y1="366.64789"
       x2="302.85715"
       y2="609.50507"
       gradientTransform="matrix(2.774389,0,0,1.969706,-1892.179,-872.8854)" />
    <radialGradient
       inkscape:collect="always"
       xlink:href="#linearGradient5060"
       id="radialGradient5020"
       gradientUnits="userSpaceOnUse"
       gradientTransform="matrix(-2.774389,0,0,1.969706,112.7623,-872.8854)"
       cx="605.71429"
       cy="486.64789"
       fx="605.71429"
       fy="486.64789"
       r="117.14286" />
    <linearGradient
       inkscape:collect="always"
       xlink:href="#linearGradient5048"
       id="linearGradient9025"
       gradientUnits="userSpaceOnUse"
       gradientTransform="matrix(2.774389,0,0,1.969706,-1892.179,-872.8854)"
       x1="302.85715"
       y1="366.64789"
       x2="302.85715"
       y2="609.50507" />
    <radialGradient
       inkscape:collect="always"
       xlink:href="#linearGradient5060"
       id="radialGradient9027"
       gradientUnits="userSpaceOnUse"
       gradientTransform="matrix(2.774389,0,0,1.969706,-1891.633,-872.8854)"
       cx="605.71429"
       cy="486.64789"
       fx="605.71429"
       fy="486.64789"
       r="117.14286" />
    <radialGradient
       inkscape:collect="always"
       xlink:href="#linearGradient5060"
       id="radialGradient9029"
       gradientUnits="userSpaceOnUse"
       gradientTransform="matrix(-2.774389,0,0,1.969706,112.7623,-872.8854)"
       cx="605.71429"
       cy="486.64789"
       fx="605.71429"
       fy="486.64789"
       r="117.14286" />
    <linearGradient
       inkscape:collect="always"
       xlink:href="#linearGradient5048"
       id="linearGradient9047"
       gradientUnits="userSpaceOnUse"
       gradientTransform="matrix(2.774389,0,0,1.969706,-1892.179,-872.8854)"
       x1="302.85715"
       y1="366.64789"
       x2="302.85715"
       y2="609.50507" />
    <radialGradient
       inkscape:collect="always"
       xlink:href="#linearGradient5060"
       id="radialGradient9049"
       gradientUnits="userSpaceOnUse"
       gradientTransform="matrix(2.774389,0,0,1.969706,-1891.633,-872.8854)"
       cx="605.71429"
       cy="486.64789"
       fx="605.71429"
       fy="486.64789"
       r="117.14286" />
    <radialGradient
       inkscape:collect="always"
       xlink:href="#linearGradient5060"
       id="radialGradient9051"
       gradientUnits="userSpaceOnUse"
       gradientTransform="matrix(-2.774389,0,0,1.969706,112.7623,-872.8854)"
       cx="605.71429"
       cy="486.64789"
       fx="605.71429"
       fy="486.64789"
       r="117.14286" />
  </defs>
  <sodipodi:namedview
     id="base"
     pagecolor="#ffffff"
     bordercolor="#666666"
     borderopacity="1.0"
     inkscape:pageopacity="0.0"
     inkscape:pageshadow="2"
     inkscape:zoom="5.5"
     inkscape:cx="36.38678"
     inkscape:cy="33.456203"
     inkscape:current-layer="layer1"
     showgrid="true"
     inkscape:document-units="px"
     inkscape:grid-bbox="true"
     inkscape:window-width="1280"
     inkscape:window-height="911"
     inkscape:window-x="-4"
     inkscape:window-y="22" />
  <metadata
     id="metadata2681">
    <rdf:RDF>
      <cc:Work
         rdf:about="">
        <dc:format>image/svg+xml</dc:format>
        <dc:type
           rdf:resource="http://purl.org/dc/dcmitype/StillImage" />
      </cc:Work>
    </rdf:RDF>
  </metadata>
  <g
     id="layer1"
     inkscape:label="Layer 1"
     inkscape:groupmode="layer">
    <g
       id="g9036"
       transform="translate(0,-2.1051603)">
      <g
         transform="matrix(3.1949364e-2,0,0,2.2174139e-2,60.4169,56.159755)"
         id="g5022">
        <rect
           style="opacity:0.40206185;color:#000000;fill:url(#linearGradient9047);fill-opacity:1;fill-rule:nonzero;stroke:none;stroke-width:1;stroke-linecap:round;stroke-linejoin:miter;marker:none;marker-start:none;marker-mid:none;marker-end:none;stroke-miterlimit:4;stroke-dasharray:none;stroke-dashoffset:0;stroke-opacity:1;visibility:visible;display:inline;overflow:visible"
           id="rect4173"
           width="1339.6335"
           height="478.35718"
           x="-1559.2523"
           y="-150.69685" />
        <path
           style="opacity:0.40206185;color:#000000;fill:url(#radialGradient9049);fill-opacity:1;fill-rule:nonzero;stroke:none;stroke-width:1;stroke-linecap:round;stroke-linejoin:miter;marker:none;marker-start:none;marker-mid:none;marker-end:none;stroke-miterlimit:4;stroke-dasharray:none;stroke-dashoffset:0;stroke-opacity:1;visibility:visible;display:inline;overflow:visible"
           d="M -219.61876,-150.68038 C -219.61876,-150.68038 -219.61876,327.65041 -219.61876,327.65041 C -76.744594,328.55086 125.78146,220.48075 125.78138,88.454235 C 125.78138,-43.572302 -33.655436,-150.68036 -219.61876,-150.68038 z "
           id="path5058"
           sodipodi:nodetypes="cccc" />
        <path
           sodipodi:nodetypes="cccc"
           id="path5018"
           d="M -1559.2523,-150.68038 C -1559.2523,-150.68038 -1559.2523,327.65041 -1559.2523,327.65041 C -1702.1265,328.55086 -1904.6525,220.48075 -1904.6525,88.454235 C -1904.6525,-43.572302 -1745.2157,-150.68036 -1559.2523,-150.68038 z "
           style="opacity:0.40206185;color:#000000;fill:url(#radialGradient9051);fill-opacity:1;fill-rule:nonzero;stroke:none;stroke-width:1;stroke-linecap:round;stroke-linejoin:miter;marker:none;marker-start:none;marker-mid:none;marker-end:none;stroke-miterlimit:4;stroke-dasharray:none;stroke-dashoffset:0;stroke-opacity:1;visibility:visible;display:inline;overflow:visible" />
      </g>
      <g
         transform="translate(0,0.3636364)"
         id="g8746">
        <rect
           style="fill:#edd400;fill-opacity:1;fill-rule:evenodd;stroke:#c4a000;stroke-width:0.89728391;stroke-linecap:round;stroke-linejoin:round;stroke-miterlimit:4;stroke-dasharray:none;stroke-dashoffset:0;stroke-opacity:1"
           id="rect3745"
           width="53.417347"
           height="54.260029"
           x="5.2913265"
           y="4.8699856"
           ry="6.2481246"
           rx="6.3129587" />
        <path
           style="fill:none;fill-opacity:1;fill-rule:evenodd;stroke:#fce94f;stroke-width:0.86775661;stroke-linecap:round;stroke-linejoin:round;stroke-miterlimit:4;stroke-dashoffset:0;stroke-opacity:1"
           d="M 12.422368,5.4692988 L 51.763694,5.4692988 C 55.136744,5.4692988 57.852232,7.8502306 57.852232,11.206954 L 57.868303,52.623058 C 57.868303,55.979782 55.715286,58.26429 52.342236,58.26429 L 11.827755,58.26429 C 8.4547056,58.26429 6.1570536,56.269052 6.1570536,52.912328 L 6.1570536,11.528366 C 6.1088418,7.5770303 9.0493181,5.4692988 12.422368,5.4692988 z "
           id="rect4719"
           sodipodi:nodetypes="ccccccccc" />
        <path
           style="fill:#3465a4;fill-rule:evenodd"
           d="M 50.883032,10.669145 L 12.843877,10.669145 L 12.843877,46.479874 L 51.156123,46.479874 L 51.156123,10.669145 L 50.883032,10.669145 z M 13.656192,45.696854 L 13.656192,45.60099 L 13.656192,11.451782 L 50.343708,11.451782 L 50.343708,45.696854 L 13.656192,45.696854 z M 24.047115,12.942282 L 39.774669,12.942282 L 39.774669,14.642726 L 35.280885,14.642726 L 35.280885,42.300953 L 41.358624,42.300953 C 41.325606,42.313317 48.765426,33.783687 48.765426,33.783687 L 48.765426,44.229744 L 24.047115,44.229744 L 24.047115,42.300953 L 28.540403,42.300953 L 28.540403,14.642726 L 24.047115,14.642726 L 24.047115,12.942282 L 24.047115,12.942282 z "
           id="path12" />
        <path
           d="M 12.591957,52.111197 L 12.591957,47.472363 L 13.42577,47.472363 L 13.42577,51.365344 L 15.321726,51.365344 L 15.321726,52.111197 L 12.591957,52.111197 z M 49.010252,52.111197 L 48.375911,52.111197 L 48.338562,51.750767 C 48.073504,52.026264 47.825287,52.175249 47.488156,52.175249 C 46.65347,52.175249 46.230866,51.390381 46.230866,50.349742 C 46.230866,49.527672 46.678755,48.705779 47.488156,48.705779 C 47.740901,48.705779 48.096379,48.866043 48.248765,49.078152 L 48.260868,49.078152 L 48.260868,47.472363 L 49.010252,47.472363 L 49.010252,52.111197 z M 48.260868,49.631404 C 48.110184,49.48242 47.921988,49.347192 47.68155,49.347192 C 47.233662,49.347192 46.979414,49.733323 46.979414,50.439719 C 46.979414,51.146556 47.233662,51.532907 47.68155,51.532907 C 48.002091,51.532907 48.103279,51.365344 48.260868,51.237459 L 48.260868,49.631404 z M 50.042619,48.770539 L 50.042619,47.664256 L 50.791999,47.664256 L 50.791999,48.770539 L 51.408043,48.770539 L 51.408043,49.412661 L 50.791999,49.412661 L 50.791999,51.301291 C 50.791999,51.481018 50.875807,51.532907 51.063799,51.532907 C 51.177964,51.532907 51.299034,51.493184 51.408043,51.468146 L 51.408043,52.123362 C 51.201709,52.148398 51.021291,52.175249 50.816413,52.175249 C 50.260428,52.175249 50.042619,51.879536 50.042619,51.404138 L 50.042619,49.412661 L 49.608577,49.412661 L 49.608577,48.770539 L 50.042619,48.770539 z M 45.557883,52.111197 L 44.807838,52.111197 L 44.807838,48.770539 L 45.557883,48.770539 L 45.557883,52.111197 z M 44.807838,48.1535 L 44.808462,48.1535 L 44.808462,47.406895 L 45.557883,47.406895 L 45.557883,48.1535 L 44.808462,48.1535 L 44.807838,48.1535 z M 17.726422,52.111197 L 17.678468,51.821234 C 17.376977,52.040022 17.092952,52.175249 16.699212,52.175249 C 16.131997,52.175249 15.847934,51.743423 15.847934,51.287533 C 15.847934,50.530401 16.4275,50.13122 17.648065,49.977148 L 17.648065,49.694573 C 17.648065,49.437918 17.456207,49.296056 17.18961,49.296056 C 16.839332,49.296056 16.645063,49.495293 16.501283,49.707666 L 16.016958,49.315519 C 16.210314,48.962433 16.729657,48.692729 17.18961,48.705779 C 18.03486,48.725109 18.397239,49.052452 18.397239,50.054958 L 18.397239,51.628456 C 18.397239,51.795311 18.410216,51.962876 18.459002,52.111197 L 17.726422,52.111197 z M 17.648065,50.510893 C 17.146855,50.613033 16.596485,50.723001 16.596485,51.191101 C 16.596485,51.442269 16.748665,51.584796 16.958906,51.584796 C 17.19564,51.584796 17.491143,51.371758 17.648065,51.230116 L 17.648065,50.510893 z M 19.334654,52.111197 L 19.334654,48.770539 L 20.022982,48.770539 L 20.022982,49.128447 C 20.300766,48.924389 20.621472,48.705779 20.988428,48.705779 C 21.616533,48.705779 21.918896,49.142206 21.918896,49.823342 L 21.918896,52.111197 L 21.168849,52.111197 L 21.168849,49.938354 C 21.168849,49.488834 21.037172,49.347192 20.783594,49.347192 C 20.457688,49.347192 20.210348,49.547136 20.083828,49.700987 L 20.083828,52.111197 L 19.334654,52.111197 z M 25.500818,49.245053 C 25.325554,49.245053 25.133031,49.245053 25.018614,49.321934 C 25.114648,49.463841 25.186351,49.656442 25.186351,49.913317 C 25.186351,50.542565 24.788743,50.992041 24.003718,50.992041 C 23.678685,50.992041 23.418993,51.006506 23.418993,51.197736 C 23.418993,51.738602 25.483142,51.006506 25.483142,52.341221 C 25.483142,52.817326 25.029429,53.330855 24.027257,53.330855 C 23.182883,53.330855 22.625565,53.06208 22.625565,52.534751 C 22.625565,52.117611 22.921692,51.917667 23.193447,51.917667 L 23.193447,51.905502 C 23.048876,51.809069 22.729001,51.725775 22.729001,51.365344 C 22.729001,51.043708 23.079279,50.799219 23.218691,50.754674 C 22.958208,50.530401 22.753374,50.271889 22.753374,49.868771 C 22.753374,49.284068 23.175978,48.705779 23.990783,48.705779 C 24.255841,48.705779 24.570933,48.820791 24.762872,49.00127 C 24.908982,48.795577 25.145965,48.692729 25.500818,48.705779 L 25.500818,49.245053 z M 23.314517,52.430975 C 23.314517,52.688557 23.520266,52.804454 24.147705,52.804454 C 24.632694,52.804454 24.79415,52.546915 24.79415,52.430975 C 24.79415,52.278097 24.570933,52.046437 23.846171,52.046437 C 23.436502,52.046437 23.314517,52.290261 23.314517,52.430975 z M 23.983879,49.296056 C 23.664211,49.296056 23.441701,49.539837 23.441701,49.849308 C 23.441701,50.158735 23.664211,50.401588 23.983879,50.401588 C 24.26944,50.401588 24.497815,50.158735 24.497815,49.849308 C 24.497815,49.539837 24.26944,49.296056 23.983879,49.296056 z M 26.622979,50.568488 C 26.63529,51.263204 26.925344,51.532907 27.275663,51.532907 C 27.625983,51.532907 27.788728,51.365344 27.976094,51.134391 L 28.519143,51.493184 C 28.229714,51.968671 27.806403,52.175249 27.203337,52.175249 C 26.3877,52.175249 25.873804,51.500571 25.873804,50.439719 C 25.873804,49.378643 26.3877,48.705779 27.238356,48.705779 C 28.060689,48.699143 28.519143,49.437918 28.519143,50.240437 L 28.519143,50.568488 L 26.622979,50.568488 z M 27.831441,50.029036 C 27.818507,49.566688 27.5893,49.296056 27.226046,49.296056 C 26.863624,49.296056 26.63529,49.566688 26.622979,50.029036 L 27.831441,50.029036 z M 29.228849,52.111197 L 29.228849,48.770539 L 29.9178,48.770539 L 29.9178,49.128447 C 30.194296,48.924389 30.515459,48.705779 30.883245,48.705779 C 31.511559,48.705779 31.813759,49.142206 31.813759,49.823342 L 31.813759,52.111197 L 31.064541,52.111197 L 31.064541,49.938354 C 31.064541,49.488834 30.932033,49.347192 30.678413,49.347192 C 30.352716,49.347192 30.104294,49.547136 29.97711,49.700987 L 29.97711,52.111197 L 29.228849,52.111197 z M 34.177445,49.650027 C 34.025888,49.476006 33.82625,49.296056 33.590972,49.296056 C 33.300253,49.296056 33.167703,49.424826 33.167703,49.624106 C 33.167703,50.195936 34.738629,49.951227 34.738629,51.172521 C 34.738629,51.866707 34.242823,52.175249 33.584941,52.175249 C 33.083979,52.175249 32.672771,51.937839 32.39561,51.500571 L 32.89728,51.102054 C 33.071671,51.358929 33.30541,51.584796 33.625951,51.584796 C 33.89338,51.584796 34.073839,51.429396 34.073839,51.204858 C 34.073839,50.633248 32.504415,50.838013 32.504415,49.67595 C 32.504415,49.052452 33.000217,48.705779 33.542184,48.705779 C 33.959631,48.705779 34.375996,48.872502 34.647089,49.212009 L 34.177445,49.650027 z M 37.13251,49.855722 C 37.011397,49.572174 36.87889,49.347192 36.514968,49.347192 C 36.099269,49.347192 35.899635,49.694573 35.899635,50.439719 C 35.899635,51.185615 36.099269,51.532907 36.540006,51.532907 C 36.865913,51.532907 37.053281,51.294832 37.203964,50.999162 L 37.772049,51.339378 C 37.470519,51.937839 37.089753,52.180735 36.514968,52.175249 C 35.664357,52.175249 35.150418,51.500571 35.150418,50.439719 C 35.150418,49.378643 35.664357,48.705779 36.514968,48.705779 C 37.107221,48.705779 37.579529,49.039401 37.75392,49.599068 L 37.13251,49.855722 z M 38.25704,52.111197 L 38.25704,47.472363 L 39.006467,47.472363 L 39.006467,49.128447 C 39.235672,48.924389 39.544775,48.705779 39.914058,48.705779 C 40.540624,48.705779 40.841534,49.142206 40.841534,49.823342 L 40.841534,52.111197 L 40.094521,52.111197 L 40.094521,49.938354 C 40.094521,49.488834 39.961306,49.347192 39.706854,49.347192 C 39.381822,49.347192 39.132735,49.547136 39.006467,49.700987 L 39.006467,52.111197 L 38.25704,52.111197 z M 42.170232,50.568488 C 42.182335,51.263204 42.47239,51.532907 42.822752,51.532907 C 43.173027,51.532907 43.334483,51.365344 43.522475,51.134391 L 44.066856,51.493184 C 43.776759,51.968671 43.35503,52.175249 42.74955,52.175249 C 41.934955,52.175249 41.420187,51.500571 41.420187,50.439719 C 41.420187,49.378643 41.934955,48.705779 42.786235,48.705779 C 43.607069,48.699143 44.066856,49.437918 44.066856,50.240437 L 44.066856,50.568488 L 42.170232,50.568488 z M 43.378529,50.029036 C 43.366426,49.566688 43.135682,49.296056 42.7733,49.296056 C 42.41221,49.296056 42.182335,49.566688 42.170232,50.029036 L 43.378529,50.029036 z "
           style="fill:#2e3436;fill-opacity:1;fill-rule:evenodd"
           id="path14" />
      </g>
    </g>
  </g>
</svg>
