<?xml version="1.0" encoding="UTF-8" standalone="no"?>
<!-- Created with Inkscape (http://www.inkscape.org/) -->
<svg
   xmlns:dc="http://purl.org/dc/elements/1.1/"
   xmlns:cc="http://web.resource.org/cc/"
   xmlns:rdf="http://www.w3.org/1999/02/22-rdf-syntax-ns#"
   xmlns:svg="http://www.w3.org/2000/svg"
   xmlns="http://www.w3.org/2000/svg"
   xmlns:xlink="http://www.w3.org/1999/xlink"
   xmlns:sodipodi="http://sodipodi.sourceforge.net/DTD/sodipodi-0.dtd"
   xmlns:inkscape="http://www.inkscape.org/namespaces/inkscape"
   width="64px"
   height="64px"
   id="svg2676"
   sodipodi:version="0.32"
   inkscape:version="0.45.1"
   sodipodi:docbase="D:\stefan\icons\self\miro tango icon"
   sodipodi:docname="miro.svg"
   inkscape:output_extension="org.inkscape.output.svg.inkscape">
  <defs
     id="defs2678">
    <radialGradient
       r="8.6620579"
       fy="19.008621"
       fx="31.112698"
       cy="19.008621"
       cx="31.112698"
       gradientUnits="userSpaceOnUse"
       id="radialGradient6115"
       xlink:href="#linearGradient3816"
       inkscape:collect="always" />
    <linearGradient
       y2="52.090678"
       x2="9.8855033"
       y1="37.197018"
       x1="8.9156475"
       gradientTransform="matrix(3.123841,0,0,0.969691,-79.083924,272.77319)"
       gradientUnits="userSpaceOnUse"
       id="linearGradient6112"
       xlink:href="#linearGradient2152"
       inkscape:collect="always" />
    <linearGradient
       inkscape:collect="always"
       id="linearGradient5204">
      <stop
         style="stop-color:#c4a000;stop-opacity:1;"
         offset="0"
         id="stop5206" />
      <stop
         style="stop-color:#c4a000;stop-opacity:0;"
         offset="1"
         id="stop5208" />
    </linearGradient>
    <linearGradient
       inkscape:collect="always"
       id="linearGradient5196">
      <stop
         style="stop-color:#c4a000;stop-opacity:1;"
         offset="0"
         id="stop5198" />
      <stop
         style="stop-color:#c4a000;stop-opacity:0;"
         offset="1"
         id="stop5200" />
    </linearGradient>
    <linearGradient
       id="linearGradient6045">
      <stop
         style="stop-color:#ffffff;stop-opacity:1.0000000;"
         offset="0.0000000"
         id="stop6047" />
      <stop
         style="stop-color:#fff520;stop-opacity:0.89108908;"
         offset="0.50000000"
         id="stop6049" />
      <stop
         style="stop-color:#fff300;stop-opacity:0.0000000;"
         offset="1.0000000"
         id="stop6051" />
    </linearGradient>
    <radialGradient
       inkscape:collect="always"
       xlink:href="#linearGradient12512"
       id="radialGradient6053"
       gradientUnits="userSpaceOnUse"
       cx="55.000000"
       cy="125.00000"
       fx="55.000000"
       fy="125.00000"
       r="14.375000" />
    <linearGradient
       id="linearGradient10653">
      <stop
         style="stop-color:#f3f4ff;stop-opacity:1.0000000;"
         offset="0.0000000"
         id="stop10655" />
      <stop
         style="stop-color:#9193af;stop-opacity:1.0000000;"
         offset="1.0000000"
         id="stop10657" />
    </linearGradient>
    <linearGradient
       id="linearGradient42174">
      <stop
         style="stop-color:#a0a0a0;stop-opacity:1.0000000;"
         offset="0.0000000"
         id="stop42176" />
      <stop
         style="stop-color:#ffffff;stop-opacity:1.0000000;"
         offset="1.0000000"
         id="stop42178" />
    </linearGradient>
    <linearGradient
       id="linearGradient2145">
      <stop
         style="stop-color:#fffffd;stop-opacity:1.0000000;"
         offset="0.0000000"
         id="stop2147" />
      <stop
         style="stop-color:#cbcbc9;stop-opacity:1.0000000;"
         offset="1.0000000"
         id="stop2149" />
    </linearGradient>
    <linearGradient
       id="linearGradient37935">
      <stop
         id="stop37937"
         offset="0.0000000"
         style="stop-color:#9497b3;stop-opacity:1.0000000;" />
      <stop
         id="stop37939"
         offset="1.0000000"
         style="stop-color:#4c4059;stop-opacity:1.0000000;" />
    </linearGradient>
    <linearGradient
       id="linearGradient2152">
      <stop
         id="stop2154"
         offset="0.0000000"
         style="stop-color:#9aa29a;stop-opacity:1.0000000;" />
      <stop
         id="stop2156"
         offset="1.0000000"
         style="stop-color:#b5beb5;stop-opacity:1.0000000;" />
    </linearGradient>
    <linearGradient
       inkscape:collect="always"
       id="linearGradient3816">
      <stop
         style="stop-color:#000000;stop-opacity:1;"
         offset="0"
         id="stop3818" />
      <stop
         style="stop-color:#000000;stop-opacity:0;"
         offset="1"
         id="stop3820" />
    </linearGradient>
    <radialGradient
       inkscape:collect="always"
       xlink:href="#linearGradient3816"
       id="radialGradient3822"
       cx="31.112698"
       cy="19.008621"
       fx="31.112698"
       fy="19.008621"
       r="8.6620579"
       gradientUnits="userSpaceOnUse" />
    <linearGradient
       inkscape:collect="always"
       xlink:href="#linearGradient2152"
       id="linearGradient4307"
       gradientUnits="userSpaceOnUse"
       gradientTransform="matrix(3.123841,0,0,0.969691,-31.88758,-19.59492)"
       x1="8.9156475"
       y1="37.197018"
       x2="9.8855033"
       y2="52.090678" />
    <radialGradient
       inkscape:collect="always"
       xlink:href="#linearGradient10653"
       id="radialGradient4309"
       gradientUnits="userSpaceOnUse"
       cx="11.329200"
       cy="10.583970"
       fx="11.329200"
       fy="10.583970"
       r="15.532059" />
    <radialGradient
       inkscape:collect="always"
       xlink:href="#linearGradient2145"
       id="radialGradient4311"
       gradientUnits="userSpaceOnUse"
       cx="11.901996"
       cy="10.045444"
       fx="11.901996"
       fy="10.045444"
       r="29.292715" />
    <linearGradient
       inkscape:collect="always"
       xlink:href="#linearGradient42174"
       id="linearGradient4313"
       gradientUnits="userSpaceOnUse"
       x1="6.3422160"
       y1="7.7893324"
       x2="22.218424"
       y2="25.884274" />
    <radialGradient
       inkscape:collect="always"
       xlink:href="#linearGradient5196"
       id="radialGradient5202"
       cx="23.375"
       cy="10.972863"
       fx="23.375"
       fy="10.972863"
       r="3.3478092"
       gradientTransform="matrix(3.63042,0,0,3.742066,-61.48607,-29.18618)"
       gradientUnits="userSpaceOnUse" />
    <linearGradient
       inkscape:collect="always"
       xlink:href="#linearGradient5204"
       id="linearGradient5210"
       x1="19.667364"
       y1="4.2570662"
       x2="20.329933"
       y2="5.2845874"
       gradientUnits="userSpaceOnUse" />
    <radialGradient
       inkscape:collect="always"
       xlink:href="#linearGradient37935"
       id="radialGradient5212"
       gradientUnits="userSpaceOnUse"
       cx="8.7468252"
       cy="6.8283234"
       fx="8.7468252"
       fy="6.8283234"
       r="29.889715" />
    <radialGradient
       r="117.14286"
       fy="486.64789"
       fx="605.71429"
       cy="486.64789"
       cx="605.71429"
       gradientTransform="matrix(-2.774389,0,0,1.969706,112.7623,-872.8854)"
       gradientUnits="userSpaceOnUse"
       id="radialGradient5441"
       xlink:href="#linearGradient5060"
       inkscape:collect="always" />
    <radialGradient
       r="117.14286"
       fy="486.64789"
       fx="605.71429"
       cy="486.64789"
       cx="605.71429"
       gradientTransform="matrix(2.774389,0,0,1.969706,-1891.633,-872.8854)"
       gradientUnits="userSpaceOnUse"
       id="radialGradient5439"
       xlink:href="#linearGradient5060"
       inkscape:collect="always" />
    <linearGradient
       y2="609.50507"
       x2="302.85715"
       y1="366.64789"
       x1="302.85715"
       gradientTransform="matrix(2.774389,0,0,1.969706,-1892.179,-872.8854)"
       gradientUnits="userSpaceOnUse"
       id="linearGradient5437"
       xlink:href="#linearGradient5048"
       inkscape:collect="always" />
    <linearGradient
       inkscape:collect="always"
       id="linearGradient5060">
      <stop
         style="stop-color:black;stop-opacity:1;"
         offset="0"
         id="stop5062" />
      <stop
         style="stop-color:black;stop-opacity:0;"
         offset="1"
         id="stop5064" />
    </linearGradient>
    <linearGradient
       id="linearGradient5048">
      <stop
         style="stop-color:black;stop-opacity:0;"
         offset="0"
         id="stop5050" />
      <stop
         id="stop5056"
         offset="0.5"
         style="stop-color:black;stop-opacity:1;" />
      <stop
         style="stop-color:black;stop-opacity:0;"
         offset="1"
         id="stop5052" />
    </linearGradient>
    <linearGradient
       id="linearGradient12512">
      <stop
         style="stop-color:#ffffff;stop-opacity:1.0000000;"
         offset="0.0000000"
         id="stop12513" />
      <stop
         style="stop-color:#fff520;stop-opacity:0.89108908;"
         offset="0.50000000"
         id="stop12517" />
      <stop
         style="stop-color:#fff300;stop-opacity:0.0000000;"
         offset="1.0000000"
         id="stop12514" />
    </linearGradient>
    <radialGradient
       inkscape:collect="always"
       xlink:href="#linearGradient12512"
       id="radialGradient278"
       gradientUnits="userSpaceOnUse"
       cx="55.000000"
       cy="125.00000"
       fx="55.000000"
       fy="125.00000"
       r="14.375000" />
    <linearGradient
       id="linearGradient2094">
      <stop
         style="stop-color:#d6e3f0;stop-opacity:1.0000000;"
         offset="0.0000000"
         id="stop2096" />
      <stop
         style="stop-color:#95b1cf;stop-opacity:1.0000000;"
         offset="1.0000000"
         id="stop2098" />
    </linearGradient>
    <linearGradient
       id="linearGradient2803">
      <stop
         id="stop2805"
         offset="0"
         style="stop-color:#ffffff;stop-opacity:1;" />
      <stop
         id="stop2807"
         offset="1.0000000"
         style="stop-color:#cbcbcb;stop-opacity:1.0000000;" />
    </linearGradient>
    <linearGradient
       id="linearGradient2795">
      <stop
         id="stop2797"
         offset="0.0000000"
         style="stop-color:#000000;stop-opacity:0.068627454;" />
      <stop
         id="stop2799"
         offset="1.0000000"
         style="stop-color:#ffffff;stop-opacity:1.0000000;" />
    </linearGradient>
    <radialGradient
       inkscape:collect="always"
       xlink:href="#linearGradient5060"
       id="radialGradient5013"
       gradientUnits="userSpaceOnUse"
       cx="605.71429"
       cy="486.64789"
       fx="605.71429"
       fy="486.64789"
       r="117.14286"
       gradientTransform="matrix(2.774389,0,0,1.969706,-1891.633,-872.8854)" />
    <linearGradient
       inkscape:collect="always"
       xlink:href="#linearGradient5048"
       id="linearGradient5016"
       gradientUnits="userSpaceOnUse"
       x1="302.85715"
       y1="366.64789"
       x2="302.85715"
       y2="609.50507"
       gradientTransform="matrix(2.774389,0,0,1.969706,-1892.179,-872.8854)" />
    <radialGradient
       inkscape:collect="always"
       xlink:href="#linearGradient5060"
       id="radialGradient5020"
       gradientUnits="userSpaceOnUse"
       gradientTransform="matrix(-2.774389,0,0,1.969706,112.7623,-872.8854)"
       cx="605.71429"
       cy="486.64789"
       fx="605.71429"
       fy="486.64789"
       r="117.14286" />
    <radialGradient
       inkscape:collect="always"
       xlink:href="#linearGradient3816"
       id="radialGradient6962"
       gradientUnits="userSpaceOnUse"
       cx="31.112698"
       cy="19.008621"
       fx="31.112698"
       fy="19.008621"
       r="8.6620579" />
    <radialGradient
       inkscape:collect="always"
       xlink:href="#linearGradient3816"
       id="radialGradient6983"
       gradientUnits="userSpaceOnUse"
       cx="31.112698"
       cy="19.008621"
       fx="31.112698"
       fy="19.008621"
       r="8.6620579" />
  </defs>
  <sodipodi:namedview
     id="base"
     pagecolor="#ffffff"
     bordercolor="#666666"
     borderopacity="1.0"
     inkscape:pageopacity="0.0"
     inkscape:pageshadow="2"
     inkscape:zoom="3.8890873"
     inkscape:cx="41.004726"
     inkscape:cy="27.59209"
     inkscape:current-layer="layer1"
     showgrid="true"
     inkscape:document-units="px"
     inkscape:grid-bbox="true"
     inkscape:window-width="1020"
     inkscape:window-height="883"
     inkscape:window-x="0"
     inkscape:window-y="28" />
  <metadata
     id="metadata2681">
    <rdf:RDF>
      <cc:Work
         rdf:about="">
        <dc:format>image/svg+xml</dc:format>
        <dc:type
           rdf:resource="http://purl.org/dc/dcmitype/StillImage" />
      </cc:Work>
    </rdf:RDF>
  </metadata>
  <g
     id="layer1"
     inkscape:label="Layer 1"
     inkscape:groupmode="layer">
    <g
       id="g6975"
       transform="translate(1.1030148,-2.3206231)">
      <path
         transform="matrix(2.4189577,0,0,1.1008636,-42.33074,31.312092)"
         sodipodi:type="arc"
         style="color:#000000;fill:url(#radialGradient6983);fill-opacity:1;fill-rule:evenodd;stroke:none;stroke-width:1px;stroke-linecap:round;stroke-linejoin:round;marker:none;marker-start:none;marker-mid:none;marker-end:none;stroke-miterlimit:4;stroke-dasharray:none;stroke-dashoffset:0;stroke-opacity:1;visibility:visible;display:inline;overflow:visible"
         id="path4318"
         sodipodi:cx="31.112698"
         sodipodi:cy="19.008621"
         sodipodi:rx="8.6620579"
         sodipodi:ry="8.6620579"
         d="M 39.774755 19.008621 A 8.6620579 8.6620579 0 1 1  22.45064,19.008621 A 8.6620579 8.6620579 0 1 1  39.774755 19.008621 z" />
      <path
         sodipodi:nodetypes="cscc"
         id="path2745"
         d="M 59.499693,16.594596 C 59.499693,30.572938 58.475153,58.150427 32.04392,57.890704 C 17.59246,57.748698 10.832573,49.79251 2.2942773,40.099614 C 14.503896,19.008584 44.109868,-6.7176983 59.499693,16.594596 z "
         style="fill:#cc0000;fill-opacity:1;fill-rule:evenodd;stroke:#a40000;stroke-width:1.00061464;stroke-linecap:round;stroke-linejoin:miter;stroke-miterlimit:4;stroke-dasharray:none;stroke-dashoffset:0;stroke-opacity:1" />
      <path
         sodipodi:nodetypes="cssscccccccccsscccccccccccsssssscccccscccsccccccccsscccccccccccccccccsscccccccccccccccssccssccccccccc"
         style="fill:#5c3566"
         d="M 30.538467,57.387122 C 27.571437,57.016003 24.25521,56.13116 21.49905,54.975201 C 19.895993,54.302865 19.633677,54.13905 19.643495,53.81641 C 19.653683,53.481556 19.566855,53.437964 18.845921,53.415978 C 17.982454,53.389648 16.457884,52.580438 13.765632,50.719473 L 12.517843,49.856963 L 12.565243,48.885722 L 12.612641,47.914478 L 16.213811,47.828132 L 19.814981,47.741785 L 19.895007,45.324087 L 19.975033,42.906387 L 23.896312,42.799944 C 26.053004,42.741399 29.258046,42.647045 31.018618,42.590269 C 32.779188,42.533491 34.093615,42.528805 33.939574,42.579855 C 33.689185,42.662827 33.659483,42.945748 33.659483,45.247034 L 33.659483,47.821398 L 30.178344,47.867937 L 26.697214,47.914478 L 26.697214,50.504871 L 26.697214,53.095264 L 30.258377,53.14174 L 33.81953,53.188217 L 33.81953,50.594521 L 33.81953,48.000825 L 37.220636,47.995333 C 39.794939,47.991175 40.689828,47.934071 40.901833,47.760428 C 41.144504,47.561665 41.181925,47.216326 41.181925,45.175529 C 41.181925,42.848713 41.186303,42.820007 41.542039,42.817396 C 41.833244,42.815257 41.85621,42.782716 41.662074,42.647347 C 41.502672,42.536193 42.505285,42.479055 44.645924,42.477298 C 47.436612,42.47501 47.882915,42.437945 47.967008,42.201491 C 48.020444,42.051251 48.06416,40.885574 48.06416,39.611098 L 48.06416,37.293869 L 51.494641,37.293869 L 54.925132,37.293869 L 54.98029,39.063972 C 55.031144,40.695828 54.999271,40.928484 54.572155,42.042922 C 52.739794,46.823943 49.187603,51.553079 45.656517,53.91258 C 41.083447,57.013286 35.858579,57.590606 30.538467,57.387122 z M 8.6913676,46.081197 C 6.7387169,44.295188 5.8104325,43.320122 5.8104325,43.05508 C 5.8104325,42.896293 6.6039896,42.839868 9.0114722,42.827478 L 12.212511,42.811005 L 12.212511,45.146876 L 12.212511,47.482746 L 11.212187,47.477339 L 10.211862,47.471932 L 8.6913676,46.081197 z M 21.303976,42.518437 C 22.21095,42.4876 23.651419,42.487725 24.505018,42.518716 C 25.358613,42.549705 24.616541,42.574937 22.855969,42.574784 C 21.095397,42.574631 20.397,42.549275 21.303976,42.518437 z M 37.020567,39.884262 L 37.020567,37.282909 L 38.901183,37.331562 L 40.781788,37.380216 L 40.781788,39.884262 L 40.781788,42.388308 L 38.901183,42.436962 L 37.020567,42.485615 L 37.020567,39.884262 z M 16.093771,42.172648 L 12.85272,42.122117 L 12.85272,39.794339 L 12.85272,37.466562 L 16.133785,37.466562 L 19.414851,37.466562 L 19.414851,39.611098 C 19.414851,40.790594 19.458567,41.878559 19.512,42.028798 C 19.565432,42.179039 19.547427,42.284235 19.471988,42.26257 C 19.396548,42.240905 17.876351,42.200441 16.093771,42.172648 z M 26.847232,36.723484 C 26.803217,36.599736 26.787472,35.492343 26.812235,34.262611 L 26.85727,32.026738 L 28.657852,31.97791 L 30.458435,31.929081 L 30.458435,34.438783 L 30.458435,36.948484 L 28.69284,36.948484 C 27.389789,36.948484 26.906282,36.889541 26.847232,36.723484 z M 55.426546,34.444438 L 55.426546,32.113085 L 56.293388,32.113085 L 57.160221,32.113085 L 56.61349,34.389417 C 56.312781,35.641398 56.066751,36.690507 56.066751,36.72077 C 56.066751,36.75103 55.922712,36.775791 55.746649,36.775791 C 55.442356,36.775791 55.426546,36.660663 55.426546,34.444438 z M 48.064001,30.368315 C 48.064086,29.836108 48.029163,28.903566 47.986391,28.296002 C 47.935191,27.568696 47.954958,27.338821 48.044262,27.623071 C 48.168376,28.018142 48.185168,27.996146 48.242066,27.364032 L 48.30424,26.673261 L 51.54529,26.626511 L 54.78634,26.579763 L 54.78634,28.908024 L 54.78634,31.236285 L 51.425096,31.286126 L 48.063852,31.335967 L 48.064001,30.368315 z "
         id="path6663" />
      <path
         sodipodi:nodetypes="ccccccsscccccccccccc"
         style="fill:#f57900"
         d="M 42.315311,23.278664 L 42.669238,17.530641 C 40.295985,17.520945 37.918395,17.492501 35.555186,17.677286 C 35.511408,19.328672 35.70439,20.980845 35.592624,22.62508 L 20.618256,22.510272 L 20.730958,21.704211 C 20.872655,20.690783 21.067655,20.295917 21.431462,20.285727 C 21.588532,20.281326 22.991056,20.172719 24.548183,20.044375 C 26.105313,19.91603 27.426405,19.840656 27.483954,19.876879 L 28.429804,16.753524 C 30.634136,16.574176 32.840455,16.404428 35.034291,16.126283 C 35.28585,14.934434 35.46055,13.721971 35.702922,12.528057 C 37.969109,12.168405 40.52194,12.315534 42.634272,12.652069 L 43.033851,17.098908 L 49.861893,17.098908 L 50.361509,12.26351 L 52.817936,12.21572 C 54.19974,12.188837 54.823805,12.372695 54.823805,12.281767 C 43.366288,3.2577404 26.823866,11.975972 16.970723,22.665166 L 20.414882,22.884119"
         id="path6669" />
      <path
         sodipodi:nodetypes="cccccccccccccsccccc"
         style="fill:#eeeeec"
         d="M 26.884406,35.372831 C 26.969523,28.990964 27.022197,27.873434 27.262134,27.358547 C 28.803955,25.755422 31.010358,26.073505 31.934146,28.039537 C 32.018682,28.410673 32.089669,31.881086 32.091893,35.751563 L 32.09594,42.788796 L 38.370585,42.788796 L 38.378031,36.355988 C 38.386783,28.795845 38.482699,27.571854 39.116999,26.925931 C 40.560798,26.012541 41.915337,26.380477 43.187409,27.301999 C 43.532175,27.77455 43.545491,28.014799 43.627719,35.245869 L 43.712512,42.70245 L 49.987156,42.70245 L 49.983095,35.535698 C 49.980061,30.184339 49.921402,28.106478 49.751521,27.332789 C 49.027272,24.034308 47.912159,22.763303 45.178401,22.120349 C 37.09553,22.152805 28.855342,21.920945 20.601828,21.960414 L 20.602878,42.788796 L 26.785482,42.788796 L 26.884406,35.372831 z "
         id="path5675" />
      <path
         sodipodi:nodetypes="cscc"
         id="path4686"
         d="M 58.572378,16.829429 C 58.572378,30.245631 57.963666,56.802738 32.396966,57.033022 C 18.418082,57.158932 11.68152,49.142821 3.4225018,39.679575 C 17.157272,18.240893 44.006023,-4.1819693 58.572378,16.829429 z "
         style="fill:none;fill-opacity:1;fill-rule:evenodd;stroke:#ef2929;stroke-width:0.97238612;stroke-linecap:round;stroke-linejoin:miter;stroke-miterlimit:4;stroke-dasharray:none;stroke-dashoffset:0;stroke-opacity:1" />
    </g>
  </g>
</svg>
