<?xml version="1.0" encoding="UTF-8" standalone="no"?>
<!-- Created with Inkscape (http://www.inkscape.org/) -->
<svg
   xmlns:dc="http://purl.org/dc/elements/1.1/"
   xmlns:cc="http://web.resource.org/cc/"
   xmlns:rdf="http://www.w3.org/1999/02/22-rdf-syntax-ns#"
   xmlns:svg="http://www.w3.org/2000/svg"
   xmlns="http://www.w3.org/2000/svg"
   xmlns:xlink="http://www.w3.org/1999/xlink"
   xmlns:sodipodi="http://sodipodi.sourceforge.net/DTD/sodipodi-0.dtd"
   xmlns:inkscape="http://www.inkscape.org/namespaces/inkscape"
   width="64px"
   height="64px"
   id="svg2676"
   sodipodi:version="0.32"
   inkscape:version="0.45.1"
   sodipodi:docbase="D:\stefan\icons\self\miro tango icon"
   sodipodi:docname="miro_16x16.svg"
   inkscape:output_extension="org.inkscape.output.svg.inkscape"
   inkscape:export-filename="D:\stefan\icons\self\miro tango icon\miro_16x16.png"
   inkscape:export-xdpi="22.5"
   inkscape:export-ydpi="22.5">
  <defs
     id="defs2678">
    <linearGradient
       y2="52.090678"
       x2="9.8855033"
       y1="37.197018"
       x1="8.9156475"
       gradientTransform="matrix(3.123841,0,0,0.969691,-79.083924,272.77319)"
       gradientUnits="userSpaceOnUse"
       id="linearGradient6112"
       xlink:href="#linearGradient2152"
       inkscape:collect="always" />
    <linearGradient
       inkscape:collect="always"
       id="linearGradient5204">
      <stop
         style="stop-color:#c4a000;stop-opacity:1;"
         offset="0"
         id="stop5206" />
      <stop
         style="stop-color:#c4a000;stop-opacity:0;"
         offset="1"
         id="stop5208" />
    </linearGradient>
    <linearGradient
       inkscape:collect="always"
       id="linearGradient5196">
      <stop
         style="stop-color:#c4a000;stop-opacity:1;"
         offset="0"
         id="stop5198" />
      <stop
         style="stop-color:#c4a000;stop-opacity:0;"
         offset="1"
         id="stop5200" />
    </linearGradient>
    <linearGradient
       id="linearGradient6045">
      <stop
         style="stop-color:#ffffff;stop-opacity:1.0000000;"
         offset="0.0000000"
         id="stop6047" />
      <stop
         style="stop-color:#fff520;stop-opacity:0.89108908;"
         offset="0.50000000"
         id="stop6049" />
      <stop
         style="stop-color:#fff300;stop-opacity:0.0000000;"
         offset="1.0000000"
         id="stop6051" />
    </linearGradient>
    <radialGradient
       inkscape:collect="always"
       xlink:href="#linearGradient12512"
       id="radialGradient6053"
       gradientUnits="userSpaceOnUse"
       cx="55.000000"
       cy="125.00000"
       fx="55.000000"
       fy="125.00000"
       r="14.375000" />
    <linearGradient
       id="linearGradient10653">
      <stop
         style="stop-color:#f3f4ff;stop-opacity:1.0000000;"
         offset="0.0000000"
         id="stop10655" />
      <stop
         style="stop-color:#9193af;stop-opacity:1.0000000;"
         offset="1.0000000"
         id="stop10657" />
    </linearGradient>
    <linearGradient
       id="linearGradient42174">
      <stop
         style="stop-color:#a0a0a0;stop-opacity:1.0000000;"
         offset="0.0000000"
         id="stop42176" />
      <stop
         style="stop-color:#ffffff;stop-opacity:1.0000000;"
         offset="1.0000000"
         id="stop42178" />
    </linearGradient>
    <linearGradient
       id="linearGradient2145">
      <stop
         style="stop-color:#fffffd;stop-opacity:1.0000000;"
         offset="0.0000000"
         id="stop2147" />
      <stop
         style="stop-color:#cbcbc9;stop-opacity:1.0000000;"
         offset="1.0000000"
         id="stop2149" />
    </linearGradient>
    <linearGradient
       id="linearGradient37935">
      <stop
         id="stop37937"
         offset="0.0000000"
         style="stop-color:#9497b3;stop-opacity:1.0000000;" />
      <stop
         id="stop37939"
         offset="1.0000000"
         style="stop-color:#4c4059;stop-opacity:1.0000000;" />
    </linearGradient>
    <linearGradient
       id="linearGradient2152">
      <stop
         id="stop2154"
         offset="0.0000000"
         style="stop-color:#9aa29a;stop-opacity:1.0000000;" />
      <stop
         id="stop2156"
         offset="1.0000000"
         style="stop-color:#b5beb5;stop-opacity:1.0000000;" />
    </linearGradient>
    <linearGradient
       inkscape:collect="always"
       id="linearGradient3816">
      <stop
         style="stop-color:#000000;stop-opacity:1;"
         offset="0"
         id="stop3818" />
      <stop
         style="stop-color:#000000;stop-opacity:0;"
         offset="1"
         id="stop3820" />
    </linearGradient>
    <radialGradient
       inkscape:collect="always"
       xlink:href="#linearGradient3816"
       id="radialGradient3822"
       cx="31.112698"
       cy="19.008621"
       fx="31.112698"
       fy="19.008621"
       r="8.6620579"
       gradientUnits="userSpaceOnUse" />
    <linearGradient
       inkscape:collect="always"
       xlink:href="#linearGradient2152"
       id="linearGradient4307"
       gradientUnits="userSpaceOnUse"
       gradientTransform="matrix(3.123841,0,0,0.969691,-31.88758,-19.59492)"
       x1="8.9156475"
       y1="37.197018"
       x2="9.8855033"
       y2="52.090678" />
    <radialGradient
       inkscape:collect="always"
       xlink:href="#linearGradient10653"
       id="radialGradient4309"
       gradientUnits="userSpaceOnUse"
       cx="11.329200"
       cy="10.583970"
       fx="11.329200"
       fy="10.583970"
       r="15.532059" />
    <radialGradient
       inkscape:collect="always"
       xlink:href="#linearGradient2145"
       id="radialGradient4311"
       gradientUnits="userSpaceOnUse"
       cx="11.901996"
       cy="10.045444"
       fx="11.901996"
       fy="10.045444"
       r="29.292715" />
    <linearGradient
       inkscape:collect="always"
       xlink:href="#linearGradient42174"
       id="linearGradient4313"
       gradientUnits="userSpaceOnUse"
       x1="6.3422160"
       y1="7.7893324"
       x2="22.218424"
       y2="25.884274" />
    <radialGradient
       inkscape:collect="always"
       xlink:href="#linearGradient5196"
       id="radialGradient5202"
       cx="23.375"
       cy="10.972863"
       fx="23.375"
       fy="10.972863"
       r="3.3478092"
       gradientTransform="matrix(3.63042,0,0,3.742066,-61.48607,-29.18618)"
       gradientUnits="userSpaceOnUse" />
    <linearGradient
       inkscape:collect="always"
       xlink:href="#linearGradient5204"
       id="linearGradient5210"
       x1="19.667364"
       y1="4.2570662"
       x2="20.329933"
       y2="5.2845874"
       gradientUnits="userSpaceOnUse" />
    <radialGradient
       inkscape:collect="always"
       xlink:href="#linearGradient37935"
       id="radialGradient5212"
       gradientUnits="userSpaceOnUse"
       cx="8.7468252"
       cy="6.8283234"
       fx="8.7468252"
       fy="6.8283234"
       r="29.889715" />
    <linearGradient
       inkscape:collect="always"
       id="linearGradient5060">
      <stop
         style="stop-color:black;stop-opacity:1;"
         offset="0"
         id="stop5062" />
      <stop
         style="stop-color:black;stop-opacity:0;"
         offset="1"
         id="stop5064" />
    </linearGradient>
    <linearGradient
       id="linearGradient5048">
      <stop
         style="stop-color:black;stop-opacity:0;"
         offset="0"
         id="stop5050" />
      <stop
         id="stop5056"
         offset="0.5"
         style="stop-color:black;stop-opacity:1;" />
      <stop
         style="stop-color:black;stop-opacity:0;"
         offset="1"
         id="stop5052" />
    </linearGradient>
    <linearGradient
       id="linearGradient12512">
      <stop
         style="stop-color:#ffffff;stop-opacity:1.0000000;"
         offset="0.0000000"
         id="stop12513" />
      <stop
         style="stop-color:#fff520;stop-opacity:0.89108908;"
         offset="0.50000000"
         id="stop12517" />
      <stop
         style="stop-color:#fff300;stop-opacity:0.0000000;"
         offset="1.0000000"
         id="stop12514" />
    </linearGradient>
    <radialGradient
       inkscape:collect="always"
       xlink:href="#linearGradient12512"
       id="radialGradient278"
       gradientUnits="userSpaceOnUse"
       cx="55.000000"
       cy="125.00000"
       fx="55.000000"
       fy="125.00000"
       r="14.375000" />
    <linearGradient
       id="linearGradient2094">
      <stop
         style="stop-color:#d6e3f0;stop-opacity:1.0000000;"
         offset="0.0000000"
         id="stop2096" />
      <stop
         style="stop-color:#95b1cf;stop-opacity:1.0000000;"
         offset="1.0000000"
         id="stop2098" />
    </linearGradient>
    <linearGradient
       id="linearGradient2803">
      <stop
         id="stop2805"
         offset="0"
         style="stop-color:#ffffff;stop-opacity:1;" />
      <stop
         id="stop2807"
         offset="1.0000000"
         style="stop-color:#cbcbcb;stop-opacity:1.0000000;" />
    </linearGradient>
    <linearGradient
       id="linearGradient2795">
      <stop
         id="stop2797"
         offset="0.0000000"
         style="stop-color:#000000;stop-opacity:0.068627454;" />
      <stop
         id="stop2799"
         offset="1.0000000"
         style="stop-color:#ffffff;stop-opacity:1.0000000;" />
    </linearGradient>
    <radialGradient
       inkscape:collect="always"
       xlink:href="#linearGradient5060"
       id="radialGradient5013"
       gradientUnits="userSpaceOnUse"
       cx="605.71429"
       cy="486.64789"
       fx="605.71429"
       fy="486.64789"
       r="117.14286"
       gradientTransform="matrix(2.774389,0,0,1.969706,-1891.633,-872.8854)" />
    <linearGradient
       inkscape:collect="always"
       xlink:href="#linearGradient5048"
       id="linearGradient5016"
       gradientUnits="userSpaceOnUse"
       x1="302.85715"
       y1="366.64789"
       x2="302.85715"
       y2="609.50507"
       gradientTransform="matrix(2.774389,0,0,1.969706,-1892.179,-872.8854)" />
    <radialGradient
       inkscape:collect="always"
       xlink:href="#linearGradient5060"
       id="radialGradient5020"
       gradientUnits="userSpaceOnUse"
       gradientTransform="matrix(-2.774389,0,0,1.969706,112.7623,-872.8854)"
       cx="605.71429"
       cy="486.64789"
       fx="605.71429"
       fy="486.64789"
       r="117.14286" />
    <radialGradient
       inkscape:collect="always"
       xlink:href="#linearGradient3816"
       id="radialGradient6983"
       gradientUnits="userSpaceOnUse"
       cx="31.112698"
       cy="19.008621"
       fx="31.112698"
       fy="19.008621"
       r="8.6620579" />
  </defs>
  <sodipodi:namedview
     id="base"
     pagecolor="#ffffff"
     bordercolor="#666666"
     borderopacity="1.0"
     inkscape:pageopacity="0.0"
     inkscape:pageshadow="2"
     inkscape:zoom="5.5"
     inkscape:cx="34.534759"
     inkscape:cy="30.906495"
     inkscape:current-layer="layer1"
     showgrid="true"
     inkscape:document-units="px"
     inkscape:grid-bbox="true"
     inkscape:window-width="1020"
     inkscape:window-height="883"
     inkscape:window-x="0"
     inkscape:window-y="28" />
  <metadata
     id="metadata2681">
    <rdf:RDF>
      <cc:Work
         rdf:about="">
        <dc:format>image/svg+xml</dc:format>
        <dc:type
           rdf:resource="http://purl.org/dc/dcmitype/StillImage" />
      </cc:Work>
    </rdf:RDF>
  </metadata>
  <g
     id="layer1"
     inkscape:label="Layer 1"
     inkscape:groupmode="layer">
    <g
       id="g8973">
      <path
         transform="matrix(2.4189577,0,0,1.1008636,-41.227725,28.991469)"
         sodipodi:type="arc"
         style="color:#000000;fill:url(#radialGradient6983);fill-opacity:1;fill-rule:evenodd;stroke:none;stroke-width:1px;stroke-linecap:round;stroke-linejoin:round;marker:none;marker-start:none;marker-mid:none;marker-end:none;stroke-miterlimit:4;stroke-dasharray:none;stroke-dashoffset:0;stroke-opacity:1;visibility:visible;display:inline;overflow:visible"
         id="path4318"
         sodipodi:cx="31.112698"
         sodipodi:cy="19.008621"
         sodipodi:rx="8.6620579"
         sodipodi:ry="8.6620579"
         d="M 39.774755 19.008621 A 8.6620579 8.6620579 0 1 1  22.45064,19.008621 A 8.6620579 8.6620579 0 1 1  39.774755 19.008621 z" />
      <path
         sodipodi:nodetypes="cscc"
         id="path2745"
         d="M 60.602708,14.273973 C 60.602708,28.252315 59.578168,55.829804 33.146935,55.570081 C 18.695475,55.428075 11.935588,47.471887 3.3972921,37.778991 C 15.606911,16.687961 45.212883,-9.0383214 60.602708,14.273973 z "
         style="fill:#cc0000;fill-opacity:1;fill-rule:evenodd;stroke:#a40000;stroke-width:2;stroke-linecap:round;stroke-linejoin:miter;stroke-miterlimit:4;stroke-dasharray:none;stroke-dashoffset:0;stroke-opacity:1" />
      <path
         sodipodi:nodetypes="cssscccccccccsscccccccccccsssssscccccscccsccccccccsscccccccccccccccccsscccccccccccccccssccssccccccccc"
         style="fill:#5c3566"
         d="M 32.459997,54.463727 C 29.61353,54.096748 26.432055,53.221775 23.787889,52.078709 C 22.249971,51.413873 21.998314,51.251885 22.007733,50.932844 C 22.017507,50.601725 21.934207,50.558619 21.242567,50.536878 C 20.414186,50.510842 18.951566,49.710658 16.368711,47.870451 L 15.171625,47.017561 L 15.217099,46.057154 L 15.262571,45.096743 L 18.717411,45.01136 L 22.17225,44.925976 L 22.249025,42.535246 L 22.325799,40.144513 L 26.08774,40.039258 C 28.156797,39.981366 31.231605,39.888064 32.920638,39.831921 C 34.609668,39.775777 35.870685,39.771143 35.722903,39.821623 C 35.482689,39.90367 35.454193,40.183435 35.454193,42.459052 L 35.454193,45.004701 L 32.114507,45.050721 L 28.77483,45.096743 L 28.77483,47.658242 L 28.77483,50.219742 L 32.191288,50.265699 L 35.607737,50.311658 L 35.607737,47.746892 L 35.607737,45.182127 L 38.870642,45.176696 C 41.340341,45.172585 42.198867,45.116118 42.402257,44.944411 C 42.635067,44.747865 42.670968,44.406378 42.670968,42.388345 C 42.670968,40.087483 42.675168,40.059097 43.016449,40.056515 C 43.295821,40.0544 43.317854,40.022222 43.131606,39.888363 C 42.978681,39.778448 43.940554,39.721948 45.99421,39.72021 C 48.671501,39.717948 49.099669,39.681296 49.180345,39.44748 C 49.23161,39.298916 49.273549,38.146241 49.273549,36.885981 L 49.273549,34.594598 L 52.564636,34.594598 L 55.855732,34.594598 L 55.908649,36.344957 C 55.957436,37.958611 55.926858,38.188672 55.517098,39.29068 C 53.759193,44.018372 50.351342,48.694758 46.963739,51.027941 C 42.576491,54.094061 37.563931,54.664942 32.459997,54.463727 z M 11.500635,43.283911 C 9.6273284,41.517823 8.736764,40.553633 8.736764,40.291548 C 8.736764,40.134532 9.4980756,40.078736 11.807732,40.066484 L 14.8787,40.050195 L 14.8787,42.360011 L 14.8787,44.669827 L 13.919023,44.66448 L 12.959346,44.659133 L 11.500635,43.283911 z M 23.600741,39.760891 C 24.470861,39.730398 25.852798,39.730521 26.671712,39.761166 C 27.490622,39.79181 26.778703,39.81676 25.089671,39.816609 C 23.400638,39.816458 22.73062,39.791385 23.600741,39.760891 z M 38.678703,37.156098 L 38.678703,34.583761 L 40.482902,34.631871 L 42.28709,34.679982 L 42.28709,37.156098 L 42.28709,39.632213 L 40.482902,39.680324 L 38.678703,39.728435 L 38.678703,37.156098 z M 18.602248,39.418959 L 15.492895,39.368991 L 15.492895,37.067178 L 15.492895,34.765365 L 18.640637,34.765365 L 21.788379,34.765365 L 21.788379,36.885981 C 21.788379,38.05232 21.830319,39.12815 21.881581,39.276713 C 21.932842,39.425278 21.915568,39.529301 21.843195,39.507878 C 21.77082,39.486454 20.312395,39.446442 18.602248,39.418959 z M 28.918752,34.030576 C 28.876526,33.908208 28.86142,32.813167 28.885177,31.597152 L 28.928382,29.386218 L 30.655799,29.337935 L 32.383217,29.28965 L 32.383217,31.771359 L 32.383217,34.253066 L 30.689366,34.253066 C 29.439263,34.253066 28.975403,34.19478 28.918752,34.030576 z M 56.336771,31.77695 L 56.336771,29.471602 L 57.16839,29.471602 L 58,29.471602 L 57.475485,31.722543 C 57.186995,32.960559 56.950962,33.997966 56.950962,34.027892 C 56.950962,34.057814 56.812776,34.082299 56.643867,34.082299 C 56.351939,34.082299 56.336771,33.968455 56.336771,31.77695 z M 49.273397,27.746293 C 49.273478,27.220023 49.239974,26.297882 49.19894,25.697095 C 49.149821,24.977902 49.168785,24.750591 49.25446,25.03167 C 49.373531,25.422335 49.38964,25.400584 49.444226,24.775521 L 49.503874,24.092455 L 52.613227,24.046226 L 55.72258,24 L 55.72258,26.302291 L 55.72258,28.604582 L 52.497917,28.653867 L 49.273254,28.703152 L 49.273397,27.746293 z "
         id="path6663" />
      <path
         sodipodi:nodetypes="ccccccsscccccccccccc"
         style="fill:#f57900"
         d="M 44.314734,22 L 44.654279,16.316091 C 42.377461,16.306503 40.096482,16.278377 37.8293,16.4611 C 37.787301,18.094067 37.972441,19.727811 37.865217,21.353706 L 23.499319,21.240178 L 23.607441,20.443108 C 23.743381,19.440984 23.930457,19.050523 24.279481,19.040446 C 24.430169,19.036095 25.775702,18.928699 27.269557,18.801787 C 28.763414,18.674873 30.030825,18.60034 30.086036,18.636159 L 30.993452,15.547642 C 33.108213,15.370295 35.22488,15.20244 37.329571,14.927398 C 37.570908,13.748843 37.73851,12.549904 37.971033,11.369307 C 40.145136,11.013667 42.594235,11.159154 44.620734,11.491936 L 45.004076,15.889174 L 51.554667,15.889174 L 52.033982,11.107711 L 54.390594,11.060454 C 55.716249,11.033871 56.314956,11.215678 56.314956,11.125764 C 45.323005,2.2023932 29.45277,10.82338 20,21.393345 L 23.304209,21.609855"
         id="path6669" />
      <path
         sodipodi:nodetypes="cccccccccccccsccccc"
         style="fill:#eeeeec"
         d="M 29.217652,32.752713 C 29.29931,26.442031 29.349844,25.336966 29.580031,24.827822 C 31.059201,23.242578 33.175949,23.557113 34.0622,25.501216 C 34.143301,25.868212 34.211403,29.299916 34.213537,33.127221 L 34.21742,40.085959 L 40.2371,40.085959 L 40.244243,33.724904 C 40.25264,26.249088 40.344658,25.03875 40.953184,24.400031 C 42.338316,23.496829 43.637814,23.860661 44.858197,24.771905 C 45.188953,25.239185 45.201728,25.476754 45.280615,32.627167 L 45.361963,40.000576 L 51.381642,40.000576 L 51.377746,32.913763 C 51.374835,27.622094 51.31856,25.56741 51.155582,24.802351 C 50.460762,21.540662 49.390961,20.283834 46.768287,19.648052 C 39.013856,19.680146 31.1085,19.450872 23.190361,19.489901 L 23.191368,40.085959 L 29.122747,40.085959 L 29.217652,32.752713 z "
         id="path5675" />
      <path
         sodipodi:nodetypes="cscc"
         id="path4686"
         d="M 58.584484,14.872442 C 58.584484,28.288644 59.248499,53.663933 33.681799,53.894217 C 19.702915,54.020127 13.966353,46.822198 5.7073348,37.358952 C 19.442105,15.92027 45.745402,-4.5935015 58.584484,14.872442 z "
         style="fill:none;fill-opacity:1;fill-rule:evenodd;stroke:#ef2929;stroke-width:2;stroke-linecap:round;stroke-linejoin:miter;stroke-miterlimit:4;stroke-dasharray:none;stroke-dashoffset:0;stroke-opacity:1" />
    </g>
  </g>
</svg>
