<?xml version="1.0" encoding="UTF-8" standalone="no"?>
<!-- Created with Inkscape (http://www.inkscape.org/) -->
<svg
   xmlns:dc="http://purl.org/dc/elements/1.1/"
   xmlns:cc="http://web.resource.org/cc/"
   xmlns:rdf="http://www.w3.org/1999/02/22-rdf-syntax-ns#"
   xmlns:svg="http://www.w3.org/2000/svg"
   xmlns="http://www.w3.org/2000/svg"
   xmlns:xlink="http://www.w3.org/1999/xlink"
   xmlns:sodipodi="http://sodipodi.sourceforge.net/DTD/sodipodi-0.dtd"
   xmlns:inkscape="http://www.inkscape.org/namespaces/inkscape"
   width="64px"
   height="64px"
   id="svg2676"
   sodipodi:version="0.32"
   inkscape:version="0.45.1"
   sodipodi:docbase="D:\stefan\icons\self\Tango.Lang"
   sodipodi:docname="pons_16x16.svg"
   inkscape:output_extension="org.inkscape.output.svg.inkscape"
   inkscape:export-filename="D:\stefan\icons\self\Tango.Lang\pons_16x16.png"
   inkscape:export-xdpi="22.5"
   inkscape:export-ydpi="22.5">
  <defs
     id="defs2678">
    <radialGradient
       r="117.14286"
       fy="486.64789"
       fx="605.71429"
       cy="486.64789"
       cx="605.71429"
       gradientTransform="matrix(-2.774389,0,0,1.969706,112.7623,-872.8854)"
       gradientUnits="userSpaceOnUse"
       id="radialGradient9305"
       xlink:href="#linearGradient5060"
       inkscape:collect="always" />
    <radialGradient
       r="117.14286"
       fy="486.64789"
       fx="605.71429"
       cy="486.64789"
       cx="605.71429"
       gradientTransform="matrix(2.774389,0,0,1.969706,-1891.633,-872.8854)"
       gradientUnits="userSpaceOnUse"
       id="radialGradient9303"
       xlink:href="#linearGradient5060"
       inkscape:collect="always" />
    <linearGradient
       y2="609.50507"
       x2="302.85715"
       y1="366.64789"
       x1="302.85715"
       gradientTransform="matrix(2.774389,0,0,1.969706,-1892.179,-872.8854)"
       gradientUnits="userSpaceOnUse"
       id="linearGradient9301"
       xlink:href="#linearGradient5048"
       inkscape:collect="always" />
    <radialGradient
       r="117.14286"
       fy="486.64789"
       fx="605.71429"
       cy="486.64789"
       cx="605.71429"
       gradientTransform="matrix(-2.774389,0,0,1.969706,112.7623,-872.8854)"
       gradientUnits="userSpaceOnUse"
       id="radialGradient5020"
       xlink:href="#linearGradient5060"
       inkscape:collect="always" />
    <linearGradient
       gradientTransform="matrix(2.774389,0,0,1.969706,-1892.179,-872.8854)"
       y2="609.50507"
       x2="302.85715"
       y1="366.64789"
       x1="302.85715"
       gradientUnits="userSpaceOnUse"
       id="linearGradient5016"
       xlink:href="#linearGradient5048"
       inkscape:collect="always" />
    <radialGradient
       gradientTransform="matrix(2.774389,0,0,1.969706,-1891.633,-872.8854)"
       r="117.14286"
       fy="486.64789"
       fx="605.71429"
       cy="486.64789"
       cx="605.71429"
       gradientUnits="userSpaceOnUse"
       id="radialGradient5013"
       xlink:href="#linearGradient5060"
       inkscape:collect="always" />
    <linearGradient
       id="linearGradient2795">
      <stop
         style="stop-color:#000000;stop-opacity:0.068627454;"
         offset="0.0000000"
         id="stop2797" />
      <stop
         style="stop-color:#ffffff;stop-opacity:1.0000000;"
         offset="1.0000000"
         id="stop2799" />
    </linearGradient>
    <linearGradient
       id="linearGradient2803">
      <stop
         style="stop-color:#ffffff;stop-opacity:1;"
         offset="0"
         id="stop2805" />
      <stop
         style="stop-color:#cbcbcb;stop-opacity:1.0000000;"
         offset="1.0000000"
         id="stop2807" />
    </linearGradient>
    <linearGradient
       id="linearGradient2094">
      <stop
         id="stop2096"
         offset="0.0000000"
         style="stop-color:#d6e3f0;stop-opacity:1.0000000;" />
      <stop
         id="stop2098"
         offset="1.0000000"
         style="stop-color:#95b1cf;stop-opacity:1.0000000;" />
    </linearGradient>
    <radialGradient
       r="14.375000"
       fy="125.00000"
       fx="55.000000"
       cy="125.00000"
       cx="55.000000"
       gradientUnits="userSpaceOnUse"
       id="radialGradient278"
       xlink:href="#linearGradient12512"
       inkscape:collect="always" />
    <linearGradient
       id="linearGradient12512">
      <stop
         id="stop12513"
         offset="0.0000000"
         style="stop-color:#ffffff;stop-opacity:1.0000000;" />
      <stop
         id="stop12517"
         offset="0.50000000"
         style="stop-color:#fff520;stop-opacity:0.89108908;" />
      <stop
         id="stop12514"
         offset="1.0000000"
         style="stop-color:#fff300;stop-opacity:0.0000000;" />
    </linearGradient>
    <linearGradient
       id="linearGradient5048">
      <stop
         id="stop5050"
         offset="0"
         style="stop-color:black;stop-opacity:0;" />
      <stop
         style="stop-color:black;stop-opacity:1;"
         offset="0.5"
         id="stop5056" />
      <stop
         id="stop5052"
         offset="1"
         style="stop-color:black;stop-opacity:0;" />
    </linearGradient>
    <linearGradient
       id="linearGradient5060"
       inkscape:collect="always">
      <stop
         id="stop5062"
         offset="0"
         style="stop-color:black;stop-opacity:1;" />
      <stop
         id="stop5064"
         offset="1"
         style="stop-color:black;stop-opacity:0;" />
    </linearGradient>
    <linearGradient
       inkscape:collect="always"
       xlink:href="#linearGradient5048"
       id="linearGradient5437"
       gradientUnits="userSpaceOnUse"
       gradientTransform="matrix(2.774389,0,0,1.969706,-1892.179,-872.8854)"
       x1="302.85715"
       y1="366.64789"
       x2="302.85715"
       y2="609.50507" />
    <radialGradient
       inkscape:collect="always"
       xlink:href="#linearGradient5060"
       id="radialGradient5439"
       gradientUnits="userSpaceOnUse"
       gradientTransform="matrix(2.774389,0,0,1.969706,-1891.633,-872.8854)"
       cx="605.71429"
       cy="486.64789"
       fx="605.71429"
       fy="486.64789"
       r="117.14286" />
    <radialGradient
       inkscape:collect="always"
       xlink:href="#linearGradient5060"
       id="radialGradient5441"
       gradientUnits="userSpaceOnUse"
       gradientTransform="matrix(-2.774389,0,0,1.969706,112.7623,-872.8854)"
       cx="605.71429"
       cy="486.64789"
       fx="605.71429"
       fy="486.64789"
       r="117.14286" />
    <radialGradient
       r="29.889715"
       fy="6.8283234"
       fx="8.7468252"
       cy="6.8283234"
       cx="8.7468252"
       gradientUnits="userSpaceOnUse"
       id="radialGradient5212"
       xlink:href="#linearGradient37935"
       inkscape:collect="always" />
    <linearGradient
       gradientUnits="userSpaceOnUse"
       y2="5.2845874"
       x2="20.329933"
       y1="4.2570662"
       x1="19.667364"
       id="linearGradient5210"
       xlink:href="#linearGradient5204"
       inkscape:collect="always" />
    <radialGradient
       gradientUnits="userSpaceOnUse"
       gradientTransform="matrix(3.63042,0,0,3.742066,-61.48607,-29.18618)"
       r="3.3478092"
       fy="10.972863"
       fx="23.375"
       cy="10.972863"
       cx="23.375"
       id="radialGradient5202"
       xlink:href="#linearGradient5196"
       inkscape:collect="always" />
    <linearGradient
       y2="25.884274"
       x2="22.218424"
       y1="7.7893324"
       x1="6.3422160"
       gradientUnits="userSpaceOnUse"
       id="linearGradient4313"
       xlink:href="#linearGradient42174"
       inkscape:collect="always" />
    <radialGradient
       r="29.292715"
       fy="10.045444"
       fx="11.901996"
       cy="10.045444"
       cx="11.901996"
       gradientUnits="userSpaceOnUse"
       id="radialGradient4311"
       xlink:href="#linearGradient2145"
       inkscape:collect="always" />
    <radialGradient
       r="15.532059"
       fy="10.583970"
       fx="11.329200"
       cy="10.583970"
       cx="11.329200"
       gradientUnits="userSpaceOnUse"
       id="radialGradient4309"
       xlink:href="#linearGradient10653"
       inkscape:collect="always" />
    <linearGradient
       y2="52.090678"
       x2="9.8855033"
       y1="37.197018"
       x1="8.9156475"
       gradientTransform="matrix(3.123841,0,0,0.969691,-31.88758,-19.59492)"
       gradientUnits="userSpaceOnUse"
       id="linearGradient4307"
       xlink:href="#linearGradient2152"
       inkscape:collect="always" />
    <radialGradient
       gradientUnits="userSpaceOnUse"
       r="8.6620579"
       fy="19.008621"
       fx="31.112698"
       cy="19.008621"
       cx="31.112698"
       id="radialGradient3822"
       xlink:href="#linearGradient3816"
       inkscape:collect="always" />
    <linearGradient
       id="linearGradient3816"
       inkscape:collect="always">
      <stop
         id="stop3818"
         offset="0"
         style="stop-color:#000000;stop-opacity:1;" />
      <stop
         id="stop3820"
         offset="1"
         style="stop-color:#000000;stop-opacity:0;" />
    </linearGradient>
    <linearGradient
       id="linearGradient2152">
      <stop
         style="stop-color:#9aa29a;stop-opacity:1.0000000;"
         offset="0.0000000"
         id="stop2154" />
      <stop
         style="stop-color:#b5beb5;stop-opacity:1.0000000;"
         offset="1.0000000"
         id="stop2156" />
    </linearGradient>
    <linearGradient
       id="linearGradient37935">
      <stop
         style="stop-color:#9497b3;stop-opacity:1.0000000;"
         offset="0.0000000"
         id="stop37937" />
      <stop
         style="stop-color:#4c4059;stop-opacity:1.0000000;"
         offset="1.0000000"
         id="stop37939" />
    </linearGradient>
    <linearGradient
       id="linearGradient2145">
      <stop
         id="stop2147"
         offset="0.0000000"
         style="stop-color:#fffffd;stop-opacity:1.0000000;" />
      <stop
         id="stop2149"
         offset="1.0000000"
         style="stop-color:#cbcbc9;stop-opacity:1.0000000;" />
    </linearGradient>
    <linearGradient
       id="linearGradient42174">
      <stop
         id="stop42176"
         offset="0.0000000"
         style="stop-color:#a0a0a0;stop-opacity:1.0000000;" />
      <stop
         id="stop42178"
         offset="1.0000000"
         style="stop-color:#ffffff;stop-opacity:1.0000000;" />
    </linearGradient>
    <linearGradient
       id="linearGradient10653">
      <stop
         id="stop10655"
         offset="0.0000000"
         style="stop-color:#f3f4ff;stop-opacity:1.0000000;" />
      <stop
         id="stop10657"
         offset="1.0000000"
         style="stop-color:#9193af;stop-opacity:1.0000000;" />
    </linearGradient>
    <radialGradient
       r="14.375000"
       fy="125.00000"
       fx="55.000000"
       cy="125.00000"
       cx="55.000000"
       gradientUnits="userSpaceOnUse"
       id="radialGradient6053"
       xlink:href="#linearGradient12512"
       inkscape:collect="always" />
    <linearGradient
       id="linearGradient6045">
      <stop
         id="stop6047"
         offset="0.0000000"
         style="stop-color:#ffffff;stop-opacity:1.0000000;" />
      <stop
         id="stop6049"
         offset="0.50000000"
         style="stop-color:#fff520;stop-opacity:0.89108908;" />
      <stop
         id="stop6051"
         offset="1.0000000"
         style="stop-color:#fff300;stop-opacity:0.0000000;" />
    </linearGradient>
    <linearGradient
       id="linearGradient5196"
       inkscape:collect="always">
      <stop
         id="stop5198"
         offset="0"
         style="stop-color:#c4a000;stop-opacity:1;" />
      <stop
         id="stop5200"
         offset="1"
         style="stop-color:#c4a000;stop-opacity:0;" />
    </linearGradient>
    <linearGradient
       id="linearGradient5204"
       inkscape:collect="always">
      <stop
         id="stop5206"
         offset="0"
         style="stop-color:#c4a000;stop-opacity:1;" />
      <stop
         id="stop5208"
         offset="1"
         style="stop-color:#c4a000;stop-opacity:0;" />
    </linearGradient>
    <linearGradient
       inkscape:collect="always"
       xlink:href="#linearGradient2152"
       id="linearGradient6112"
       gradientUnits="userSpaceOnUse"
       gradientTransform="matrix(3.123841,0,0,0.969691,-79.083924,272.77319)"
       x1="8.9156475"
       y1="37.197018"
       x2="9.8855033"
       y2="52.090678" />
    <radialGradient
       inkscape:collect="always"
       xlink:href="#linearGradient3816"
       id="radialGradient6115"
       gradientUnits="userSpaceOnUse"
       cx="31.112698"
       cy="19.008621"
       fx="31.112698"
       fy="19.008621"
       r="8.6620579" />
    <linearGradient
       inkscape:collect="always"
       xlink:href="#linearGradient5048"
       id="linearGradient3115"
       gradientUnits="userSpaceOnUse"
       gradientTransform="matrix(2.774389,0,0,1.969706,-1892.179,-872.8854)"
       x1="302.85715"
       y1="366.64789"
       x2="302.85715"
       y2="609.50507" />
    <radialGradient
       inkscape:collect="always"
       xlink:href="#linearGradient5060"
       id="radialGradient3117"
       gradientUnits="userSpaceOnUse"
       gradientTransform="matrix(2.774389,0,0,1.969706,-1891.633,-872.8854)"
       cx="605.71429"
       cy="486.64789"
       fx="605.71429"
       fy="486.64789"
       r="117.14286" />
    <radialGradient
       inkscape:collect="always"
       xlink:href="#linearGradient5060"
       id="radialGradient3119"
       gradientUnits="userSpaceOnUse"
       gradientTransform="matrix(-2.774389,0,0,1.969706,112.7623,-872.8854)"
       cx="605.71429"
       cy="486.64789"
       fx="605.71429"
       fy="486.64789"
       r="117.14286" />
    <radialGradient
       inkscape:collect="always"
       xlink:href="#linearGradient5060"
       id="radialGradient2759"
       gradientUnits="userSpaceOnUse"
       gradientTransform="matrix(-8.7449732e-2,0,0,4.3444891e-2,63.589634,35.735609)"
       cx="605.71429"
       cy="486.64789"
       fx="605.71429"
       fy="486.64789"
       r="117.14286" />
    <radialGradient
       inkscape:collect="always"
       xlink:href="#linearGradient5060"
       id="radialGradient2762"
       gradientUnits="userSpaceOnUse"
       gradientTransform="matrix(8.7449732e-2,0,0,4.3444891e-2,0.4103785,35.735609)"
       cx="605.71429"
       cy="486.64789"
       fx="605.71429"
       fy="486.64789"
       r="117.14286" />
    <linearGradient
       inkscape:collect="always"
       xlink:href="#linearGradient5048"
       id="linearGradient2765"
       gradientUnits="userSpaceOnUse"
       gradientTransform="matrix(8.7449732e-2,0,0,4.3444891e-2,0.3931684,35.735609)"
       x1="302.85715"
       y1="366.64789"
       x2="302.85715"
       y2="609.50507" />
  </defs>
  <sodipodi:namedview
     id="base"
     pagecolor="#ffffff"
     bordercolor="#666666"
     borderopacity="1.0"
     inkscape:pageopacity="0.0"
     inkscape:pageshadow="2"
     inkscape:zoom="11"
     inkscape:cx="42.70442"
     inkscape:cy="36.58203"
     inkscape:current-layer="layer1"
     showgrid="true"
     inkscape:document-units="px"
     inkscape:grid-bbox="true"
     inkscape:window-width="1280"
     inkscape:window-height="911"
     inkscape:window-x="0"
     inkscape:window-y="18" />
  <metadata
     id="metadata2681">
    <rdf:RDF>
      <cc:Work
         rdf:about="">
        <dc:format>image/svg+xml</dc:format>
        <dc:type
           rdf:resource="http://purl.org/dc/dcmitype/StillImage" />
      </cc:Work>
    </rdf:RDF>
  </metadata>
  <g
     id="layer1"
     inkscape:label="Layer 1"
     inkscape:groupmode="layer">
    <rect
       style="opacity:0.40206185;color:#000000;fill:url(#linearGradient2765);fill-opacity:1;fill-rule:nonzero;stroke:none;stroke-width:1;stroke-linecap:round;stroke-linejoin:miter;marker:none;marker-start:none;marker-mid:none;marker-end:none;stroke-miterlimit:4;stroke-dasharray:none;stroke-dashoffset:0;stroke-opacity:1;visibility:visible;display:inline;overflow:visible"
       id="rect4173"
       width="42.225727"
       height="10.550902"
       x="10.887136"
       y="51.664585" />
    <path
       style="opacity:0.40206185;color:#000000;fill:url(#radialGradient2762);fill-opacity:1;fill-rule:nonzero;stroke:none;stroke-width:1;stroke-linecap:round;stroke-linejoin:miter;marker:none;marker-start:none;marker-mid:none;marker-end:none;stroke-miterlimit:4;stroke-dasharray:none;stroke-dashoffset:0;stroke-opacity:1;visibility:visible;display:inline;overflow:visible"
       d="M 53.112864,51.66495 C 53.112864,51.66495 53.112864,62.21527 53.112864,62.21527 C 57.616309,62.235131 64.000003,59.851479 64,56.939431 C 64,54.027383 58.974495,51.66495 53.112864,51.66495 z "
       id="path5058"
       sodipodi:nodetypes="cccc" />
    <path
       sodipodi:nodetypes="cccc"
       id="path5018"
       d="M 10.887137,51.66495 C 10.887137,51.66495 10.887137,62.21527 10.887137,62.21527 C 6.3836911,62.235131 -7.609425e-007,59.851479 -7.609425e-007,56.939431 C -7.609425e-007,54.027383 5.0255041,51.66495 10.887137,51.66495 z "
       style="opacity:0.40206185;color:#000000;fill:url(#radialGradient2759);fill-opacity:1;fill-rule:nonzero;stroke:none;stroke-width:1;stroke-linecap:round;stroke-linejoin:miter;marker:none;marker-start:none;marker-mid:none;marker-end:none;stroke-miterlimit:4;stroke-dasharray:none;stroke-dashoffset:0;stroke-opacity:1;visibility:visible;display:inline;overflow:visible" />
    <rect
       style="fill:#73d216;fill-opacity:1;fill-rule:evenodd;stroke:#4e9a06;stroke-width:2;stroke-linecap:round;stroke-linejoin:round;stroke-miterlimit:4;stroke-dasharray:none;stroke-dashoffset:0;stroke-opacity:1"
       id="rect5785"
       width="54.454544"
       height="54.545456"
       x="4.7954559"
       y="2.2845111"
       rx="6.3129587"
       ry="6.2481246" />
    <path
       style="fill:none;fill-opacity:1;fill-rule:evenodd;stroke:#8ae234;stroke-width:1.93883038;stroke-linecap:round;stroke-linejoin:round;stroke-miterlimit:4;stroke-dasharray:none;stroke-dashoffset:0;stroke-opacity:1"
       d="M 11.815515,3.9694152 L 51.99071,3.9694152 C 55.300154,3.9694152 57.568265,6.0600216 57.568265,9.3143656 L 57.612285,50.30317 C 57.216021,52.807681 54.994602,55.220865 52.342861,54.986475 L 11.441353,55.030585 C 8.6601365,54.898256 6.5240821,52.851759 6.5240821,49.685635 L 6.6341295,9.4466951 C 6.5901104,6.7216671 8.50607,3.9694152 11.815515,3.9694152 z "
       id="rect6763"
       sodipodi:nodetypes="ccccccccc" />
    <path
       id="path12"
       style="fill:#204a87;fill-rule:evenodd;stroke:none;stroke-opacity:1"
       d="M 9.0617282,35.141684 C 9.1052182,34.711026 9.4843082,34.374455 9.9455682,34.374455 C 10.237038,34.374455 10.495318,34.508601 10.657228,34.716126 L 10.659038,34.728799 L 10.671018,34.734331 C 10.773298,34.872743 10.833478,35.042187 10.833478,35.224551 C 10.833478,35.694031 10.435948,36.074586 9.9455682,36.074586 C 9.4843082,36.074586 9.1052182,35.737644 9.0617282,35.306924 L 9.0617282,35.141684 z M 9.0617282,33.252605 C 9.0929482,32.943266 9.2969282,32.682392 9.5805182,32.559961 C 9.6403082,32.571305 9.6750782,32.558477 9.6851882,32.522283 C 9.7676082,32.498173 9.8551082,32.485346 9.9455682,32.485346 C 10.435948,32.485346 10.833478,32.865931 10.833478,33.335411 C 10.833478,33.805046 10.435948,34.185662 9.9455682,34.185662 C 9.4843082,34.185662 9.1052182,33.848659 9.0617282,33.417846 L 9.0617282,33.252605 z M 9.0617282,31.363496 C 9.1052182,30.932838 9.4843082,30.596268 9.9455682,30.596268 C 10.435948,30.596268 10.833478,30.976853 10.833478,31.446333 C 10.833478,31.915813 10.435948,32.296398 9.9455682,32.296398 C 9.4843082,32.296398 9.1052182,31.959457 9.0617282,31.528737 L 9.0617282,31.363496 z M 9.0617282,29.474418 C 9.1052182,29.043698 9.4843082,28.707159 9.9455682,28.707159 C 10.237488,28.707159 10.495998,28.841706 10.657908,29.049787 L 10.659038,29.056773 L 10.665948,29.060296 C 10.771328,29.199944 10.833478,29.371923 10.833478,29.557224 C 10.833478,30.026704 10.435948,30.40732 9.9455682,30.40732 C 9.8456782,30.40732 9.7493382,30.391278 9.6597182,30.362069 C 9.6538382,30.358823 9.6469282,30.356536 9.6390482,30.355207 C 9.3254982,30.244892 9.0950782,29.969893 9.0617282,29.639659 L 9.0617282,29.474418 z M 9.0617282,27.585309 C 9.0932382,27.273002 9.3011582,27.010243 9.5888182,26.889326 C 9.6407282,26.897362 9.6722382,26.885926 9.6836382,26.855357 C 9.7663482,26.831124 9.8545582,26.81808 9.9455682,26.81808 C 10.435948,26.81808 10.833478,27.198634 10.833478,27.668114 C 10.833478,28.137595 10.435948,28.518211 9.9455682,28.518211 C 9.4843082,28.518211 9.1052182,28.181269 9.0617282,27.750549 L 9.0617282,27.585309 z M 9.0617282,25.69623 C 9.1052182,25.265511 9.4843082,24.928971 9.9455682,24.928971 C 10.435948,24.928971 10.833478,25.309556 10.833478,25.779036 C 10.833478,26.121108 10.622078,26.415642 10.317788,26.550468 C 10.280498,26.547779 10.255898,26.55733 10.244368,26.579276 C 10.150938,26.611452 10.050498,26.629132 9.9455682,26.629132 C 9.4843082,26.629132 9.1052182,26.29216 9.0617282,25.86144 L 9.0617282,25.69623 z M 9.0617282,23.807121 C 9.1052182,23.376401 9.4843082,23.039893 9.9455682,23.039893 C 9.9991982,23.039893 10.051368,23.044158 10.102278,23.052813 C 10.116488,23.10236 10.168268,23.115837 10.257568,23.093737 C 10.594078,23.214808 10.833478,23.525786 10.833478,23.889927 C 10.833478,24.359407 10.435948,24.740023 9.9455682,24.740023 C 9.4843082,24.740023 9.1052182,24.403082 9.0617282,23.972362 L 9.0617282,23.807121 z M 11.030868,23.889927 C 11.030868,23.420447 11.428368,23.039893 11.918748,23.039893 C 12.409158,23.039893 12.806688,23.420447 12.806688,23.889927 C 12.806688,24.359407 12.409158,24.740023 11.918748,24.740023 C 11.428368,24.740023 11.030868,24.359407 11.030868,23.889927 z M 13.002658,23.967756 C 13.002658,23.505416 13.387658,23.129437 13.867478,23.117846 L 13.878458,23.117846 L 13.896608,23.117846 L 13.913228,23.117846 L 13.914358,23.117846 C 14.393598,23.130086 14.778478,23.505973 14.778478,23.967756 C 14.778478,24.437236 14.380948,24.817852 13.890568,24.817852 C 13.400188,24.817852 13.002658,24.437236 13.002658,23.967756 z M 14.865418,24.592277 C 14.865418,24.250885 15.075308,23.956351 15.378588,23.821123 C 15.422468,23.825976 15.449908,23.815065 15.461308,23.788916 C 15.552738,23.758501 15.651208,23.742212 15.753328,23.742212 C 16.191668,23.742212 16.555588,24.045895 16.627898,24.445736 C 16.636328,24.546099 16.635748,24.648841 16.625928,24.748894 C 16.548968,25.143512 16.187728,25.442342 15.753328,25.442342 C 15.262948,25.442342 14.865418,25.061726 14.865418,24.592277 z M 15.853058,26.226972 C 15.853058,25.757492 16.250618,25.376907 16.740998,25.376907 C 17.231378,25.376907 17.628908,25.757492 17.628908,26.226972 C 17.628908,26.586014 17.395938,26.892819 17.067338,27.017383 C 17.036668,27.015899 17.015128,27.023039 17.002898,27.039205 C 16.920048,27.063716 16.832268,27.077038 16.740998,27.077038 C 16.250618,27.077038 15.853058,26.696453 15.853058,26.226972 z M 10.766548,30.50184 C 10.766548,30.172842 10.961358,29.88718 11.246918,29.745801 C 11.262968,29.744441 11.274368,29.739032 11.281818,29.729635 C 11.364538,29.692977 11.453998,29.668219 11.548108,29.657431 L 11.760228,29.657431 C 12.111358,29.697428 12.399568,29.933389 12.502138,30.248137 C 12.522668,30.413502 12.534068,30.549935 12.519738,30.691994 C 12.429398,31.069797 12.076488,31.351936 11.654458,31.351936 C 11.164048,31.351936 10.766548,30.97132 10.766548,30.50184 z M 12.739308,30.464409 C 12.739308,29.994805 13.136838,29.614189 13.627218,29.614189 C 14.117758,29.614189 14.515288,29.994805 14.515288,30.464409 C 14.515288,30.933889 14.117758,31.314474 13.627218,31.314474 C 13.136838,31.314474 12.739308,30.933889 12.739308,30.464409 z M 14.520648,29.651651 C 14.520648,29.182171 14.918138,28.801555 15.408558,28.801555 C 15.898938,28.801555 16.296458,29.182171 16.296458,29.651651 C 16.296458,30.121255 15.898938,30.50184 15.408558,30.50184 C 14.918138,30.50184 14.520648,30.121255 14.520648,29.651651 z M 15.656118,28.106902 C 15.656118,27.637298 16.053648,27.256682 16.544058,27.256682 C 17.034568,27.256682 17.432128,27.637298 17.432128,28.106902 C 17.432128,28.576382 17.034568,28.956998 16.544058,28.956998 C 16.053648,28.956998 15.656118,28.576382 15.656118,28.106902 z M 33.320248,35.224551 C 33.320248,34.75504 33.717768,34.374455 34.208118,34.374455 C 34.605258,34.374455 34.941318,34.623738 35.054868,34.968098 C 35.071848,35.154882 35.072138,35.292273 35.055968,35.477018 C 34.943578,35.823046 34.606518,36.074586 34.208118,36.074586 C 33.717768,36.074586 33.320248,35.694031 33.320248,35.224551 z M 33.320248,33.335411 C 33.320248,32.865931 33.717768,32.485346 34.208118,32.485346 C 34.299428,32.485346 34.387078,32.498297 34.469918,32.522808 C 34.480188,32.558354 34.514508,32.570872 34.573168,32.560239 C 34.881268,32.693551 35.096058,32.990681 35.096058,33.335411 C 35.096058,33.805046 34.698498,34.185662 34.208118,34.185662 C 33.717768,34.185662 33.320248,33.805046 33.320248,33.335411 z M 33.320248,31.446333 C 33.320248,30.976853 33.717768,30.596268 34.208118,30.596268 C 34.698498,30.596268 35.096058,30.976853 35.096058,31.446333 C 35.096058,31.915813 34.698498,32.296398 34.208118,32.296398 C 34.102608,32.296398 34.001078,32.278502 33.907218,32.246171 C 33.895698,32.229325 33.874748,32.221258 33.844948,32.222092 C 33.535588,32.089275 33.320248,31.792052 33.320248,31.446333 z M 33.320248,29.557224 C 33.320248,29.266739 33.472148,29.010069 33.704378,28.85679 L 33.705668,28.856666 L 33.706088,28.855708 C 33.762648,28.818524 33.823828,28.78743 33.888818,28.763444 C 33.986708,28.789717 34.041848,28.775035 34.054378,28.719553 C 34.104198,28.711331 34.155788,28.707159 34.208118,28.707159 C 34.606098,28.707159 34.942738,28.957523 35.055548,29.302841 C 35.072298,29.48842 35.072138,29.625379 35.055548,29.811081 C 34.972698,30.064289 34.769298,30.266559 34.509888,30.356536 L 34.509308,30.35666 L 34.506078,30.357865 L 34.502728,30.358823 L 34.499628,30.360029 C 34.408158,30.390598 34.310268,30.40732 34.208118,30.40732 C 33.717768,30.40732 33.320248,30.026704 33.320248,29.557224 z M 33.320248,27.668114 C 33.320248,27.198634 33.717768,26.81808 34.208118,26.81808 C 34.300138,26.81808 34.388498,26.831124 34.471888,26.856037 C 34.483288,26.885926 34.514248,26.896991 34.564868,26.889419 C 34.830318,27.001217 35.027678,27.233407 35.081278,27.514063 C 35.090698,27.632445 35.082568,27.748664 35.067228,27.882686 C 34.967758,28.248064 34.621018,28.518211 34.208118,28.518211 C 33.717768,28.518211 33.320248,28.137595 33.320248,27.668114 z M 33.320248,25.779036 C 33.320248,25.309556 33.717768,24.928971 34.208118,24.928971 C 34.698498,24.928971 35.096058,25.309556 35.096058,25.779036 C 35.096058,26.248516 34.698498,26.629132 34.208118,26.629132 C 34.103908,26.629132 34.003598,26.611607 33.910778,26.580079 C 33.899088,26.55733 33.874038,26.547346 33.835518,26.550592 C 33.531228,26.415797 33.320248,26.121108 33.320248,25.779036 z M 33.320248,23.889927 C 33.320248,23.702339 33.383358,23.528444 33.490998,23.387869 L 33.496778,23.384778 L 33.497458,23.379523 C 33.601578,23.246861 33.745178,23.144242 33.911738,23.08808 C 33.939448,23.089286 33.959268,23.083073 33.972088,23.069906 C 34.047338,23.050093 34.126538,23.039893 34.208118,23.039893 C 34.606648,23.039893 34.943578,23.290906 35.055968,23.637028 C 35.072298,23.821649 35.071718,23.958885 35.054868,24.145824 C 34.973828,24.39146 34.779408,24.58863 34.530718,24.681697 C 34.510858,24.682501 34.495658,24.687756 34.485098,24.69743 C 34.398058,24.724939 34.305078,24.740023 34.208118,24.740023 C 33.717768,24.740023 33.320248,24.359407 33.320248,23.889927 z M 41.957998,35.224551 C 41.957998,35.012143 42.039038,34.817663 42.173498,34.668711 C 42.195168,34.649084 42.216118,34.628313 42.235558,34.606769 C 42.394658,34.46267 42.609738,34.374455 42.845938,34.374455 C 43.336318,34.374455 43.733848,34.75504 43.733848,35.224551 C 43.733848,35.694031 43.336318,36.074586 42.845938,36.074586 C 42.355528,36.074586 41.957998,35.694031 41.957998,35.224551 z M 41.957998,33.335411 C 41.957998,32.865931 42.355528,32.485346 42.845938,32.485346 C 42.935658,32.485346 43.021768,32.498019 43.103508,32.521572 C 43.113328,32.558601 43.148778,32.571305 43.209858,32.559683 C 43.518478,32.692901 43.733848,32.990248 43.733848,33.335411 C 43.733848,33.805046 43.336318,34.185662 42.845938,34.185662 C 42.355528,34.185662 41.957998,33.805046 41.957998,33.335411 z M 41.957998,31.446333 C 41.957998,30.976853 42.355528,30.596268 42.845938,30.596268 C 43.336318,30.596268 43.733848,30.976853 43.733848,31.446333 C 43.733848,31.915813 43.336318,32.296398 42.845938,32.296398 C 42.738458,32.296398 42.635048,32.277822 42.539678,32.244409 C 42.528448,32.229603 42.509298,32.221938 42.482698,32.222092 C 42.173378,32.089121 41.957998,31.792052 41.957998,31.446333 z M 41.957998,29.557224 C 41.957998,29.087744 42.355528,28.707159 42.845938,28.707159 C 43.336318,28.707159 43.733848,29.087744 43.733848,29.557224 C 43.733848,29.923282 43.491738,30.235217 43.152718,30.354774 C 43.142578,30.356289 43.134018,30.359225 43.126818,30.363521 C 43.038518,30.391803 42.944248,30.40732 42.845938,30.40732 C 42.355528,30.40732 41.957998,30.026704 41.957998,29.557224 z M 41.957998,27.668114 C 41.957998,27.198634 42.355528,26.81808 42.845938,26.81808 C 42.936238,26.81808 43.023158,26.830846 43.105318,26.854831 C 43.116428,26.886359 43.148388,26.897517 43.201558,26.889048 C 43.514828,27.02035 43.733848,27.31986 43.733848,27.668114 C 43.733848,28.137595 43.336318,28.518211 42.845938,28.518211 C 42.355528,28.518211 41.957998,28.137595 41.957998,27.668114 z M 41.957998,25.779036 C 41.957998,25.309556 42.355528,24.928971 42.845938,24.928971 C 43.336318,24.928971 43.733848,25.309556 43.733848,25.779036 C 43.733848,26.248516 43.336318,26.629132 42.845938,26.629132 C 42.355528,26.629132 41.957998,26.248516 41.957998,25.779036 z M 41.957998,23.889927 C 41.957998,23.525909 42.196718,23.21521 42.532518,23.093984 C 42.620688,23.115837 42.671888,23.102206 42.686418,23.053184 C 42.738008,23.044313 42.791638,23.039893 42.845938,23.039893 C 43.336318,23.039893 43.733848,23.420447 43.733848,23.889927 C 43.733848,24.250328 43.499328,24.55806 43.168598,24.681697 C 43.145548,24.681976 43.128238,24.687601 43.117008,24.699346 C 43.031608,24.725588 42.940568,24.740023 42.845938,24.740023 C 42.765618,24.740023 42.687518,24.729483 42.613518,24.710412 C 42.600438,24.686303 42.571448,24.677123 42.527028,24.683336 C 42.460908,24.658948 42.398438,24.627421 42.341058,24.58931 L 42.339348,24.585941 L 42.335408,24.585539 C 42.107128,24.431889 41.957998,24.177754 41.957998,23.889927 z M 40.267418,30.331376 C 40.342408,29.977033 40.647508,29.702404 41.027178,29.657431 L 41.247628,29.657431 C 41.685968,29.709421 42.025668,30.067658 42.025668,30.501315 C 42.025668,30.970795 41.628138,31.35138 41.137758,31.35138 C 41.044488,31.35138 40.954318,31.337378 40.869918,31.31194 C 40.857528,31.293889 40.834758,31.285945 40.801538,31.288109 C 40.489408,31.165801 40.266028,30.878129 40.250558,30.538869 C 40.251658,30.468984 40.257568,30.399222 40.267418,30.331376 z M 39.165968,29.647479 C 39.027108,29.496642 38.953698,29.311465 38.944688,29.125206 C 38.944108,29.098655 38.943978,29.071856 38.944848,29.045305 C 38.955668,28.823532 39.056948,28.606271 39.244878,28.447768 C 39.612608,28.137224 40.173718,28.171007 40.497998,28.523187 C 40.822238,28.875366 40.786918,29.4126 40.419188,29.723144 C 40.051328,30.033566 39.490208,29.999782 39.165968,29.647479 z M 37.861098,28.230539 C 37.536828,27.878359 37.572178,27.34128 37.939878,27.030705 C 38.180428,26.827755 38.503118,26.771593 38.788688,26.855635 C 38.800078,26.886081 38.831428,26.897115 38.883188,26.889171 C 38.998408,26.93739 39.104628,27.010119 39.193248,27.106278 C 39.299728,27.221816 39.366978,27.357168 39.396808,27.498021 C 39.408628,27.625429 39.399748,27.749097 39.382738,27.893999 C 39.338698,28.048329 39.248978,28.192427 39.114318,28.306081 C 38.746458,28.616533 38.185498,28.582718 37.861098,28.230539 z M 36.556358,26.813598 C 36.486298,26.737531 36.432738,26.652685 36.396028,26.563512 C 36.375588,26.337689 36.375748,26.163145 36.396868,25.936086 C 36.446938,25.815787 36.526818,25.705256 36.635128,25.613796 C 36.890318,25.398451 37.238478,25.348347 37.535988,25.455819 C 37.546838,25.482617 37.573568,25.493651 37.616898,25.489633 C 37.717208,25.537141 37.809898,25.603966 37.888378,25.689338 C 38.212618,26.041548 38.177328,26.578596 37.809478,26.889048 C 37.746838,26.941841 37.678368,26.984403 37.606758,27.017383 C 37.572858,27.015899 37.550098,27.025048 37.538798,27.045418 C 37.202738,27.16822 36.808308,27.087145 36.556358,26.813598 z M 35.251478,25.396689 C 35.105038,25.237507 35.031358,25.040337 35.029098,24.843693 C 35.030518,24.798874 35.033878,24.754303 35.038818,24.710257 C 35.068358,24.518311 35.166408,24.335174 35.330258,24.196886 C 35.364188,24.168295 35.399348,24.142177 35.436218,24.119428 L 35.446328,24.118902 L 35.449848,24.111206 C 35.577688,24.035262 35.720358,23.99338 35.864388,23.985436 L 35.963568,23.985436 C 36.193858,23.996996 36.419078,24.093866 36.583508,24.272274 C 36.907748,24.624453 36.872588,25.161686 36.504598,25.472108 C 36.263078,25.676016 35.937708,25.731096 35.651138,25.645292 C 35.638908,25.621863 35.611918,25.612281 35.570528,25.616886 C 35.451808,25.568823 35.342498,25.495537 35.251478,25.396689 z M 48.434938,23.700979 C 48.434938,23.238515 48.820518,22.862103 49.300788,22.850914 L 49.318778,22.850914 L 49.322838,22.850914 L 49.336918,22.850914 C 49.820808,22.858177 50.210908,23.236104 50.210908,23.700979 C 50.210908,24.170459 49.813218,24.551075 49.322838,24.551075 C 48.832458,24.551075 48.434938,24.170459 48.434938,23.700979 z M 50.381408,24.014646 C 50.381408,23.727252 50.530118,23.472714 50.758248,23.318787 L 50.764318,23.318107 L 50.766288,23.313532 C 50.823818,23.275699 50.886128,23.244048 50.952538,23.219784 C 50.996538,23.225719 51.024948,23.216848 51.038218,23.193264 C 51.111898,23.174255 51.189418,23.164426 51.269318,23.164426 C 51.365108,23.164426 51.457118,23.178861 51.543488,23.205659 C 51.554168,23.215612 51.569638,23.220743 51.590078,23.221546 C 51.921738,23.344905 52.157228,23.653564 52.157228,24.014646 C 52.157228,24.484157 51.759698,24.864711 51.269318,24.864711 C 51.215598,24.864711 51.162718,24.860013 51.111608,24.851265 C 51.097728,24.800883 51.045518,24.787005 50.955348,24.809909 C 50.794698,24.751861 50.656128,24.650324 50.555558,24.520629 L 50.555398,24.519269 L 50.553588,24.518064 C 50.445138,24.377087 50.381408,24.203192 50.381408,24.014646 z M 52.178178,24.796463 C 52.178178,24.326829 52.575738,23.946367 53.066118,23.946367 C 53.162328,23.946367 53.254608,23.960895 53.341288,23.987847 C 53.352688,24.016129 53.382068,24.026886 53.429588,24.02058 C 53.738788,24.153644 53.954158,24.451022 53.954158,24.796463 C 53.954158,25.265912 53.556628,25.646497 53.066118,25.646497 C 52.575738,25.646497 52.178178,25.265912 52.178178,24.796463 z M 46.495208,24.049109 C 46.495208,23.579629 46.892768,23.199075 47.383148,23.199075 C 47.495658,23.199075 47.603138,23.218857 47.702188,23.255484 C 47.713128,23.280243 47.738478,23.290783 47.778578,23.287661 C 48.070438,23.426938 48.271058,23.715784 48.271058,24.049109 C 48.271058,24.386638 48.065398,24.677926 47.767598,24.815163 C 47.737638,24.814761 47.716978,24.823262 47.705838,24.84088 C 47.605688,24.878342 47.497238,24.899205 47.383148,24.899205 C 46.892768,24.899205 46.495208,24.518589 46.495208,24.049109 z M 45.143778,25.327051 C 45.192458,24.90174 45.569168,24.570857 46.026518,24.570857 C 46.516868,24.570857 46.914398,24.951473 46.914398,25.420953 C 46.914398,25.890433 46.516868,26.270987 46.026518,26.270987 C 45.570168,26.270987 45.194138,25.941186 45.144068,25.517112 C 45.139998,25.453809 45.139868,25.390229 45.143778,25.327051 z M 45.006628,27.100869 C 45.061518,26.886884 45.200628,26.70452 45.388858,26.588579 L 45.402898,26.587776 L 45.407968,26.577112 C 45.535268,26.50293 45.683678,26.458761 45.842368,26.45431 L 45.895698,26.45431 C 46.373808,26.467786 46.757298,26.843271 46.757298,27.304097 C 46.757298,27.773577 46.359768,28.154193 45.869228,28.154193 C 45.778888,28.154193 45.691428,28.140995 45.609268,28.117009 C 45.597158,28.090458 45.567748,28.080103 45.521608,28.086409 C 45.228748,27.966976 45.016638,27.701249 44.985258,27.385048 C 44.983838,27.289291 44.991588,27.193133 45.006628,27.100869 z M 46.315278,28.696248 C 46.315278,28.40227 46.470858,28.143004 46.707768,27.990281 L 46.725948,27.989199 L 46.733118,27.974363 C 46.786808,27.94231 46.844208,27.915543 46.904838,27.894926 C 47.003598,27.922281 47.059878,27.908805 47.073818,27.854806 C 47.115988,27.849026 47.159308,27.846059 47.203218,27.846059 C 47.254258,27.846059 47.304208,27.849953 47.352898,27.857897 C 47.367388,27.907321 47.419728,27.920519 47.509738,27.897894 C 47.849018,28.017605 48.091128,28.329912 48.091128,28.696248 C 48.091128,29.165728 47.693598,29.546344 47.203218,29.546344 C 46.712838,29.546344 46.315278,29.165728 46.315278,28.696248 z M 48.208328,29.108484 C 48.297208,28.728702 48.651698,28.445079 49.075118,28.445079 C 49.565498,28.445079 49.963058,28.825664 49.963058,29.295145 C 49.963058,29.764655 49.565498,30.145241 49.075118,30.145241 C 48.979878,30.145241 48.888028,30.130682 48.802118,30.104039 C 48.790818,30.092849 48.773828,30.087069 48.751458,30.086791 C 48.433808,29.967884 48.205358,29.678821 48.188048,29.336748 C 48.189338,29.259599 48.196508,29.18282 48.208328,29.108484 z M 50.108928,29.725864 C 50.108928,29.256384 50.506448,28.875768 50.996828,28.875768 C 51.487208,28.875768 51.884898,29.256384 51.884898,29.725864 C 51.884898,30.195313 51.487208,30.576053 50.996828,30.576053 C 50.506448,30.576053 50.108928,30.195313 50.108928,29.725864 z M 51.899108,30.373258 C 51.950728,30.159922 52.086198,29.977558 52.270488,29.859299 L 52.296058,29.857569 L 52.305228,29.838034 C 52.405368,29.78011 52.518628,29.740268 52.639598,29.724103 L 52.888718,29.724103 C 53.320178,29.782119 53.652418,30.137173 53.652418,30.5661 C 53.652418,31.03558 53.254898,31.416166 52.764518,31.416166 C 52.671108,31.416166 52.580808,31.402164 52.496128,31.376571 C 52.483888,31.360807 52.462648,31.353389 52.432818,31.354625 C 52.122908,31.235285 51.899788,30.953269 51.878158,30.619141 C 51.878828,30.536057 51.886158,30.453251 51.899108,30.373258 z M 52.678698,32.292627 C 52.678698,32.072863 52.765478,31.872169 52.908438,31.721332 L 52.936978,31.69305 C 53.097888,31.538319 53.320558,31.442562 53.566608,31.442562 C 54.056988,31.442562 54.454548,31.823147 54.454548,32.292627 C 54.454548,32.660694 54.209928,32.973804 53.868088,33.092063 C 53.863728,33.09299 53.859658,33.09435 53.855978,33.095958 L 53.853008,33.097194 C 53.763288,33.126681 53.666918,33.142723 53.566608,33.142723 C 53.076228,33.142723 52.678698,32.762107 52.678698,32.292627 z M 52.192518,33.814875 C 52.312678,33.503774 52.617648,33.278446 52.980018,33.260827 L 52.980698,33.260827 L 53.071318,33.260827 C 53.540588,33.283576 53.913928,33.655167 53.913928,34.109934 C 53.913928,34.579569 53.516408,34.960154 53.025858,34.960154 C 52.566988,34.960154 52.189318,34.626551 52.142728,34.198953 C 52.147248,34.073461 52.169758,33.949423 52.192518,33.814875 z M 50.595208,34.921765 C 50.720828,34.598269 51.046518,34.368397 51.427998,34.368397 C 51.485958,34.368397 51.542358,34.373497 51.597238,34.383759 C 51.606378,34.446907 51.663908,34.463597 51.770228,34.433863 C 52.090688,34.562167 52.315908,34.865232 52.315908,35.218462 C 52.315908,35.687942 51.918378,36.068527 51.427998,36.068527 C 50.967868,36.068527 50.589328,35.733317 50.544448,35.304112 C 50.547678,35.180877 50.571438,35.06132 50.595208,34.921765 z M 48.577148,35.413468 C 48.577148,35.059156 48.803338,34.755442 49.125068,34.627787 C 49.186118,34.640058 49.221988,34.628189 49.232958,34.592489 C 49.306958,34.573356 49.384738,34.563403 49.465058,34.563403 C 49.527658,34.563403 49.588578,34.569462 49.647378,34.581176 C 49.655118,34.646487 49.712658,34.664167 49.820128,34.634124 C 50.133688,34.765302 50.352998,35.064936 50.352998,35.413468 C 50.352998,35.882948 49.955438,36.263565 49.465058,36.263565 C 48.974678,36.263565 48.577148,35.882948 48.577148,35.413468 z M 46.687108,34.869497 C 46.687108,34.400017 47.084608,34.019308 47.574988,34.019308 C 47.666738,34.019308 47.755068,34.032383 47.838338,34.057141 C 47.848468,34.092965 47.882958,34.105669 47.941748,34.095005 C 48.248968,34.228749 48.462928,34.525292 48.462928,34.869497 C 48.462928,35.338977 48.065398,35.719593 47.574988,35.719593 C 47.084608,35.719593 46.687108,35.338977 46.687108,34.869497 z M 44.995228,33.896753 C 44.995228,33.605589 45.147878,33.34864 45.380818,33.195362 L 45.402898,33.194002 C 45.406418,33.187851 45.408938,33.181762 45.411778,33.175858 C 45.463398,33.144887 45.518508,33.118738 45.576628,33.098276 C 45.681168,33.128165 45.739538,33.114163 45.751768,33.055714 C 45.794518,33.049656 45.838688,33.046688 45.883178,33.046688 C 45.908448,33.046688 45.933088,33.047646 45.957848,33.049532 C 45.968248,33.134223 46.048858,33.151749 46.199668,33.10217 C 46.533588,33.224324 46.771048,33.534219 46.771048,33.896753 C 46.771048,34.366233 46.373558,34.746819 45.883178,34.746819 C 45.392788,34.746819 44.995228,34.366233 44.995228,33.896753 z M 24.299388,23.718103 C 24.299388,23.242688 24.698758,22.856725 25.193918,22.850914 L 25.205158,22.850914 L 25.211938,22.850914 C 25.709058,22.854407 26.110978,23.241328 26.110978,23.718103 C 26.110978,24.100295 25.851988,24.424471 25.493138,24.539886 C 25.418268,24.523442 25.372168,24.534353 25.354698,24.573021 C 25.306178,24.580841 25.256228,24.585137 25.205158,24.585137 C 25.183518,24.585137 25.161728,24.584302 25.140458,24.58285 C 25.123858,24.512253 25.048478,24.497324 24.914388,24.539237 C 24.614078,24.441996 24.384498,24.198061 24.318508,23.896542 C 24.312078,23.857349 24.306268,23.818681 24.301518,23.779241 C 24.299938,23.758903 24.299388,23.738688 24.299388,23.718103 z M 22.313398,24.035386 C 22.313398,23.661786 22.559858,23.343174 22.905768,23.221113 C 22.938278,23.223432 22.961038,23.216415 22.974118,23.200002 C 23.052088,23.179231 23.134348,23.168197 23.219188,23.168197 C 23.719388,23.168197 24.124828,23.556478 24.124828,24.035386 C 24.124828,24.37854 23.916198,24.674835 23.614038,24.815318 C 23.577878,24.813154 23.553988,24.822983 23.542848,24.844929 C 23.442278,24.881958 23.333418,24.902451 23.219188,24.902451 C 23.111718,24.902451 23.008338,24.884245 22.912518,24.851265 C 22.901698,24.822458 22.872838,24.810558 22.825988,24.8164 C 22.522698,24.676319 22.313398,24.379343 22.313398,24.035386 L 22.313398,24.035386 z M 20.542618,24.952802 C 20.542618,24.594966 20.768968,24.28779 21.092208,24.155252 C 21.130628,24.158621 21.155678,24.149317 21.167918,24.127773 C 21.256118,24.10045 21.350618,24.085768 21.448408,24.085768 C 21.548718,24.085768 21.644798,24.101099 21.734818,24.129906 C 21.746918,24.149317 21.770258,24.157693 21.805038,24.15553 C 22.127858,24.288161 22.354048,24.595244 22.354048,24.952802 C 22.354048,25.31036 22.127728,25.617165 21.805168,25.749672 C 21.770558,25.747385 21.747208,25.755731 21.735108,25.774987 C 21.644928,25.803825 21.548718,25.819836 21.448408,25.819836 C 21.350618,25.819836 21.256118,25.804753 21.167918,25.777305 C 21.155678,25.755607 21.130208,25.746427 21.091948,25.749951 C 20.816238,25.636947 20.610578,25.396411 20.556398,25.10605 L 20.555268,25.099868 C 20.546688,25.051928 20.542618,25.00303 20.542618,24.952802 z M 19.178988,26.370917 C 19.178988,25.997224 19.425708,25.678427 19.771868,25.556675 C 19.804798,25.559117 19.827888,25.551977 19.840928,25.53541 C 19.918608,25.514824 20.000358,25.503913 20.084748,25.503913 C 20.584978,25.503913 20.990248,25.89204 20.990248,26.370917 C 20.990248,26.849855 20.584978,27.238106 20.084748,27.238106 C 19.584518,27.238106 19.178988,26.849855 19.178988,26.370917 z M 18.370078,28.136142 C 18.370078,27.657204 18.775518,27.269077 19.275868,27.269077 C 19.775968,27.269077 20.181538,27.657204 20.181538,28.136142 C 20.181538,28.615018 19.775968,29.0033 19.275868,29.0033 C 18.775518,29.0033 18.370078,28.615018 18.370078,28.136142 z M 18.203708,30.057273 C 18.203708,29.586866 18.594618,29.203561 19.082618,29.190239 L 19.085708,29.190239 L 19.100628,29.190239 L 19.118738,29.190239 L 19.132528,29.190239 C 19.621778,29.202231 20.015108,29.585907 20.015108,30.057273 C 20.015108,30.536211 19.609578,30.924338 19.109318,30.924338 C 18.609118,30.924338 18.203708,30.536211 18.203708,30.057273 z M 18.697708,31.925889 C 18.697708,31.447013 19.103278,31.058886 19.603538,31.058886 C 20.103728,31.058886 20.509138,31.447013 20.509138,31.925889 C 20.509138,32.404673 20.103728,32.792955 19.603538,32.792955 C 19.103278,32.792955 18.697708,32.404673 18.697708,31.925889 z M 19.798768,33.539721 C 19.798768,33.197803 20.005258,32.901755 20.305608,32.760624 C 20.365238,32.771287 20.399558,32.757409 20.408538,32.719545 C 20.501418,32.688976 20.600988,32.672532 20.704528,32.672532 C 21.204788,32.672532 21.610188,33.060845 21.610188,33.539721 C 21.610188,34.018659 21.204788,34.406786 20.704528,34.406786 C 20.204328,34.406786 19.798768,34.018659 19.798768,33.539721 z M 21.402118,34.565845 C 21.474018,34.191442 21.796838,33.901483 22.197618,33.861362 L 22.388238,33.861362 C 22.843718,33.906984 23.198758,34.275762 23.198758,34.723791 C 23.198758,35.202729 22.793348,35.59098 22.293158,35.59098 C 21.845228,35.59098 21.473008,35.279353 21.400148,34.870455 C 21.391428,34.769599 21.392138,34.666269 21.402118,34.565845 z M 23.291638,35.349888 C 23.291638,34.871135 23.697048,34.482885 24.197238,34.482885 C 24.697498,34.482885 25.103038,34.871135 25.103038,35.349888 C 25.103038,35.828826 24.697498,36.217077 24.197238,36.217077 C 23.697048,36.217077 23.291638,35.828826 23.291638,35.349888 z M 26.285548,24.035386 C 26.285548,23.662064 26.531688,23.343545 26.877208,23.221392 C 26.907588,23.22303 26.928958,23.216137 26.941748,23.201084 C 27.021098,23.17951 27.104788,23.168197 27.191178,23.168197 C 27.252228,23.168197 27.311738,23.173884 27.369398,23.184919 C 27.382888,23.235023 27.433968,23.249272 27.522458,23.227883 C 27.858648,23.35461 28.096938,23.668524 28.096938,24.035386 C 28.096938,24.378694 27.888058,24.674959 27.585608,24.815441 C 27.547058,24.812598 27.522168,24.822829 27.511058,24.846289 C 27.411628,24.882514 27.303858,24.902451 27.191178,24.902451 C 27.082148,24.902451 26.977358,24.883689 26.880598,24.849905 C 26.869588,24.822551 26.842018,24.811269 26.797558,24.816121 C 26.494558,24.676041 26.285548,24.379189 26.285548,24.035386 L 26.285548,24.035386 z M 28.098238,24.690321 C 28.178108,24.448704 28.365618,24.253017 28.606888,24.154726 C 28.649638,24.159579 28.676788,24.149595 28.689058,24.125486 C 28.775128,24.099491 28.867008,24.085768 28.961958,24.085768 C 29.462158,24.085768 29.867728,24.473895 29.867728,24.952802 C 29.867728,25.310082 29.641658,25.616608 29.319258,25.749394 C 29.289138,25.748467 29.268188,25.756009 29.256368,25.772422 C 29.163938,25.803022 29.065208,25.819836 28.961958,25.819836 C 28.867008,25.819836 28.774868,25.805556 28.688888,25.779562 C 28.676688,25.75536 28.649248,25.7455 28.606728,25.750476 C 28.293168,25.622543 28.070368,25.329894 28.056848,24.985937 C 28.062918,24.890458 28.079798,24.795629 28.098238,24.690321 L 28.098238,24.690321 z M 29.419988,26.370917 C 29.419988,25.89204 29.825528,25.503913 30.325758,25.503913 C 30.825978,25.503913 31.231388,25.89204 31.231388,26.370917 C 31.231388,26.849855 30.825978,27.238106 30.325758,27.238106 C 29.825528,27.238106 29.419988,26.849855 29.419988,26.370917 z M 30.228838,28.136142 C 30.228838,27.657204 30.634398,27.269077 31.134598,27.269077 C 31.634858,27.269077 32.040388,27.657204 32.040388,28.136142 C 32.040388,28.615018 31.634858,29.0033 31.134598,29.0033 C 30.634398,29.0033 30.228838,28.615018 30.228838,28.136142 z M 30.395398,30.057273 C 30.395398,29.585907 30.788018,29.202108 31.277268,29.190239 L 31.285268,29.190239 L 31.303418,29.190239 L 31.321138,29.190239 L 31.324078,29.190239 C 31.813648,29.202231 32.206658,29.585784 32.206658,30.057273 C 32.206658,30.536211 31.801258,30.924338 31.300868,30.924338 C 30.800798,30.924338 30.395398,30.536211 30.395398,30.057273 z M 29.901208,31.925889 C 29.901208,31.447013 30.306738,31.058886 30.806998,31.058886 C 31.307068,31.058886 31.712628,31.447013 31.712628,31.925889 C 31.712628,32.404673 31.307068,32.792955 30.806998,32.792955 C 30.306738,32.792955 29.901208,32.404673 29.901208,31.925889 z M 28.800148,33.539721 C 28.800148,33.060845 29.205718,32.672532 29.705938,32.672532 C 30.206198,32.672532 30.611608,33.060845 30.611608,33.539721 C 30.611608,34.018659 30.206198,34.406786 29.705938,34.406786 C 29.612378,34.406786 29.521658,34.392908 29.436848,34.367717 C 29.428838,34.362741 29.418698,34.359495 29.407048,34.358135 C 29.053358,34.240031 28.800148,33.918606 28.800148,33.539721 z M 27.211428,34.723791 C 27.211428,34.275762 27.566208,33.906984 28.021688,33.861362 L 28.212328,33.861362 C 28.308538,33.871037 28.400098,33.894992 28.485078,33.931094 C 28.492788,33.943086 28.506448,33.949145 28.526138,33.949825 C 28.820708,34.09312 29.022848,34.385923 29.022848,34.723791 C 29.022848,35.202729 28.617448,35.59098 28.117218,35.59098 C 27.616988,35.59098 27.211428,35.202729 27.211428,34.723791 z M 25.307308,35.349888 C 25.307308,34.871135 25.712868,34.482885 26.213068,34.482885 C 26.713328,34.482885 27.118728,34.871135 27.118728,35.349888 C 27.118728,35.828826 26.713328,36.217077 26.213068,36.217077 C 25.712868,36.217077 25.307308,35.828826 25.307308,35.349888 z " />
  </g>
</svg>
