<?xml version="1.0" encoding="UTF-8" standalone="no"?>
<!-- Created with Inkscape (http://www.inkscape.org/) -->
<svg
   xmlns:dc="http://purl.org/dc/elements/1.1/"
   xmlns:cc="http://web.resource.org/cc/"
   xmlns:rdf="http://www.w3.org/1999/02/22-rdf-syntax-ns#"
   xmlns:svg="http://www.w3.org/2000/svg"
   xmlns="http://www.w3.org/2000/svg"
   xmlns:xlink="http://www.w3.org/1999/xlink"
   xmlns:sodipodi="http://sodipodi.sourceforge.net/DTD/sodipodi-0.dtd"
   xmlns:inkscape="http://www.inkscape.org/namespaces/inkscape"
   width="64px"
   height="64px"
   id="svg2160"
   sodipodi:version="0.32"
   inkscape:version="0.45.1"
   sodipodi:docbase="D:\stefan\icons\self\XnView"
   sodipodi:docname="xnview_16x16.svg"
   inkscape:output_extension="org.inkscape.output.svg.inkscape"
   inkscape:export-filename="D:\stefan\icons\self\XnView\xnview_16x16.png"
   inkscape:export-xdpi="22.5"
   inkscape:export-ydpi="22.5">
  <defs
     id="defs2162">
    <radialGradient
       r="8.6620579"
       fy="19.008621"
       fx="31.112698"
       cy="19.008621"
       cx="31.112698"
       gradientUnits="userSpaceOnUse"
       id="radialGradient6115"
       xlink:href="#linearGradient3816"
       inkscape:collect="always" />
    <linearGradient
       y2="52.090678"
       x2="9.8855033"
       y1="37.197018"
       x1="8.9156475"
       gradientTransform="matrix(3.123841,0,0,0.969691,-79.083924,272.77319)"
       gradientUnits="userSpaceOnUse"
       id="linearGradient6112"
       xlink:href="#linearGradient2152"
       inkscape:collect="always" />
    <linearGradient
       inkscape:collect="always"
       id="linearGradient5204">
      <stop
         style="stop-color:#c4a000;stop-opacity:1;"
         offset="0"
         id="stop5206" />
      <stop
         style="stop-color:#c4a000;stop-opacity:0;"
         offset="1"
         id="stop5208" />
    </linearGradient>
    <linearGradient
       inkscape:collect="always"
       id="linearGradient5196">
      <stop
         style="stop-color:#c4a000;stop-opacity:1;"
         offset="0"
         id="stop5198" />
      <stop
         style="stop-color:#c4a000;stop-opacity:0;"
         offset="1"
         id="stop5200" />
    </linearGradient>
    <linearGradient
       id="linearGradient6045">
      <stop
         style="stop-color:#ffffff;stop-opacity:1.0000000;"
         offset="0.0000000"
         id="stop6047" />
      <stop
         style="stop-color:#fff520;stop-opacity:0.89108908;"
         offset="0.50000000"
         id="stop6049" />
      <stop
         style="stop-color:#fff300;stop-opacity:0.0000000;"
         offset="1.0000000"
         id="stop6051" />
    </linearGradient>
    <radialGradient
       inkscape:collect="always"
       xlink:href="#linearGradient12512"
       id="radialGradient6053"
       gradientUnits="userSpaceOnUse"
       cx="55.000000"
       cy="125.00000"
       fx="55.000000"
       fy="125.00000"
       r="14.375000" />
    <linearGradient
       id="linearGradient10653">
      <stop
         style="stop-color:#f3f4ff;stop-opacity:1.0000000;"
         offset="0.0000000"
         id="stop10655" />
      <stop
         style="stop-color:#9193af;stop-opacity:1.0000000;"
         offset="1.0000000"
         id="stop10657" />
    </linearGradient>
    <linearGradient
       id="linearGradient42174">
      <stop
         style="stop-color:#a0a0a0;stop-opacity:1.0000000;"
         offset="0.0000000"
         id="stop42176" />
      <stop
         style="stop-color:#ffffff;stop-opacity:1.0000000;"
         offset="1.0000000"
         id="stop42178" />
    </linearGradient>
    <linearGradient
       id="linearGradient2145">
      <stop
         style="stop-color:#fffffd;stop-opacity:1.0000000;"
         offset="0.0000000"
         id="stop2147" />
      <stop
         style="stop-color:#cbcbc9;stop-opacity:1.0000000;"
         offset="1.0000000"
         id="stop2149" />
    </linearGradient>
    <linearGradient
       id="linearGradient37935">
      <stop
         id="stop37937"
         offset="0.0000000"
         style="stop-color:#9497b3;stop-opacity:1.0000000;" />
      <stop
         id="stop37939"
         offset="1.0000000"
         style="stop-color:#4c4059;stop-opacity:1.0000000;" />
    </linearGradient>
    <linearGradient
       id="linearGradient2152">
      <stop
         id="stop2154"
         offset="0.0000000"
         style="stop-color:#9aa29a;stop-opacity:1.0000000;" />
      <stop
         id="stop2156"
         offset="1.0000000"
         style="stop-color:#b5beb5;stop-opacity:1.0000000;" />
    </linearGradient>
    <linearGradient
       id="linearGradient3816">
      <stop
         style="stop-color:#000000;stop-opacity:0.78431374;"
         offset="0"
         id="stop3818" />
      <stop
         style="stop-color:#000000;stop-opacity:0;"
         offset="1"
         id="stop3820" />
    </linearGradient>
    <radialGradient
       inkscape:collect="always"
       xlink:href="#linearGradient3816"
       id="radialGradient3822"
       cx="31.112698"
       cy="19.008621"
       fx="31.112698"
       fy="19.008621"
       r="8.6620579"
       gradientUnits="userSpaceOnUse" />
    <linearGradient
       inkscape:collect="always"
       xlink:href="#linearGradient2152"
       id="linearGradient4307"
       gradientUnits="userSpaceOnUse"
       gradientTransform="matrix(3.123841,0,0,0.969691,-31.88758,-19.59492)"
       x1="8.9156475"
       y1="37.197018"
       x2="9.8855033"
       y2="52.090678" />
    <radialGradient
       inkscape:collect="always"
       xlink:href="#linearGradient10653"
       id="radialGradient4309"
       gradientUnits="userSpaceOnUse"
       cx="11.329200"
       cy="10.583970"
       fx="11.329200"
       fy="10.583970"
       r="15.532059" />
    <radialGradient
       inkscape:collect="always"
       xlink:href="#linearGradient2145"
       id="radialGradient4311"
       gradientUnits="userSpaceOnUse"
       cx="11.901996"
       cy="10.045444"
       fx="11.901996"
       fy="10.045444"
       r="29.292715" />
    <linearGradient
       inkscape:collect="always"
       xlink:href="#linearGradient42174"
       id="linearGradient4313"
       gradientUnits="userSpaceOnUse"
       x1="6.3422160"
       y1="7.7893324"
       x2="22.218424"
       y2="25.884274" />
    <radialGradient
       inkscape:collect="always"
       xlink:href="#linearGradient5196"
       id="radialGradient5202"
       cx="23.375"
       cy="10.972863"
       fx="23.375"
       fy="10.972863"
       r="3.3478092"
       gradientTransform="matrix(3.63042,0,0,3.742066,-61.48607,-29.18618)"
       gradientUnits="userSpaceOnUse" />
    <linearGradient
       inkscape:collect="always"
       xlink:href="#linearGradient5204"
       id="linearGradient5210"
       x1="19.667364"
       y1="4.2570662"
       x2="20.329933"
       y2="5.2845874"
       gradientUnits="userSpaceOnUse" />
    <radialGradient
       inkscape:collect="always"
       xlink:href="#linearGradient37935"
       id="radialGradient5212"
       gradientUnits="userSpaceOnUse"
       cx="8.7468252"
       cy="6.8283234"
       fx="8.7468252"
       fy="6.8283234"
       r="29.889715" />
    <linearGradient
       inkscape:collect="always"
       id="linearGradient5060">
      <stop
         style="stop-color:black;stop-opacity:1;"
         offset="0"
         id="stop5062" />
      <stop
         style="stop-color:black;stop-opacity:0;"
         offset="1"
         id="stop5064" />
    </linearGradient>
    <linearGradient
       id="linearGradient5048">
      <stop
         style="stop-color:black;stop-opacity:0;"
         offset="0"
         id="stop5050" />
      <stop
         id="stop5056"
         offset="0.5"
         style="stop-color:black;stop-opacity:1;" />
      <stop
         style="stop-color:black;stop-opacity:0;"
         offset="1"
         id="stop5052" />
    </linearGradient>
    <linearGradient
       id="linearGradient12512">
      <stop
         style="stop-color:#ffffff;stop-opacity:1.0000000;"
         offset="0.0000000"
         id="stop12513" />
      <stop
         style="stop-color:#fff520;stop-opacity:0.89108908;"
         offset="0.50000000"
         id="stop12517" />
      <stop
         style="stop-color:#fff300;stop-opacity:0.0000000;"
         offset="1.0000000"
         id="stop12514" />
    </linearGradient>
    <radialGradient
       inkscape:collect="always"
       xlink:href="#linearGradient12512"
       id="radialGradient278"
       gradientUnits="userSpaceOnUse"
       cx="55.000000"
       cy="125.00000"
       fx="55.000000"
       fy="125.00000"
       r="14.375000" />
    <linearGradient
       id="linearGradient2094">
      <stop
         style="stop-color:#d6e3f0;stop-opacity:1.0000000;"
         offset="0.0000000"
         id="stop2096" />
      <stop
         style="stop-color:#95b1cf;stop-opacity:1.0000000;"
         offset="1.0000000"
         id="stop2098" />
    </linearGradient>
    <linearGradient
       id="linearGradient2803">
      <stop
         id="stop2805"
         offset="0"
         style="stop-color:#ffffff;stop-opacity:1;" />
      <stop
         id="stop2807"
         offset="1.0000000"
         style="stop-color:#cbcbcb;stop-opacity:1.0000000;" />
    </linearGradient>
    <linearGradient
       id="linearGradient2795">
      <stop
         id="stop2797"
         offset="0.0000000"
         style="stop-color:#000000;stop-opacity:0.068627454;" />
      <stop
         id="stop2799"
         offset="1.0000000"
         style="stop-color:#ffffff;stop-opacity:1.0000000;" />
    </linearGradient>
    <radialGradient
       inkscape:collect="always"
       xlink:href="#linearGradient5060"
       id="radialGradient5013"
       gradientUnits="userSpaceOnUse"
       cx="605.71429"
       cy="486.64789"
       fx="605.71429"
       fy="486.64789"
       r="117.14286"
       gradientTransform="matrix(2.774389,0,0,1.969706,-1891.633,-872.8854)" />
    <linearGradient
       inkscape:collect="always"
       xlink:href="#linearGradient5048"
       id="linearGradient5016"
       gradientUnits="userSpaceOnUse"
       x1="302.85715"
       y1="366.64789"
       x2="302.85715"
       y2="609.50507"
       gradientTransform="matrix(2.774389,0,0,1.969706,-1892.179,-872.8854)" />
    <radialGradient
       inkscape:collect="always"
       xlink:href="#linearGradient5060"
       id="radialGradient5020"
       gradientUnits="userSpaceOnUse"
       gradientTransform="matrix(-2.774389,0,0,1.969706,112.7623,-872.8854)"
       cx="605.71429"
       cy="486.64789"
       fx="605.71429"
       fy="486.64789"
       r="117.14286" />
  </defs>
  <sodipodi:namedview
     id="base"
     pagecolor="#ffffff"
     bordercolor="#666666"
     borderopacity="1.0"
     inkscape:pageopacity="0.0"
     inkscape:pageshadow="2"
     inkscape:zoom="11"
     inkscape:cx="27.464071"
     inkscape:cy="32.371331"
     inkscape:current-layer="layer1"
     showgrid="true"
     inkscape:document-units="px"
     inkscape:grid-bbox="true"
     showguides="true"
     inkscape:guide-bbox="true"
     inkscape:window-width="1280"
     inkscape:window-height="911"
     inkscape:window-x="-4"
     inkscape:window-y="22" />
  <metadata
     id="metadata2165">
    <rdf:RDF>
      <cc:Work
         rdf:about="">
        <dc:format>image/svg+xml</dc:format>
        <dc:type
           rdf:resource="http://purl.org/dc/dcmitype/StillImage" />
      </cc:Work>
    </rdf:RDF>
  </metadata>
  <g
     id="layer1"
     inkscape:label="Layer 1"
     inkscape:groupmode="layer">
    <path
       d="M 39.774755 19.008621 A 8.6620579 8.6620579 0 1 1  22.45064,19.008621 A 8.6620579 8.6620579 0 1 1  39.774755 19.008621 z"
       sodipodi:ry="8.6620579"
       sodipodi:rx="8.6620579"
       sodipodi:cy="19.008621"
       sodipodi:cx="31.112698"
       id="path4318"
       style="color:#000000;fill:url(#radialGradient6115);fill-opacity:1;fill-rule:evenodd;stroke:none;stroke-width:1px;stroke-linecap:round;stroke-linejoin:round;marker:none;marker-start:none;marker-mid:none;marker-end:none;stroke-miterlimit:4;stroke-dasharray:none;stroke-dashoffset:0;stroke-opacity:1;visibility:visible;display:inline;overflow:visible"
       sodipodi:type="arc"
       transform="matrix(2.1171166,0,0,0.7525704,-33.207795,35.213483)" />
    <g
       id="g3919"
       transform="translate(0.1454499,-2.0963026)">
      <path
         sodipodi:nodetypes="csscssssssczcssssssssssc"
         id="path3222"
         d="M 33.571813,27.12957 C 36.348437,28.928487 38.901738,32.591108 38.951086,36.120146 C 39.0255,41.441663 35.184644,46.33481 30.060363,46.561397 C 25.528848,46.761751 21.509947,43.270917 21.515691,38.346487 C 21.520697,34.055303 24.577463,29.786144 28.73644,29.692342 C 32.293483,29.6121 35.711712,32.673628 35.608575,36.579239 C 35.522511,39.838576 32.939259,43.079267 29.741237,43.026646 C 27.160607,42.984148 24.680633,40.397201 24.903059,37.502325 C 25.074027,35.277159 27.123674,33.40438 29.37213,33.646724 C 30.173618,33.73311 30.937112,33.993958 31.450945,34.624229 C 31.964778,35.2545 32.077017,36.434981 31.859786,37.38884 C 31.859786,37.38884 31.004771,38.136992 30.564209,37.997524 C 30.123646,37.858056 30.097535,36.830966 30.097535,36.830966 C 30.180967,36.464611 30.061427,36.315241 29.825828,36.026265 C 29.59023,35.73729 29.512385,35.611369 29.147842,35.572074 C 27.944588,35.442385 26.809403,36.38356 26.710167,37.675128 C 26.570744,39.489767 27.90719,41.038783 29.604103,41.066736 C 31.805142,41.102951 33.695485,39.106628 33.75661,36.791505 C 33.790379,35.512701 33.374569,34.132869 32.623191,33.254827 C 31.694216,32.169245 30.346134,31.619031 28.873573,31.652253 C 25.690538,31.724054 23.010124,34.760113 23.006235,38.09966 C 23.001687,41.995586 26.246575,45.147129 29.878371,44.986557 C 34.038352,44.802608 37.521585,40.731929 37.460542,36.366973 C 37.419845,33.456541 33.805449,28.828906 31.49436,27.331595"
         style="fill:#cc0000;fill-opacity:1;fill-rule:evenodd;stroke:#a40000;stroke-width:1;stroke-linecap:butt;stroke-linejoin:round;stroke-miterlimit:4;stroke-dasharray:none;stroke-opacity:1" />
      <path
         sodipodi:nodetypes="czzzccssz"
         id="path3212"
         d="M 49.839152,34.439571 C 49.250836,34.936189 41.680055,28.109101 36.881618,27.283407 C 32.083182,26.457713 18.007068,27.320054 16.379695,37.79141 C 14.752323,48.262766 36.788686,46.673431 43.132564,50.74963 C 49.476442,54.825829 38.517389,54.128662 32.716116,53.914275 C 23.398852,52.67604 10.490109,49.114789 9.0339461,38.259856 C 9.0332983,33.89945 15.566239,25.90526 19.440718,24.421884 C 23.257023,22.96078 36.623345,20.80248 42.219114,24.62673 C 46.798167,27.756138 50.898339,33.545476 49.839152,34.439571 z "
         style="fill:#edd400;fill-opacity:1;fill-rule:evenodd;stroke:#c4a000;stroke-width:2;stroke-linecap:round;stroke-linejoin:round;stroke-miterlimit:4;stroke-dasharray:none;stroke-dashoffset:0;stroke-opacity:1" />
      <path
         sodipodi:nodetypes="czzzz"
         id="rect3201"
         d="M 5.2161511,20.86755 C 3.4511435,18.10169 8.6074927,15.627269 10.768472,16.064429 C 12.856649,16.486861 13.508898,18.277836 14.74916,20.822551 C 15.989422,23.367265 11.46706,26.623084 9.9503874,26.10983 C 8.5020667,25.619706 6.9811586,23.633411 5.2161511,20.86755 z "
         style="fill:#edd400;fill-opacity:1;fill-rule:evenodd;stroke:#c4a000;stroke-width:2;stroke-linecap:round;stroke-linejoin:round;stroke-miterlimit:4;stroke-dasharray:none;stroke-dashoffset:0;stroke-opacity:1" />
      <path
         sodipodi:nodetypes="czzzz"
         id="path2686"
         d="M 7.9160135,20.966554 C 6.424977,18.419871 9.9242581,17.680279 10.575625,18.027624 C 11.176394,18.347987 11.839238,19.607179 12.88497,21.114403 C 13.930703,22.621626 10.975634,24.154715 10.528929,24.119655 C 10.009971,24.078924 9.4070501,23.513237 7.9160135,20.966554 z "
         style="fill:none;fill-opacity:1;fill-rule:evenodd;stroke:#fce94f;stroke-width:2;stroke-linecap:round;stroke-linejoin:round;stroke-miterlimit:4;stroke-dasharray:none;stroke-dashoffset:0;stroke-opacity:1" />
      <path
         sodipodi:nodetypes="czszzz"
         id="rect2229"
         d="M 19.616983,11.329232 C 20.757155,10.216634 25.955321,9.2307295 27.441055,9.7515281 C 28.3618,10.07428 28.551429,13.09644 28.367252,15.652772 C 28.254238,17.221388 28.000474,18.614607 27.688516,19.101113 C 26.808793,20.473064 21.021439,20.004522 20.994767,18.984266 C 20.968095,17.964011 18.438576,12.47914 19.616983,11.329232 z "
         style="fill:#edd400;fill-opacity:1;fill-rule:evenodd;stroke:#c4a000;stroke-width:2;stroke-linecap:round;stroke-linejoin:round;stroke-miterlimit:4;stroke-dasharray:none;stroke-dashoffset:0;stroke-opacity:1" />
      <path
         sodipodi:nodetypes="czzzz"
         id="path3657"
         d="M 21.529345,12.465322 C 21.769563,12.059831 25.814336,11.040384 26.235719,11.401879 C 26.692933,11.794112 26.369325,17.289324 25.904638,17.730188 C 25.474892,18.137903 22.612389,18.087197 22.585717,17.066941 C 22.559045,16.046686 21.260419,12.919273 21.529345,12.465322 z "
         style="fill:none;fill-opacity:1;fill-rule:evenodd;stroke:#fce94f;stroke-width:2;stroke-linecap:round;stroke-linejoin:round;stroke-miterlimit:4;stroke-dasharray:none;stroke-dashoffset:0;stroke-opacity:1" />
      <path
         sodipodi:nodetypes="czzzz"
         id="rect3204"
         d="M 35.483256,16.39342 C 35.194533,14.082439 39.761304,8.6196018 41.468055,8.4353694 C 43.091371,8.2601428 45.154121,13.946384 44.91536,15.369744 C 44.678592,16.781229 42.663813,20.328319 41.492625,20.664931 C 40.251003,21.021787 35.780771,18.774767 35.483256,16.39342 z "
         style="fill:#edd400;fill-opacity:1;fill-rule:evenodd;stroke:#c4a000;stroke-width:2;stroke-linecap:round;stroke-linejoin:round;stroke-miterlimit:4;stroke-dasharray:none;stroke-dashoffset:0;stroke-opacity:1" />
      <path
         sodipodi:nodetypes="czzzz"
         id="path5605"
         d="M 37.375692,15.820689 C 37.449246,15.167684 40.774964,11.174272 41.292007,11.003669 C 41.750724,10.85231 43.042343,14.68599 43.084506,15.000733 C 43.126399,15.31346 41.521434,18.191084 41.055441,18.546126 C 40.547828,18.932878 37.303292,16.463451 37.375692,15.820689 z "
         style="fill:none;fill-opacity:1;fill-rule:evenodd;stroke:#fce94f;stroke-width:2;stroke-linecap:round;stroke-linejoin:round;stroke-miterlimit:4;stroke-dasharray:none;stroke-dashoffset:0;stroke-opacity:1" />
      <path
         sodipodi:nodetypes="czzzz"
         id="rect3206"
         d="M 51.138836,20.817761 C 51.826505,19.972277 55.503608,18.951684 56.458463,18.695882 C 57.398256,18.444116 59.790438,24.516876 59.554897,25.443054 C 59.313397,26.392666 52.100579,29.487839 51.145724,28.533248 C 50.23036,27.618136 50.417695,21.704398 51.138836,20.817761 z "
         style="fill:#edd400;fill-opacity:1;fill-rule:evenodd;stroke:#c4a000;stroke-width:2;stroke-linecap:round;stroke-linejoin:round;stroke-miterlimit:4;stroke-dasharray:none;stroke-dashoffset:0;stroke-opacity:1" />
      <path
         sodipodi:nodetypes="czzzz"
         id="path6580"
         d="M 52.579322,22.005044 C 53.167805,21.271528 54.932468,20.964633 55.7496,20.742707 C 56.553841,20.524281 57.367906,24.13683 57.274477,24.507175 C 57.196374,24.816769 53.402348,26.794943 52.745922,26.641734 C 52.081682,26.486701 51.962195,22.774264 52.579322,22.005044 z "
         style="fill:none;fill-opacity:1;fill-rule:evenodd;stroke:#fce94f;stroke-width:2;stroke-linecap:round;stroke-linejoin:round;stroke-miterlimit:4;stroke-dasharray:none;stroke-dashoffset:0;stroke-opacity:1" />
      <path
         sodipodi:nodetypes="czzscccssz"
         id="path7555"
         d="M 46.59075,30.667495 C 46.828653,30.84777 41.290389,25.531302 35.310454,24.97013 C 29.33052,24.408959 14.677258,29.296069 14.618702,37.286584 C 14.560145,45.212817 18.883771,46.323589 24.981061,47.783221 C 31.495903,49.342811 38.49111,50.598161 41.182605,51.954651 C 42.360386,53.050078 33.833367,51.684782 31.868795,51.630509 C 23.02032,50.47459 12.432415,47.921478 11.049518,37.788171 C 11.048902,33.717641 18.16084,27.227622 20.032726,26.348631 C 22.02168,25.414668 36.141623,23.356242 40.44368,25.897034 C 44.731267,28.42928 46.352847,30.487219 46.59075,30.667495 z "
         style="fill:none;fill-opacity:1;fill-rule:evenodd;stroke:#fce94f;stroke-width:2;stroke-linecap:round;stroke-linejoin:round;stroke-miterlimit:4;stroke-dasharray:none;stroke-dashoffset:0;stroke-opacity:1" />
    </g>
  </g>
</svg>
