<?xml version="1.0" encoding="UTF-8" standalone="no"?>
<!-- Created with Inkscape (http://www.inkscape.org/) -->
<svg
   xmlns:dc="http://purl.org/dc/elements/1.1/"
   xmlns:cc="http://creativecommons.org/ns#"
   xmlns:rdf="http://www.w3.org/1999/02/22-rdf-syntax-ns#"
   xmlns:svg="http://www.w3.org/2000/svg"
   xmlns="http://www.w3.org/2000/svg"
   xmlns:xlink="http://www.w3.org/1999/xlink"
   xmlns:sodipodi="http://sodipodi.sourceforge.net/DTD/sodipodi-0.dtd"
   xmlns:inkscape="http://www.inkscape.org/namespaces/inkscape"
   width="343pt"
   height="340pt"
   id="svg2676"
   sodipodi:version="0.32"
   inkscape:version="0.46"
   sodipodi:docbase="D:\stefan\icons\self\google products tango set 2"
   sodipodi:docname="YouTube.svg"
   inkscape:output_extension="org.inkscape.output.svg.inkscape"
   inkscape:export-filename="D:\stefan\icons\self\google products tango set 2\YouTube_32x32.png"
   inkscape:export-xdpi="6.7172012"
   inkscape:export-ydpi="6.7172012">
  <defs
     id="defs2678">
    <inkscape:perspective
       sodipodi:type="inkscape:persp3d"
       inkscape:vp_x="0 : 212.5 : 1"
       inkscape:vp_y="0 : 1000 : 0"
       inkscape:vp_z="428.75 : 212.5 : 1"
       inkscape:persp3d-origin="214.375 : 141.66667 : 1"
       id="perspective145" />
    <linearGradient
       gradientUnits="userSpaceOnUse"
       xlink:href="#linearGradient14049"
       id="linearGradient14061"
       y2="615.11768"
       x2="205.41145"
       y1="646.99188"
       x1="205.41145" />
    <linearGradient
       gradientUnits="userSpaceOnUse"
       xlink:href="#linearGradient14049"
       id="linearGradient14059"
       y2="615.11768"
       x2="205.41145"
       y1="646.99188"
       x1="205.41145" />
    <linearGradient
       gradientUnits="userSpaceOnUse"
       xlink:href="#linearGradient14049"
       id="linearGradient14057"
       y2="615.11768"
       x2="205.41145"
       y1="646.99188"
       x1="205.41145" />
    <linearGradient
       gradientUnits="userSpaceOnUse"
       xlink:href="#linearGradient14049"
       id="linearGradient14055"
       y2="615.11768"
       x2="205.41145"
       y1="646.99188"
       x1="205.41145" />
    <linearGradient
       gradientTransform="matrix(1.632043,0,0,1.632043,-289.13231,-505.70936)"
       gradientUnits="userSpaceOnUse"
       xlink:href="#linearGradient14036"
       id="linearGradient14042"
       y2="642.13934"
       x2="419.64102"
       y1="637.98547"
       x1="419.64102" />
    <linearGradient
       gradientTransform="matrix(1.632043,0,0,1.632043,-289.13231,-505.70936)"
       gradientUnits="userSpaceOnUse"
       xlink:href="#linearGradient13059"
       id="linearGradient13065"
       y2="642.89679"
       x2="403.69189"
       y1="630.9007"
       x1="403.69189" />
    <linearGradient
       gradientTransform="matrix(1.632043,0,0,1.632043,-289.13231,-505.70936)"
       gradientUnits="userSpaceOnUse"
       xlink:href="#linearGradient12082"
       id="linearGradient12088"
       y2="639.5943"
       x2="387.01151"
       y1="638.50104"
       x1="387.01151" />
    <linearGradient
       gradientTransform="matrix(1.632043,0,0,1.632043,-289.13231,-505.70936)"
       gradientUnits="userSpaceOnUse"
       xlink:href="#linearGradient12058"
       id="linearGradient12064"
       y2="632.00916"
       x2="365.53217"
       y1="630.9007"
       x1="365.53217" />
    <linearGradient
       gradientTransform="matrix(1.632043,0,0,1.632043,-289.13231,-505.70935)"
       gradientUnits="userSpaceOnUse"
       xlink:href="#linearGradient8038"
       id="linearGradient8044"
       y2="670.38055"
       x2="395.26282"
       y1="646.20868"
       x1="395.26282" />
    <linearGradient
       gradientTransform="matrix(1.632043,0,0,1.632043,-289.13231,-505.70935)"
       gradientUnits="userSpaceOnUse"
       xlink:href="#linearGradient7053"
       id="linearGradient7059"
       y2="639.58759"
       x2="413.59689"
       y1="623.01343"
       x1="423.16599" />
    <linearGradient
       id="linearGradient7053">
      <stop
         id="stop7055"
         offset="0"
         style="stop-color:#ffffff;stop-opacity:1" />
      <stop
         id="stop7057"
         offset="1"
         style="stop-color:#ffffff;stop-opacity:0" />
    </linearGradient>
    <linearGradient
       id="linearGradient8038">
      <stop
         id="stop8040"
         offset="0"
         style="stop-color:#ff0000;stop-opacity:1" />
      <stop
         id="stop8042"
         offset="1"
         style="stop-color:#c00000;stop-opacity:1" />
    </linearGradient>
    <linearGradient
       id="linearGradient10108">
      <stop
         id="stop10110"
         offset="0"
         style="stop-color:#000000;stop-opacity:0.50196081" />
      <stop
         id="stop10112"
         offset="1"
         style="stop-color:#ffffff;stop-opacity:0" />
    </linearGradient>
    <linearGradient
       id="linearGradient12058">
      <stop
         id="stop12060"
         offset="0"
         style="stop-color:#000000;stop-opacity:0.50196081" />
      <stop
         id="stop12062"
         offset="1"
         style="stop-color:#000000;stop-opacity:0" />
    </linearGradient>
    <linearGradient
       id="linearGradient12082">
      <stop
         id="stop12084"
         offset="0"
         style="stop-color:#000000;stop-opacity:0.50196081" />
      <stop
         id="stop12086"
         offset="1"
         style="stop-color:#000000;stop-opacity:0" />
    </linearGradient>
    <linearGradient
       id="linearGradient13059">
      <stop
         id="stop13061"
         offset="0"
         style="stop-color:#000000;stop-opacity:0.50196081" />
      <stop
         id="stop13063"
         offset="1"
         style="stop-color:#000000;stop-opacity:0" />
    </linearGradient>
    <linearGradient
       id="linearGradient14036">
      <stop
         id="stop14038"
         offset="0"
         style="stop-color:#000000;stop-opacity:0.50196081" />
      <stop
         id="stop14040"
         offset="1"
         style="stop-color:#000000;stop-opacity:0" />
    </linearGradient>
    <linearGradient
       id="linearGradient14049">
      <stop
         id="stop14051"
         offset="0"
         style="stop-color:#000000;stop-opacity:1" />
      <stop
         id="stop14053"
         offset="1"
         style="stop-color:#404040;stop-opacity:1" />
    </linearGradient>
    <linearGradient
       y2="52.090678"
       x2="9.8855033"
       y1="37.197018"
       x1="8.9156475"
       gradientTransform="matrix(3.123841,0,0,0.969691,-79.083924,272.77319)"
       gradientUnits="userSpaceOnUse"
       id="linearGradient6112"
       xlink:href="#linearGradient2152"
       inkscape:collect="always" />
    <linearGradient
       inkscape:collect="always"
       id="linearGradient5204">
      <stop
         style="stop-color:#c4a000;stop-opacity:1;"
         offset="0"
         id="stop5206" />
      <stop
         style="stop-color:#c4a000;stop-opacity:0;"
         offset="1"
         id="stop5208" />
    </linearGradient>
    <linearGradient
       inkscape:collect="always"
       id="linearGradient5196">
      <stop
         style="stop-color:#c4a000;stop-opacity:1;"
         offset="0"
         id="stop5198" />
      <stop
         style="stop-color:#c4a000;stop-opacity:0;"
         offset="1"
         id="stop5200" />
    </linearGradient>
    <linearGradient
       id="linearGradient6045">
      <stop
         style="stop-color:#ffffff;stop-opacity:1.0000000;"
         offset="0.0000000"
         id="stop6047" />
      <stop
         style="stop-color:#fff520;stop-opacity:0.89108908;"
         offset="0.50000000"
         id="stop6049" />
      <stop
         style="stop-color:#fff300;stop-opacity:0.0000000;"
         offset="1.0000000"
         id="stop6051" />
    </linearGradient>
    <radialGradient
       inkscape:collect="always"
       xlink:href="#linearGradient12512"
       id="radialGradient6053"
       gradientUnits="userSpaceOnUse"
       cx="55.000000"
       cy="125.00000"
       fx="55.000000"
       fy="125.00000"
       r="14.375000" />
    <linearGradient
       id="linearGradient10653">
      <stop
         style="stop-color:#f3f4ff;stop-opacity:1.0000000;"
         offset="0.0000000"
         id="stop10655" />
      <stop
         style="stop-color:#9193af;stop-opacity:1.0000000;"
         offset="1.0000000"
         id="stop10657" />
    </linearGradient>
    <linearGradient
       id="linearGradient42174">
      <stop
         style="stop-color:#a0a0a0;stop-opacity:1.0000000;"
         offset="0.0000000"
         id="stop42176" />
      <stop
         style="stop-color:#ffffff;stop-opacity:1.0000000;"
         offset="1.0000000"
         id="stop42178" />
    </linearGradient>
    <linearGradient
       id="linearGradient2145">
      <stop
         style="stop-color:#fffffd;stop-opacity:1.0000000;"
         offset="0.0000000"
         id="stop2147" />
      <stop
         style="stop-color:#cbcbc9;stop-opacity:1.0000000;"
         offset="1.0000000"
         id="stop2149" />
    </linearGradient>
    <linearGradient
       id="linearGradient37935">
      <stop
         id="stop37937"
         offset="0.0000000"
         style="stop-color:#9497b3;stop-opacity:1.0000000;" />
      <stop
         id="stop37939"
         offset="1.0000000"
         style="stop-color:#4c4059;stop-opacity:1.0000000;" />
    </linearGradient>
    <linearGradient
       id="linearGradient2152">
      <stop
         id="stop2154"
         offset="0.0000000"
         style="stop-color:#9aa29a;stop-opacity:1.0000000;" />
      <stop
         id="stop2156"
         offset="1.0000000"
         style="stop-color:#b5beb5;stop-opacity:1.0000000;" />
    </linearGradient>
    <linearGradient
       inkscape:collect="always"
       id="linearGradient3816">
      <stop
         style="stop-color:#000000;stop-opacity:1;"
         offset="0"
         id="stop3818" />
      <stop
         style="stop-color:#000000;stop-opacity:0;"
         offset="1"
         id="stop3820" />
    </linearGradient>
    <radialGradient
       inkscape:collect="always"
       xlink:href="#linearGradient3816"
       id="radialGradient3822"
       cx="31.112698"
       cy="19.008621"
       fx="31.112698"
       fy="19.008621"
       r="8.6620579"
       gradientUnits="userSpaceOnUse" />
    <linearGradient
       inkscape:collect="always"
       xlink:href="#linearGradient2152"
       id="linearGradient4307"
       gradientUnits="userSpaceOnUse"
       gradientTransform="matrix(3.123841,0,0,0.969691,-31.88758,-19.59492)"
       x1="8.9156475"
       y1="37.197018"
       x2="9.8855033"
       y2="52.090678" />
    <radialGradient
       inkscape:collect="always"
       xlink:href="#linearGradient10653"
       id="radialGradient4309"
       gradientUnits="userSpaceOnUse"
       cx="11.329200"
       cy="10.583970"
       fx="11.329200"
       fy="10.583970"
       r="15.532059" />
    <radialGradient
       inkscape:collect="always"
       xlink:href="#linearGradient2145"
       id="radialGradient4311"
       gradientUnits="userSpaceOnUse"
       cx="11.901996"
       cy="10.045444"
       fx="11.901996"
       fy="10.045444"
       r="29.292715" />
    <linearGradient
       inkscape:collect="always"
       xlink:href="#linearGradient42174"
       id="linearGradient4313"
       gradientUnits="userSpaceOnUse"
       x1="6.3422160"
       y1="7.7893324"
       x2="22.218424"
       y2="25.884274" />
    <radialGradient
       inkscape:collect="always"
       xlink:href="#linearGradient5196"
       id="radialGradient5202"
       cx="23.375"
       cy="10.972863"
       fx="23.375"
       fy="10.972863"
       r="3.3478092"
       gradientTransform="matrix(3.63042,0,0,3.742066,-61.48607,-29.18618)"
       gradientUnits="userSpaceOnUse" />
    <linearGradient
       inkscape:collect="always"
       xlink:href="#linearGradient5204"
       id="linearGradient5210"
       x1="19.667364"
       y1="4.2570662"
       x2="20.329933"
       y2="5.2845874"
       gradientUnits="userSpaceOnUse" />
    <radialGradient
       inkscape:collect="always"
       xlink:href="#linearGradient37935"
       id="radialGradient5212"
       gradientUnits="userSpaceOnUse"
       cx="8.7468252"
       cy="6.8283234"
       fx="8.7468252"
       fy="6.8283234"
       r="29.889715" />
    <linearGradient
       inkscape:collect="always"
       id="linearGradient5060">
      <stop
         style="stop-color:black;stop-opacity:1;"
         offset="0"
         id="stop5062" />
      <stop
         style="stop-color:black;stop-opacity:0;"
         offset="1"
         id="stop5064" />
    </linearGradient>
    <linearGradient
       id="linearGradient5048">
      <stop
         style="stop-color:black;stop-opacity:0;"
         offset="0"
         id="stop5050" />
      <stop
         id="stop5056"
         offset="0.5"
         style="stop-color:black;stop-opacity:1;" />
      <stop
         style="stop-color:black;stop-opacity:0;"
         offset="1"
         id="stop5052" />
    </linearGradient>
    <linearGradient
       id="linearGradient12512">
      <stop
         style="stop-color:#ffffff;stop-opacity:1.0000000;"
         offset="0.0000000"
         id="stop12513" />
      <stop
         style="stop-color:#fff520;stop-opacity:0.89108908;"
         offset="0.50000000"
         id="stop12517" />
      <stop
         style="stop-color:#fff300;stop-opacity:0.0000000;"
         offset="1.0000000"
         id="stop12514" />
    </linearGradient>
    <radialGradient
       inkscape:collect="always"
       xlink:href="#linearGradient12512"
       id="radialGradient278"
       gradientUnits="userSpaceOnUse"
       cx="55.000000"
       cy="125.00000"
       fx="55.000000"
       fy="125.00000"
       r="14.375000" />
    <linearGradient
       id="linearGradient2094">
      <stop
         style="stop-color:#d6e3f0;stop-opacity:1.0000000;"
         offset="0.0000000"
         id="stop2096" />
      <stop
         style="stop-color:#95b1cf;stop-opacity:1.0000000;"
         offset="1.0000000"
         id="stop2098" />
    </linearGradient>
    <linearGradient
       id="linearGradient2803">
      <stop
         id="stop2805"
         offset="0"
         style="stop-color:#ffffff;stop-opacity:1;" />
      <stop
         id="stop2807"
         offset="1.0000000"
         style="stop-color:#cbcbcb;stop-opacity:1.0000000;" />
    </linearGradient>
    <linearGradient
       id="linearGradient2795">
      <stop
         id="stop2797"
         offset="0.0000000"
         style="stop-color:#000000;stop-opacity:0.068627454;" />
      <stop
         id="stop2799"
         offset="1.0000000"
         style="stop-color:#ffffff;stop-opacity:1.0000000;" />
    </linearGradient>
    <radialGradient
       inkscape:collect="always"
       xlink:href="#linearGradient5060"
       id="radialGradient5013"
       gradientUnits="userSpaceOnUse"
       cx="605.71429"
       cy="486.64789"
       fx="605.71429"
       fy="486.64789"
       r="117.14286"
       gradientTransform="matrix(2.774389,0,0,1.969706,-1891.633,-872.8854)" />
    <linearGradient
       inkscape:collect="always"
       xlink:href="#linearGradient5048"
       id="linearGradient5016"
       gradientUnits="userSpaceOnUse"
       x1="302.85715"
       y1="366.64789"
       x2="302.85715"
       y2="609.50507"
       gradientTransform="matrix(2.774389,0,0,1.969706,-1892.179,-872.8854)" />
    <radialGradient
       inkscape:collect="always"
       xlink:href="#linearGradient5060"
       id="radialGradient5020"
       gradientUnits="userSpaceOnUse"
       gradientTransform="matrix(-2.774389,0,0,1.969706,112.7623,-872.8854)"
       cx="605.71429"
       cy="486.64789"
       fx="605.71429"
       fy="486.64789"
       r="117.14286" />
    <linearGradient
       inkscape:collect="always"
       xlink:href="#linearGradient5048"
       id="linearGradient3222"
       gradientUnits="userSpaceOnUse"
       gradientTransform="matrix(2.774389,0,0,1.969706,-1892.179,-872.8854)"
       x1="302.85715"
       y1="366.64789"
       x2="302.85715"
       y2="609.50507" />
    <radialGradient
       inkscape:collect="always"
       xlink:href="#linearGradient5060"
       id="radialGradient3224"
       gradientUnits="userSpaceOnUse"
       gradientTransform="matrix(2.774389,0,0,1.969706,-1891.633,-872.8854)"
       cx="605.71429"
       cy="486.64789"
       fx="605.71429"
       fy="486.64789"
       r="117.14286" />
    <radialGradient
       inkscape:collect="always"
       xlink:href="#linearGradient5060"
       id="radialGradient3226"
       gradientUnits="userSpaceOnUse"
       gradientTransform="matrix(-2.774389,0,0,1.969706,112.7623,-872.8854)"
       cx="605.71429"
       cy="486.64789"
       fx="605.71429"
       fy="486.64789"
       r="117.14286" />
    <linearGradient
       inkscape:collect="always"
       xlink:href="#linearGradient5048"
       id="linearGradient3230"
       gradientUnits="userSpaceOnUse"
       gradientTransform="matrix(2.774389,0,0,1.969706,-1892.179,-872.8854)"
       x1="302.85715"
       y1="366.64789"
       x2="302.85715"
       y2="609.50507" />
    <radialGradient
       inkscape:collect="always"
       xlink:href="#linearGradient5060"
       id="radialGradient3232"
       gradientUnits="userSpaceOnUse"
       gradientTransform="matrix(2.774389,0,0,1.969706,-1891.633,-872.8854)"
       cx="605.71429"
       cy="486.64789"
       fx="605.71429"
       fy="486.64789"
       r="117.14286" />
    <radialGradient
       inkscape:collect="always"
       xlink:href="#linearGradient5060"
       id="radialGradient3234"
       gradientUnits="userSpaceOnUse"
       gradientTransform="matrix(-2.774389,0,0,1.969706,112.7623,-872.8854)"
       cx="605.71429"
       cy="486.64789"
       fx="605.71429"
       fy="486.64789"
       r="117.14286" />
    <radialGradient
       inkscape:collect="always"
       xlink:href="#linearGradient3816"
       id="radialGradient3236"
       gradientUnits="userSpaceOnUse"
       cx="31.112698"
       cy="19.008621"
       fx="31.112698"
       fy="19.008621"
       r="8.6620579" />
    <linearGradient
       inkscape:collect="always"
       xlink:href="#linearGradient5048"
       id="linearGradient3255"
       gradientUnits="userSpaceOnUse"
       gradientTransform="matrix(2.774389,0,0,1.969706,-1892.179,-872.8854)"
       x1="302.85715"
       y1="366.64789"
       x2="302.85715"
       y2="609.50507" />
    <radialGradient
       inkscape:collect="always"
       xlink:href="#linearGradient5060"
       id="radialGradient3257"
       gradientUnits="userSpaceOnUse"
       gradientTransform="matrix(2.774389,0,0,1.969706,-1891.633,-872.8854)"
       cx="605.71429"
       cy="486.64789"
       fx="605.71429"
       fy="486.64789"
       r="117.14286" />
    <radialGradient
       inkscape:collect="always"
       xlink:href="#linearGradient5060"
       id="radialGradient3259"
       gradientUnits="userSpaceOnUse"
       gradientTransform="matrix(-2.774389,0,0,1.969706,112.7623,-872.8854)"
       cx="605.71429"
       cy="486.64789"
       fx="605.71429"
       fy="486.64789"
       r="117.14286" />
    <linearGradient
       inkscape:collect="always"
       xlink:href="#linearGradient5048"
       id="linearGradient3266"
       gradientUnits="userSpaceOnUse"
       gradientTransform="matrix(2.774389,0,0,1.969706,-1892.179,-872.8854)"
       x1="302.85715"
       y1="366.64789"
       x2="302.85715"
       y2="609.50507" />
    <radialGradient
       inkscape:collect="always"
       xlink:href="#linearGradient5060"
       id="radialGradient3268"
       gradientUnits="userSpaceOnUse"
       gradientTransform="matrix(2.774389,0,0,1.969706,-1891.633,-872.8854)"
       cx="605.71429"
       cy="486.64789"
       fx="605.71429"
       fy="486.64789"
       r="117.14286" />
    <radialGradient
       inkscape:collect="always"
       xlink:href="#linearGradient5060"
       id="radialGradient3270"
       gradientUnits="userSpaceOnUse"
       gradientTransform="matrix(-2.774389,0,0,1.969706,112.7623,-872.8854)"
       cx="605.71429"
       cy="486.64789"
       fx="605.71429"
       fy="486.64789"
       r="117.14286" />
  </defs>
  <sodipodi:namedview
     pagecolor="#ffffff"
     bordercolor="#666666"
     borderopacity="1.0"
     inkscape:pageopacity="0.0"
     inkscape:pageshadow="2"
     inkscape:zoom="1.1754242"
     inkscape:cx="218.125"
     inkscape:cy="226.87606"
     inkscape:document-units="pt"
     inkscape:current-layer="layer1"
     id="namedview2680"
     inkscape:window-width="1257"
     inkscape:window-height="875"
     inkscape:window-x="2"
     inkscape:window-y="19"
     showgrid="false" />
  <metadata
     id="metadata2682">
    <rdf:RDF>
      <cc:Work
         rdf:about="">
        <dc:format>image/svg+xml</dc:format>
        <dc:type
           rdf:resource="http://purl.org/dc/dcmitype/StillImage" />
      </cc:Work>
    </rdf:RDF>
  </metadata>
  <g
     inkscape:label="Layer 1"
     inkscape:groupmode="layer"
     id="layer1">
    <g
       id="g5022"
       transform="matrix(0.1126093,0,0,6.8230762e-2,395.72965,275.59184)" />
    <g
       id="g3276">
      <g
         transform="matrix(0.1126093,0,0,6.8230762e-2,395.72965,273.59184)"
         id="g3261">
        <rect
           y="-150.69685"
           x="-1559.2523"
           height="478.35718"
           width="1339.6335"
           id="rect4173"
           style="opacity:0.40206185;color:#000000;fill:url(#linearGradient3266);fill-opacity:1;fill-rule:nonzero;stroke:none;stroke-width:1;stroke-linecap:round;stroke-linejoin:miter;marker:none;marker-start:none;marker-mid:none;marker-end:none;stroke-miterlimit:4;stroke-dasharray:none;stroke-dashoffset:0;stroke-opacity:1;visibility:visible;display:inline;overflow:visible" />
        <path
           sodipodi:nodetypes="cccc"
           id="path5058"
           d="M -219.61876,-150.68038 C -219.61876,-150.68038 -219.61876,327.65041 -219.61876,327.65041 C -76.744594,328.55086 125.78146,220.48075 125.78138,88.454235 C 125.78138,-43.572302 -33.655436,-150.68036 -219.61876,-150.68038 z "
           style="opacity:0.40206185;color:#000000;fill:url(#radialGradient3268);fill-opacity:1;fill-rule:nonzero;stroke:none;stroke-width:1;stroke-linecap:round;stroke-linejoin:miter;marker:none;marker-start:none;marker-mid:none;marker-end:none;stroke-miterlimit:4;stroke-dasharray:none;stroke-dashoffset:0;stroke-opacity:1;visibility:visible;display:inline;overflow:visible" />
        <path
           style="opacity:0.40206185;color:#000000;fill:url(#radialGradient3270);fill-opacity:1;fill-rule:nonzero;stroke:none;stroke-width:1;stroke-linecap:round;stroke-linejoin:miter;marker:none;marker-start:none;marker-mid:none;marker-end:none;stroke-miterlimit:4;stroke-dasharray:none;stroke-dashoffset:0;stroke-opacity:1;visibility:visible;display:inline;overflow:visible"
           d="M -1559.2523,-150.68038 C -1559.2523,-150.68038 -1559.2523,327.65041 -1559.2523,327.65041 C -1702.1265,328.55086 -1904.6525,220.48075 -1904.6525,88.454235 C -1904.6525,-43.572302 -1745.2157,-150.68036 -1559.2523,-150.68038 z "
           id="path5018"
           sodipodi:nodetypes="cccc" />
      </g>
      <path
         transform="matrix(2.1464608,0,0,0.9418039,27.665215,242.59761)"
         sodipodi:type="arc"
         style="color:#000000;fill:url(#radialGradient3236);fill-opacity:1;fill-rule:evenodd;stroke:none;stroke-width:1px;stroke-linecap:round;stroke-linejoin:round;marker:none;marker-start:none;marker-mid:none;marker-end:none;stroke-miterlimit:4;stroke-dasharray:none;stroke-dashoffset:0;stroke-opacity:1;visibility:visible;display:inline;overflow:visible"
         id="path3156"
         sodipodi:cx="31.112698"
         sodipodi:cy="19.008621"
         sodipodi:rx="8.6620579"
         sodipodi:ry="8.6620579"
         d="M 39.774755 19.008621 A 8.6620579 8.6620579 0 1 1  22.45064,19.008621 A 8.6620579 8.6620579 0 1 1  39.774755 19.008621 z" />
      <g
         transform="matrix(2.4910587e-2,0,0,3.9306259e-2,167.73771,256.72132)"
         id="g3168">
        <rect
           style="opacity:0.40206185;color:#000000;fill:url(#linearGradient3222);fill-opacity:1;fill-rule:nonzero;stroke:none;stroke-width:1;stroke-linecap:round;stroke-linejoin:miter;marker:none;marker-start:none;marker-mid:none;marker-end:none;stroke-miterlimit:4;stroke-dasharray:none;stroke-dashoffset:0;stroke-opacity:1;visibility:visible;display:inline;overflow:visible"
           id="rect3170"
           width="1339.6335"
           height="478.35718"
           x="-1559.2523"
           y="-150.69685" />
        <path
           style="opacity:0.40206185;color:#000000;fill:url(#radialGradient3224);fill-opacity:1;fill-rule:nonzero;stroke:none;stroke-width:1;stroke-linecap:round;stroke-linejoin:miter;marker:none;marker-start:none;marker-mid:none;marker-end:none;stroke-miterlimit:4;stroke-dasharray:none;stroke-dashoffset:0;stroke-opacity:1;visibility:visible;display:inline;overflow:visible"
           d="M -219.61876,-150.68038 C -219.61876,-150.68038 -219.61876,327.65041 -219.61876,327.65041 C -76.744594,328.55086 125.78146,220.48075 125.78138,88.454235 C 125.78138,-43.572302 -33.655436,-150.68036 -219.61876,-150.68038 z "
           id="path3172"
           sodipodi:nodetypes="cccc" />
        <path
           sodipodi:nodetypes="cccc"
           id="path3174"
           d="M -1559.2523,-150.68038 C -1559.2523,-150.68038 -1559.2523,327.65041 -1559.2523,327.65041 C -1702.1265,328.55086 -1904.6525,220.48075 -1904.6525,88.454235 C -1904.6525,-43.572302 -1745.2157,-150.68036 -1559.2523,-150.68038 z "
           style="opacity:0.40206185;color:#000000;fill:url(#radialGradient3226);fill-opacity:1;fill-rule:nonzero;stroke:none;stroke-width:1;stroke-linecap:round;stroke-linejoin:miter;marker:none;marker-start:none;marker-mid:none;marker-end:none;stroke-miterlimit:4;stroke-dasharray:none;stroke-dashoffset:0;stroke-opacity:1;visibility:visible;display:inline;overflow:visible" />
      </g>
      <g
         transform="matrix(1.9328358,0,0,1.8917499,20.877417,135.60878)"
         id="g2872">
        <g
           id="g15362">
          <path
             d="M 141.19545,0 C 141.1922,-3e-005 93.74437,0.07083 88.10305,5.71215 C 82.45142,11.36383 82.4421,39.26487 82.4419,39.42404 C 82.4419,39.42404 82.4419,39.47458 82.4419,39.47504 C 82.4421,39.63421 82.45142,67.48431 88.10305,73.13593 C 93.74437,78.77725 141.1922,78.89908 141.19545,78.89908 C 141.19868,78.89908 188.64653,78.77725 194.28785,73.13593 C 199.95563,67.46822 200,39.42463 200,39.42404 C 199.99981,39.26493 199.93953,11.36383 194.28785,5.71215 C 188.64653,0.07083 141.19868,-3e-005 141.19545,0 z "
             style="fill:#cc0000;fill-opacity:1;fill-rule:evenodd;stroke:#a40000;stroke-width:1px;stroke-linecap:butt;stroke-linejoin:round;stroke-opacity:1"
             id="path3144" />
          <path
             id="path9122"
             d="M 93.09375,14.875 L 93.09375,18.53125 L 93.09375,22.21875 L 97.46875,22.21875 L 101.84375,22.21875 L 101.84375,43.625 L 101.84375,65.0625 L 105.65625,65.0625 L 109.46875,65.0625 L 109.46875,43.625 L 109.46875,22.21875 L 113.8125,22.21875 L 118.1875,22.21875 L 118.1875,18.53125 L 118.1875,14.875 L 105.65625,14.875 L 93.09375,14.875 z M 144.6875,14.875 L 144.6875,39.96875 L 144.6875,65.0625 L 148.09375,65.0625 L 151.46875,65.0625 L 151.46875,63.15625 L 151.5,61.25 L 152.03125,62.28125 C 152.71872,63.58236 154.14524,65.031389 155.25,65.53125 C 156.58471,66.13516 160.25001,65.897522 161.25,65.15625 C 163.29449,63.6407 164.41096,61.355529 165.03125,57.375 C 165.49994,54.36717 165.20181,34.631282 164.65625,32.5625 C 164.00242,30.0832 163.01028,28.389149 161.65625,27.4375 C 160.52705,26.64387 160.2606,26.562499 157.84375,26.5625 C 155.56744,26.5625 155.14934,26.65318 154.3125,27.25 C 153.79013,27.62255 153.00924,28.514339 152.5625,29.21875 L 151.75,30.5 L 151.75,22.6875 L 151.75,14.875 L 148.21875,14.875 L 144.6875,14.875 z M 181.28125,26.4375 C 179.7388,26.428986 178.16497,26.553475 177.1875,26.84375 C 174.35704,27.6843 172.04922,30.501961 170.96875,34.40625 C 170.26762,36.93976 170.2937,53.960391 171,57.15625 C 171.9716,61.55268 174.12777,64.353381 177.375,65.4375 C 179.35429,66.09833 183.77617,66.047163 185.65625,65.34375 C 189.2865,63.98548 191.48652,59.752691 191.5,54.125 L 191.5,52.09375 L 187.84375,52.09375 L 184.15625,52.09375 L 184.15625,54.15625 C 184.15625,58.04373 182.45617,59.841539 179.84375,58.75 C 178.23942,58.07967 177.90767,56.986309 177.75,52.15625 L 177.625,48.125 L 184.59375,48.125 L 191.5625,48.125 L 191.40625,41.4375 C 191.26572,34.46974 191.07241,33.184359 189.84375,30.78125 C 189.02734,29.18452 187.02906,27.47078 185.28125,26.90625 C 184.34983,26.60545 182.8237,26.446014 181.28125,26.4375 z M 117.5625,27.28125 L 117.6875,43.6875 C 117.79791,58.13684 117.89142,60.287962 118.3125,61.59375 C 118.85861,63.28739 120.19117,64.956959 121.4375,65.5 C 121.90553,65.70394 123.21345,65.868928 124.34375,65.875 C 127.55212,65.89222 129.16026,64.816412 130.59375,61.65625 L 131.15625,60.40625 L 131.15625,62.71875 L 131.15625,65.0625 L 134.5625,65.0625 L 137.9375,65.0625 L 137.9375,46.15625 L 137.9375,27.28125 L 134.4375,27.28125 L 130.90625,27.28125 L 130.8125,41.71875 C 130.71633,56.95537 130.71736,57.10034 129.40625,58.5 C 128.59679,59.3641 126.96786,59.3641 126.15625,58.5 C 125.07866,57.35272 124.97591,55.87933 124.96875,41.3125 L 124.96875,27.28125 L 121.28125,27.28125 L 117.5625,27.28125 z M 181.0625,33.25 C 181.40699,33.25 181.75049,33.306581 182.1875,33.4375 C 183.79547,33.91926 184.21304,34.92852 184.375,38.5 L 184.53125,41.375 L 181.0625,41.375 L 177.59375,41.375 L 177.75,38.5 C 177.91196,34.92852 178.32956,33.919262 179.9375,33.4375 C 180.37453,33.30658 180.71801,33.25 181.0625,33.25 z M 155.125,33.34375 C 156.70529,33.34375 157.55909,34.314591 157.8125,36.375 C 157.91322,37.19409 157.95645,42.039528 157.90625,47.15625 C 157.81833,56.12083 157.78716,56.50398 157.1875,57.625 C 156.84525,58.26484 156.3456,58.87212 156.09375,58.96875 C 154.42258,59.61003 152.94513,58.534231 152.25,56.21875 C 151.74304,54.53004 151.74331,37.764251 152.25,36.09375 C 152.82319,34.20404 153.71219,33.343752 155.125,33.34375 z "
             style="fill:#eeeeec;fill-opacity:1;stroke:#ef2929;stroke-width:1;stroke-linejoin:round;stroke-miterlimit:4;stroke-dasharray:none;stroke-opacity:1" />
          <path
             sodipodi:nodetypes="csczssssc"
             d="M 140.94851,0.96428056 C 140.94526,0.96425056 94.389007,0.88651527 88.747687,6.5278352 C 83.096057,12.179516 83.418436,39.897452 83.418236,40.056622 C 83.502284,49.463394 84.227218,65.958653 88.450496,72.133964 C 92.673774,78.309275 140.24489,77.531322 141.09711,77.783027 C 141.1002,77.783942 188.1024,77.661197 193.74372,72.019877 C 199.4115,66.352167 198.5643,39.348744 198.5643,39.348154 C 198.56411,39.189044 199.3954,12.03092 193.74372,6.37924 C 188.1024,0.73791998 140.95174,0.96425056 140.94851,0.96428056 z "
             style="fill:none;fill-opacity:1;fill-rule:evenodd;stroke:#ef2929;stroke-width:1px;stroke-linecap:butt;stroke-linejoin:round;stroke-opacity:1"
             id="path9526" />
        </g>
        <g
           id="g15352">
          <g
             transform="matrix(1.632043,0,0,1.632043,-295.25298,-989.27305)"
             style="fill:#555753;fill-opacity:1;stroke:#2e3436;stroke-width:0.61272895;stroke-linejoin:round;stroke-miterlimit:4;stroke-dasharray:none;stroke-opacity:1"
             id="g14044">
            <path
               d="M 202.78524,646.89914 C 200.19247,646.62669 198.75588,645.15249 198.039,642.02868 C 197.52059,639.76961 197.57779,629.4768 198.12151,627.18274 C 198.50333,625.57176 199.1006,624.45568 200.04841,623.58202 C 201.1579,622.55931 202.28432,622.2582 204.71593,622.33428 C 206.41169,622.38733 206.71785,622.44887 207.64346,622.92277 C 209.41533,623.82994 210.26454,625.39459 210.70541,628.56436 C 211.01141,630.7645 210.95973,639.6553 210.62987,641.55668 C 210.2976,643.47198 209.53537,645.12219 208.6404,645.86377 C 207.53301,646.78139 205.34559,647.16819 202.78524,646.89914 z M 205.32729,642.45735 C 206.36832,642.02238 206.40678,641.74914 206.40678,634.78804 C 206.40678,629.9902 206.35176,628.39122 206.16889,627.87395 C 205.57869,626.2045 203.31927,626.0905 202.52533,627.6901 C 202.21664,628.31205 202.18245,628.86956 202.13065,634.12732 C 202.06971,640.31196 202.1778,641.5075 202.85423,642.13094 C 203.48821,642.71525 204.41673,642.8378 205.32729,642.45735 z "
               style="fill:#555753;fill-opacity:1;stroke:#2e3436;stroke-width:0.61272895;stroke-linejoin:round;stroke-miterlimit:4;stroke-dasharray:none;stroke-opacity:1"
               id="path9110" />
            <path
               d="M 216.00039,646.67385 C 215.22316,646.33519 214.39072,645.29643 214.05014,644.24024 C 213.78755,643.42591 213.74231,642.08493 213.67347,633.0739 L 213.59524,622.83305 L 215.89825,622.83305 L 218.20126,622.83305 L 218.20557,631.57953 C 218.21003,640.66383 218.27386,641.58839 218.94586,642.30387 C 219.45202,642.84274 220.46706,642.84274 220.97185,642.30387 C 221.78952,641.431 221.79677,641.34523 221.85674,631.84325 L 221.91361,622.83305 L 224.10104,622.83305 L 226.28847,622.83305 L 226.28847,634.61223 L 226.28847,646.39142 L 224.17877,646.39142 L 222.06906,646.39142 L 222.0652,644.94099 L 222.06134,643.49058 L 221.70474,644.27671 C 220.81078,646.24749 219.81354,646.92271 217.8127,646.91197 C 217.10781,646.90818 216.29228,646.80102 216.00039,646.67385 z "
               style="fill:#555753;fill-opacity:1;stroke:#2e3436;stroke-width:0.61272895;stroke-linejoin:round;stroke-miterlimit:4;stroke-dasharray:none;stroke-opacity:1"
               id="path9106" />
            <path
               d="M 187.3766,639.75987 L 187.3766,633.12833 L 184.18847,624.33265 C 182.43501,619.49503 180.96213,615.43597 180.9154,615.31253 C 180.84832,615.13528 181.3945,615.0983 183.51289,615.13672 L 186.19532,615.18536 L 187.75063,620.0794 C 188.60605,622.77112 189.41631,625.50056 189.55119,626.14481 C 189.80785,627.37068 189.86076,627.35026 190.18513,625.90019 C 190.29445,625.41148 191.0818,622.80072 191.93479,620.0985 L 193.4857,615.18536 L 196.16554,615.13672 C 198.67179,615.09122 198.8376,615.10832 198.72522,615.40043 C 198.65912,615.57223 197.14669,619.67569 195.36424,624.51924 L 192.12343,633.3257 L 192.12343,639.85856 L 192.12343,646.39142 L 189.75001,646.39142 L 187.3766,646.39142 L 187.3766,639.75987 z "
               style="fill:#555753;fill-opacity:1;stroke:#2e3436;stroke-width:0.61272895;stroke-linejoin:round;stroke-miterlimit:4;stroke-dasharray:none;stroke-opacity:1"
               id="path9047" />
          </g>
          <g
             transform="matrix(1.632043,0,0,1.632043,-295.28251,-989.3398)"
             style="fill:none;fill-opacity:1;stroke:#888a85;stroke-width:0.61272895;stroke-linejoin:round;stroke-miterlimit:4;stroke-dasharray:none;stroke-opacity:1"
             id="g13406">
            <path
               sodipodi:nodetypes="cssssssssccsssssc"
               d="M 202.72086,646.31971 C 200.28692,645.7693 199.55164,644.92682 198.65062,642.12525 C 197.94099,639.91877 198.18941,629.50899 198.73313,627.21493 C 199.11495,625.60395 199.06841,625.06952 200.01622,624.19586 C 201.12571,623.17315 202.25213,622.87204 204.68374,622.94812 C 206.3795,623.00117 206.73713,622.97339 207.61127,623.53661 C 209.38314,624.67826 209.62073,625.55497 210.0616,628.62874 C 210.37697,630.82756 210.41249,639.55873 210.08263,641.46011 C 209.75036,643.37541 209.0847,644.7359 208.18973,645.47748 C 207.08234,646.3951 205.28121,646.58876 202.72086,646.31971 z M 205.87453,642.90802 C 206.98059,642.34299 207.03209,641.62519 207.0184,634.69147 C 207.00893,629.89364 206.85971,628.20811 206.71613,627.67859 C 206.1919,625.74527 202.84372,625.41524 201.9459,627.43036 C 201.66332,628.0646 201.62477,628.86982 201.55122,634.12732 C 201.46533,640.26705 201.46823,641.44708 202.50013,642.71037 C 203.04556,643.3781 204.96397,643.28847 205.87453,642.90802 z "
               style="fill:none;fill-opacity:1;stroke:#888a85;stroke-width:0.61272895;stroke-linejoin:round;stroke-miterlimit:4;stroke-dasharray:none;stroke-opacity:1"
               id="path13408" />
            <path
               sodipodi:nodetypes="ccccssccccccccc"
               d="M 214.62957,644.01491 C 214.04652,637.24258 214.33063,630.32573 214.20686,623.47686 L 217.58964,623.54124 L 217.59395,631.61172 C 217.57108,640.83269 217.94983,642.46144 218.65615,642.91549 C 219.27274,643.31186 220.59049,643.5536 221.22937,642.94768 C 222.09719,642.12465 222.47277,641.31304 222.53274,631.81106 L 222.52523,623.47686 L 225.70904,623.44467 L 225.67685,645.84418 L 222.58411,645.81199 L 222.70515,642.52486 C 222.23388,642.78294 221.56245,642.8842 221.25407,643.79385 C 220.36011,645.76463 219.78135,646.2789 217.78051,646.26816 C 215.85161,646.34803 215.35604,645.77127 214.62957,644.01491 z "
               style="fill:none;fill-opacity:1;stroke:#888a85;stroke-width:0.61272895;stroke-linejoin:round;stroke-miterlimit:4;stroke-dasharray:none;stroke-opacity:1"
               id="path13410" />
            <path
               sodipodi:nodetypes="ccccccccccc"
               d="M 187.98822,632.99957 C 185.83418,627.06108 183.94329,621.73217 181.78454,615.79539 L 185.80903,615.76479 C 186.91591,619.41955 188.35569,623.69799 189.29367,627.40246 C 189.55033,628.62833 190.18267,628.6401 190.50704,627.19003 L 193.93858,615.79698 C 195.62719,615.69578 196.53758,615.83475 197.98705,615.81891 L 191.47962,633.26132 L 191.544,645.84418 L 187.95603,645.90856 L 187.98822,632.99957 z "
               style="fill:none;fill-opacity:1;stroke:#888a85;stroke-width:0.61272895;stroke-linejoin:round;stroke-miterlimit:4;stroke-dasharray:none;stroke-opacity:1"
               id="path13412" />
          </g>
        </g>
      </g>
      <g
         transform="matrix(1.4244527e-2,0,0,2.9245562e-2,63.201957,256.37738)"
         id="g3247">
        <rect
           style="opacity:0.40206185;color:#000000;fill:url(#linearGradient3255);fill-opacity:1;fill-rule:nonzero;stroke:none;stroke-width:1;stroke-linecap:round;stroke-linejoin:miter;marker:none;marker-start:none;marker-mid:none;marker-end:none;stroke-miterlimit:4;stroke-dasharray:none;stroke-dashoffset:0;stroke-opacity:1;visibility:visible;display:inline;overflow:visible"
           id="rect3249"
           width="1339.6335"
           height="478.35718"
           x="-1559.2523"
           y="-150.69685" />
        <path
           style="opacity:0.40206185;color:#000000;fill:url(#radialGradient3257);fill-opacity:1;fill-rule:nonzero;stroke:none;stroke-width:1;stroke-linecap:round;stroke-linejoin:miter;marker:none;marker-start:none;marker-mid:none;marker-end:none;stroke-miterlimit:4;stroke-dasharray:none;stroke-dashoffset:0;stroke-opacity:1;visibility:visible;display:inline;overflow:visible"
           d="M -219.61876,-150.68038 C -219.61876,-150.68038 -219.61876,327.65041 -219.61876,327.65041 C -76.744594,328.55086 125.78146,220.48075 125.78138,88.454235 C 125.78138,-43.572302 -33.655436,-150.68036 -219.61876,-150.68038 z "
           id="path3251"
           sodipodi:nodetypes="cccc" />
        <path
           sodipodi:nodetypes="cccc"
           id="path3253"
           d="M -1559.2523,-150.68038 C -1559.2523,-150.68038 -1559.2523,327.65041 -1559.2523,327.65041 C -1702.1265,328.55086 -1904.6525,220.48075 -1904.6525,88.454235 C -1904.6525,-43.572302 -1745.2157,-150.68036 -1559.2523,-150.68038 z "
           style="opacity:0.40206185;color:#000000;fill:url(#radialGradient3259);fill-opacity:1;fill-rule:nonzero;stroke:none;stroke-width:1;stroke-linecap:round;stroke-linejoin:miter;marker:none;marker-start:none;marker-mid:none;marker-end:none;stroke-miterlimit:4;stroke-dasharray:none;stroke-dashoffset:0;stroke-opacity:1;visibility:visible;display:inline;overflow:visible" />
      </g>
    </g>
  </g>
</svg>
