<?xml version="1.0" encoding="UTF-8" standalone="no"?>
<!-- Created with Inkscape (http://www.inkscape.org/) -->
<svg
   xmlns:dc="http://purl.org/dc/elements/1.1/"
   xmlns:cc="http://web.resource.org/cc/"
   xmlns:rdf="http://www.w3.org/1999/02/22-rdf-syntax-ns#"
   xmlns:svg="http://www.w3.org/2000/svg"
   xmlns="http://www.w3.org/2000/svg"
   xmlns:xlink="http://www.w3.org/1999/xlink"
   xmlns:sodipodi="http://inkscape.sourceforge.net/DTD/sodipodi-0.dtd"
   xmlns:inkscape="http://www.inkscape.org/namespaces/inkscape"
   id="svg1378"
   sodipodi:version="0.32"
   inkscape:version="0.43"
   width="22"
   height="22"
   sodipodi:docbase="/home/klattimer/Projects/wine-doors.svn/src"
   sodipodi:docname="cedega.svg"
   version="1.0">
  <metadata
     id="metadata1383">
    <rdf:RDF>
      <cc:Work
         rdf:about="">
        <dc:format>image/svg+xml</dc:format>
        <dc:type
           rdf:resource="http://purl.org/dc/dcmitype/StillImage" />
      </cc:Work>
    </rdf:RDF>
  </metadata>
  <defs
     id="defs1381">
    <linearGradient
       id="linearGradient4110">
      <stop
         id="stop4112"
         offset="0.0000000"
         style="stop-color:#ffffff;stop-opacity:1.0000000;" />
      <stop
         id="stop4114"
         offset="1"
         style="stop-color:#ffffff;stop-opacity:1;" />
    </linearGradient>
    <linearGradient
       id="linearGradient4102">
      <stop
         style="stop-color:#57be00;stop-opacity:1;"
         offset="0"
         id="stop4104" />
      <stop
         style="stop-color:#57be00;stop-opacity:0;"
         offset="1"
         id="stop4106" />
    </linearGradient>
    <linearGradient
       id="linearGradient4034">
      <stop
         id="stop4036"
         offset="0"
         style="stop-color:#91b4ee;stop-opacity:1;" />
      <stop
         id="stop4038"
         offset="1"
         style="stop-color:#e2eaf7;stop-opacity:1;" />
    </linearGradient>
    <linearGradient
       id="linearGradient2173">
      <stop
         style="stop-color:#e4ffd3;stop-opacity:1;"
         offset="0"
         id="stop2175" />
      <stop
         id="stop4116"
         offset="0.5"
         style="stop-color:#8bd428;stop-opacity:1;" />
      <stop
         style="stop-color:#5da101;stop-opacity:1;"
         offset="1"
         id="stop2177" />
    </linearGradient>
    <linearGradient
       id="linearGradient2117">
      <stop
         style="stop-color:#84acee;stop-opacity:1.0000000;"
         offset="0.0000000"
         id="stop2119" />
      <stop
         style="stop-color:#1850ac;stop-opacity:1.0000000;"
         offset="1.0000000"
         id="stop2121" />
    </linearGradient>
    <radialGradient
       inkscape:collect="always"
       xlink:href="#linearGradient2117"
       id="radialGradient2123"
       cx="22.040707"
       cy="10.117262"
       fx="22.040707"
       fy="10.117262"
       r="12.046448"
       gradientUnits="userSpaceOnUse"
       gradientTransform="matrix(-0.84683,0.906877,-0.781176,-0.729452,48.6088,-2.490908)" />
    <radialGradient
       inkscape:collect="always"
       xlink:href="#linearGradient2117"
       id="radialGradient2133"
       gradientUnits="userSpaceOnUse"
       gradientTransform="matrix(-0.84683,0.906877,-0.781176,-0.729452,48.6088,-2.490908)"
       cx="22.040707"
       cy="10.117262"
       fx="22.040707"
       fy="10.117262"
       r="12.046448" />
    <radialGradient
       inkscape:collect="always"
       xlink:href="#linearGradient2117"
       id="radialGradient2169"
       gradientUnits="userSpaceOnUse"
       gradientTransform="matrix(-0.255641,0.788557,-0.679255,-0.220206,24.36447,-8.908442)"
       cx="22.040707"
       cy="10.117262"
       fx="22.040707"
       fy="10.117262"
       r="12.046448" />
    <radialGradient
       inkscape:collect="always"
       xlink:href="#linearGradient2173"
       id="radialGradient2179"
       cx="11.317274"
       cy="4.3306003"
       fx="11.317274"
       fy="4.3306003"
       r="4.8338447"
       gradientUnits="userSpaceOnUse"
       gradientTransform="matrix(-0.272021,0.949408,-0.961319,-0.275434,18.5589,-5.221314)" />
    <linearGradient
       inkscape:collect="always"
       xlink:href="#linearGradient4034"
       id="linearGradient4081"
       gradientUnits="userSpaceOnUse"
       gradientTransform="matrix(2.124941,0,0,2.124941,-3.985399,-0.708024)"
       x1="9.2404499"
       y1="13.056817"
       x2="11.829927"
       y2="6.5299625" />
    <radialGradient
       inkscape:collect="always"
       xlink:href="#linearGradient2173"
       id="radialGradient4118"
       gradientUnits="userSpaceOnUse"
       gradientTransform="matrix(-0.272021,0.949408,-0.961319,-0.275434,18.5589,-5.221314)"
       cx="11.317274"
       cy="4.3306003"
       fx="11.317274"
       fy="4.3306003"
       r="4.8338447" />
    <linearGradient
       inkscape:collect="always"
       xlink:href="#linearGradient4034"
       id="linearGradient1349"
       gradientUnits="userSpaceOnUse"
       gradientTransform="matrix(5.206919,0,0,5.206919,-14.25505,-2.647786)"
       x1="9.2404499"
       y1="13.056817"
       x2="11.829927"
       y2="6.5299625" />
    <linearGradient
       inkscape:collect="always"
       xlink:href="#linearGradient4034"
       id="linearGradient1359"
       gradientUnits="userSpaceOnUse"
       gradientTransform="matrix(7.381979,0,0,7.381979,-21.5027,-4.016744)"
       x1="9.2404499"
       y1="13.056817"
       x2="11.829927"
       y2="6.5299625" />
    <linearGradient
       inkscape:collect="always"
       xlink:href="#linearGradient4034"
       id="linearGradient1390"
       gradientUnits="userSpaceOnUse"
       gradientTransform="matrix(1.008222,0,0,1.008222,-0.26431,-5.175066e-3)"
       x1="9.2404499"
       y1="13.056817"
       x2="11.829927"
       y2="6.5299625" />
  </defs>
  <sodipodi:namedview
     inkscape:window-height="967"
     inkscape:window-width="1270"
     inkscape:pageshadow="2"
     inkscape:pageopacity="0.0"
     borderopacity="1.0"
     bordercolor="#666666"
     pagecolor="#ffffff"
     id="base"
     showguides="true"
     inkscape:guide-bbox="true"
     inkscape:zoom="52.547627"
     inkscape:cx="7.4741136"
     inkscape:cy="10.463208"
     inkscape:window-x="0"
     inkscape:window-y="25"
     inkscape:current-layer="layer1">
    <sodipodi:guide
       orientation="horizontal"
       position="34.798391"
       id="guide2140" />
    <sodipodi:guide
       orientation="vertical"
       position="-8.2428968"
       id="guide2151" />
    <sodipodi:guide
       orientation="vertical"
       position="16.574906"
       id="guide2153" />
    <sodipodi:guide
       orientation="horizontal"
       position="12.520292"
       id="guide2155" />
  </sodipodi:namedview>
  <g
     inkscape:groupmode="layer"
     id="layer1"
     inkscape:label="c"
     style="display:inline">
    <path
       style="fill:url(#radialGradient2169);fill-opacity:1;stroke:none;stroke-width:0.26505724;stroke-linecap:round;stroke-linejoin:round;stroke-miterlimit:4;stroke-dasharray:none;stroke-dashoffset:0;stroke-opacity:0.42682926"
       d="M 9.8532068,5.6203335 C 10.009194,5.9536827 10.074911,6.0941174 10.233704,6.4334614 C 9.6391215,7.609618 7.7119284,8.5064286 6.4138942,8.2209153 C 6.2546955,7.880706 6.2020914,7.7682899 6.0510943,7.4456078 C 3.9281837,9.2755199 2.9224051,12.048705 3.3571275,14.791612 C 3.6967656,14.632679 3.8568083,14.557787 4.2080751,14.393415 C 5.3842316,14.987998 6.2810424,16.915192 5.9955296,18.213227 C 5.6387244,18.38019 5.5144961,18.438322 5.1824021,18.593722 C 7.013228,20.73975 9.7893652,21.764212 12.546102,21.325508 C 12.386818,20.985121 12.322637,20.847963 12.147906,20.474561 C 12.760386,19.29504 14.683736,18.390013 15.967716,18.687107 C 16.132088,19.038373 16.206978,19.198416 16.365913,19.538056 C 18.607486,17.598078 19.605349,14.576607 18.915511,11.637239 L 16.003379,12.999952 C 16.191561,14.980551 15.176851,16.959576 13.271482,17.851179 C 10.84835,18.985071 7.946435,17.948972 6.8125465,15.525839 C 5.6786577,13.102707 6.7425132,10.210854 9.1656457,9.0769648 C 11.050305,8.1950514 13.193508,8.662443 14.59521,10.03994 L 17.507342,8.6772272 C 15.68954,6.3011107 12.754007,5.149874 9.8532068,5.6203335 z "
       id="path1387" />
    <path
       sodipodi:type="arc"
       style="fill:url(#radialGradient4118);fill-opacity:1;stroke:#285100;stroke-width:0.40000001;stroke-linecap:round;stroke-linejoin:round;stroke-miterlimit:4;stroke-dasharray:none;stroke-dashoffset:0;stroke-opacity:1"
       id="path2171"
       sodipodi:cx="8.9112396"
       sodipodi:cy="6.1128483"
       sodipodi:rx="4.6338449"
       sodipodi:ry="4.6338449"
       d="M 13.545084 6.1128483 A 4.6338449 4.6338449 0 1 1  4.2773948,6.1128483 A 4.6338449 4.6338449 0 1 1  13.545084 6.1128483 z"
       transform="matrix(0.668093,0,0,0.668093,0.575959,-0.225105)" />
    <path
       style="opacity:0.87573966;fill:none;fill-opacity:1;stroke:url(#linearGradient1390);stroke-width:0.525;stroke-linecap:round;stroke-linejoin:miter;stroke-miterlimit:4;stroke-dasharray:none;stroke-dashoffset:0;stroke-opacity:1;display:inline"
       d="M 10.961191,5.879074 C 10.791852,5.9283955 10.473329,5.8420556 10.370398,5.9260689 C 10.792175,6.4270438 10.35982,7.0859226 9.9228276,7.4052889 C 8.9468026,8.2583164 7.5546705,8.9001222 6.2482752,8.5063119 C 6.0789463,8.4563888 6.0933152,8.0041759 5.8812675,8.067693 C 4.3004901,9.6672871 3.4213632,11.96952 3.6478916,14.226261 C 4.1156912,13.935578 4.7090615,14.125393 5.0239578,14.547048 C 6.0035094,15.510106 6.6326187,16.981983 6.3109351,18.350621 C 6.1840118,18.527831 5.8660547,18.59506 5.7872778,18.764624 C 6.9715999,19.907254 8.5059335,20.749071 10.165939,20.984157 C 10.750465,21.065294 11.427199,21.1116 11.974938,21.020378 C 11.692595,20.555308 11.881509,19.964909 12.308532,19.659379 C 13.270495,18.680173 14.750331,18.033665 16.119439,18.377476 C 16.284497,18.535252 16.363744,18.787457 16.522252,18.934701 C 17.868586,17.548368 18.719054,15.678866 18.767386,13.729513 C 18.788188,13.203948 18.747235,12.677792 18.657163,12.162962 C 17.897859,12.525617 17.105436,12.831951 16.383505,13.257271 C 16.566431,15.905056 14.385089,18.458888 11.729212,18.64945 C 9.0729426,18.972794 6.3741384,16.909051 6.0509691,14.247342 C 5.5833064,11.513533 7.6894948,8.638701 10.457674,8.3183323 C 11.960256,8.0986677 13.543791,8.5977509 14.664835,9.6118106 C 15.391766,9.2389122 16.282714,8.9152236 16.913876,8.5152633 C 15.437629,6.810916 13.226041,5.8162509 10.961191,5.879074 z "
       id="path3159" />
    <path
       style="fill:none;fill-opacity:1;stroke:#001346;stroke-width:0.4375;stroke-linecap:round;stroke-linejoin:miter;stroke-miterlimit:4;stroke-dasharray:none;stroke-dashoffset:0;stroke-opacity:1;display:inline"
       d="M 9.8532068,5.6203335 C 10.009194,5.9536827 10.074911,6.0941174 10.233704,6.4334614 C 9.6391215,7.609618 7.7119284,8.5064286 6.4138942,8.2209153 C 6.2546955,7.880706 6.2020914,7.7682899 6.0510943,7.4456078 C 3.9281837,9.2755199 2.9224051,12.048705 3.3571275,14.791612 C 3.6967656,14.632679 3.8568083,14.557787 4.2080751,14.393415 C 5.3842316,14.987998 6.2810424,16.915192 5.9955296,18.213227 C 5.6387244,18.38019 5.5144961,18.438322 5.1824021,18.593722 C 7.013228,20.73975 9.7893652,21.764212 12.546102,21.325508 C 12.386818,20.985121 12.322637,20.847963 12.147906,20.474561 C 12.760386,19.29504 14.683736,18.390013 15.967716,18.687107 C 16.132088,19.038373 16.206978,19.198416 16.365913,19.538056 C 18.607486,17.598078 19.605349,14.576607 18.915511,11.637239 L 16.003379,12.999952 C 16.191561,14.980551 15.176851,16.959576 13.271482,17.851179 C 10.84835,18.985071 7.946435,17.948972 6.8125465,15.525839 C 5.6786577,13.102707 6.7425132,10.210854 9.1656457,9.0769648 C 11.050305,8.1950514 13.193508,8.662443 14.59521,10.03994 L 17.507342,8.6772272 C 15.68954,6.3011107 12.754007,5.149874 9.8532068,5.6203335 z "
       id="path4085" />
    <path
       sodipodi:type="arc"
       style="opacity:0.81656805;fill:none;fill-opacity:1;stroke:#cdffa1;stroke-width:0.40000001;stroke-linecap:round;stroke-linejoin:round;stroke-miterlimit:4;stroke-dasharray:none;stroke-dashoffset:0;stroke-opacity:1;display:inline"
       id="path4098"
       sodipodi:cx="8.9112396"
       sodipodi:cy="6.1128483"
       sodipodi:rx="4.6338449"
       sodipodi:ry="4.6338449"
       d="M 13.545084 6.1128483 A 4.6338449 4.6338449 0 1 1  4.2773948,6.1128483 A 4.6338449 4.6338449 0 1 1  13.545084 6.1128483 z"
       transform="matrix(0.612649,0,0,0.612649,1.070036,0.113818)" />
  </g>
  <g
     inkscape:groupmode="layer"
     id="layer2"
     inkscape:label="orig"
     style="display:inline" />
</svg>
