<?xml version="1.0" encoding="UTF-8" standalone="no"?>
<!-- Created with Inkscape (http://www.inkscape.org/) -->
<svg
   xmlns:dc="http://purl.org/dc/elements/1.1/"
   xmlns:cc="http://web.resource.org/cc/"
   xmlns:rdf="http://www.w3.org/1999/02/22-rdf-syntax-ns#"
   xmlns:svg="http://www.w3.org/2000/svg"
   xmlns="http://www.w3.org/2000/svg"
   xmlns:xlink="http://www.w3.org/1999/xlink"
   xmlns:sodipodi="http://sodipodi.sourceforge.net/DTD/sodipodi-0.dtd"
   xmlns:inkscape="http://www.inkscape.org/namespaces/inkscape"
   width="24"
   height="24"
   id="svg2"
   sodipodi:version="0.32"
   inkscape:version="0.45"
   version="1.0"
   sodipodi:docbase="/home/klattimer/workspace/wine-doors/wine-doors/trunk/pixmaps"
   sodipodi:docname="rating.garbage.svg"
   inkscape:output_extension="org.inkscape.output.svg.inkscape"
   sodipodi:modified="true">
  <defs
     id="defs4">
    <linearGradient
       id="linearGradient11200">
      <stop
         style="stop-color:#649b6b;stop-opacity:1;"
         offset="0"
         id="stop11202" />
      <stop
         style="stop-color:#113916;stop-opacity:1;"
         offset="1"
         id="stop11204" />
    </linearGradient>
    <linearGradient
       id="linearGradient10140">
      <stop
         id="stop10142"
         offset="0"
         style="stop-color:#4d9b59;stop-opacity:1;" />
      <stop
         id="stop10144"
         offset="1"
         style="stop-color:#152a13;stop-opacity:1;" />
    </linearGradient>
    <linearGradient
       id="linearGradient10130">
      <stop
         id="stop10132"
         offset="0"
         style="stop-color:#386b40;stop-opacity:1;" />
      <stop
         id="stop10134"
         offset="1"
         style="stop-color:#030703;stop-opacity:1;" />
    </linearGradient>
    <linearGradient
       id="linearGradient10104">
      <stop
         style="stop-color:#50985b;stop-opacity:1;"
         offset="0"
         id="stop10106" />
      <stop
         style="stop-color:#152a13;stop-opacity:1;"
         offset="1"
         id="stop10108" />
    </linearGradient>
    <linearGradient
       id="linearGradient2780">
      <stop
         style="stop-color:#543409;stop-opacity:1;"
         offset="0"
         id="stop2782" />
      <stop
         style="stop-color:#1c0401;stop-opacity:1;"
         offset="1"
         id="stop2784" />
    </linearGradient>
    <linearGradient
       id="linearGradient2772">
      <stop
         style="stop-color:#886103;stop-opacity:1;"
         offset="0"
         id="stop2774" />
      <stop
         style="stop-color:#503504;stop-opacity:1;"
         offset="1"
         id="stop2776" />
    </linearGradient>
    <linearGradient
       id="linearGradient2764">
      <stop
         style="stop-color:#cb8607;stop-opacity:1;"
         offset="0"
         id="stop2766" />
      <stop
         style="stop-color:#985903;stop-opacity:1;"
         offset="1"
         id="stop2768" />
    </linearGradient>
    <linearGradient
       inkscape:collect="always"
       xlink:href="#linearGradient2780"
       id="linearGradient5546"
       x1="11.28055"
       y1="13.366387"
       x2="13.639758"
       y2="9.3770256"
       gradientUnits="userSpaceOnUse"
       gradientTransform="matrix(1.681755,0,0,1.681755,-8.997863,-2.469316)" />
    <linearGradient
       inkscape:collect="always"
       xlink:href="#linearGradient2780"
       id="linearGradient7375"
       gradientUnits="userSpaceOnUse"
       gradientTransform="matrix(17.75777,0,0,17.75777,-133.3216,-30.59407)"
       x1="11.28055"
       y1="13.366387"
       x2="13.639758"
       y2="9.3770256" />
    <linearGradient
       inkscape:collect="always"
       xlink:href="#linearGradient2780"
       id="linearGradient7379"
       gradientUnits="userSpaceOnUse"
       gradientTransform="matrix(17.75777,0,0,17.75777,-133.3216,-30.59407)"
       x1="11.28055"
       y1="13.366387"
       x2="13.639758"
       y2="9.3770256" />
    <radialGradient
       inkscape:collect="always"
       xlink:href="#linearGradient10104"
       id="radialGradient10126"
       gradientUnits="userSpaceOnUse"
       gradientTransform="matrix(-1.7653598,-0.3374946,-0.4530327,2.755753,29.234049,-13.588322)"
       cx="8.0065622"
       cy="12.716726"
       fx="8.0065622"
       fy="12.716726"
       r="2.9135566" />
    <radialGradient
       inkscape:collect="always"
       xlink:href="#linearGradient10130"
       id="radialGradient10128"
       gradientUnits="userSpaceOnUse"
       gradientTransform="matrix(-1.1768984,-4.1581086,-1.8208068,0.5993098,46.858788,38.053011)"
       cx="6.4602556"
       cy="13.402858"
       fx="6.4602556"
       fy="13.402858"
       r="2.9135566" />
    <radialGradient
       inkscape:collect="always"
       xlink:href="#linearGradient10140"
       id="radialGradient10148"
       cx="7.5374751"
       cy="5.9319572"
       fx="7.5374751"
       fy="5.9319572"
       r="3.3786015"
       gradientTransform="matrix(1.5370406,0.162608,-6.9429227e-2,0.6562749,-3.6360787,0.5224496)"
       gradientUnits="userSpaceOnUse" />
    <linearGradient
       inkscape:collect="always"
       xlink:href="#linearGradient11200"
       id="linearGradient11206"
       x1="7.8635201"
       y1="0.82333255"
       x2="13.586269"
       y2="6.3318853"
       gradientUnits="userSpaceOnUse"
       gradientTransform="matrix(1.1364969,0,0,1.2255766,-1.7737208,-1.9173259)" />
    <linearGradient
       inkscape:collect="always"
       xlink:href="#linearGradient11200"
       id="linearGradient11208"
       gradientUnits="userSpaceOnUse"
       x1="7.8635201"
       y1="0.82333255"
       x2="13.586269"
       y2="6.3318853"
       gradientTransform="matrix(1.1364969,0,0,1.2255766,-1.7737208,-1.9173259)" />
  </defs>
  <sodipodi:namedview
     id="base"
     pagecolor="#ffffff"
     bordercolor="#666666"
     borderopacity="1.0"
     gridtolerance="10000"
     guidetolerance="10"
     objecttolerance="10"
     inkscape:pageopacity="0.0"
     inkscape:pageshadow="2"
     inkscape:zoom="24.208333"
     inkscape:cx="12"
     inkscape:cy="12"
     inkscape:document-units="px"
     inkscape:current-layer="layer1"
     width="24px"
     height="24px"
     showgrid="false"
     inkscape:window-width="1268"
     inkscape:window-height="800"
     inkscape:window-x="6"
     inkscape:window-y="48" />
  <metadata
     id="metadata7">
    <rdf:RDF>
      <cc:Work
         rdf:about="">
        <dc:format>image/svg+xml</dc:format>
        <dc:type
           rdf:resource="http://purl.org/dc/dcmitype/StillImage" />
      </cc:Work>
    </rdf:RDF>
  </metadata>
  <g
     inkscape:label="Layer 1"
     inkscape:groupmode="layer"
     id="layer1">
    <path
       id="path10219"
       style="opacity:1;color:#000000;fill:none;fill-opacity:1;fill-rule:nonzero;stroke:#0a220d;stroke-width:0.94415736;stroke-linecap:round;stroke-linejoin:round;marker:none;marker-start:none;marker-mid:none;marker-end:none;stroke-miterlimit:4;stroke-dasharray:none;stroke-dashoffset:0;stroke-opacity:1;visibility:visible;display:inline;overflow:visible;enable-background:accumulate"
       d="M 22.351701,22.290536 C 21.992197,22.24244 21.586306,23.316606 20.913689,22.098147 C 20.24107,20.879687 20.35704,18.106086 19.661228,17.416695 C 18.965416,16.727301 20.038608,19.388676 18.130441,19.340578 C 16.222273,19.292484 15.079497,17.224304 12.028556,17.224304 C 8.977613,17.224304 7.8348377,19.292484 5.9266696,19.340578 C 4.0185025,19.388676 5.091696,16.727301 4.3958839,17.416695 C 3.700072,18.106086 3.81604,20.879687 3.1434216,22.098147 C 2.4708031,23.316606 2.0649137,22.24244 1.7054104,22.290536"
       sodipodi:nodetypes="cssssssss" />
    <path
       id="path10217"
       style="opacity:1;color:#000000;fill:none;fill-opacity:1;fill-rule:nonzero;stroke:#0c2b10;stroke-width:0.94415736;stroke-linecap:round;stroke-linejoin:round;marker:none;marker-start:none;marker-mid:none;marker-end:none;stroke-miterlimit:4;stroke-dasharray:none;stroke-dashoffset:0;stroke-opacity:1;visibility:visible;display:inline;overflow:visible;enable-background:accumulate"
       d="M 23.420525,16.840133 C 23.02151,16.812409 22.571008,17.431588 21.824463,16.729235 C 21.077919,16.026884 21.206634,14.428104 20.434345,14.030721 C 19.662056,13.633336 20.853202,15.167423 18.735311,15.139698 C 16.617417,15.111975 15.34904,13.919822 11.962771,13.919822 C 8.5765012,13.919822 7.3081244,15.111975 5.1902309,15.139698 C 3.0723373,15.167423 4.2634849,13.633336 3.4911966,14.030721 C 2.7189083,14.428104 2.847623,16.026884 2.1010776,16.729235 C 1.3545322,17.431588 0.90403083,16.812409 0.50501518,16.840133"
       sodipodi:nodetypes="cssssssss" />
    <path
       id="path10210"
       style="opacity:1;color:#000000;fill:none;fill-opacity:1;fill-rule:nonzero;stroke:#113916;stroke-width:0.94415736;stroke-linecap:round;stroke-linejoin:round;marker:none;marker-start:none;marker-mid:none;marker-end:none;stroke-miterlimit:4;stroke-dasharray:none;stroke-dashoffset:0;stroke-opacity:1;visibility:visible;display:inline;overflow:visible;enable-background:accumulate"
       d="M 22.266808,13.270545 C 21.902972,13.232575 21.49219,14.080564 20.811465,13.118667 C 20.130741,12.156767 20.248107,9.9671818 19.54391,9.42295 C 18.839712,8.8787179 19.925839,10.979708 17.994674,10.941739 C 16.06351,10.903769 14.906963,9.2710713 11.819252,9.2710713 C 8.7315409,9.2710713 7.5749933,10.903769 5.6438288,10.941739 C 3.7126643,10.979708 4.7987915,8.8787179 4.0945937,9.42295 C 3.3903961,9.9671818 3.5077624,12.156767 2.8270379,13.118667 C 2.1463134,14.080564 1.7355313,13.232575 1.3716958,13.270545"
       sodipodi:nodetypes="cssssssss" />
    <path
       style="opacity:1;color:#000000;fill:none;fill-opacity:1;fill-rule:nonzero;stroke:url(#linearGradient11206);stroke-width:0.94415736;stroke-linecap:round;stroke-linejoin:round;marker:none;marker-start:none;marker-mid:none;marker-end:none;stroke-miterlimit:4;stroke-dasharray:none;stroke-dashoffset:0;stroke-opacity:1;visibility:visible;display:inline;overflow:visible;enable-background:accumulate"
       d="M 7.6177443,1.2697436 C 10.323004,-0.017517413 10.050204,4.725023 10.254804,5.8767826"
       id="path10204"
       sodipodi:nodetypes="cs" />
    <path
       style="opacity:1;color:#000000;fill:none;fill-opacity:1;fill-rule:nonzero;stroke:url(#linearGradient11208);stroke-width:0.94415736;stroke-linecap:round;stroke-linejoin:round;marker:none;marker-start:none;marker-mid:none;marker-end:none;stroke-miterlimit:4;stroke-dasharray:none;stroke-dashoffset:0;stroke-opacity:1;visibility:visible;display:inline;overflow:visible;enable-background:accumulate"
       d="M 16.404157,1.2697436 C 13.698896,-0.017517413 13.971697,4.725023 13.767096,5.8767826"
       id="path10206"
       sodipodi:nodetypes="cs" />
    <path
       sodipodi:type="arc"
       style="opacity:1;color:#000000;fill:url(#radialGradient10148);fill-opacity:1;fill-rule:nonzero;stroke:#0a240e;stroke-width:0.60000002;stroke-linecap:butt;stroke-linejoin:miter;marker:none;marker-start:none;marker-mid:none;marker-end:none;stroke-miterlimit:4;stroke-dasharray:none;stroke-dashoffset:0;stroke-opacity:1;visibility:visible;display:inline;overflow:visible;enable-background:accumulate"
       id="path10136"
       sodipodi:cx="9.6063833"
       sodipodi:cy="5.5851064"
       sodipodi:rx="3.2234044"
       sodipodi:ry="2.4574468"
       d="M 7.1027662,7.1329811 A 3.2234044,2.4574468 0 1 1 12.207627,7.0364011 L 9.6063833,5.5851064 z"
       sodipodi:start="2.4602054"
       sodipodi:end="6.9149505"
       transform="matrix(1.1364969,0,0,1.2255767,1.0686661,-0.2558161)" />
    <g
       id="g10178"
       transform="matrix(0.8319068,-0.8350016,0.7743104,0.8971125,-3.3929596,12.855561)">
      <path
         sodipodi:nodetypes="cccsscccc"
         id="path10172"
         d="M 5.2048372,8.3674454 C 5.1733112,9.712037 5.9614651,9.921312 6.2557091,10.899673 C 6.2136743,11.292064 5.9246847,11.271136 6.4028312,12.259961 C 6.1663851,12.36983 4.9263562,14.253305 5.3939945,15.273521 C 5.7929091,16.143808 6.9282669,15.63452 8.4205045,15.524651 C 9.6515602,15.434012 9.3925602,14.786956 10.270038,14.499203 C 11.063446,14.96484 11.073955,14.943913 11.930415,14.373639 C 12.660771,12.861627 13.317566,9.952704 13.191461,8.4511554 C 11.720241,9.816675 7.2750545,7.797171 5.2048372,8.3674454 z "
         style="fill:#d2eef7;fill-opacity:0.74316945;fill-rule:evenodd;stroke:#363636;stroke-width:0.25385365;stroke-linecap:butt;stroke-linejoin:miter;stroke-miterlimit:4;stroke-dasharray:none;stroke-opacity:1" />
      <path
         sodipodi:nodetypes="cssssssssscsscssscscsscssscssss"
         d="M 8.3549857,8.4893573 C 8.2088418,9.0013668 7.9040991,9.5262121 7.9165542,10.025386 C 7.92575,10.393933 8.3994375,10.733833 8.4199384,11.092521 C 8.4373267,11.39675 7.9206692,11.760271 8.0302216,12.014139 C 8.2183696,12.450137 9.2530572,12.840261 9.3130392,13.162118 C 9.3504862,13.36305 8.4064506,13.369227 8.3225093,13.582505 C 8.2494813,13.768055 8.8169751,14.076234 8.8421316,14.358604 C 8.8765151,14.744541 8.3737921,15.431818 8.5011295,15.587426 C 8.6119524,15.722855 9.2310682,15.401388 9.5566122,15.231714 C 9.9238982,15.040286 10.238617,14.746653 10.579619,14.504122 M 8.4199384,11.10869 C 8.9395609,11.087132 9.6123992,11.321378 9.9788052,11.044015 C 10.537976,10.620733 10.790716,9.685843 11.196671,9.0067564 M 10.043758,11.027846 C 9.7893602,11.717712 9.1486986,12.489175 9.2805632,13.097443 C 9.4139222,13.712608 10.243789,14.398112 10.83943,14.698147 C 11.163953,14.861615 11.640515,14.558018 12.041057,14.487953 M 10.238617,10.639797 C 10.557968,11.119469 10.877319,11.599141 11.196671,12.078813 M 9.5890892,13.598674 C 10.049171,13.092054 10.864842,11.980591 11.212909,12.111151 C 11.655101,12.277017 11.873262,13.717245 12.203439,14.520291 M 8.3387474,11.124859 C 7.7433467,11.033236 6.8522683,10.638972 6.5525453,10.849991 C 6.3164077,11.016242 6.472362,12.04885 6.7311655,12.256669 C 6.9757462,12.453068 7.6188538,12.12732 8.062698,12.062645 M 8.6797496,15.571258 C 7.6838067,15.506583 6.0165595,15.90219 5.6919206,15.377233 C 5.3399676,14.808107 6.1285242,12.659405 6.6499745,12.289007 C 6.9783234,12.055773 8.3480906,13.156578 8.2413182,13.566336 C 8.0882794,14.153649 6.6608,14.708926 5.8705409,15.280221"
         style="fill:none;fill-rule:evenodd;stroke:#bebebe;stroke-width:0.15231219;stroke-linecap:butt;stroke-linejoin:miter;stroke-miterlimit:4;stroke-opacity:1"
         id="path10174" />
      <path
         sodipodi:nodetypes="cssssssssscsscssscscsscssscssss"
         d="M 8.150492,8.4357379 C 8.0043481,8.9477474 7.6996054,9.4725927 7.7120605,9.971766 C 7.7212563,10.340314 8.1949438,10.680213 8.2154447,11.038902 C 8.232833,11.343131 7.7161755,11.706652 7.8257279,11.960519 C 8.0138759,12.396517 9.0485631,12.786641 9.1085458,13.108499 C 9.1459923,13.30943 8.2019569,13.315607 8.1180156,13.528885 C 8.0449876,13.714435 8.6124814,14.022614 8.6376379,14.304984 C 8.6720214,14.690921 8.1692984,15.378198 8.2966358,15.533807 C 8.4074587,15.669235 9.0265746,15.347768 9.3521192,15.178095 C 9.7194042,14.986666 10.034123,14.693033 10.375125,14.450502 M 8.2154447,11.055071 C 8.7350672,11.033512 9.4079052,11.267759 9.7743122,10.990396 C 10.333483,10.567114 10.586222,9.632223 10.992177,8.953137 M 9.8392652,10.974227 C 9.5848662,11.664093 8.944205,12.435555 9.0760694,13.043824 C 9.2094292,13.658988 10.039295,14.344492 10.634936,14.644527 C 10.95946,14.807995 11.436021,14.504398 11.836563,14.434334 M 10.034123,10.586178 C 10.353474,11.06585 10.672826,11.545522 10.992177,12.025194 M 9.3845952,13.545054 C 9.8446772,13.038434 10.660348,11.926971 11.008415,12.057532 C 11.450607,12.223398 11.668769,13.663625 11.998945,14.466671 M 8.1342537,11.07124 C 7.538853,10.979617 6.6477746,10.585353 6.3480516,10.796371 C 6.111914,10.962623 6.2678683,11.995231 6.5266718,12.20305 C 6.7712525,12.399449 7.4143602,12.0737 7.8582043,12.009025 M 8.475256,15.517638 C 7.479313,15.452963 5.8120658,15.848571 5.4874269,15.323613 C 5.1354742,14.754488 5.9240305,12.605786 6.4454808,12.235387 C 6.7738297,12.002154 8.1435969,13.102959 8.0368245,13.512716 C 7.8837857,14.10003 6.4563063,14.655306 5.6660472,15.226601"
         style="fill:none;fill-rule:evenodd;stroke:#141414;stroke-width:0.15231219;stroke-linecap:butt;stroke-linejoin:miter;stroke-miterlimit:4;stroke-opacity:1"
         id="path10150" />
      <path
         sodipodi:nodetypes="cccsscccc"
         id="path10176"
         d="M 5.2048372,8.3674454 C 5.1733112,9.712037 5.9614651,9.921312 6.2557091,10.899673 C 6.2136743,11.292064 5.9246847,11.271136 6.4028312,12.259961 C 6.1663851,12.36983 4.9263562,14.253305 5.3939945,15.273521 C 5.7929091,16.143808 6.9282669,15.63452 8.4205045,15.524651 C 9.6515602,15.434012 9.3925602,14.786956 10.270038,14.499203 C 11.063446,14.96484 11.073955,14.943913 11.930415,14.373639 C 12.660771,12.861627 13.317566,9.952704 13.191461,8.4511554 C 11.720241,9.816675 7.2750545,7.797171 5.2048372,8.3674454 z "
         style="fill:none;fill-opacity:0.74316945;fill-rule:evenodd;stroke:#363636;stroke-width:0.25385365;stroke-linecap:butt;stroke-linejoin:miter;stroke-miterlimit:4;stroke-dasharray:none;stroke-opacity:1" />
    </g>
    <g
       id="g10194"
       transform="matrix(-0.8319068,-0.8350016,-0.7743104,0.8971125,27.491536,12.623885)">
      <path
         sodipodi:nodetypes="cccsscccc"
         id="path10196"
         d="M 5.2048372,8.3674454 C 5.1733112,9.712037 5.9614651,9.921312 6.2557091,10.899673 C 6.2136743,11.292064 5.9246847,11.271136 6.4028312,12.259961 C 6.1663851,12.36983 4.9263562,14.253305 5.3939945,15.273521 C 5.7929091,16.143808 6.9282669,15.63452 8.4205045,15.524651 C 9.6515602,15.434012 9.3925602,14.786956 10.270038,14.499203 C 11.063446,14.96484 11.073955,14.943913 11.930415,14.373639 C 12.660771,12.861627 13.317566,9.952704 13.191461,8.4511554 C 11.720241,9.816675 7.2750545,7.797171 5.2048372,8.3674454 z "
         style="fill:#d2eef7;fill-opacity:0.74316945;fill-rule:evenodd;stroke:#363636;stroke-width:0.25385365;stroke-linecap:butt;stroke-linejoin:miter;stroke-miterlimit:4;stroke-dasharray:none;stroke-opacity:1" />
      <path
         sodipodi:nodetypes="cssssssssscsscssscscsscssscssss"
         d="M 8.3549857,8.4893573 C 8.2088418,9.0013668 7.9040991,9.5262121 7.9165542,10.025386 C 7.92575,10.393933 8.3994375,10.733833 8.4199384,11.092521 C 8.4373267,11.39675 7.9206692,11.760271 8.0302216,12.014139 C 8.2183696,12.450137 9.2530572,12.840261 9.3130392,13.162118 C 9.3504862,13.36305 8.4064506,13.369227 8.3225093,13.582505 C 8.2494813,13.768055 8.8169751,14.076234 8.8421316,14.358604 C 8.8765151,14.744541 8.3737921,15.431818 8.5011295,15.587426 C 8.6119524,15.722855 9.2310682,15.401388 9.5566122,15.231714 C 9.9238982,15.040286 10.238617,14.746653 10.579619,14.504122 M 8.4199384,11.10869 C 8.9395609,11.087132 9.6123992,11.321378 9.9788052,11.044015 C 10.537976,10.620733 10.790716,9.685843 11.196671,9.0067564 M 10.043758,11.027846 C 9.7893602,11.717712 9.1486986,12.489175 9.2805632,13.097443 C 9.4139222,13.712608 10.243789,14.398112 10.83943,14.698147 C 11.163953,14.861615 11.640515,14.558018 12.041057,14.487953 M 10.238617,10.639797 C 10.557968,11.119469 10.877319,11.599141 11.196671,12.078813 M 9.5890892,13.598674 C 10.049171,13.092054 10.864842,11.980591 11.212909,12.111151 C 11.655101,12.277017 11.873262,13.717245 12.203439,14.520291 M 8.3387474,11.124859 C 7.7433467,11.033236 6.8522683,10.638972 6.5525453,10.849991 C 6.3164077,11.016242 6.472362,12.04885 6.7311655,12.256669 C 6.9757462,12.453068 7.6188538,12.12732 8.062698,12.062645 M 8.6797496,15.571258 C 7.6838067,15.506583 6.0165595,15.90219 5.6919206,15.377233 C 5.3399676,14.808107 6.1285242,12.659405 6.6499745,12.289007 C 6.9783234,12.055773 8.3480906,13.156578 8.2413182,13.566336 C 8.0882794,14.153649 6.6608,14.708926 5.8705409,15.280221"
         style="fill:none;fill-rule:evenodd;stroke:#bebebe;stroke-width:0.15231219;stroke-linecap:butt;stroke-linejoin:miter;stroke-miterlimit:4;stroke-opacity:1"
         id="path10198" />
      <path
         sodipodi:nodetypes="cssssssssscsscssscscsscssscssss"
         d="M 8.150492,8.4357379 C 8.0043481,8.9477474 7.6996054,9.4725927 7.7120605,9.971766 C 7.7212563,10.340314 8.1949438,10.680213 8.2154447,11.038902 C 8.232833,11.343131 7.7161755,11.706652 7.8257279,11.960519 C 8.0138759,12.396517 9.0485631,12.786641 9.1085458,13.108499 C 9.1459923,13.30943 8.2019569,13.315607 8.1180156,13.528885 C 8.0449876,13.714435 8.6124814,14.022614 8.6376379,14.304984 C 8.6720214,14.690921 8.1692984,15.378198 8.2966358,15.533807 C 8.4074587,15.669235 9.0265746,15.347768 9.3521192,15.178095 C 9.7194042,14.986666 10.034123,14.693033 10.375125,14.450502 M 8.2154447,11.055071 C 8.7350672,11.033512 9.4079052,11.267759 9.7743122,10.990396 C 10.333483,10.567114 10.586222,9.632223 10.992177,8.953137 M 9.8392652,10.974227 C 9.5848662,11.664093 8.944205,12.435555 9.0760694,13.043824 C 9.2094292,13.658988 10.039295,14.344492 10.634936,14.644527 C 10.95946,14.807995 11.436021,14.504398 11.836563,14.434334 M 10.034123,10.586178 C 10.353474,11.06585 10.672826,11.545522 10.992177,12.025194 M 9.3845952,13.545054 C 9.8446772,13.038434 10.660348,11.926971 11.008415,12.057532 C 11.450607,12.223398 11.668769,13.663625 11.998945,14.466671 M 8.1342537,11.07124 C 7.538853,10.979617 6.6477746,10.585353 6.3480516,10.796371 C 6.111914,10.962623 6.2678683,11.995231 6.5266718,12.20305 C 6.7712525,12.399449 7.4143602,12.0737 7.8582043,12.009025 M 8.475256,15.517638 C 7.479313,15.452963 5.8120658,15.848571 5.4874269,15.323613 C 5.1354742,14.754488 5.9240305,12.605786 6.4454808,12.235387 C 6.7738297,12.002154 8.1435969,13.102959 8.0368245,13.512716 C 7.8837857,14.10003 6.4563063,14.655306 5.6660472,15.226601"
         style="fill:none;fill-rule:evenodd;stroke:#141414;stroke-width:0.15231219;stroke-linecap:butt;stroke-linejoin:miter;stroke-miterlimit:4;stroke-opacity:1"
         id="path10200" />
      <path
         sodipodi:nodetypes="cccsscccc"
         id="path10202"
         d="M 5.2048372,8.3674454 C 5.1733112,9.712037 5.9614651,9.921312 6.2557091,10.899673 C 6.2136743,11.292064 5.9246847,11.271136 6.4028312,12.259961 C 6.1663851,12.36983 4.9263562,14.253305 5.3939945,15.273521 C 5.7929091,16.143808 6.9282669,15.63452 8.4205045,15.524651 C 9.6515602,15.434012 9.3925602,14.786956 10.270038,14.499203 C 11.063446,14.96484 11.073955,14.943913 11.930415,14.373639 C 12.660771,12.861627 13.317566,9.952704 13.191461,8.4511554 C 11.720241,9.816675 7.2750545,7.797171 5.2048372,8.3674454 z "
         style="fill:none;fill-opacity:0.74316945;fill-rule:evenodd;stroke:#363636;stroke-width:0.25385365;stroke-linecap:butt;stroke-linejoin:miter;stroke-miterlimit:4;stroke-dasharray:none;stroke-opacity:1" />
    </g>
    <g
       id="g10184"
       transform="matrix(1.0931472,-0.3352616,0.3108934,1.1788292,0.5736506,0.4918459)"
       inkscape:transform-center-x="-1.8225959"
       inkscape:transform-center-y="1.8617248">
      <path
         sodipodi:nodetypes="cccssccc"
         id="path10186"
         d="M 5.2048372,8.3674454 C 5.1733112,9.712037 5.9614651,9.921312 6.2557091,10.899673 C 6.2136743,11.292064 5.9246847,11.271136 6.4028312,12.259961 C 6.1663851,12.36983 4.9263562,14.253305 5.3939945,15.273521 C 5.7929091,16.143808 6.9282669,15.63452 8.4205045,15.524651 C 9.6515602,15.434012 9.3925602,14.786956 10.270038,14.499203 C 11.063446,14.96484 11.073955,14.943913 11.930415,14.373639 C 11.222915,11.195627 11.39109,8.0374073 5.2048372,8.3674454 z "
         style="fill:#d2eef7;fill-opacity:0.74316945;fill-rule:evenodd;stroke:#363636;stroke-width:0.25385365;stroke-linecap:butt;stroke-linejoin:miter;stroke-miterlimit:4;stroke-dasharray:none;stroke-opacity:1" />
      <path
         sodipodi:nodetypes="cssssssssscsscssscscsscssscssss"
         d="M 8.3549857,8.4893573 C 8.2088418,9.0013668 7.9040991,9.5262121 7.9165542,10.025386 C 7.92575,10.393933 8.3994375,10.733833 8.4199384,11.092521 C 8.4373267,11.39675 7.9206692,11.760271 8.0302216,12.014139 C 8.2183696,12.450137 9.2530572,12.840261 9.3130392,13.162118 C 9.3504862,13.36305 8.4064506,13.369227 8.3225093,13.582505 C 8.2494813,13.768055 8.8169751,14.076234 8.8421316,14.358604 C 8.8765151,14.744541 8.3737921,15.431818 8.5011295,15.587426 C 8.6119524,15.722855 9.2310682,15.401388 9.5566122,15.231714 C 9.9238982,15.040286 10.238617,14.746653 10.579619,14.504122 M 8.4199384,11.10869 C 8.9395609,11.087132 9.6123992,11.321378 9.9788052,11.044015 C 10.537976,10.620733 10.088292,10.645619 10.494247,9.9665328 M 10.043758,11.027846 C 9.7893602,11.717712 9.1486986,12.489175 9.2805632,13.097443 C 9.4139222,13.712608 10.243789,14.398112 10.83943,14.698147 C 11.163953,14.861615 11.640515,14.558018 12.041057,14.487953 M 10.238617,10.639797 C 10.557968,11.119469 10.877319,11.599141 11.196671,12.078813 M 9.5890892,13.598674 C 10.049171,13.092054 10.864842,11.980591 11.212909,12.111151 C 11.655101,12.277017 11.873262,13.717245 12.203439,14.520291 M 8.3387474,11.124859 C 7.7433467,11.033236 6.8522683,10.638972 6.5525453,10.849991 C 6.3164077,11.016242 6.472362,12.04885 6.7311655,12.256669 C 6.9757462,12.453068 7.6188538,12.12732 8.062698,12.062645 M 8.6797496,15.571258 C 7.6838067,15.506583 6.0165595,15.90219 5.6919206,15.377233 C 5.3399676,14.808107 6.1285242,12.659405 6.6499745,12.289007 C 6.9783234,12.055773 8.3480906,13.156578 8.2413182,13.566336 C 8.0882794,14.153649 6.6608,14.708926 5.8705409,15.280221"
         style="fill:none;fill-rule:evenodd;stroke:#bebebe;stroke-width:0.15231219;stroke-linecap:butt;stroke-linejoin:miter;stroke-miterlimit:4;stroke-opacity:1"
         id="path10188" />
      <path
         sodipodi:nodetypes="cssssssssscsscssscscsscssscssss"
         d="M 8.150492,8.4357379 C 8.0043481,8.9477474 7.6996054,9.4725927 7.7120605,9.971766 C 7.7212563,10.340314 8.1949438,10.680213 8.2154447,11.038902 C 8.232833,11.343131 7.7161755,11.706652 7.8257279,11.960519 C 8.0138759,12.396517 9.0485631,12.786641 9.1085458,13.108499 C 9.1459923,13.30943 8.2019569,13.315607 8.1180156,13.528885 C 8.0449876,13.714435 8.6124814,14.022614 8.6376379,14.304984 C 8.6720214,14.690921 8.1692984,15.378198 8.2966358,15.533807 C 8.4074587,15.669235 9.0265746,15.347768 9.3521192,15.178095 C 9.7194042,14.986666 10.034123,14.693033 10.375125,14.450502 M 8.2154447,11.055071 C 8.7350672,11.033512 9.4079052,11.267759 9.7743122,10.990396 C 10.333483,10.567114 10.213322,10.943394 10.619277,10.264308 M 9.8392652,10.974227 C 9.5848662,11.664093 8.944205,12.435555 9.0760694,13.043824 C 9.2094292,13.658988 10.039295,14.344492 10.634936,14.644527 C 10.95946,14.807995 11.436021,14.504398 11.836563,14.434334 M 10.034123,10.586178 C 10.353474,11.06585 10.672826,11.545522 10.992177,12.025194 M 9.3845952,13.545054 C 9.8446772,13.038434 10.660348,11.926971 11.008415,12.057532 C 11.450607,12.223398 11.668769,13.663625 11.998945,14.466671 M 8.1342537,11.07124 C 7.538853,10.979617 6.6477746,10.585353 6.3480516,10.796371 C 6.111914,10.962623 6.2678683,11.995231 6.5266718,12.20305 C 6.7712525,12.399449 7.4143602,12.0737 7.8582043,12.009025 M 8.475256,15.517638 C 7.479313,15.452963 5.8120658,15.848571 5.4874269,15.323613 C 5.1354742,14.754488 5.9240305,12.605786 6.4454808,12.235387 C 6.7738297,12.002154 8.1435969,13.102959 8.0368245,13.512716 C 7.8837857,14.10003 6.4563063,14.655306 5.6660472,15.226601"
         style="fill:none;fill-rule:evenodd;stroke:#141414;stroke-width:0.15231219;stroke-linecap:butt;stroke-linejoin:miter;stroke-miterlimit:4;stroke-opacity:1"
         id="path10190" />
      <path
         sodipodi:nodetypes="cccssccc"
         id="path10192"
         d="M 5.2048372,8.3674454 C 5.1733112,9.712037 5.9614651,9.921312 6.2557091,10.899673 C 6.2136743,11.292064 5.9246847,11.271136 6.4028312,12.259961 C 6.1663851,12.36983 4.9263562,14.253305 5.3939945,15.273521 C 5.7929091,16.143808 6.9282669,15.63452 8.4205045,15.524651 C 9.6515602,15.434012 9.3925602,14.786956 10.270038,14.499203 C 11.063446,14.96484 11.073955,14.943913 11.930415,14.373639 C 11.051225,9.9872509 11.31199,8.3155345 5.2048372,8.3674454 z "
         style="fill:none;fill-opacity:0.74316945;fill-rule:evenodd;stroke:#363636;stroke-width:0.25385365;stroke-linecap:butt;stroke-linejoin:miter;stroke-miterlimit:4;stroke-dasharray:none;stroke-opacity:1" />
    </g>
    <path
       sodipodi:type="arc"
       style="opacity:1;color:#000000;fill:none;fill-opacity:1;fill-rule:nonzero;stroke:#69a56f;stroke-width:0.57526141;stroke-linecap:butt;stroke-linejoin:miter;marker:none;marker-start:none;marker-mid:none;marker-end:none;stroke-miterlimit:4;stroke-dasharray:none;stroke-dashoffset:0;stroke-opacity:0.72131144;visibility:visible;display:inline;overflow:visible;enable-background:accumulate"
       id="path11190"
       sodipodi:cx="-2.8296041"
       sodipodi:cy="6.1755595"
       sodipodi:rx="3.3666093"
       sodipodi:ry="2.1273665"
       d="M -5.4444485,7.5155262 A 3.3666093,2.1273665 0 1 1 -0.11279655,7.4319187 L -2.8296041,6.1755595 z"
       sodipodi:start="2.4602054"
       sodipodi:end="6.9149505"
       transform="matrix(0.9178025,0,0,1.1464866,14.579896,-0.4221912)" />
    <path
       style="opacity:1;color:#000000;fill:url(#radialGradient10126);fill-opacity:1;fill-rule:nonzero;stroke:#113916;stroke-width:0.82613766;stroke-linecap:butt;stroke-linejoin:miter;marker:none;marker-start:none;marker-mid:none;marker-end:none;stroke-miterlimit:4;stroke-dasharray:none;stroke-dashoffset:0;stroke-opacity:1;visibility:visible;display:inline;overflow:visible;enable-background:accumulate"
       d="M 9.381023,21.277556 C 7.2952794,19.788536 4.4588877,16.766092 5.5265942,12.997891 C 6.1685191,10.732378 7.907247,8.5276655 9.7526162,7.6040011 C 10.477439,7.2412057 11.218712,7.0760442 11.916438,7.1824583"
       id="path9132"
       sodipodi:nodetypes="cssc" />
    <path
       style="fill:none;fill-opacity:1;stroke:#69a56f;stroke-width:0.59009826;stroke-miterlimit:4;stroke-dasharray:none;stroke-opacity:0.72131144"
       d="M 9.4251748,20.849637 C 7.3031599,19.165047 4.965726,16.663867 5.8971864,13.078457 C 6.7618062,9.7503324 10.356986,7.0421405 11.742964,7.5759384"
       id="path10118"
       sodipodi:nodetypes="csc" />
    <path
       style="fill:url(#radialGradient10128);fill-opacity:1;stroke:#113916;stroke-width:0.82613766;stroke-miterlimit:4;stroke-dasharray:none;stroke-opacity:1"
       d="M 14.583677,21.279895 C 16.669421,19.790876 19.505813,16.768431 18.438106,13.00023 C 17.796181,10.734719 16.057454,8.5300034 14.212084,7.6063401 C 13.487263,7.2435438 12.745989,7.0783827 12.048263,7.184797"
       id="path10122"
       sodipodi:nodetypes="cssc" />
    <path
       style="fill:none;fill-opacity:1;stroke:#69a56f;stroke-width:0.59009826;stroke-miterlimit:4;stroke-dasharray:none;stroke-opacity:0.72131144"
       d="M 14.539525,20.851976 C 16.66154,19.167387 18.998974,16.666207 18.067514,13.080797 C 17.202895,9.7526709 13.607716,7.0444796 12.221738,7.578277"
       id="path10124"
       sodipodi:nodetypes="csc" />
    <path
       style="opacity:1;color:#000000;fill:none;fill-opacity:1;fill-rule:nonzero;stroke:#113916;stroke-width:0.94415736;stroke-linecap:round;stroke-linejoin:round;marker:none;marker-start:none;marker-mid:none;marker-end:none;stroke-miterlimit:4;stroke-dasharray:none;stroke-dashoffset:0;stroke-opacity:1;visibility:visible;display:inline;overflow:visible;enable-background:accumulate"
       d="M 9.1648176,21.11761 C 9.4112867,20.687287 9.9746437,20.497439 10.150693,19.396319 C 10.326744,18.295198 9.6929659,18.02941 9.869015,16.713129 C 10.045066,15.396845 10.631896,15.447473 10.854892,14.13119 C 11.077887,12.814908 10.526266,12.650371 10.761,11.448 C 10.995732,10.245626 11.55909,10.410162 11.793823,9.3216975 C 12.028555,8.2332338 11.535617,7.7143148 11.699928,7.0941434 C 11.864241,6.4739721 12.169394,6.1575581 12.451074,6.8410122 C 12.732753,7.5244663 12.721017,8.5243342 12.826645,9.8279598 C 12.932275,11.131586 12.60365,10.903769 12.873592,12.055516 C 13.143536,13.207262 13.648211,13.207262 13.906416,14.434948 C 14.164623,15.662633 13.671683,15.89045 13.906416,16.966259 C 14.141147,18.042067 14.645823,17.649712 14.845345,18.738176 C 15.044868,19.82664 14.739715,20.674631 14.704506,21.320116"
       id="path10208"
       sodipodi:nodetypes="csssssssssssss" />
  </g>
</svg>
