/* XPM */
static char * wine_doors16_xpm[] = {
"16 16 132 2",
"  	c None",
". 	c #2E2F2F",
"+ 	c #B9B9BC",
"@ 	c #BBBDC1",
"# 	c #E8EEF7",
"$ 	c #C7D5EE",
"% 	c #292A2A",
"& 	c #DED2D8",
"* 	c #A18F9E",
"= 	c #9D7F92",
"- 	c #A38498",
"; 	c #515050",
"> 	c #3E7118",
", 	c #30690C",
"' 	c #2F322E",
") 	c #336810",
"! 	c #275D06",
"~ 	c #B18086",
"{ 	c #7D2E38",
"] 	c #B07E84",
"^ 	c #87323A",
"/ 	c #525250",
"( 	c #88C649",
"_ 	c #54912D",
": 	c #518D2B",
"< 	c #528E2D",
"[ 	c #599434",
"} 	c #72B544",
"| 	c #235605",
"1 	c #EDB2BE",
"2 	c #C3435E",
"3 	c #A92A45",
"4 	c #8D1B32",
"5 	c #5B6450",
"6 	c #8DCB51",
"7 	c #6AB530",
"8 	c #439A10",
"9 	c #348C0A",
"0 	c #5AA431",
"a 	c #599231",
"b 	c #252C1D",
"c 	c #D7A2AB",
"d 	c #C44E66",
"e 	c #A52942",
"f 	c #7F2232",
"g 	c #637450",
"h 	c #8ACC4A",
"i 	c #62B61E",
"j 	c #43A004",
"k 	c #359103",
"l 	c #61AB34",
"m 	c #446F22",
"n 	c #A57D8D",
"o 	c #7F5264",
"p 	c #3D7414",
"q 	c #88CE42",
"r 	c #77C52E",
"s 	c #77C138",
"t 	c #71B93A",
"u 	c #71B73E",
"v 	c #315E11",
"w 	c #171C21",
"x 	c #3F5886",
"y 	c #3661B3",
"z 	c #2957AD",
"A 	c #4A76BE",
"B 	c #456DB3",
"C 	c #AF8D2A",
"D 	c #9C6F17",
"E 	c #302F25",
"F 	c #0B2144",
"G 	c #4D6BAB",
"H 	c #2155B3",
"I 	c #2958AE",
"J 	c #ABC6ED",
"K 	c #5A79AE",
"L 	c #305CA9",
"M 	c #F5F04C",
"N 	c #CCAF3C",
"O 	c #B6881C",
"P 	c #B28218",
"Q 	c #AF7C15",
"R 	c #9B6B13",
"S 	c #28406A",
"T 	c #3B5CA4",
"U 	c #4970B9",
"V 	c #4B71B5",
"W 	c #F5F04D",
"X 	c #F3E93C",
"Y 	c #F0E43B",
"Z 	c #EEE457",
"` 	c #BD952B",
" .	c #805810",
"..	c #0C2658",
"+.	c #07255D",
"@.	c #0A2C67",
"#.	c #7385A9",
"$.	c #4F76B6",
"%.	c #AC801D",
"&.	c #F2E827",
"*.	c #EBDB00",
"=.	c #E5D306",
"-.	c #EFE35C",
";.	c #C1A33D",
">.	c #252626",
",.	c #2B2C2C",
"'.	c #B1BCCF",
").	c #B58821",
"!.	c #E9D703",
"~.	c #E6D305",
"{.	c #EBDF48",
"].	c #EEE45B",
"^.	c #A88226",
"/.	c #A7A3A4",
"(.	c #CACDD6",
"_.	c #D0CBB6",
":.	c #DECD23",
"<.	c #E9DC46",
"[.	c #DECA4E",
"}.	c #B18715",
"|.	c #686464",
"1.	c #D8D9DE",
"2.	c #D1D3D7",
"3.	c #DFE0E3",
"4.	c #A57623",
"5.	c #A27013",
"6.	c #A57213",
"7.	c #8D6010",
"8.	c #8C8888",
"9.	c #504F4F",
"0.	c #504E4E",
"a.	c #4F4E4E",
"                                ",
"      . + + + +                 ",
"    . + @ # $   %               ",
"    . + & * = - ; > , . . ' ) ! ",
"    . + ~ { ] ^ / ( _ : < [ } | ",
"    . + 1 2 3 4 5 6 7 8 9 0 a b ",
"    . + c d e f g h i j k l m   ",
"      . + n o + p q r s t u v   ",
"  w x y z + A B C         D E   ",
"  F G H I J K L M N O P Q R     ",
"  S T U V + K   W X Y Z `  .    ",
". ..+.@.#.+ $.%.&.*.=.-.;.      ",
". >.,.. . + '.).!.~.{.].^.      ",
"      /.+ + (._.:.<.[.}.        ",
"    |.+ 1.2.3.+ 4.5.6.7.        ",
"      8.9.0.a.a.. . .           "};
