<?xml version="1.0" encoding="UTF-8" standalone="no"?>
<!-- Generator: Adobe Illustrator 12.0.1, SVG Export Plug-In . SVG Version: 6.00 Build 51448)  -->

<svg
   xmlns:dc="http://purl.org/dc/elements/1.1/"
   xmlns:cc="http://creativecommons.org/ns#"
   xmlns:rdf="http://www.w3.org/1999/02/22-rdf-syntax-ns#"
   xmlns:svg="http://www.w3.org/2000/svg"
   xmlns="http://www.w3.org/2000/svg"
   xmlns:xlink="http://www.w3.org/1999/xlink"
   xmlns:sodipodi="http://sodipodi.sourceforge.net/DTD/sodipodi-0.dtd"
   xmlns:inkscape="http://www.inkscape.org/namespaces/inkscape"
   version="1.1"
   id="Layer_1"
   width="500"
   height="200"
   viewBox="0 0 499.99998 200"
   overflow="visible"
   enable-background="new 0 0 388.584 96.726"
   xml:space="preserve"
   inkscape:version="0.47 r22583"
   sodipodi:docname="Chamilo-Blue.svg"
   style="overflow:visible"><title
   id="title7435">Chamilo | E-Learning &amp; Collaboration Software</title><metadata
   id="metadata2919"><rdf:RDF><cc:Work
       rdf:about=""><dc:format>image/svg+xml</dc:format><dc:type
         rdf:resource="http://purl.org/dc/dcmitype/StillImage" /><dc:title>Chamilo | E-Learning &amp; Collaboration Software</dc:title></cc:Work></rdf:RDF></metadata><defs
   id="defs2917"><linearGradient
   id="linearGradient4060"><stop
     style="stop-color:#2a75c9;stop-opacity:1;"
     offset="0"
     id="stop4062" /><stop
     style="stop-color:#2a75c9;stop-opacity:0.66666669;"
     offset="1"
     id="stop4064" /></linearGradient><linearGradient
   id="linearGradient4038"><stop
     style="stop-color:#2077d9;stop-opacity:1;"
     offset="0"
     id="stop4040" /><stop
     style="stop-color:#2077d9;stop-opacity:0.58823532;"
     offset="1"
     id="stop4042" /></linearGradient><linearGradient
   id="linearGradient4030"><stop
     style="stop-color:#256fc2;stop-opacity:1;"
     offset="0"
     id="stop4032" /><stop
     style="stop-color:#256fc2;stop-opacity:0.58823532;"
     offset="1"
     id="stop4034" /></linearGradient><linearGradient
   id="linearGradient4022"><stop
     style="stop-color:#2a6fc9;stop-opacity:1;"
     offset="0"
     id="stop4024" /><stop
     style="stop-color:#2a75c9;stop-opacity:0.66666669;"
     offset="1"
     id="stop4026" /></linearGradient><linearGradient
   id="linearGradient4014"><stop
     style="stop-color:#2077d9;stop-opacity:1;"
     offset="0"
     id="stop4016" /><stop
     style="stop-color:#2077d9;stop-opacity:0.39215687;"
     offset="1"
     id="stop4018" /></linearGradient><linearGradient
   id="linearGradient4006"><stop
     style="stop-color:#256fc2;stop-opacity:1;"
     offset="0"
     id="stop4008" /><stop
     style="stop-color:#256fc2;stop-opacity:0.58823532;"
     offset="1"
     id="stop4010" /></linearGradient><inkscape:perspective
   sodipodi:type="inkscape:persp3d"
   inkscape:vp_x="0 : 48.362999 : 1"
   inkscape:vp_y="0 : 1000 : 0"
   inkscape:vp_z="388.58401 : 48.362999 : 1"
   inkscape:persp3d-origin="194.29201 : 32.241999 : 1"
   id="perspective2921" />
	
	
	
	

		
		
		
		
		
		
		
		
		
	<inkscape:perspective
   id="perspective3933"
   inkscape:persp3d-origin="0.5 : 0.33333333 : 1"
   inkscape:vp_z="1 : 0.5 : 1"
   inkscape:vp_y="0 : 1000 : 0"
   inkscape:vp_x="0 : 0.5 : 1"
   sodipodi:type="inkscape:persp3d" /><linearGradient
   inkscape:collect="always"
   xlink:href="#linearGradient4006"
   id="linearGradient4012"
   x1="72.431992"
   y1="85.320007"
   x2="119.53532"
   y2="114.71999"
   gradientUnits="userSpaceOnUse" /><linearGradient
   inkscape:collect="always"
   xlink:href="#linearGradient4014"
   id="linearGradient4020"
   x1="108.35599"
   y1="117.13"
   x2="172.75599"
   y2="117.13"
   gradientUnits="userSpaceOnUse" /><linearGradient
   inkscape:collect="always"
   xlink:href="#linearGradient4022"
   id="linearGradient4028"
   x1="82.391991"
   y1="52.284"
   x2="173.256"
   y2="77.321999"
   gradientUnits="userSpaceOnUse" /><linearGradient
   inkscape:collect="always"
   xlink:href="#linearGradient4030"
   id="linearGradient4036"
   x1="71.75666"
   y1="100.69"
   x2="118.19999"
   y2="100.69"
   gradientUnits="userSpaceOnUse" /><linearGradient
   inkscape:collect="always"
   xlink:href="#linearGradient4038"
   id="linearGradient4044"
   x1="127.256"
   y1="94.579994"
   x2="146.55598"
   y2="130.78"
   gradientUnits="userSpaceOnUse" /><linearGradient
   inkscape:collect="always"
   xlink:href="#linearGradient4060"
   id="linearGradient4066"
   x1="91.39199"
   y1="74.803"
   x2="156.85599"
   y2="74.803"
   gradientUnits="userSpaceOnUse" /><inkscape:perspective
   id="perspective6809"
   inkscape:persp3d-origin="0.5 : 0.33333333 : 1"
   inkscape:vp_z="1 : 0.5 : 1"
   inkscape:vp_y="0 : 1000 : 0"
   inkscape:vp_x="0 : 0.5 : 1"
   sodipodi:type="inkscape:persp3d" /><inkscape:perspective
   id="perspective6809-2"
   inkscape:persp3d-origin="0.5 : 0.33333333 : 1"
   inkscape:vp_z="1 : 0.5 : 1"
   inkscape:vp_y="0 : 1000 : 0"
   inkscape:vp_x="0 : 0.5 : 1"
   sodipodi:type="inkscape:persp3d" /><linearGradient
   inkscape:collect="always"
   xlink:href="#linearGradient4022"
   id="linearGradient3825"
   gradientUnits="userSpaceOnUse"
   x1="82.391991"
   y1="52.284"
   x2="173.256"
   y2="77.321999" /><linearGradient
   inkscape:collect="always"
   xlink:href="#linearGradient4006"
   id="linearGradient3827"
   gradientUnits="userSpaceOnUse"
   x1="72.431992"
   y1="85.320007"
   x2="119.53532"
   y2="114.71999" /><linearGradient
   inkscape:collect="always"
   xlink:href="#linearGradient4014"
   id="linearGradient3829"
   gradientUnits="userSpaceOnUse"
   x1="108.35599"
   y1="117.13"
   x2="172.75599"
   y2="117.13" /><linearGradient
   inkscape:collect="always"
   xlink:href="#linearGradient4014"
   id="linearGradient3832"
   gradientUnits="userSpaceOnUse"
   x1="108.35599"
   y1="117.13"
   x2="172.75599"
   y2="117.13" /><linearGradient
   inkscape:collect="always"
   xlink:href="#linearGradient4006"
   id="linearGradient3835"
   gradientUnits="userSpaceOnUse"
   x1="72.431992"
   y1="85.320007"
   x2="119.53532"
   y2="114.71999" /><linearGradient
   inkscape:collect="always"
   xlink:href="#linearGradient4022"
   id="linearGradient3838"
   gradientUnits="userSpaceOnUse"
   x1="82.391991"
   y1="52.284"
   x2="173.256"
   y2="77.321999" /><linearGradient
   inkscape:collect="always"
   xlink:href="#linearGradient4060"
   id="linearGradient3840"
   gradientUnits="userSpaceOnUse"
   x1="91.39199"
   y1="74.803"
   x2="156.85599"
   y2="74.803" /><linearGradient
   inkscape:collect="always"
   xlink:href="#linearGradient4030"
   id="linearGradient3842"
   gradientUnits="userSpaceOnUse"
   x1="71.75666"
   y1="100.69"
   x2="118.19999"
   y2="100.69" /><linearGradient
   inkscape:collect="always"
   xlink:href="#linearGradient4038"
   id="linearGradient3844"
   gradientUnits="userSpaceOnUse"
   x1="127.256"
   y1="94.579994"
   x2="146.55598"
   y2="130.78" /><linearGradient
   inkscape:collect="always"
   xlink:href="#linearGradient4038"
   id="linearGradient3847"
   gradientUnits="userSpaceOnUse"
   x1="127.256"
   y1="94.579994"
   x2="146.55598"
   y2="130.78" /><linearGradient
   inkscape:collect="always"
   xlink:href="#linearGradient4030"
   id="linearGradient3850"
   gradientUnits="userSpaceOnUse"
   x1="71.75666"
   y1="100.69"
   x2="118.19999"
   y2="100.69" /><linearGradient
   inkscape:collect="always"
   xlink:href="#linearGradient4060"
   id="linearGradient3853"
   gradientUnits="userSpaceOnUse"
   x1="91.39199"
   y1="74.803"
   x2="156.85599"
   y2="74.803" /></defs><sodipodi:namedview
   pagecolor="#1e2d51"
   bordercolor="#666666"
   borderopacity="1"
   objecttolerance="10"
   gridtolerance="10"
   guidetolerance="10"
   inkscape:pageopacity="1"
   inkscape:pageshadow="2"
   inkscape:window-width="1680"
   inkscape:window-height="988"
   id="namedview2915"
   showgrid="false"
   inkscape:zoom="2.8284271"
   inkscape:cx="304.80178"
   inkscape:cy="98.520837"
   inkscape:window-x="-8"
   inkscape:window-y="-8"
   inkscape:window-maximized="1"
   inkscape:current-layer="Layer_1"
   showguides="true"
   inkscape:guide-bbox="true" />

<path
   style="fill:#2987c8;fill-opacity:1;fill-rule:evenodd"
   d="m 141.85599,92.08 -21.164,0.942 -21.1,-12.822 21.528,-0.216 20.736,12.096 z"
   id="polygon2823"
   sodipodi:nodetypes="ccccc" /><path
   style="fill:#255cc2;fill-opacity:1;fill-rule:evenodd"
   d="m 111.25599,120.88 -20.304,-13.608 8.64,-27.072 21.10333,12.812 -9.43933,27.868 z"
   id="polygon2849"
   sodipodi:nodetypes="ccccc" /><path
   style="fill:#2092d9;fill-opacity:1;fill-rule:evenodd"
   d="m 132.49599,118.432 -21.24,2.448 9.432,-27.864 21.168,-0.936 z"
   id="polygon2851" /><path
   style="opacity:0.7;fill:url(#linearGradient3853);fill-opacity:1;fill-rule:evenodd"
   d="M 156.85599,83.203148 124.07442,84.622 91.39199,65.309342 124.73737,64.984 156.85599,83.203148 z"
   id="path3982"
   sodipodi:nodetypes="ccccc" /><path
   style="opacity:0.6;fill:url(#linearGradient3850);fill-opacity:1;fill-rule:evenodd"
   d="M 103.46075,132.88 71.75666,111.34403 85.247765,68.5 118.19999,88.776219 103.46075,132.88 z"
   id="path3984"
   sodipodi:nodetypes="ccccc" /><path
   style="opacity:0.4;fill:url(#linearGradient3847);fill-opacity:1;fill-rule:evenodd"
   d="m 143.14893,131.138 -32.69294,3.842 14.51788,-43.731 32.58212,-1.469 z"
   id="path3986" /><path
   sodipodi:nodetypes="ccccc"
   id="path3974"
   d="M 173.25599,77.368495 127.75519,79.322 82.39199,52.731937 128.67536,52.284 173.25599,77.368495 z"
   style="opacity:0.5;fill:url(#linearGradient3838);fill-opacity:1;fill-rule:evenodd" /><path
   sodipodi:nodetypes="ccccc"
   id="path3976"
   d="M 99.31846,145.06 55.83199,115.66298 74.336871,57.18 119.53532,84.857448 99.31846,145.06 z"
   style="opacity:0.4;fill:url(#linearGradient3835);fill-opacity:1;fill-rule:evenodd" /><path
   id="path3978"
   d="M 153.05716,142.8185 108.35599,148.08 128.20635,88.19175 172.75599,86.18 z"
   style="opacity:0.4;fill:url(#linearGradient3832);fill-opacity:1;fill-rule:evenodd" /><path
   style="opacity:0.6;fill:#ffffff;fill-opacity:1;stroke:none"
   d="m 150.14137,95.606539 c 0,0 0.72,-0.36 0.936,-1.584 0,-0.072 0,-0.144 0,-0.216 v -0.216 c -0.072,-1.152 -1.224,-2.52 -2.52,-3.888 -1.512,-1.512 -2.808,-2.232 -2.808,-2.232 0,0 -0.648,-3.024 -3.384,-7.199999 -2.664,-4.176 -7.272,-8.568 -9.792,-7.272 -2.52,1.296 -0.288,4.896 -0.144,5.976 0.216,1.152 1.296,3.024 0.936,3.024 -0.432,-0.072 -5.904,-10.368 -19.584,-7.488 -3.528,0.792 -6.552,2.304 -9,4.248 v 24.048 c 0.864,-0.864 1.224,-1.296 1.224,-1.296 0,0 0.936,4.32 2.664,6.264 1.728,1.944 3.816,3.096 4.464,1.656 0.648,-1.368 -1.368,-7.272 -1.368,-7.272 0,0 3.744,3.6 4.824,4.464 1.08,0.864 3.168,1.944 3.744,0 0.504,-1.944 -1.008,-4.896 -2.232,-5.4 -1.152,-0.504 -1.872,-0.504 -1.872,-0.504 0,0 -0.72,-0.936 -1.08,-1.224 -0.432,-0.288 -0.504,-0.288 -0.504,-0.288 0,0 0.648,-0.36 2.664,-0.288 2.088,0.072 3.744,0.144 3.744,0.144 0,0 1.872,2.736 3.024,3.6 1.08,0.936 3.888,3.168 4.896,4.104 0.936,0.936 1.512,1.368 1.872,0.576 0.288,-0.792 -0.216,-2.88 -1.512,-4.392 -1.368,-1.44 -2.808,-2.232 -3.312,-2.952 -0.432,-0.864 -0.72,-1.512001 -0.72,-1.512001 0,0 2.664,1.944001 3.312,2.592001 0.72,0.576 5.472,3.528 6.264,4.032 0.792,0.576 1.152,0.216 1.152,0.216 0,0 0.576,0.432 0.792,0.144 0.216,-0.288 0.792,-2.232 -0.72,-3.384 -1.584,-1.224 -2.52,-1.8 -2.376,-1.944 0.072,-0.144 1.656,0.36 1.872,-0.072 0.144,-0.36 -0.072,-0.936 -0.288,-1.08 -0.144,-0.216 0.432,-0.648001 0.432,-0.648001 0,0 0.576,0 2.952,0.216 2.376,0.216001 8.352,-1.8 9.576,-2.232 1.224,-0.432 1.872,-0.72 1.872,-0.72 l 0,0 z m -45.36,30.960001 c 4.968,-3.24 5.184,-11.448 2.448,-13.032 -0.792,-0.504 -1.584,-0.864 -2.448,-1.08 v 3.744 c 0.216,0.144 0.432,0.36 0.576,0.72 0.432,0.864 0.216,1.944 0.216,1.944 0,0 -0.072,-1.368 -0.576,-2.088 -0.072,-0.072 -0.144,-0.144 -0.216,-0.216 v 10.008 z m 0,-47.808 c -1.08,0.792 -2.016,1.728 -2.88,2.664 v 23.832 c 0.72,-0.432 1.368,-0.864 1.944,-1.44 0.36,-0.36 0.648,-0.72 0.936,-1.008 v -24.048 l 0,0 z m -2.88,49.032 c 1.08,-0.216 2.088,-0.648 2.88,-1.224 v -10.008 c -0.432,-0.576 -0.792,-0.936 -0.792,-0.936 0,0 0.36,0.144 0.792,0.576 v -3.744 c -0.936,-0.288 -1.944,-0.432 -2.88,-0.216 v 6.264 l 0,0 c 0.216,-0.144 0.576,-0.216 0.432,0.288 -0.072,0.288 -0.288,0.288 -0.432,0.288 l 0,0 v 3.672 c 0.144,0 0.36,0 0.504,-0.072 0,0 -0.144,0.144 -0.504,0.288 v 4.824 z m 0,-46.368 c -5.04,5.327999 -7.272,11.735999 -7.776,13.175999 -0.792,2.232 -5.904,10.296001 -6.336,15.048001 -0.36,4.824 -0.432,16.56 10.512,18.144 1.296,0.216 2.52,0.216 3.6,0 v -4.824 c -1.008,0.288 -3.24,0.576 -5.76,-2.304 -3.384,-3.888 -1.728,-10.224 0.936,-12.384 1.728,-1.44 3.384,-2.232 4.824,-3.024 v -23.832 l 0,0 z m 0,30.816 v 6.264 c -0.216,0.144 -0.36,0.144 -0.504,-0.072 -0.144,0.432 0.144,0.648 0.504,0.648 v 3.672 c -2.304,0.216 -5.472,-1.8 -4.68,-4.968 0.936,-3.6 2.664,-5.184 4.68,-5.544 z"
   id="path6272" /><text
   xml:space="preserve"
   style="font-size:66.82115936px;font-style:normal;font-weight:normal;fill:#8eadd8;fill-opacity:1;stroke:none;font-family:Bitstream Vera Sans"
   x="172.60985"
   y="126.37166"
   id="text2873"
   transform="scale(1.0011526,0.99884873)"><tspan
     sodipodi:role="line"
     x="172.60985"
     y="126.37166"
     style="font-style:normal;font-variant:normal;font-weight:bold;font-stretch:normal;fill:#8eadd8;fill-opacity:1;font-family:Century Gothic;-inkscape-font-specification:Century Gothic Bold"
     id="tspan2881">Chamilo</tspan></text>
<text
   xml:space="preserve"
   style="font-size:16.83873367px;font-style:normal;font-weight:normal;fill:#000000;fill-opacity:1;stroke:none;font-family:Bitstream Vera Sans"
   x="180.686"
   y="142.48985"
   id="text3657"
   transform="scale(0.98506019,1.0151664)"><tspan
     sodipodi:role="line"
     id="tspan3659"
     x="180.686"
     y="142.48985"
     style="font-style:normal;font-variant:normal;font-weight:normal;font-stretch:normal;fill:#ffffff;font-family:AvantGarde Bk BT;-inkscape-font-specification:AvantGarde Bk BT">E-Learning &amp; Collaboration Software</tspan></text>
</svg>