/* XPM */
static char * overlay_symlink_xpm[] = {
"9 9 49 1",
" 	c None",
".	c #73756F",
"+	c #747670",
"@	c #F6F6F6",
"#	c #F0F0EF",
"$	c #F3F3F3",
"%	c #F2F2F2",
"&	c #F5F5F5",
"*	c #F0F0F0",
"=	c #D9D9D9",
"-	c #E3E3E3",
";	c #E4E3E4",
">	c #DFDFDF",
",	c #DEDEDE",
"'	c #DCDCDC",
")	c #EEEEEE",
"!	c #D8D8D8",
"~	c #C0C0BE",
"{	c #B2B3B1",
"]	c #D8D8D7",
"^	c #D9DAD9",
"/	c #D7D7D7",
"(	c #F0F1F0",
"_	c #D6D7D6",
":	c #F5F4F5",
"<	c #B6B7B4",
"[	c #ABACA9",
"}	c #A0A19D",
"|	c #DFDFDE",
"1	c #737670",
"2	c #F4F4F4",
"3	c #E7E8E8",
"4	c #F1F1F1",
"5	c #EAEBEA",
"6	c #A6A7A4",
"7	c #A4A5A2",
"8	c #E2E2E2",
"9	c #EDEDED",
"0	c #E8E8E8",
"a	c #B5B5B3",
"b	c #BEBEBC",
"c	c #B6B7B5",
"d	c #E9E8E8",
"e	c #EBEBEB",
"f	c #FFFFFF",
"g	c #F1F1F0",
"h	c #F7F7F7",
"i	c #F1F2F1",
"j	c #EBEBEA",
" .++++++.",
".@#$$$$%&",
"+*=-;>,')",
"+$!~{]^/(",
"+&_:<[}|*",
"123456789",
"1&0$abcde",
"120$fff$e",
".@g@h@&ij"};
